<svg id="icon_twt" xmlns="http://www.w3.org/2000/svg" xmlns:xlink="http://www.w3.org/1999/xlink" viewBox="0 0 32 32">
  <defs>
    <style>
      .cls-1 {
        fill-rule: evenodd;
        fill: url(#linear-gradient);
      }
    </style>
    <linearGradient id="linear-gradient" x1="0.148" y1="0.185" x2="0.868" y2="0.85" gradientUnits="objectBoundingBox">
      <stop offset="0" stop-color="#fcec94"/>
      <stop offset="0.169" stop-color="#f0c46c"/>
      <stop offset="0.502" stop-color="#fffabd"/>
      <stop offset="0.82" stop-color="#f0c46c"/>
      <stop offset="1" stop-color="#fce79a"/>
    </linearGradient>
  </defs>
  <path id="Path_41" data-name="Path 41" class="cls-1" d="M16,0A16,16,0,1,0,32,16,16.017,16.017,0,0,0,16,0Zm7.138,12.336c.008.162.012.319.012.481A10.473,10.473,0,0,1,7.024,21.638a7.21,7.21,0,0,0,.879.051,7.386,7.386,0,0,0,4.576-1.577,3.681,3.681,0,0,1-3.441-2.558,3.622,3.622,0,0,0,.69.067A3.767,3.767,0,0,0,10.7,17.5a3.686,3.686,0,0,1-2.956-3.61.192.192,0,0,1,0-.047,3.6,3.6,0,0,0,1.667.457A3.688,3.688,0,0,1,8.273,9.38a10.483,10.483,0,0,0,7.591,3.851,3.685,3.685,0,0,1,6.275-3.362,7.324,7.324,0,0,0,2.341-.895,3.668,3.668,0,0,1-1.624,2.038,7.162,7.162,0,0,0,2.117-.579,7.4,7.4,0,0,1-1.837,1.9Z" transform="translate(0 0)"/>
</svg>
