<svg id="icon_inst" xmlns="http://www.w3.org/2000/svg" xmlns:xlink="http://www.w3.org/1999/xlink" viewBox="0 0 32 32">
  <defs>
    <style>
      .cls-1 {
        fill-rule: evenodd;
        fill: url(#linear-gradient);
      }
    </style>
    <linearGradient id="linear-gradient" x1="0.147" y1="0.185" x2="0.868" y2="0.85" gradientUnits="objectBoundingBox">
      <stop offset="0" stop-color="#fcec94"/>
      <stop offset="0.169" stop-color="#f0c46c"/>
      <stop offset="0.502" stop-color="#fffabd"/>
      <stop offset="0.82" stop-color="#f0c46c"/>
      <stop offset="1" stop-color="#fce79a"/>
    </linearGradient>
  </defs>
  <path id="Path_39" data-name="Path 39" class="cls-1" d="M16,32A15.987,15.987,0,0,1,4.689,4.689,16,16,0,0,1,32,16,16.008,16.008,0,0,1,16,32ZM12.208,7.831A4.532,4.532,0,0,0,7.672,12.36v7.352a4.536,4.536,0,0,0,4.536,4.529H19.56a4.535,4.535,0,0,0,4.529-4.529V12.36A4.53,4.53,0,0,0,19.56,7.831ZM15.88,20.264a4.231,4.231,0,1,1,4.231-4.231A4.236,4.236,0,0,1,15.88,20.264Zm4.406-7.555a1.091,1.091,0,0,1-1.067-1.074,1.078,1.078,0,0,1,1.067-1.067,1.108,1.108,0,0,1,.762.312,1.091,1.091,0,0,1,.312.755,1.078,1.078,0,0,1-1.074,1.074Z" transform="translate(0 0)"/>
</svg>
