<svg id="icon_ok" xmlns="http://www.w3.org/2000/svg" xmlns:xlink="http://www.w3.org/1999/xlink" viewBox="0 0 32 32">
  <defs>
    <style>
      .cls-1 {
        fill-rule: evenodd;
        fill: url(#linear-gradient);
      }
    </style>
    <linearGradient id="linear-gradient" x1="0.147" y1="0.185" x2="0.867" y2="0.85" gradientUnits="objectBoundingBox">
      <stop offset="0" stop-color="#fcec94"/>
      <stop offset="0.169" stop-color="#f0c46c"/>
      <stop offset="0.502" stop-color="#fffabd"/>
      <stop offset="0.82" stop-color="#f0c46c"/>
      <stop offset="1" stop-color="#fce79a"/>
    </linearGradient>
  </defs>
  <path id="Path_40" data-name="Path 40" class="cls-1" d="M16,0A16,16,0,1,0,32,16,16,16,0,0,0,16,0Zm.013,13.738a2.279,2.279,0,1,0-2.292-2.258,2.27,2.27,0,0,0,2.292,2.258ZM16.017,6.8a4.655,4.655,0,1,1-4.672,4.645A4.653,4.653,0,0,1,16.017,6.8Zm5.218,11.136a5.687,5.687,0,0,1-2.016,1.308,9.668,9.668,0,0,1-2.292.512c.121.128.175.189.249.263,1.058,1.065,2.123,2.123,3.175,3.189a1.042,1.042,0,0,1,.236,1.24,1.251,1.251,0,0,1-1.173.735,1.157,1.157,0,0,1-.748-.384c-.8-.8-1.611-1.591-2.393-2.413-.229-.236-.337-.189-.539.013q-1.2,1.244-2.44,2.454a1.028,1.028,0,0,1-1.24.222,1.264,1.264,0,0,1-.721-1.153,1.167,1.167,0,0,1,.391-.768c1.045-1.052,2.09-2.1,3.135-3.148.074-.067.135-.142.236-.249A7.121,7.121,0,0,1,11.285,18.4a3.916,3.916,0,0,1-.4-.33,1.142,1.142,0,0,1,1.294-1.861,2.134,2.134,0,0,1,.317.182,6.236,6.236,0,0,0,6.923.067A1.983,1.983,0,0,1,20.1,16.1a1.049,1.049,0,0,1,1.207.485A1.021,1.021,0,0,1,21.234,17.938Z" transform="translate(0 0)"/>
</svg>
