<svg id="icon_vk" xmlns="http://www.w3.org/2000/svg" xmlns:xlink="http://www.w3.org/1999/xlink" viewBox="0 0 32 32">
  <defs>
    <style>
      .cls-1 {
        fill-rule: evenodd;
        fill: url(#linear-gradient);
      }
    </style>
    <linearGradient id="linear-gradient" x1="0.148" y1="0.185" x2="0.868" y2="0.85" gradientUnits="objectBoundingBox">
      <stop offset="0" stop-color="#fcec94"/>
      <stop offset="0.169" stop-color="#f0c46c"/>
      <stop offset="0.502" stop-color="#fffabd"/>
      <stop offset="0.82" stop-color="#f0c46c"/>
      <stop offset="1" stop-color="#fce79a"/>
    </linearGradient>
  </defs>
  <path id="Path_42" data-name="Path 42" class="cls-1" d="M16,32A16,16,0,0,1,9.773,1.257a16,16,0,0,1,17.54,26.057A15.958,15.958,0,0,1,16,32Zm1.85-13.389a.718.718,0,0,1,.41.165,3.13,3.13,0,0,1,.575.544c.178.214.388.45.642.727a4.15,4.15,0,0,0,.66.6l.187.116a2.254,2.254,0,0,0,.49.205,1.17,1.17,0,0,0,.37.062.884.884,0,0,0,.156-.013l2.408-.04a1.14,1.14,0,0,0,.557-.116.45.45,0,0,0,.232-.259.7.7,0,0,0,0-.321,1.316,1.316,0,0,0-.062-.25c-.022-.045-.045-.085-.062-.116a9.423,9.423,0,0,0-1.8-2.078l-.018-.018-.009-.013-.013-.009h-.009a9.546,9.546,0,0,1-.758-.771.721.721,0,0,1-.134-.762,7.145,7.145,0,0,1,.847-1.231c.232-.3.446-.575.611-.8C24.22,12.8,24.7,11.869,24.55,11.472l-.054-.094a.558.558,0,0,0-.294-.156,1.172,1.172,0,0,0-.325-.045,2.091,2.091,0,0,0-.276.022l-2.706.018a.185.185,0,0,0-.071-.013.614.614,0,0,0-.116.018c-.071.018-.111.022-.12.027l-.049.022-.04.031a.4.4,0,0,0-.1.1.726.726,0,0,0-.094.165,15.436,15.436,0,0,1-1.008,2.113c-.232.392-.446.731-.638,1.012a4.739,4.739,0,0,1-.49.633,3.546,3.546,0,0,1-.357.321.416.416,0,0,1-.218.107h-.027c-.049-.013-.107-.027-.161-.04a.623.623,0,0,1-.21-.232,1.011,1.011,0,0,1-.107-.366,3.336,3.336,0,0,1-.036-.379c0-.107,0-.259,0-.455s.009-.321.009-.392c0-.236,0-.5.013-.776l.009-.174v-.062c.009-.169.013-.312.018-.428,0-.165.009-.339.009-.517a2.159,2.159,0,0,0-.036-.428,1.3,1.3,0,0,0-.1-.3.481.481,0,0,0-.192-.227,1.114,1.114,0,0,0-.312-.129,6.5,6.5,0,0,0-1.271-.12h-.245a5.545,5.545,0,0,0-2.006.227,1.24,1.24,0,0,0-.357.281c-.076.094-.107.161-.094.2a.06.06,0,0,0,.049.031,1.153,1.153,0,0,1,.8.4l.058.116a1.584,1.584,0,0,1,.129.432,4.378,4.378,0,0,1,.085.687,7.3,7.3,0,0,1,0,1.173c-.031.339-.062.584-.089.762a1.5,1.5,0,0,1-.125.441,1.46,1.46,0,0,1-.116.21.105.105,0,0,1-.045.045.734.734,0,0,1-.254.049.589.589,0,0,1-.321-.134,2.18,2.18,0,0,1-.388-.361,5.006,5.006,0,0,1-.459-.642c-.169-.276-.343-.606-.526-.981l-.152-.272c-.094-.178-.223-.437-.383-.767s-.312-.669-.432-.972a.611.611,0,0,0-.227-.3l-.045-.027a.513.513,0,0,0-.152-.08,1.083,1.083,0,0,0-.214-.062L7.112,11.2a.655.655,0,0,0-.535.183l-.036.054a.321.321,0,0,0-.031.152.836.836,0,0,0,.058.254c.375.874.785,1.734,1.226,2.559s.829,1.485,1.155,1.984.66.976.994,1.418.566.731.673.856.2.218.259.285l.236.223a5.281,5.281,0,0,0,.664.539,10.411,10.411,0,0,0,.968.624,5.211,5.211,0,0,0,1.235.495,4.4,4.4,0,0,0,1.155.165c.076,0,.147,0,.218-.009h1.083a.759.759,0,0,0,.5-.205l.036-.049a.55.55,0,0,0,.071-.174.935.935,0,0,0,.031-.259,3.371,3.371,0,0,1,.062-.727,1.962,1.962,0,0,1,.161-.49,1.337,1.337,0,0,1,.2-.276.947.947,0,0,1,.161-.138c.027-.013.054-.022.076-.031a.375.375,0,0,1,.12-.018Z" transform="translate(0 0)"/>
</svg>
