<svg xmlns="http://www.w3.org/2000/svg" xmlns:xlink="http://www.w3.org/1999/xlink" viewBox="0 0 80.005 80">
  <defs>
    <style>
      .cls-1 {
        fill-rule: evenodd;
        fill: url(#linear-gradient);
      }
    </style>
    <linearGradient id="linear-gradient" x1="0.147" y1="0.185" x2="0.868" y2="0.85" gradientUnits="objectBoundingBox">
      <stop offset="0" stop-color="#fcec94"/>
      <stop offset="0.169" stop-color="#f0c46c"/>
      <stop offset="0.502" stop-color="#fffabd"/>
      <stop offset="0.82" stop-color="#f0c46c"/>
      <stop offset="1" stop-color="#fce79a"/>
    </linearGradient>
  </defs>
  <path id="Path_1326" data-name="Path 1326" class="cls-1" d="M40,0A40,40,0,1,1,24.43,76.862,39.977,39.977,0,0,1,0,39.992,39.952,39.952,0,0,1,40,0h0ZM51.6,29.023V21.705H25.363V55.25H27.2V23.539H46.11L51.6,29.023ZM45.753,24.75H28.425V58.295H54.658V33.653ZM33.91,32.068H40a.606.606,0,1,1,0,1.212H33.91a.607.607,0,0,1-.606-.606A.6.6,0,0,1,33.91,32.068ZM49.156,52.81H33.91A.607.607,0,0,1,33.3,52.2a.6.6,0,0,1,.606-.606H49.156a.606.606,0,1,1,0,1.212Zm0-4.879H33.91a.607.607,0,0,1-.606-.606.6.6,0,0,1,.606-.606H49.156a.607.607,0,0,1,.606.606A.6.6,0,0,1,49.156,47.932Zm0-4.879H33.91a.606.606,0,1,1,0-1.212H49.156a.607.607,0,0,1,.606.606A.6.6,0,0,1,49.156,43.053Zm0-4.879H33.91a.607.607,0,0,1-.606-.606.6.6,0,0,1,.606-.606H49.156a.606.606,0,1,1,0,1.212Zm-4.274-3.651V25.978l8.548,8.545ZM40,76.364A36.357,36.357,0,1,0,3.637,40.008,36.408,36.408,0,0,0,40,76.364Z" transform="translate(0 0)"/>
</svg>
