<svg xmlns="http://www.w3.org/2000/svg" xmlns:xlink="http://www.w3.org/1999/xlink" viewBox="0 0 347.79 320.229">
  <defs>
    <style>
      .cls-1 {
        fill: none;
      }

      .cls-2 {
        fill-rule: evenodd;
        fill: url(#linear-gradient);
      }
    </style>
    <linearGradient id="linear-gradient" x1="0.155" y1="0.195" x2="0.869" y2="0.85" gradientUnits="objectBoundingBox">
      <stop offset="0" stop-color="#fcec94"/>
      <stop offset="0.169" stop-color="#f0c46c"/>
      <stop offset="0.502" stop-color="#fffabd"/>
      <stop offset="0.82" stop-color="#f0c46c"/>
      <stop offset="1" stop-color="#fce79a"/>
    </linearGradient>
  </defs>
  <g id="производство" transform="translate(0 0.01)">
    <rect id="Rectangle_2674" data-name="Rectangle 2674" width="347.79" height="320.229" transform="translate(0 -0.01)"/>
    <path id="Path_1362" data-name="Path 1362" class="cls-2" d="M380.3,606.932h94.651v15.431H380.3ZM267.131,505.559h83.861v54.729H267.131ZM319.948,395.5a5.243,5.243,0,1,1-5.788-7.584,5.628,5.628,0,0,1,.185-1.265,4.952,4.952,0,0,1,5.982-7.263,4.384,4.384,0,0,1,1.839-2.082,5.533,5.533,0,1,1,7.94,7.061,5.537,5.537,0,0,1-1.461,4.681,5.534,5.534,0,0,1-8.7,6.451Zm-27.793,35.16a3.663,3.663,0,1,1-4.043-5.3,3.92,3.92,0,0,1,.129-.884,3.46,3.46,0,0,1,4.179-5.074,3.054,3.054,0,0,1,1.284-1.453,4.99,4.99,0,0,1,4.528,8.2,3.867,3.867,0,0,1-6.076,4.506Zm49.5-10.866a3.663,3.663,0,1,1-4.044-5.3,3.962,3.962,0,0,1,.129-.884,3.422,3.422,0,0,1-.537-1.851,3.46,3.46,0,0,1,4.716-3.223,3.054,3.054,0,0,1,1.284-1.453,4.99,4.99,0,0,1,4.528,8.2,3.867,3.867,0,0,1-6.076,4.506Zm4.038,85.068H272.427v-9.017h73.267Zm-6.257-9.8H323.7l2.284-43.349h11.673Zm-45.052-44.833a.915.915,0,0,1-.915.915H280.422a.915.915,0,1,1,0-1.83H293.47A.915.915,0,0,1,294.385,450.229Zm44.865,0a.916.916,0,0,1-.916.915H325.286a.915.915,0,1,1,0-1.83h13.047a.916.916,0,0,1,.917.915Zm-22.89,0a.915.915,0,0,1-.915.915H302.4a.915.915,0,1,1,0-1.83h13.047A.915.915,0,0,1,316.359,450.229Zm-21.942,44.833H278.684l2.284-43.349h11.673Zm22.069,0H300.753l2.284-43.349h11.673ZM305.53,517.034h-30.9v-5.3h30.9Zm37.958,0h-30.9v-5.3h30.9Zm-37.958,9.711h-30.9v-5.3h30.9Zm37.958,0h-30.9v-5.3h30.9Zm-37.958,9.711h-30.9v-5.3h30.9Zm37.958,0h-30.9v-5.3h30.9Zm-37.958,9.711h-30.9v-5.3h30.9Zm37.958,0h-30.9v-5.3h30.9Zm-37.958,9.708h-30.9v-5.3h30.9Zm37.958,0h-30.9v-5.3h30.9ZM465.31,498.756a5.208,5.208,0,1,1-5.747-7.532,5.455,5.455,0,0,1,.183-1.255,4.919,4.919,0,0,1,5.941-7.216,4.344,4.344,0,0,1,1.827-2.069A5.5,5.5,0,1,1,475.4,487.7a5.5,5.5,0,0,1-1.453,4.655,5.5,5.5,0,0,1-8.637,6.4Zm-5.981-60.637a8.114,8.114,0,0,1-3.309,4.07,8.159,8.159,0,0,1-2.152,6.9,8.157,8.157,0,0,1-12.814,9.505,7.727,7.727,0,1,1-8.526-11.178,8.078,8.078,0,0,1,.271-1.862,7.3,7.3,0,0,1,8.814-10.7,6.457,6.457,0,0,1,2.708-3.068,8.153,8.153,0,0,1,15.008,6.334ZM416.19,483.956a5.172,5.172,0,0,1-2.109,2.592,5.2,5.2,0,0,1-1.371,4.4A5.2,5.2,0,0,1,404.545,497a4.923,4.923,0,1,1-5.432-7.12,5.189,5.189,0,0,1,.173-1.185,4.65,4.65,0,0,1,5.615-6.82,4.116,4.116,0,0,1,1.725-1.954,5.195,5.195,0,0,1,9.562,4.036ZM209.232,464.282a5.956,5.956,0,1,1-6.574-8.614,6.335,6.335,0,0,1,.208-1.437,5.625,5.625,0,0,1,6.794-8.25,4.983,4.983,0,0,1,2.088-2.364,6.285,6.285,0,1,1,9.018,8.02,6.285,6.285,0,0,1-1.658,5.321,6.286,6.286,0,0,1-9.877,7.325Zm19.932,20.624a3.912,3.912,0,1,1-4.317-5.659,4.172,4.172,0,0,1,.138-.942,3.7,3.7,0,0,1,4.462-5.421,3.261,3.261,0,0,1,1.371-1.551,5.327,5.327,0,0,1,4.833,8.761,4.128,4.128,0,0,1-6.487,4.811Zm-26.839,60.1H186.8l2.253-41.3h11.516l1.752,41.3Zm25.27,0H212.071l2.254-41.3h11.516ZM449.44,586.326H460.02l-1.535-54.63h-7.849Zm.133-57.981a1.851,1.851,0,0,0,1.851,1.851h6.613a1.85,1.85,0,0,0,0-3.7h-6.613a1.85,1.85,0,0,0-1.851,1.849Zm-54.607,58.06h10.579l-1.535-54.754h-7.85l-1.194,54.754Zm-.2-58.06a1.852,1.852,0,0,0,1.851,1.851h6.611a1.85,1.85,0,1,0,0-3.7h-6.611A1.85,1.85,0,0,0,394.767,528.346Zm28.26,58.044H433.6l-1.535-54.708h-7.848Zm.034-58.044a1.851,1.851,0,0,0,1.851,1.851h6.611a1.85,1.85,0,1,0,0-3.7h-6.611A1.85,1.85,0,0,0,423.061,528.346Zm-32.3,77.062h18.753l-2.722-16.859H392.876l-2.117,16.859Zm28.059,0h18.755l-2.722-16.859H420.936Zm27.008,0h18.753l-2.722-16.859H447.943ZM178.145,546.22h61.38v76.145h-61.38Zm305.224,77.839H165.53V645.42H483.369ZM178.917,638.626h42.127v-6.8H178.917Zm49.784,0h42.128v-6.8H228.7Zm49.785,0h42.128v-6.8H278.486Zm49.785,0H370.4v-6.8H328.271Zm49.784,0h42.128v-6.8H378.054Zm49.786,0h42.126v-6.8H427.84ZM241.253,561.654H378.391v60.711H241.253V561.654ZM363.436,612.7h-8.267v-38.57h8.267Zm-98.96-.2h-8.267v-38.57h8.267Zm12.58,0H268.79v-38.57h8.265Zm12.148,0h-8.267v-38.57H289.2Zm12.386.1h-8.267v-38.57h8.267Zm12.581,0H305.9v-38.57h8.267Zm12.148,0h-8.267v-38.57h8.267Zm12.385.1h-8.265v-38.57H338.7Zm12.581,0h-8.267v-38.57h8.267Zm-145.257.195H186.563v-7.456h19.466Zm23.763-41H210.327v-7.456h19.465Zm0-10.252H210.327v-7.456h19.465Zm-23.763,0H186.563v-7.456h19.466Zm0,10.252H186.563v-7.456h19.466Zm0,10.251H186.563V574.69h19.466Zm23.763,0H210.327V574.69h19.465Zm0,10.251H210.327v-7.456h19.465Zm-23.763,0H186.563v-7.456h19.466Zm0,10.251H186.563v-7.456h19.466Zm23.763,0H210.327v-7.456h19.465Zm0,10.251H210.327v-7.456h19.465Z" transform="translate(-153.423 -346.792)"/>
  </g>
</svg>
