<svg xmlns="http://www.w3.org/2000/svg" xmlns:xlink="http://www.w3.org/1999/xlink" viewBox="0 0 347.79 320.229">
  <defs>
    <style>
      .cls-1 {
        fill: none;
      }

      .cls-2 {
        fill-rule: evenodd;
        fill: url(#linear-gradient);
      }
    </style>
    <linearGradient id="linear-gradient" x1="0.147" y1="0.185" x2="0.868" y2="0.85" gradientUnits="objectBoundingBox">
      <stop offset="0" stop-color="#fcec94"/>
      <stop offset="0.169" stop-color="#f0c46c"/>
      <stop offset="0.502" stop-color="#fffabd"/>
      <stop offset="0.82" stop-color="#f0c46c"/>
      <stop offset="1" stop-color="#fce79a"/>
    </linearGradient>
  </defs>
  <g id="УК" transform="translate(0 0.01)">
    <rect id="Rectangle_2707" data-name="Rectangle 2707" width="347.79" height="320.229" transform="translate(0 -0.01)"/>
    <path id="Path_1381" data-name="Path 1381" class="cls-2" d="M582.945,91.06a7.754,7.754,0,1,1-5.478,2.272,7.738,7.738,0,0,1,5.478-2.272Zm6.414,166.6h49.334v2.29H589.359Zm0-3.3h49.334v2.29H589.359Zm0,9.817h49.334v2.289H589.359Zm0-3.3h49.334v2.29H589.359Zm0,13.045h24.283v7.394H589.359Zm37.681,5.632H614.4v1.11H627.04Zm11.636-1.906H614.4v1.111h24.281Zm2.714,6.489H586.971V252.027H641.39Zm-52.032-13H601.14v1.463H589.358Zm0-3.607h49.334v2.289H589.358Zm49.334,5.07h-11.78v-1.463h11.78Zm-24.3,0v-1.463h11.781v1.463Zm24.281,2.352H614.4v-1.111h24.281Zm0,1.9H614.4v-1.107h24.281Zm-25.019-4.256h-11.78v-1.463h11.78ZM644.9,288.819H583.578a1.622,1.622,0,0,0-1.112.456l-6.178,5.81c-1.28,1.2-.541,3.581,1.11,3.581h73.679c1.651,0,2.39-2.382,1.11-3.581l-6.179-5.81A1.618,1.618,0,0,0,644.9,288.819ZM584.7,248.209a1.755,1.755,0,0,0-1.753,1.758v36.339a1.754,1.754,0,0,0,1.753,1.756h59.062a1.756,1.756,0,0,0,1.756-1.756V249.966a1.757,1.757,0,0,0-1.756-1.758ZM570.365,37.074a.855.855,0,0,1-.385-1.617q2.279-1.163,4.617-2.235a.855.855,0,0,1,.714,1.554q-2.3,1.059-4.555,2.205a.866.866,0,0,1-.39.093Zm-1.424,227.169a2.888,2.888,0,1,0,2.888,2.888A2.892,2.892,0,0,0,568.941,264.243Zm0,7.373a4.486,4.486,0,1,1,4.485-4.485A4.491,4.491,0,0,1,568.941,271.616Zm-36.077-30.139a2.89,2.89,0,1,0,2.891,2.888A2.893,2.893,0,0,0,532.865,241.477ZM475.52,215.331v34.885h-.47v2.01h51.056v-2.01h-.471V215.331h.471v-2.01H475.05v2.01Zm49.244,0v34.885H476.39V215.331Zm8.1,33.519a4.484,4.484,0,1,1,4.485-4.485A4.491,4.491,0,0,1,532.865,248.85ZM505.079,201.3a2.89,2.89,0,1,0,2.888,2.893A2.894,2.894,0,0,0,505.079,201.3Zm0,7.374a4.484,4.484,0,1,1,4.483-4.481A4.49,4.49,0,0,1,505.079,208.676Zm-6.674-97.6a2.891,2.891,0,1,0,2.891,2.891A2.894,2.894,0,0,0,498.4,111.074Zm0,7.376a4.485,4.485,0,1,1,4.486-4.486A4.492,4.492,0,0,1,498.4,118.45Zm32.841-59.215a2.89,2.89,0,1,0,2.891,2.891,2.892,2.892,0,0,0-2.891-2.891Zm0,7.374a4.484,4.484,0,1,1,4.486-4.483A4.489,4.489,0,0,1,531.246,66.609ZM582.7,28.076a2.891,2.891,0,1,0,2.891,2.888A2.892,2.892,0,0,0,582.7,28.076Zm0,7.374a4.485,4.485,0,1,1,4.485-4.486A4.491,4.491,0,0,1,582.7,35.45Zm70.753-6.061a2.89,2.89,0,1,0,2.888,2.889A2.892,2.892,0,0,0,653.454,29.389Zm0,7.374a4.485,4.485,0,1,1,4.484-4.485A4.49,4.49,0,0,1,653.454,36.764Zm38.007,11.753A2.89,2.89,0,1,0,694.35,51.4,2.891,2.891,0,0,0,691.461,48.516Zm0,7.374a4.485,4.485,0,1,1,4.486-4.486A4.491,4.491,0,0,1,691.461,55.891Zm48.318,65.4a2.89,2.89,0,1,0,2.891,2.891A2.894,2.894,0,0,0,739.779,121.287Zm0,7.374a4.484,4.484,0,1,1,4.485-4.483A4.49,4.49,0,0,1,739.779,128.662Zm1.1,42.849a2.89,2.89,0,1,0,2.889,2.891A2.894,2.894,0,0,0,740.877,171.511Zm0,7.374a4.485,4.485,0,1,1,4.484-4.483A4.488,4.488,0,0,1,740.877,178.885Zm-40.087,63.49a2.89,2.89,0,1,0,2.891,2.891A2.892,2.892,0,0,0,700.79,242.375Zm0,7.376a4.485,4.485,0,1,1,4.487-4.485A4.489,4.489,0,0,1,700.79,249.751Zm-42.079,17.922a2.889,2.889,0,1,0,2.891,2.889A2.892,2.892,0,0,0,658.711,267.672Zm0,7.373a4.484,4.484,0,1,1,4.486-4.484A4.489,4.489,0,0,1,658.711,275.045Zm6.415-238.21a.868.868,0,0,1-.322-.062q-2.352-.957-4.748-1.818a.857.857,0,0,1,.578-1.614q2.43.877,4.817,1.845a.855.855,0,0,1-.326,1.647Zm-68.159.336h40.67V36.077h-40.67ZM519.277,97.34a.647.647,0,0,1-.647.649h-4.836a.647.647,0,0,1-.647-.649v-.624a.645.645,0,0,1,.647-.647h4.836a.645.645,0,0,1,.647.647Zm219.077,12.621H723.9l1.211-10.2h13.739Zm-40.919.334,2.019-12.881h24.54l-1.682,12.881H697.435Zm14.689-17.771H699.686l-1.575-11.9h12.434Zm15.86-2.977H713.548l-.326-1.923h14.435Zm-15.09-4.125-.232-1.732h22.517l.235,1.732h-22.52Zm-16.045-6.453-.374-1.859h39.333l.5,1.859ZM695.635,73.5h39.542l.375,1.8H696.01l-.375-1.8ZM698,64.411h37.18l-.838,5.656H697.16Zm39.682,9L739.41,61.2H695.282l-1.73,11.674,3.836,24.4-2.106,14.841h45.61l.624-15.122L737.68,73.406ZM497.312,85.062h20.114v.082l-1.521,1.8-.527,1.718-2.728-.8-.951,1.3-1.671-1.111-1.477.68-2.915-.966-1.995,2.659-1.085-.763-.979,1.039-1.862-.753L497.4,91.9h-.084V85.06Zm-.9,7.739h21.909V84.166H496.413ZM516.677,60.53H506.292V59.8h10.385ZM514.6,69.552l-1.286,6.8-3.561-1.583-3.394,3.414L503.2,75.642,499,80.281l-.666-.6,4.771-5.265,3.193,2.563,3.259-3.279,3.09,1.372,1.069-5.641-2.036-.287,2.893-2.46,2.105,3.163-2.074-.29Zm-15.568-5.186a2.821,2.821,0,0,1,2.4-2.932l0-1.632,1.537,0,0,1.6a3.938,3.938,0,0,1,2.36,1.294l-1.169,1.33a2.426,2.426,0,0,0-1.724-.787c-.761,0-1.171.3-1.169,1.014,0,1.5,4.179,1.368,4.185,4.39a2.927,2.927,0,0,1-2.462,3.043l0,1.644h-1.535l0-1.579a5.25,5.25,0,0,1-2.789-1.2l1.01-1.567a3.763,3.763,0,0,0,2.265.911c.885,0,1.281-.364,1.281-1.095,0-1.628-4.181-1.587-4.185-4.435Zm7.257-1.931h8.624v.726h-8.624Zm0-1.346h6.732v.729h-6.732Zm11.579-2.768H496.863V82.933h21.008Zm-7.245,40.424a1.366,1.366,0,0,1-1.364,1.366h-3.686a1.365,1.365,0,0,1-1.364-1.366V97.434a1.364,1.364,0,0,1,1.364-1.364h3.686a1.364,1.364,0,0,1,1.364,1.364Zm-8.9-1.406a.649.649,0,0,1-.647.649h-4.838a.649.649,0,0,1-.647-.649v-.624a.648.648,0,0,1,.647-.647h4.838a.647.647,0,0,1,.647.647ZM495.6,56.877h23.538v37.98H495.6Zm2.172-3.284h11.717v.66H497.771Zm15.253,0h4.456v.66h-4.456Zm4.552-2.984H497.261a3.7,3.7,0,0,0-3.7,3.7V99.021a3.7,3.7,0,0,0,3.7,3.7h20.316a3.7,3.7,0,0,0,3.7-3.7V54.306A3.7,3.7,0,0,0,517.577,50.609Zm-18.94,183.086h-6.565l1.03-1.391H490.24v4.4l1.535,2.074h7.683l1.805-2.437,1.807,2.437h7.611l1.539-2.076V232.3h-2.789l1.03,1.391H503.9l1.03-1.391h-7.32l1.03,1.391Zm2.608,28.167a1.843,1.843,0,1,1,1.842-1.843A1.843,1.843,0,0,1,501.245,261.862Zm.309-4.442V253.6h3.277v-1.369h-7.172V253.6h3.276v3.823a2.632,2.632,0,1,0,.619,0Zm-.286-40.6a5.677,5.677,0,0,1,.263,11.347v3.6h3.792l1.856-2.505,1.856,2.505h3.72V236.7l1.537,2.077h3.845v5.587l3.016,4.068h-6.565l3.014-4.07v-5.052h-2.913l1.081,1.459H509.2l1.082-1.459h-3.108v5.054l3.014,4.068h-6.565l3.016-4.07v-5.052h-3.18l1.082,1.459H497.98l1.081-1.459h-3.71v5.053l3.016,4.068H491.8l3.014-4.07v-5.052h-2.646l1.081,1.459h-6.565l1.082-1.459h-3.2v5.053l3.016,4.068h-6.565l3.016-4.07v-5.587h4.131l1.54-2.077v-4.929H493.5l1.856-2.505,1.856,2.505H501v-3.6a5.677,5.677,0,0,1,.271-11.347Zm.987,4.288a1.139,1.139,0,0,0-.807-.368c-.353,0-.544.14-.544.473,0,.7,1.95.644,1.95,2.054a1.367,1.367,0,0,1-1.155,1.42v.767h-.716v-.739a2.45,2.45,0,0,1-1.3-.559l.473-.732a1.76,1.76,0,0,0,1.059.428c.412,0,.6-.171.6-.511,0-.76-1.951-.746-1.951-2.076a1.322,1.322,0,0,1,1.123-1.368v-.761h.716v.748a1.816,1.816,0,0,1,1.1.6l-.546.619Zm-.987-3.129a4.517,4.517,0,1,1-4.517,4.517A4.517,4.517,0,0,1,501.267,217.976Zm201.325-12a1.1,1.1,0,0,0,.073.175,1.113,1.113,0,0,0,.066.1,1.3,1.3,0,0,0,.105.151.906.906,0,0,0,.1.108,1.917,1.917,0,0,0,.137.146l.132.109c.056.044.109.091.167.135s.107.075.163.112.129.087.2.132.124.075.189.109.151.084.231.127l.22.112c.086.039.171.079.262.119s.167.075.252.109.189.08.287.118.184.073.28.107.207.078.317.115l.3.109c.111.034.225.069.339.107s.221.071.338.1.235.067.354.1l.375.105c.121.034.245.064.369.094s.268.071.4.1.257.062.383.093c.149.034.292.068.443.1.121.028.249.053.369.08.165.034.331.072.5.105l.124.026q.757.149,1.571.287a.834.834,0,0,0,.126.023c.225.037.451.075.68.11.109.018.211.036.32.052.217.032.436.062.66.093.124.022.245.04.374.057.222.032.448.061.68.091.129.018.257.036.385.052.235.03.469.057.7.083.135.018.27.034.408.048.234.029.475.054.712.078l.432.048c.242.023.489.05.735.073.145.012.286.026.432.04.252.024.5.045.761.066.148.015.3.026.451.039l.767.059.461.036c.268.018.53.034.8.053.149.009.3.016.445.029.279.016.561.034.843.048l.427.02c.292.016.587.03.884.044.135,0,.267.012.4.016.309.015.618.026.929.038l.375.014c.326.01.652.02.984.026l.28.008c.366.012.726.018,1.1.026h0v.008h.5c.746.008,1.5.018,2.27.018.566,0,1.115-.014,1.676-.018h.843v-.006c.125,0,.243,0,.369-.009.368,0,.726-.016,1.09-.026.7-.018,1.377-.039,2.056-.064.189-.008.385-.012.58-.022h0c1.377-.06,2.717-.14,4-.235a15.641,15.641,0,0,1,4.579-10.68c.233-.228.478-.432.718-.646H705.778v-.853h42.164a15.657,15.657,0,0,1,11.478-2.926v-3.412H702.526v13.655a.968.968,0,0,0,.037.263.492.492,0,0,0,.032.083Zm62.5,12.469a10.862,10.862,0,1,1,0-15.362A10.861,10.861,0,0,1,765.092,218.445Zm1.875-17.288a13.5,13.5,0,0,0-20.505,17.437l-4.427,4.422-.177-.175-18.853,18.345,3.71,3.708,18.851-18.347-1.851-1.851,1.676,1.676,4.469-4.469a13.507,13.507,0,0,0,17.107-20.747Zm-37.25,11.236h2.29v3.853h-2.29Zm3.182,4.874v-3.4h.592v-2.316h-5.285v2.316h.588v3.4H732.9Zm25.495-15.375a.974.974,0,0,0-.238,1.932,6.749,6.749,0,0,1,6.276,6.591.975.975,0,1,0,1.951,0c0-.075-.09-7.559-7.989-8.523Zm-54.571,31.774v-6.949a7.021,7.021,0,0,1,7.032,6.949Zm36.7-11.132.225.227,3.349-3.348a15.669,15.669,0,0,1-2.488-7.946c-2.316.173-4.779.29-7.352.344v2.766h-.759v3.553h-5.3v-3.553h-.758V211.8c-14.041-.318-24.916-2.523-24.916-5.2V234.89h25.157l12.84-12.358Zm17.435,11.132h-7.032a7.021,7.021,0,0,1,7.032-6.949Zm-8.905-9.418-3.409,3.406.239.241-7.268,7h20.8v-8.478a15.71,15.71,0,0,1-10.368-2.165Zm-24.864-36.8h13.346v-3.016H724.184Zm14.687,3.018h2.684v-6.034h-2.684Zm-18.548,0H723v-6.034h-2.681ZM593.844,0h-1.812V55.734H642.8V7.267l-.529-.533-6.2-6.2L635.536,0H593.844Zm0,1.812h40.941l-.04,6.2h6.245V53.922H593.844V1.812Zm26.729,33.216h17.064V16.616H620.573ZM596.967,15.214h40.67v-1.1h-40.67Zm0-2.981h40.67V11.139h-40.67Zm19.381,20a9.226,9.226,0,0,0,0-12.791c.023-.038-3.247,3.235-3.247,3.235a4.624,4.624,0,0,1,.012,6.3l3.231,3.257Zm-13.272-6.567a4.586,4.586,0,0,1,1.349-3.049,4.646,4.646,0,0,1,6.426-.117l3.227-3.251a9.208,9.208,0,0,0-15.587,6.408l4.583.01Zm1.354,3.411a4.622,4.622,0,0,1-1.354-3.173l-4.577.012a9.166,9.166,0,0,0,2.687,6.4l.02.016a9.22,9.22,0,0,0,12.9.119l-3.249-3.235a4.625,4.625,0,0,1-6.412-.124Zm-7.344,18.551h40.552v-6.37H597.085v6.37Zm77.353-6.548a.839.839,0,0,1-.388-.094q-2.267-1.145-4.58-2.2a.858.858,0,0,1,.71-1.562q2.348,1.07,4.64,2.232a.856.856,0,0,1-.383,1.622Zm-113.218.132a.855.855,0,0,1-.385-1.617q2.279-1.163,4.617-2.235a.856.856,0,0,1,.714,1.555q-2.3,1.059-4.555,2.2a.875.875,0,0,1-.39.093Zm122.143,4.857a.872.872,0,0,1-.45-.125q-2.161-1.331-4.383-2.57a.857.857,0,0,1,.839-1.494q2.248,1.258,4.44,2.6a.857.857,0,0,1-.445,1.587ZM552.335,46.2a.855.855,0,0,1-.451-1.584q2.182-1.347,4.422-2.606a.856.856,0,0,1,.84,1.493q-2.213,1.243-4.364,2.572a.861.861,0,0,1-.448.125Zm-8.458,5.7a.847.847,0,0,1-.69-.35.857.857,0,0,1,.183-1.2q2.067-1.517,4.2-2.955a.855.855,0,1,1,.955,1.418q-2.1,1.418-4.144,2.919A.843.843,0,0,1,543.878,51.907Zm-7.968,6.374a.856.856,0,0,1-.561-1.5q1.936-1.682,3.947-3.292a.856.856,0,1,1,1.068,1.339c-1.32,1.058-2.619,2.136-3.893,3.247a.855.855,0,0,1-.56.209Zm-40.592,69.312a.777.777,0,0,1-.176-.018.856.856,0,0,1-.664-1.01q.519-2.523,1.135-5.012a.856.856,0,0,1,1.663.41q-.609,2.454-1.12,4.949a.856.856,0,0,1-.837.68Zm246.875,9.716a.857.857,0,0,1-.847-.751q-.314-2.526-.726-5.017a.856.856,0,0,1,.7-.984.846.846,0,0,1,.984.7q.418,2.527.735,5.088a.855.855,0,0,1-.742.955.92.92,0,0,1-.108.007Zm-248.511.364a.841.841,0,0,1-.851-.955q.309-2.565.721-5.094a.855.855,0,1,1,1.687.275c-.27,1.664-.507,3.335-.71,5.022a.854.854,0,0,1-.847.753Zm249.354,9.814a.862.862,0,0,1-.859-.819q-.106-2.55-.312-5.062a.855.855,0,0,1,.781-.925.87.87,0,0,1,.924.782q.208,2.552.318,5.13a.853.853,0,0,1-.817.892A.225.225,0,0,1,743.035,147.487Zm-250.165.362h-.034a.855.855,0,0,1-.823-.889q.1-2.58.306-5.13a.872.872,0,0,1,.922-.787.857.857,0,0,1,.785.922q-.2,2.515-.3,5.062a.857.857,0,0,1-.855.821Zm250.174,10.089a.176.176,0,0,1-.034,0,.853.853,0,0,1-.821-.889q.1-2.522.1-5.07v-.242a.857.857,0,0,1,1.714,0v.242q0,2.583-.1,5.14a.858.858,0,0,1-.857.821Zm-250.165.124a.861.861,0,0,1-.857-.823q-.1-2.555-.107-5.139a.853.853,0,0,1,.854-.857h0a.855.855,0,0,1,.857.853q.006,2.546.109,5.073a.86.86,0,0,1-.821.892h-.034Zm249.346,10.053c-.034,0-.071,0-.1-.007a.862.862,0,0,1-.749-.952q.3-2.506.513-5.046a.871.871,0,0,1,.919-.786.857.857,0,0,1,.785.922q-.205,2.572-.517,5.113a.855.855,0,0,1-.847.756Zm-248.519.123a.854.854,0,0,1-.846-.752c-.209-1.694-.388-3.4-.524-5.113a.855.855,0,1,1,1.7-.14q.208,2.534.515,5.044a.855.855,0,0,1-.74.955.925.925,0,0,1-.109.007Zm1.658,10.074a.859.859,0,0,1-.839-.684q-.516-2.51-.936-5.053a.856.856,0,0,1,1.689-.278c.276,1.671.584,3.337.925,4.986a.85.85,0,0,1-.666,1.01.8.8,0,0,1-.173.018Zm2.48,9.905a.86.86,0,0,1-.823-.616q-.722-2.458-1.35-4.959a.857.857,0,0,1,1.662-.418q.614,2.47,1.33,4.893a.857.857,0,0,1-.819,1.1Zm3.279,9.669a.859.859,0,0,1-.8-.547q-.925-2.4-1.752-4.835a.856.856,0,0,1,1.621-.551q.817,2.406,1.728,4.77a.853.853,0,0,1-.491,1.105.831.831,0,0,1-.308.059ZM691.938,253.83a.856.856,0,0,1-.505-1.546q2.046-1.5,4.024-3.079a.855.855,0,1,1,1.069,1.336q-2.008,1.6-4.081,3.124a.857.857,0,0,1-.507.165Zm-147.965,0a.85.85,0,0,1-.5-.165q-2.078-1.522-4.084-3.127a.855.855,0,1,1,1.065-1.338q1.984,1.581,4.032,3.084a.856.856,0,0,1-.508,1.546Zm139.508,5.7a.856.856,0,0,1-.451-1.586q2.157-1.328,4.261-2.74a.855.855,0,1,1,.952,1.42q-2.124,1.432-4.317,2.778a.835.835,0,0,1-.445.129Zm-131.029.012a.849.849,0,0,1-.445-.129q-2.2-1.347-4.33-2.783a.857.857,0,0,1,.955-1.423q2.109,1.414,4.271,2.749a.856.856,0,0,1-.451,1.585Zm122.137,4.973a.855.855,0,0,1-.388-1.619q2.261-1.149,4.463-2.384A.856.856,0,1,1,679.5,262q-2.236,1.255-4.528,2.418a.867.867,0,0,1-.386.093Zm-113.214.024a.86.86,0,0,1-.389-.094q-2.3-1.165-4.543-2.423a.856.856,0,0,1,.835-1.494q2.215,1.24,4.483,2.39a.856.856,0,0,1-.387,1.62Zm103.951,4.213A.856.856,0,0,1,665,267.1q2.347-.96,4.645-2.012a.856.856,0,0,1,.71,1.558q-2.327,1.065-4.706,2.04a.817.817,0,0,1-.325.062Zm21.182-108.7a1.492,1.492,0,0,0-.937-.693c-.456-.094-.742.036-.832.464-.184.9,2.342,1.349,1.965,3.168a1.8,1.8,0,0,1-1.861,1.518l-.209.987-.921-.191.2-.95a3.245,3.245,0,0,1-1.524-1.072l.8-.816a2.331,2.331,0,0,0,1.249.835c.53.11.816-.059.907-.5.2-.979-2.313-1.479-1.959-3.193a1.737,1.737,0,0,1,1.812-1.46l.2-.98.924.189-.2.962a2.433,2.433,0,0,1,1.258,1.076l-.873.654Zm-1.516-6.233a7.527,7.527,0,1,1-5.317,2.207,7.5,7.5,0,0,1,5.317-2.207Zm4.521,3a6.4,6.4,0,1,0,1.87,4.523A6.381,6.381,0,0,0,689.514,156.815Zm-21.043-35.969a.849.849,0,0,0,.034-.677c-.1-.249-.253-.344-.487-.25-.5.2.1,1.56-.9,1.958a1.037,1.037,0,0,1-1.328-.414l-.544.219-.2-.507.523-.209a1.853,1.853,0,0,1,.03-1.078l.649.129a1.362,1.362,0,0,0-.006.867c.118.293.292.377.532.28.538-.213-.023-1.59.917-1.965a1,1,0,0,1,1.284.407l.537-.215.2.508-.529.209a1.415,1.415,0,0,1-.117.95l-.595-.212Zm-1.114-4.658a4.358,4.358,0,1,1-3.076,1.276A4.347,4.347,0,0,1,667.357,116.188Zm2.619,1.733a3.714,3.714,0,1,0,1.081,2.619A3.7,3.7,0,0,0,669.976,117.921Zm-78.009,7.82a2.685,2.685,0,0,0-2.111-.147c-.79.3-1.1.773-.821,1.516.594,1.565,4.9-.211,6.09,2.943a3.254,3.254,0,0,1-1.374,4.136l.646,1.716-1.6.6-.624-1.646a5.85,5.85,0,0,1-3.376-.159l.437-2.03a4.227,4.227,0,0,0,2.725.064c.92-.347,1.192-.884.9-1.642-.64-1.7-4.984-.02-6.106-2.99a3.152,3.152,0,0,1,1.352-4l-.641-1.7,1.6-.609.627,1.668a4.4,4.4,0,0,1,2.972.426l-.7,1.851Zm-1.084-10.232a13.655,13.655,0,1,1-9.648,4,13.614,13.614,0,0,1,9.648-4Zm8.206,5.437a11.616,11.616,0,1,0,3.4,8.209,11.579,11.579,0,0,0-3.4-8.209Zm22.094,66.585a2.564,2.564,0,0,0-1.626-1.2c-.791-.163-1.286.06-1.442.8-.322,1.569,4.059,2.342,3.408,5.494a3.119,3.119,0,0,1-3.231,2.634l-.358,1.714-1.6-.332.339-1.649a5.592,5.592,0,0,1-2.643-1.857l1.4-1.416a4.023,4.023,0,0,0,2.164,1.45c.921.192,1.416-.1,1.571-.865.356-1.7-4.01-2.567-3.4-5.538a3.015,3.015,0,0,1,3.142-2.537l.355-1.7,1.6.33-.35,1.666A4.211,4.211,0,0,1,622.7,186.4l-1.515,1.134ZM618.55,176.72a13.047,13.047,0,1,1-9.222,3.822A13.023,13.023,0,0,1,618.55,176.72Zm7.843,5.2a11.1,11.1,0,1,0,3.247,7.844A11.065,11.065,0,0,0,626.393,181.917Zm-65.079,3.4a2.232,2.232,0,0,0-1.535-.875c-.7-.065-1.11.185-1.169.843-.118,1.4,3.765,1.616,3.525,4.422a2.727,2.727,0,0,1-2.537,2.619l-.135,1.527-1.424-.124.126-1.467a4.9,4.9,0,0,1-2.485-1.34l1.066-1.371a3.551,3.551,0,0,0,2.026,1.034c.821.071,1.221-.237,1.278-.914.133-1.51-3.746-1.818-3.519-4.46A2.634,2.634,0,0,1,559,182.694l.132-1.513,1.426.123-.129,1.483a3.67,3.67,0,0,1,2.084,1.394l-1.2,1.141Zm-2.055-9.2a11.409,11.409,0,1,1-8.063,3.343A11.388,11.388,0,0,1,559.259,176.12Zm6.857,4.545a9.706,9.706,0,1,0,2.837,6.857A9.672,9.672,0,0,0,566.116,180.665ZM554.824,162.5a1.24,1.24,0,0,1,.53-.825c.328-.212.59-.2.788.113.418.655-1.429,1.762-.588,3.073a1.508,1.508,0,0,0,1.916.632l.456.713.669-.427-.44-.686a2.724,2.724,0,0,0,.873-1.3l-.875-.4a1.953,1.953,0,0,1-.728,1.03c-.383.245-.656.2-.859-.121-.456-.7,1.368-1.853.576-3.09a1.459,1.459,0,0,0-1.859-.6l-.453-.706-.669.427.445.692a2.051,2.051,0,0,0-.662,1.222l.879.25Zm1.578-5.748a6.313,6.313,0,1,0,4.464,1.851A6.313,6.313,0,0,0,556.4,156.752Zm-3.8,2.517a5.37,5.37,0,1,1-1.571,3.8A5.35,5.35,0,0,1,552.607,159.269ZM655.89,92.533a1.766,1.766,0,0,1,.8-1.149c.478-.286.853-.249,1.121.2.562.955-2.129,2.44-.994,4.354a2.149,2.149,0,0,0,2.7,1l.618,1.039.972-.575-.59-1a3.864,3.864,0,0,0,1.31-1.805l-1.229-.611a2.8,2.8,0,0,1-1.089,1.431c-.559.331-.95.249-1.222-.213-.612-1.031,2.046-2.577.978-4.382a2.083,2.083,0,0,0-2.622-.951l-.611-1.032-.976.576.6,1.01a2.914,2.914,0,0,0-1.008,1.709l1.245.4Zm2.223-8.13a9.014,9.014,0,1,0,6.371,2.641,9,9,0,0,0-6.371-2.641Zm-5.42,3.591a7.669,7.669,0,1,1-2.243,5.42A7.645,7.645,0,0,1,652.692,87.993Zm14.679,92.37a1.2,1.2,0,0,0-.38-.867c-.284-.251-.537-.274-.772-.01-.5.561,1.1,1.9.1,3.022a1.455,1.455,0,0,1-1.924.318l-.544.613-.574-.509.523-.59a2.629,2.629,0,0,1-.641-1.371l.9-.249a1.908,1.908,0,0,0,.543,1.093c.328.292.6.287.839.016.541-.608-1.028-1.978-.088-3.042a1.412,1.412,0,0,1,1.867-.3l.538-.606.575.508-.53.595a1.975,1.975,0,0,1,.451,1.265l-.881.11Zm-1.592-5.8a6.11,6.11,0,1,1-4.317,1.79,6.088,6.088,0,0,1,4.317-1.79ZM669.452,177a5.2,5.2,0,1,0,1.519,3.672A5.183,5.183,0,0,0,669.452,177Zm-84.921-76.89a1.509,1.509,0,0,0,.549-1.069c.024-.479-.157-.748-.606-.767-.95-.04-.986,2.6-2.9,2.518a1.847,1.847,0,0,1-1.851-1.642l-1.039-.048.042-.972,1,.045a3.3,3.3,0,0,1,.837-1.728l.962.682a2.406,2.406,0,0,0-.644,1.408c-.024.558.2.821.656.84,1.03.048,1.126-2.6,2.927-2.518a1.794,1.794,0,0,1,1.785,1.6l1.028.046-.042.972-1.009-.048a2.511,2.511,0,0,1-.887,1.457Zm74.578,68.321,1.306,1.922,1.272-.293c1.865-.435,4.588-1.133,8.014-2.123,2.33-.682,4.991-1.524,7.873-2.629a8.8,8.8,0,0,0,.6.927c-3.065,1.02-5.861,1.76-8.3,2.352-3.485.854-6.263,1.326-8.15,1.657l-1.245.2.281.414c.594.885,1.336,2.006,2.183,3.364-.137.056-.271.116-.405.181-.747-1.382-1.4-2.537-1.936-3.445l-.288-.489-1.493.244,1.442-.331-1.155-1.956ZM574.7,169.981s-1-.192-2.888-.549c-.565-.112-1.211-.243-1.931-.4q-1.787,2.675-3.423,5.383-.653,1.094-1.281,2.189a12.348,12.348,0,0,0-1.342-.627,12.515,12.515,0,0,0-1.472-.481q.727-1.319,1.488-2.629,1.347-2.3,2.79-4.571c-.912-.225-1.891-.479-2.932-.754l-1.431-.417a6.575,6.575,0,0,0,.393-.644l1.231.42c1.083.342,2.1.654,3.03.94a176.8,176.8,0,0,1,10.49-14.628l1.246-1.549-1.02-1.265a172.081,172.081,0,0,1-12.088-17.1,79.935,79.935,0,0,0-13.1,4.748,31.157,31.157,0,0,0-8.164,5.4,11.614,11.614,0,0,0-2.575,3.588,7.131,7.131,0,0,0-.533,4c.519,2.67,2.423,4.909,4.438,6.655a31.8,31.8,0,0,0,4.159,2.986,7.2,7.2,0,0,0-.355,1.405,33.987,33.987,0,0,1-4.857-3.117,17.424,17.424,0,0,1-3.187-3.168l-.707-.954q-.286-.533-.575-1.075l-.289-.544-.2-.6c-.121-.4-.277-.8-.366-1.219a9.156,9.156,0,0,1,.5-5.183,13.842,13.842,0,0,1,2.908-4.388,32.693,32.693,0,0,1,8.661-6.09,79.723,79.723,0,0,1,12.7-5.018c-3.879-6.66-7.189-13.458-8.844-20.513a28.572,28.572,0,0,1-.766-5.363,15.252,15.252,0,0,1,.6-5.382,9.791,9.791,0,0,1,2.924-4.545,10.169,10.169,0,0,1,4.724-2.135,22.233,22.233,0,0,1,9.1.609c1.133.293,2.225.624,3.277.982a8.873,8.873,0,0,0-.636,1.382q-1.465-.417-3.011-.742a21.032,21.032,0,0,0-8.339-.286,8.14,8.14,0,0,0-3.684,1.788,7.466,7.466,0,0,0-2.143,3.608,13.323,13.323,0,0,0-.37,4.595,26.045,26.045,0,0,0,.827,4.885c1.714,6.595,5.117,13.166,9,19.643l.361.6q2.684-.742,5.44-1.376,1.777-.409,3.583-.782a14.892,14.892,0,0,0-.034,3.146q-1.453.284-2.887.6-2.248.493-4.45,1.042a195.3,195.3,0,0,0,11.561,15.828l.585.722q2.343-2.8,4.784-5.549a15.008,15.008,0,0,0,3.752.913q-3.265,3.584-6.361,7.268c4.229,5.04,8.719,9.953,13.4,14.675,4.171,4.264,8.5,8.376,12.932,12.29a14.426,14.426,0,0,0-2.263,2.488c-4.5-3.935-8.89-8.068-13.126-12.357q-6.9-7.021-13.124-14.465l-.81,1c-3.531,4.43-6.9,8.912-9.958,13.466.658.184,1.252.346,1.79.483,1.853.477,2.845.735,2.845.735ZM610.35,123.82q5.08-.177,10.182-.145a239.022,239.022,0,0,1,24.515,1.45,171.431,171.431,0,0,1,17.753,2.883l2.028-3.439a4.756,4.756,0,0,0,.611.339l-.26.472c-.577,1.009-1.131,1.936-1.65,2.787q2.511.558,4.97,1.2c7.486,1.973,14.669,4.443,20.85,8.277a28.493,28.493,0,0,1,4.334,3.249,15.177,15.177,0,0,1,3.38,4.233,9.752,9.752,0,0,1,1.148,5.28,10.191,10.191,0,0,1-1.833,4.849,18.56,18.56,0,0,1-3.476,3.659,8.327,8.327,0,0,0-.745-1.776,15.823,15.823,0,0,0,2.569-2.978,8.156,8.156,0,0,0,1.344-3.869,7.5,7.5,0,0,0-1.038-4.064,13.288,13.288,0,0,0-2.99-3.512A25.749,25.749,0,0,0,688,139.842c-5.873-3.453-12.927-5.692-20.25-7.528-1.972-.489-3.762-.885-5.79-1.287l-1.864,3.1-.435-.649,1.614-2.583c-.189-.036-.22-.048-.407-.083-5.261-1-10.689-1.755-16.187-2.37a236.418,236.418,0,0,0-24.178-1.317c-4.72-.051-9.444.034-14.133.253l-.4.37-.044-.348v0a15.063,15.063,0,0,0-.857-3.336l-.018-.05q3.364-3.015,6.815-5.871a179.251,179.251,0,0,1,19.3-14.041,100.06,100.06,0,0,1,17.148-8.82,9.906,9.906,0,0,0,.821,2.533,106.052,106.052,0,0,0-16.337,8.853A193.157,193.157,0,0,0,614,120.707q-1.84,1.531-3.651,3.115Zm-9.712,70.747s-.829.6-2.384,1.73c-1.569,1.109-3.867,2.75-6.935,4.629a96.639,96.639,0,0,1-11.454,6.127,52.564,52.564,0,0,1-7.581,2.741,23.244,23.244,0,0,1-9.088.825,10.527,10.527,0,0,1-4.8-1.855,4.821,4.821,0,0,1-.533-.427l-.258-.225-.131-.115a1.519,1.519,0,0,1-.115-.121l-.051-.057c-.265-.312-.532-.587-.8-.933-.266-.407-.538-.827-.786-1.249l-.555-1.272a15.261,15.261,0,0,1-.771-5.394v-.094l.3.126a12.524,12.524,0,0,0,2.117.631,13.252,13.252,0,0,0,.521,3.977l.4,1.01.477.853c.216.3.5.626.75.935l.048.059c.071.076-.042-.037-.012-.012l.1.089.189.177a2.936,2.936,0,0,0,.392.334,8.424,8.424,0,0,0,3.835,1.611,22.177,22.177,0,0,0,8.382-.481,51.315,51.315,0,0,0,7.483-2.318,95.76,95.76,0,0,0,11.6-5.521c3.124-1.742,5.541-3.187,7.168-4.209s2.488-1.573,2.488-1.573ZM668.111,93.933a10.423,10.423,0,0,1,1.1.759l.5.437.247.22.062.053c.154.173.068.08.113.135l.089.115.716.911a8.558,8.558,0,0,1,.648,1.137,5.079,5.079,0,0,1,.505,1.185c.119.392.236.782.355,1.17.09.391.126.786.189,1.175a12.686,12.686,0,0,1,.149,2.3,15.9,15.9,0,0,1-.137,2.21,37.726,37.726,0,0,1-1.942,7.872q-.522,1.438-1.078,2.768a4.728,4.728,0,0,0-1.074-.4c.323-.893.636-1.815.931-2.769a36.192,36.192,0,0,0,1.5-7.622,16.848,16.848,0,0,0,.042-2.036,11.283,11.283,0,0,0-.2-2.039c-.067-.332-.1-.68-.195-1.006l-.331-.964a3.53,3.53,0,0,0-.407-.885,5.812,5.812,0,0,0-.494-.839,6.441,6.441,0,0,0-1.65-1.633,10.125,10.125,0,0,0,.36-2.251Zm1.405,92.765c.4.95.791,1.936,1.165,2.963a38.082,38.082,0,0,1,1.953,7.849,17.514,17.514,0,0,1,.012,4.494c-.057.39-.115.777-.173,1.172-.119.389-.235.777-.354,1.167l-.185.588-.281.563c-.2.374-.369.765-.6,1.123a9.183,9.183,0,0,1-4.015,3.315,13.87,13.87,0,0,1-5.158,1.047,32.753,32.753,0,0,1-10.432-1.819,93.313,93.313,0,0,1-20.109-9.825l-1.283-.811a14.4,14.4,0,0,0,1.643-2.572l1.266.824a95.918,95.918,0,0,0,19.3,9.947,31.2,31.2,0,0,0,9.593,1.956,11.655,11.655,0,0,0,4.356-.716,7.15,7.15,0,0,0,3.209-2.454c1.521-2.257,1.756-5.187,1.568-7.846a36.708,36.708,0,0,0-1.521-7.6c-.3-.972-.624-1.911-.954-2.819a6.942,6.942,0,0,0,1-.547Zm-78.488-84.456c2.967,1.807,5.2,3.388,6.732,4.468,1.556,1.12,2.384,1.717,2.384,1.717s-.865-.541-2.488-1.562c-1.581-.982-3.91-2.363-6.905-4.018C590.851,102.65,590.944,102.447,591.028,102.242Zm76.207,49.652a49.816,49.816,0,0,1-2.714,16.269c-1.2.312-2.238.567-3.1.768l-.5.115-.6-.883a46.111,46.111,0,0,0,.128-33.178c.616-.9,1.232-1.8,1.831-2.714l1.032.217a49.708,49.708,0,0,1,3.919,19.407Zm-3.844,19.226-.427.99-.527-.821Zm-1.845,3.867a7.028,7.028,0,0,0-2.567,3.348,7.116,7.116,0,0,0-.389,1.625,50.04,50.04,0,0,1-21.767,17.865q-1.617-.982-3.233-2.019l-1.229-.791a46.361,46.361,0,0,0,26.324-23.154,1.238,1.238,0,0,0,.324-.007l.713-.118.769,1.344,1.032,1.869.022.04Zm-31.225,25.075q-1.151.309-2.321.562a14.558,14.558,0,0,0,1.3-1.225,1.145,1.145,0,0,0,.139.1l.879.559Zm-19.839,1.23a49.551,49.551,0,0,1-12.461-3.42l.585-.413c.917-.6,1.823-1.312,2.711-1.958a1.149,1.149,0,0,0,.451-.7q2.057.742,4.2,1.291a14.358,14.358,0,0,0,4.514,5.2Zm-15.266-4.71a50.036,50.036,0,0,1-24.145-26.131l3.42.662a8.407,8.407,0,0,1,1.377.378c.157.336-.018-.036.146.295a46.373,46.373,0,0,0,23.491,22.131l-1.97,1.245c-.658.413-1.436.892-2.32,1.42ZM573.549,165.76c.334,1.022.707,2.028,1.11,3.018l-2.726-.706Q572.726,166.915,573.549,165.76Zm-4.8-2.746a50.153,50.153,0,0,1,.081-22.574q.707,1.031,1.434,2.058.745,1.053,1.5,2.094a46.282,46.282,0,0,0,.066,14.06l-.873,1.205Q569.833,161.421,568.746,163.014Zm2.161-29.262.27-.677q2.15-.5,4.308-.938a45.925,45.925,0,0,0-2.052,5.273q-1.295-1.82-2.525-3.658Zm3.287-6.826a50.094,50.094,0,0,1,21.457-19.934c.513.308.982.594,1.4.854l2,1.253a46.129,46.129,0,0,0-9.188,5.33,15.064,15.064,0,0,0-13.619,12.132,1.13,1.13,0,0,0-.417.01l-1.63.355Zm24.219-21.168a50.08,50.08,0,0,1,31.395-2.164q-1.929,1.226-3.838,2.515a46.156,46.156,0,0,0-23.519,1.671c-.276.094-.525.165-.827.293,0,0-.177-.129-.8-.58l-2.407-1.734Zm37.967.026a50.034,50.034,0,0,1,23.775,20.495q-2.331-.462-4.729-.867a46.306,46.306,0,0,0-22.544-17.421l.544-.352Q634.9,106.692,636.38,105.783Zm22.938,26.5-.3-.639.61.111Zm-50.511-24.2a43.9,43.9,0,0,0-15.7,6.444,15.13,15.13,0,0,1,7.259,3.112,28.9,28.9,0,0,1,8.439-9.555Zm-32.082,26.066a43.992,43.992,0,0,0-1.856,5.251l.276.376q2.788,3.793,5.712,7.442l1.481-1.734,2.169-2.482a15.021,15.021,0,0,1-7.782-8.853Zm-3.281,12.7q-.181,1.769-.222,3.577H576.2q-1.4-1.771-2.761-3.577Zm12.14,3.577h6.8q.035-3.071.282-6.038a15.107,15.107,0,0,1-2.139.084l0,.04a1.145,1.145,0,0,1-.295.655q-1.68,1.845-3.211,3.6l-1.432,1.662Zm8.749,0h22.059l-.2-21.968c-3.65-.039-6.65.036-10.21.125a16.608,16.608,0,0,1-1.139,6.777,15.029,15.029,0,0,1-10.2,8.673q-.278,3.128-.315,6.393Zm22.059-27.9v-2.306l-1.654,1.366-1.172.985,1.823-.034,1-.012Zm0-9.5v-5.74c-5.623.45-10.728,4.78-14.607,11.625a15.062,15.062,0,0,1,2.784,3.979c1.059-.945,2.1-1.861,3.113-2.734q1.7-1.461,3.454-2.911l.023-.02Q613.747,115.079,616.392,113.034Zm-43.171,39.351q.045,2.037.271,4.027,1.477-1.962,3.03-3.915l.09-.112Zm1.754,11.4a43.989,43.989,0,0,0,6.927,13.9,119.564,119.564,0,0,1,13.964-2.793q-.57-1.771-1.056-3.643l-1.672-1.678q-3.424-3.48-6.76-7.165-2.857-3.152-5.523-6.295c-1.739,2.185-3.435,4.374-5.058,6.559Zm17.954-2.708a83.438,83.438,0,0,1-.546-8.689h-7.248q2.562,3,5.253,5.95,1.262,1.38,2.541,2.739Zm-9.727,18.28a44.272,44.272,0,0,0,21.838,14.462,14.358,14.358,0,0,1-.595-2.952,42.908,42.908,0,0,1-7.943-14.1,123.7,123.7,0,0,0-13.3,2.591Zm16.84-3.054-1.624.2a42.676,42.676,0,0,0,6.047,11.473,14.435,14.435,0,0,1,1.987-5.891l-.034-.023-.094-.075q-3.192-2.791-6.282-5.686Zm16.35-.993v-.067c-3.05.032-5.966.157-8.715.346q1.215,1.1,2.438,2.183a1.255,1.255,0,0,1,.137.143,14.535,14.535,0,0,1,6.14-2.6Zm0-2.008V152.386H594.333a82.246,82.246,0,0,0,.865,11.063q1.015,1.049,2.039,2.079,3.17,3.233,6.338,6.246,1.068,1.014,2.139,2.011C609.034,173.518,612.613,173.338,616.392,173.3Zm-18.832.642.217.686.439-.056-.656-.63Zm35.287,18.824a44.329,44.329,0,0,0,18.676-13.4,125.115,125.115,0,0,0-13.263-2.68,47.974,47.974,0,0,1-5.217,10.615,14.327,14.327,0,0,1-.2,5.468Zm19.982-15.073a46.022,46.022,0,0,0,8.683-25.306H642.353A76.986,76.986,0,0,1,638.9,174.81,125.834,125.834,0,0,1,652.829,177.693ZM640.4,152.387H618.341v20.9a141.891,141.891,0,0,1,18.643,1.249A75.763,75.763,0,0,0,640.4,152.387Zm-7.979,32.422a47.354,47.354,0,0,0,3.923-8.392,139.162,139.162,0,0,0-15.421-1.153,14.416,14.416,0,0,1,11.5,9.546Zm29.091-34.372a43.98,43.98,0,0,0-2.374-13.346c-.236-.69-1.091-2.856-1.33-3.4q-.546-1.247-1.172-2.453-1.81-.3-3.64-.566c-2.792-.406-5.611-.76-8.438-1.076l-.031,0q-2.639-.281-5.3-.5a77.648,77.648,0,0,1,3.123,21.348h19.159Zm-8.941-25.509c-.113-.138-1.344-1.823-1.457-1.958a44.3,44.3,0,0,0-20.286-13.615q-.915.62-1.829,1.255a38.288,38.288,0,0,1,8.13,12.614q4.051.31,8.046.754,1.283.144,2.563.306c2.159.23,3.163.35,4.833.644ZM618.342,107.3v4.251q1.181-.886,2.366-1.751.957-.7,1.919-1.378a12.952,12.952,0,0,0-4.285-1.123Zm0,11.347v3.877l2.2,0c4.152.031,8.279.17,12.353.41l2.131.135a34.438,34.438,0,0,0-7.577-11.361q-1.727,1.235-3.442,2.526Q621.151,116.377,618.342,118.643Zm.02,9.869-.02,21.924H640.4a76.206,76.206,0,0,0-3.213-21.511q-2.046-.151-4.1-.266C627.015,128.559,623.026,128.5,618.362,128.513ZM587.606,94.15a6.6,6.6,0,1,0,1.929,4.661A6.578,6.578,0,0,0,587.606,94.15Z" transform="translate(-440.303 -0.009)"/>
  </g>
</svg>
