<svg xmlns="http://www.w3.org/2000/svg" xmlns:xlink="http://www.w3.org/1999/xlink" viewBox="0 0 347.79 320.229">
  <defs>
    <style>
      .cls-1 {
        fill: none;
      }

      .cls-2 {
        fill-rule: evenodd;
        fill: url(#linear-gradient);
      }
    </style>
    <linearGradient id="linear-gradient" x1="0.155" y1="0.195" x2="0.869" y2="0.85" gradientUnits="objectBoundingBox">
      <stop offset="0" stop-color="#fcec94"/>
      <stop offset="0.169" stop-color="#f0c46c"/>
      <stop offset="0.502" stop-color="#fffabd"/>
      <stop offset="0.82" stop-color="#f0c46c"/>
      <stop offset="1" stop-color="#fce79a"/>
    </linearGradient>
  </defs>
  <g id="благотвор" transform="translate(0 0.01)">
    <rect id="Rectangle_2672" data-name="Rectangle 2672" width="347.79" height="320.229" transform="translate(0 -0.01)"/>
    <path id="Path_1360" data-name="Path 1360" class="cls-2" d="M513.489,115.408a3.752,3.752,0,1,0-2.193-7.176,3.752,3.752,0,1,0-7.494.389c0,.066.01.131.018.2l.8,8.748,8.54-2.078c.11-.022.217-.048.325-.079ZM482.213,58.175s-.149,8.557.35,10.307,4.052,5.853,5.753,8.2,1.6,3.651,2.7,5.2a18.22,18.22,0,0,1,2.2,3.5c.45,1.1,1.7,2.352.6,2.853s-2.1.45-3.6-1.2-2.752-4.7-3.951-4.552-1.6,1.8-1.452,4.3,1.1,3.453,1.3,5.053.949,6.453,1,7.8-.352,2.551-1.052,2.651-1.5-.449-2.05-3.052-1.244-4.751-1.823-7.5-1.229-2.6-1.579-2.251-.051,3.8,0,5.753-.185,7.3-.168,8.6-.633,2-1.532,1.851-1.3-.5-1.252-2.4-.7-7.054-.7-8.354.45-5.5-.751-5.6l-.35.05s-.4,4.9-.4,6.4.551,6.8-.3,7.554-1.951.75-2.15-1.8-.5-4.7-.751-6.653a20.269,20.269,0,0,1,0-4.353c.05-.851.3-2.9-.6-3s-1.551,3.752-2,5.454-.75,5.552-2.4,5.2-.5-5-.2-7.254a62.181,62.181,0,0,0,.8-7.853,31.522,31.522,0,0,1,1.952-11.58c1.8-4.353.6-68.254.375-71.482h12.081l-.051,58.147Zm-9.522,20.417a5.254,5.254,0,1,0,9.114-.085c-.032-.038-.066-.078-.1-.115l-4.424-5.125L472.859,78.4c-.059.061-.116.129-.169.2Zm71.174,156.826s-.169-9.574.391-11.532,4.533-6.551,6.438-9.182,1.791-4.086,3.022-5.824a20.214,20.214,0,0,0,2.464-3.918c.5-1.231,1.9-2.63.672-3.191s-2.352-.5-4.032,1.344-3.078,5.261-4.422,5.094-1.792-2.014-1.625-4.815,1.232-3.863,1.456-5.654,1.064-7.221,1.119-8.734-.392-2.853-1.175-2.964-1.679.5-2.294,3.414-1.391,5.317-2.039,8.4-1.374,2.91-1.767,2.519-.057-4.255,0-6.437-.207-8.174-.187-9.629-.708-2.239-1.716-2.072-1.457.56-1.4,2.688-.785,7.894-.785,9.348.5,6.158-.84,6.271l-.392-.057s-.448-5.486-.448-7.166.616-7.613-.336-8.452-2.183-.839-2.407,2.016-.561,5.263-.839,7.446a22.571,22.571,0,0,0,0,4.869c.054.952.334,3.247-.672,3.358s-1.736-4.2-2.24-6.1-.84-6.214-2.687-5.82-.561,5.6-.225,8.116a68.832,68.832,0,0,1,.9,8.788,35.332,35.332,0,0,0,2.185,12.962c1.87,4.521.845,66.473.489,78.211h13.449l-.054-63.292Zm-32.25,24.421s.117-6.667-.274-8.03-3.155-4.561-4.481-6.392-1.247-2.845-2.105-4.054a14.275,14.275,0,0,1-1.716-2.728c-.35-.857-1.322-1.831-.467-2.221s1.638-.353,2.807.935,2.143,3.664,3.078,3.547,1.247-1.4,1.132-3.352-.859-2.689-1.014-3.937-.74-5.028-.78-6.08.276-1.988.819-2.064,1.171.35,1.6,2.378.97,3.7,1.42,5.845.959,2.028,1.231,1.754.04-2.961,0-4.481.145-5.692.131-6.7.493-1.559,1.194-1.442,1.015.391.976,1.87.545,5.5.545,6.51-.35,4.286.585,4.366l.272-.039s.312-3.821.312-4.99-.428-5.3.235-5.885,1.521-.584,1.676,1.4.389,3.664.583,5.184a15.648,15.648,0,0,1,0,3.392c-.038.663-.233,2.261.467,2.338s1.211-2.922,1.561-4.247.584-4.325,1.87-4.054.391,3.9.157,5.651a48.319,48.319,0,0,0-.622,6.119,24.606,24.606,0,0,1-1.521,9.022c-1.123,2.714-.747,35.12-.463,49.261h-9.236l.034-38.871Zm-18.979,6.091a48.234,48.234,0,0,1,.214-6.269c.3-1.066,2.465-3.561,3.5-4.992s.974-2.221,1.643-3.166a11.064,11.064,0,0,0,1.341-2.129c.272-.67,1.034-1.43.364-1.734s-1.278-.274-2.191.731-1.676,2.859-2.4,2.768-.974-1.095-.884-2.617.672-2.1.793-3.073.579-3.926.61-4.748-.214-1.551-.641-1.611-.913.273-1.247,1.855-.756,2.891-1.109,4.566-.747,1.583-.96,1.37-.03-2.314,0-3.5-.113-4.443-.1-5.235-.386-1.216-.935-1.125-.793.3-.759,1.459-.428,4.293-.428,5.083.273,3.348-.456,3.408l-.212-.029s-.245-2.983-.245-3.9.336-4.137-.181-4.593-1.189-.456-1.308,1.095-.3,2.861-.457,4.048a12.269,12.269,0,0,0,0,2.649c.03.517.181,1.764-.366,1.826s-.944-2.283-1.217-3.319-.457-3.378-1.461-3.163-.3,3.042-.121,4.413a37.721,37.721,0,0,1,.486,4.778,19.213,19.213,0,0,0,1.189,7.046c.949,2.292.527,31.773.309,40.89h7.268l-.03-32.78Zm87.08,7.857s.117-6.665-.273-8.028-3.158-4.56-4.483-6.393-1.246-2.845-2.1-4.054a14.176,14.176,0,0,1-1.716-2.728c-.35-.857-1.324-1.832-.467-2.221s1.636-.35,2.807.937,2.143,3.662,3.078,3.545,1.246-1.4,1.131-3.352-.859-2.689-1.015-3.937-.74-5.028-.779-6.08.273-1.987.819-2.066,1.17.352,1.6,2.378.97,3.7,1.42,5.847.959,2.028,1.231,1.753.038-2.962,0-4.481.143-5.691.131-6.706.493-1.559,1.194-1.441,1.014.39.973,1.871.546,5.5.546,6.508-.35,4.289.585,4.366l.273-.038s.312-3.82.312-4.99-.428-5.3.234-5.885,1.521-.584,1.676,1.4.391,3.662.585,5.183a15.746,15.746,0,0,1,0,3.392c-.038.662-.233,2.261.467,2.336s1.208-2.921,1.56-4.245.585-4.328,1.871-4.054.389,3.9.155,5.653a48.131,48.131,0,0,0-.622,6.116,24.62,24.62,0,0,1-1.523,9.024c-.829,2-.841,20.226-.676,35.309h-9.011l.022-24.923ZM466.68,272.329a48.391,48.391,0,0,0-.214-6.271c-.3-1.066-2.463-3.561-3.5-4.991s-.974-2.223-1.644-3.166a11.068,11.068,0,0,1-1.34-2.13c-.272-.67-1.034-1.43-.364-1.733s1.276-.276,2.191.729,1.674,2.861,2.4,2.77.976-1.095.884-2.617-.671-2.1-.793-3.074-.577-3.926-.609-4.748.214-1.551.64-1.613.913.276,1.247,1.857.757,2.891,1.109,4.565.749,1.582.962,1.368.03-2.312,0-3.5.112-4.444.1-5.235.384-1.217.933-1.127.793.306.761,1.461.426,4.291.426,5.083-.273,3.348.456,3.409l.213-.031s.244-2.983.244-3.9-.334-4.138.183-4.595,1.187-.456,1.309,1.1.3,2.861.456,4.048a12.36,12.36,0,0,1,0,2.648c-.03.517-.183,1.766.366,1.826s.943-2.282,1.219-3.318.455-3.378,1.459-3.165.306,3.044.121,4.413a37.587,37.587,0,0,0-.485,4.778,19.208,19.208,0,0,1-1.189,7.044c-.783,1.893-.633,22.293-.434,34.494h-7.137l.024-26.382ZM445.841,260.7s.116-6.665-.274-8.028-3.157-4.563-4.482-6.393-1.247-2.847-2.105-4.054a14.014,14.014,0,0,1-1.714-2.73c-.352-.857-1.328-1.831-.47-2.221s1.638-.35,2.807.936,2.143,3.664,3.079,3.547,1.247-1.4,1.129-3.354-.855-2.689-1.012-3.937-.74-5.028-.779-6.08.272-1.988.818-2.066,1.17.35,1.6,2.376.97,3.7,1.42,5.847.958,2.026,1.231,1.754.038-2.962,0-4.483.145-5.691.131-6.706.493-1.557,1.194-1.441,1.014.39.974,1.871.546,5.5.546,6.509-.35,4.288.585,4.366l.272-.04s.312-3.821.312-4.988-.428-5.3.234-5.887,1.521-.583,1.674,1.4.392,3.664.585,5.183a15.84,15.84,0,0,1,0,3.392c-.038.663-.233,2.261.467,2.338s1.209-2.922,1.56-4.247.585-4.328,1.871-4.054.39,3.9.157,5.65a48.19,48.19,0,0,0-.622,6.119,24.639,24.639,0,0,1-1.521,9.024c-1.1,2.659-.763,33.848-.481,48.4h-9.219l.034-38.011Zm-65.047,10.7s-.117-6.666.272-8.03,3.157-4.56,4.482-6.391,1.249-2.845,2.106-4.054a14.054,14.054,0,0,0,1.714-2.728c.35-.859,1.325-1.833.467-2.221s-1.638-.352-2.806.935-2.144,3.664-3.079,3.547-1.247-1.4-1.131-3.352.859-2.69,1.012-3.937.742-5.028.78-6.08-.272-1.987-.818-2.064-1.17.35-1.6,2.378-.968,3.7-1.419,5.845-.958,2.028-1.231,1.754-.04-2.961,0-4.482-.143-5.691-.131-6.7-.493-1.559-1.194-1.443-1.014.391-.976,1.872-.545,5.5-.545,6.509.35,4.287-.585,4.366l-.272-.04s-.314-3.82-.314-4.99.429-5.3-.234-5.885-1.518-.584-1.674,1.4-.39,3.664-.584,5.184a15.728,15.728,0,0,0,0,3.39c.038.663.233,2.262-.469,2.338s-1.209-2.922-1.559-4.247-.585-4.326-1.871-4.054-.389,3.9-.155,5.653a48.149,48.149,0,0,1,.622,6.119,24.583,24.583,0,0,0,1.521,9.022c.875,2.113.841,22.226.649,37.7h9.041l-.023-27.315Zm180.088-15.8s-.116-6.666.276-8.03,3.155-4.56,4.48-6.392,1.247-2.845,2.1-4.052a14.122,14.122,0,0,0,1.716-2.73c.352-.857,1.324-1.832.469-2.221s-1.638-.35-2.807.934-2.144,3.664-3.08,3.547-1.246-1.4-1.129-3.352.857-2.69,1.014-3.937.74-5.029.78-6.08-.274-1.988-.819-2.066-1.17.352-1.6,2.378-.97,3.7-1.42,5.847-.958,2.026-1.232,1.753-.038-2.962,0-4.483-.143-5.69-.131-6.7-.491-1.561-1.194-1.443-1.012.39-.973,1.87-.546,5.5-.546,6.509.35,4.288-.584,4.366l-.274-.038s-.312-3.819-.312-4.99.428-5.3-.234-5.885-1.521-.584-1.676,1.4-.391,3.662-.584,5.181a15.793,15.793,0,0,0,0,3.392c.038.663.234,2.26-.467,2.338s-1.209-2.924-1.561-4.249-.583-4.326-1.869-4.052-.391,3.9-.157,5.65a48.358,48.358,0,0,1,.622,6.119,24.624,24.624,0,0,0,1.521,9.024c1.258,3.041.634,43.393.366,53.5h9.337L560.88,255.6Zm-154.444,1.863s-.116-6.667.272-8.032,3.158-4.56,4.483-6.391,1.247-2.845,2.105-4.054a13.99,13.99,0,0,0,1.714-2.728c.35-.857,1.326-1.831.469-2.221s-1.638-.352-2.807.936-2.144,3.664-3.079,3.547-1.247-1.4-1.131-3.352.859-2.689,1.012-3.937.742-5.028.781-6.08-.273-1.988-.819-2.066-1.169.35-1.6,2.378-.97,3.7-1.42,5.846-.958,2.028-1.231,1.754-.038-2.962,0-4.482-.145-5.692-.129-6.706-.494-1.559-1.2-1.441-1.014.389-.976,1.87-.545,5.5-.545,6.509.35,4.287-.585,4.366l-.272-.04s-.314-3.82-.314-4.99.432-5.3-.233-5.884-1.521-.585-1.674,1.4-.391,3.664-.585,5.184a15.8,15.8,0,0,0,0,3.392c.038.663.234,2.26-.467,2.338s-1.209-2.922-1.559-4.247-.585-4.326-1.872-4.054-.39,3.9-.155,5.651a48.285,48.285,0,0,1,.622,6.119,24.56,24.56,0,0,0,1.521,9.023c1.191,2.88.7,39.2.414,51.638h9.288l-.036-41.25Zm13.42-24.592s.171-9.77-.4-11.767-4.626-6.682-6.567-9.367-1.829-4.168-3.084-5.938a20.638,20.638,0,0,1-2.513-4c-.513-1.258-1.942-2.684-.686-3.255s2.4-.515,4.114,1.37,3.14,5.368,4.511,5.2,1.827-2.055,1.658-4.911-1.258-3.942-1.485-5.77-1.086-7.365-1.143-8.909.4-2.913,1.2-3.026,1.712.513,2.342,3.483,1.419,5.426,2.079,8.566,1.4,2.97,1.8,2.57.056-4.339,0-6.568.212-8.338.192-9.822.721-2.284,1.748-2.113,1.485.571,1.428,2.741.8,8.055.8,9.538-.513,6.282.857,6.4l.4-.058s.457-5.6.457-7.309-.63-7.766.342-8.624,2.227-.857,2.455,2.055.571,5.369.855,7.6a22.954,22.954,0,0,1,0,4.969c-.056.972-.34,3.312.686,3.426s1.772-4.281,2.285-6.225.857-6.339,2.742-5.939.569,5.71.227,8.281a71.254,71.254,0,0,0-.913,8.967,35.965,35.965,0,0,1-2.229,13.221c-1.992,4.815-.767,73.451-.455,81.064H419.8l.058-65.842Zm54.167-69.23a4.811,4.811,0,1,0-8.744-4.013,4.81,4.81,0,1,0-6.01,7.51c.066.052.135.1.2.149l9.065,6.682,5.282-9.949c.074-.124.141-.251.2-.38Zm137.191-79.7a3.775,3.775,0,1,0-4.109-6.333,3.774,3.774,0,1,0-7.137,2.454c.023.062.048.123.073.184l3.2,8.237,7.68-4.376c.1-.05.2-.108.293-.165ZM504.9,143.86a3.538,3.538,0,1,0-5.577-4.354,3.538,3.538,0,1,0-5.576,4.355c.038.048.079.1.119.143l5.356,6.321,5.47-6.227c.074-.076.143-.157.208-.238Zm103.61,26.675a6.523,6.523,0,1,0-11.309,0c.039.05.079.1.121.143l5.43,6.41,5.545-6.312c.074-.078.146-.157.213-.241Zm15,42.594a6.432,6.432,0,1,0-10.8-2.8c.026.058.052.112.081.168l3.594,7.464,6.861-4.649c.088-.057.177-.116.262-.179Zm-112.983-7.417a3.539,3.539,0,1,0-4.264-5.647,3.538,3.538,0,1,0-6.513,2.767c.024.057.051.113.08.168l3.539,7.491,6.894-4.6c.09-.056.177-.113.263-.177Zm29.724-55.153a3.539,3.539,0,1,0-5.579-4.356,3.538,3.538,0,1,0-5.575,4.357c.038.048.078.1.119.141l5.355,6.321,5.47-6.227c.074-.076.143-.155.211-.237Zm-181.712,64.7a3.538,3.538,0,1,0-3.143-6.34,3.538,3.538,0,1,0-6.912,1.513c.014.06.029.119.048.178l2.09,8.017,7.627-3.245A3.143,3.143,0,0,0,358.538,215.255ZM471.7,200.9a3.538,3.538,0,1,0-5.577-4.354,3.538,3.538,0,1,0-5.577,4.355c.04.05.08.1.121.143l5.356,6.321,5.47-6.227c.073-.076.143-.155.208-.238ZM339.342,94.7a4.3,4.3,0,1,0-8.33-2.112,4.3,4.3,0,1,0-4.07,7.568c.067.034.135.067.2.1l9.044,4.408,3.036-9.6c.044-.121.082-.243.116-.366Zm43.134-1.363a4.218,4.218,0,1,0-7.245-4.322,4.217,4.217,0,1,0-5.947,5.979c.052.052.107.1.162.151l7.273,6.681,5.545-8.177c.075-.1.146-.2.212-.312Zm36.444-28.305a4.87,4.87,0,1,0-4.842-8.45,4.869,4.869,0,1,0-9.37,2.651c.024.081.051.163.08.242l3.536,10.838,10.207-5.089c.133-.058.263-.124.389-.193Zm-8.14,52.338a4.636,4.636,0,1,0-5.726-7.292,4.635,4.635,0,1,0-8.461,3.787c.034.074.071.148.109.219l4.825,9.722,8.913-6.2c.117-.073.23-.153.34-.236Zm169.3,10.343a4.12,4.12,0,1,0-6.494-5.07,4.12,4.12,0,1,0-6.492,5.072c.045.057.091.112.14.165l6.235,7.36,6.369-7.249c.086-.089.167-.181.243-.278Zm-16.64,47.463a3.538,3.538,0,1,0-7.058-.494,3.539,3.539,0,1,0-2.19,6.729c.059.02.118.036.177.052l7.975,2.248,1.056-8.223c.018-.1.031-.208.039-.312Zm56.489-48.557a4.023,4.023,0,1,0-6.341-4.951,4.023,4.023,0,1,0-6.34,4.953c.044.054.089.109.137.161l6.088,7.187,6.219-7.08c.083-.087.163-.177.237-.27ZM541.25,66.871a3.993,3.993,0,1,0-7.805-1.688,3.993,3.993,0,1,0-3.53,7.163c.064.031.127.06.192.086l8.545,3.8,2.5-9.013a3.093,3.093,0,0,0,.1-.344ZM445.8,84.448a3.539,3.539,0,1,0-5.572-4.363,3.538,3.538,0,1,0-5.582,4.348c.039.048.079.1.121.141l5.346,6.329,5.479-6.219c.073-.075.143-.154.209-.236ZM394.6,188.264a3.7,3.7,0,1,0-2.565-6.95,3.7,3.7,0,1,0-7.365.805c.008.066.016.129.029.192l1.284,8.579,8.3-2.529c.107-.026.213-.059.317-.1ZM340.282,190.3a3.538,3.538,0,1,0-5.577-4.354,3.538,3.538,0,1,0-5.577,4.355q.059.072.121.143l5.356,6.321,5.47-6.227c.073-.076.143-.157.208-.238Zm89.164-33.365a3.539,3.539,0,1,0-5.58-4.354,3.537,3.537,0,1,0-5.575,4.355c.04.048.078.1.121.141l5.355,6.323,5.47-6.227c.073-.075.143-.154.209-.237Zm-38.631-12.043a3.539,3.539,0,1,0-5.578-4.356,3.538,3.538,0,1,0-5.576,4.356c.038.048.079.1.119.143l5.356,6.321,5.47-6.227c.073-.076.143-.157.209-.238Zm119.566,23.9a3.539,3.539,0,1,0-6.891-1.616,3.538,3.538,0,1,0-3.238,6.292c.054.028.111.053.167.079l7.512,3.5,2.357-7.946c.034-.1.066-.2.091-.3ZM447.6,122.8a4.337,4.337,0,1,0-8.659.5,4.337,4.337,0,1,0-1.619,8.521c.076.014.149.024.225.034l10.046,1.5.008-10.162c.006-.129.006-.257,0-.386Zm120.09-35.383a4.068,4.068,0,1,0-8.056,1.133,4.069,4.069,0,1,0-.852,8.092c.072.006.143.012.213.012l9.506.622-.78-9.5c-.006-.123-.015-.242-.03-.362Zm-215.5,58.5a3.682,3.682,0,1,0-5.8-4.531,3.683,3.683,0,1,0-5.8,4.533c.042.05.082.1.125.147l5.574,6.579,5.692-6.48c.076-.079.149-.162.217-.248Z" transform="translate(-300.884 -0.037)"/>
  </g>
</svg>
