<svg xmlns="http://www.w3.org/2000/svg" xmlns:xlink="http://www.w3.org/1999/xlink" viewBox="0 0 105.879 105.88">
  <defs>
    <style>
      .cls-1 {
        fill-rule: evenodd;
        fill: url(#linear-gradient);
      }
    </style>
    <linearGradient id="linear-gradient" x1="0.155" y1="0.195" x2="0.869" y2="0.85" gradientUnits="objectBoundingBox">
      <stop offset="0" stop-color="#fcec94"/>
      <stop offset="0.169" stop-color="#f0c46c"/>
      <stop offset="0.502" stop-color="#fffabd"/>
      <stop offset="0.82" stop-color="#f0c46c"/>
      <stop offset="1" stop-color="#fce79a"/>
    </linearGradient>
  </defs>
  <path id="Path_1239" data-name="Path 1239" class="cls-1" d="M796.841,2369.03a52.921,52.921,0,0,1-90.418-53.98l-.035-.016,0-.009,0-.009,0-.009,0-.007v0l0-.009,0-.006,0-.011,0-.007v0l0-.007,0-.009,0-.011,0-.007v0l0-.007,0-.01,0-.012,0,0v0l.009-.019,0-.009,0-.007v0l0-.008,0-.007,0-.011,0-.007v0l0-.007,0-.009,0-.011,0-.007,0-.009,0-.009,0-.012,0,0v0l0-.009,0-.009,0-.009,0-.007h0l0-.009,0-.007,0-.012,0-.007v0l0-.007,0-.01,0-.011,0-.007,0-.009,0-.01,0-.011,0-.007,0-.01,0-.009,0-.007,0-.008v0l0-.009,0-.007,0-.009,0-.009v0l0-.007,0-.009,0-.009,0-.009,0-.009,0-.009,0-.009,0-.007,0-.007,0,0,0,0,0,0,0,0,0,0,0,0,0,0v0l0,0,0,0v0l0,0,0,0,0,0,0-.007,0,0v0l0,0,0,0,0,0,0,0,0,0,0-.007,0,0,0,0v0l0,0,0,0,0,0,0,0v0l0-.007,0,0,0,0v0l0,0,0,0,0,0,0-.007v0l0,0,0,0,0,0v0l0,0,0,0,0,0,0,0,0,0,0,0,0,0v0l0,0,0,0,0-.007,0,0,0,0,0,0,0,0v0h0l0-.011,0,0,0,0,0,0,0,0,0,0h0l.007-.016.007-.014,0,0,0-.009,0-.014.007-.014.009-.014.007-.016,0-.007,0,0,.006-.016.007-.012h0l.007-.014.007-.011,0-.012,0,0,.007-.014.009-.014v0l.007-.009,0-.014.007-.014.009-.016.007-.013,0,0,0-.011.009-.014.007-.011v0l.007-.014,0-.014,0-.007,0-.01.007-.011.007-.016.006-.012.007-.015,0-.007,0,0,.007-.016.007-.014,0,0,0-.011.007-.014.007-.011v0l.009-.014,0-.016,0,0,0-.009.009-.013,0-.013h0l0-.016.007-.012,0-.007,0-.009.007-.012,0-.016.009-.014.006-.014,0-.007,0-.006.007-.014.007-.016.007-.011.009-.016,0-.007,0,0,.007-.016.009-.012v0l.011-.023.007-.013,0,0,.007-.01.007-.016,0,0,0-.007.007-.016.007-.011v0l.04.021a52.925,52.925,0,1,1,89.555,55.731h0Zm-33.515-59.877a.593.593,0,1,1,.595-.593A.592.592,0,0,1,763.326,2309.153Zm22.977,49.083v-11.49l-2.554-3.464v14.954Zm-4.857,0v-17.658l-3.919-5.328v22.986Zm-6.36,0v-29.373l-6.52-8.861v38.235Zm-53.085,0v-11.49l2.545-3.464v14.954Zm4.839,0v-17.658l3.906-5.328v22.986Zm6.34,0v-29.373l6.5-8.861v38.235Zm1.111-42.423,9.221-7.99-.007-3.456.349-.04.755,2.85s6.172-4.179,11.5-7.015a77.129,77.129,0,0,1,7.645-3.757l.67,0,0,9.345-.656,0,0-8.447-16.716,10.051-.661,1.064-.845,1.337v31.635l-.892,16.853-1.154,0-.1-47.942-6.614,5.115-2.5.4Zm28.19,41.042a.593.593,0,1,1,.592-.594A.595.595,0,0,1,762.48,2356.855Zm-.816-45.531h1.071v40.238h-1.071Zm-2.056,45.531a.593.593,0,1,1,.6-.594.594.594,0,0,1-.6.594Zm-2.858,0a.593.593,0,1,1,.592-.594A.595.595,0,0,1,756.75,2356.855Zm-2.726-1.481h-1.367v-1.237h1.367Zm0,1.5h-1.367v-1.234h1.367Zm-1.673-1.5h-1.367v-1.237h1.367Zm0,1.5h-1.367v-1.234h1.367Zm8.488-41.675h-3.56v-3.216h3.56Zm-.043,28.157h-3.561v-3.213H760.8Zm.007-16.111h-3.561v-3.213H760.8Zm.011-8.01h-3.561v-3.215h3.561v3.215Zm.014,3.975h-3.561V2320h3.561Zm-3.556,4.886h3.561v3.214h-3.561Zm-.025,4.037h3.563v3.213h-3.563Zm.014,3.976h3.561v3.212H757.26Zm3.554,15.14h-3.561v-3.211h3.561Zm-3.561-7.128h3.561v3.213h-3.561Zm-.809-.764h-3.561v-3.213h3.561Zm0-16.111H752.89v-3.213h3.559Zm.014-8.01H752.9v-3.215h3.561v3.215Zm-3.536-7.252h3.56v3.216h-3.56v-3.216Zm3.547,11.227h-3.559V2320h3.559Zm-3.554,4.886h3.561v3.214H752.92Zm-.025,4.037h3.561v3.213h-3.561Zm.014,3.976h3.559v3.212h-3.559Zm3.554,15.14H752.9v-3.211h3.561Zm-3.561-7.128h3.561v3.213H752.9Zm-1.918-32.8h1.067v40.238h-1.067Zm-.6-2.171a.593.593,0,1,1,.592-.593A.593.593,0,0,1,750.385,2309.153Zm2.288,0h8.37a1.7,1.7,0,0,1,1.692,1.692h-11.75a1.694,1.694,0,0,1,1.688-1.692Zm-3.383,49.083h15.135V2307.5H749.29v50.738Zm0-50.738v0Zm-19.8,59.647h7.333v6.641H735.1v-4.928h-3.88v4.928h-1.726Zm8.58,6.641v-6.641h6.039v1.6H739.8v.927h4.117v1.594H739.8v.912h4.312v1.6Zm7.678-6.641h4.219a2.859,2.859,0,0,1,1.82.4,4.32,4.32,0,0,1,.007,4.21,2.831,2.831,0,0,1-1.827.409h-2.493v1.625h-1.726v-6.641Zm1.726,3.3h2.493a.612.612,0,0,0,.464-.163.875.875,0,0,0,.187-.634.915.915,0,0,0-.187-.635.628.628,0,0,0-.464-.158h-2.493v1.589Zm7.669.694h2.987a.534.534,0,0,1,.376.118.57.57,0,0,1,.128.432.443.443,0,0,1-.5.5h-2.987v-1.048Zm-1.725-4v6.641h5.216a1.776,1.776,0,0,0,1.325-.418,2.029,2.029,0,0,0,.4-1.421,1.61,1.61,0,0,0-.774-1.571.973.973,0,0,0,.407-.484,2.064,2.064,0,0,0,.164-.874,1.913,1.913,0,0,0-.547-1.6,1.958,1.958,0,0,0-1.178-.276Zm1.725,1.613h3.059a.457.457,0,0,1,.322.1.463.463,0,0,1,.111.344.394.394,0,0,1-.432.447h-3.059v-.891Zm13.968-1.613h1.725v6.641h-1.725Zm-7.536,6.641v-6.641H763.3v1.632h2.5a2.81,2.81,0,0,1,1.817.409,2.533,2.533,0,0,1-1.817,4.6Zm1.723-3.3v1.58h2.5a.635.635,0,0,0,.462-.149.879.879,0,0,0,.18-.631.919.919,0,0,0-.164-.628.636.636,0,0,0-.478-.172Zm8.715-3.345h1.726v4.571l-.135.7.2-.363,2.951-4.9h2.822v6.63H777.86v-4.58l.142-.7-.2.361-2.957,4.916h-2.823v-6.63Zm5.349-1.282H774.59v.91h2.776Zm-47.375-1.372h-.5v-3.455h2.519v.71h-1.874v2.745Zm2.123-.142v-3.314h2.133a.766.766,0,0,1,.352.077.67.67,0,0,1,.27.231.962.962,0,0,1,.162.366,2.013,2.013,0,0,1,.052.479,1.386,1.386,0,0,1-.219.846.731.731,0,0,1-.274.23.806.806,0,0,1-.356.076h-1.473v1.149h-.646v-.142Zm.646-1.719h1.473a.136.136,0,0,0,.07-.016.194.194,0,0,0,.062-.059.484.484,0,0,0,.047-.134,1.105,1.105,0,0,0,.018-.232.77.77,0,0,0-.066-.37.178.178,0,0,0-.06-.058.173.173,0,0,0-.077-.016h-1.468v.885Zm3.973,1.148a.385.385,0,0,0,.185-.035.227.227,0,0,0,.048-.046c0-.007.012-.011.016-.018l-1.889-2.644h.85l1.374,1.96.86-1.96h.726l-1.238,2.809a1.4,1.4,0,0,1-.16.279.958.958,0,0,1-.209.2.828.828,0,0,1-.265.124,1.168,1.168,0,0,1-.314.041h-.941v-.712Zm2.371-2.743h2.969v3.455h-.649v-2.745h-1.813v2.745h-.649v-3.455Zm3.428,0H745.5v3.455h-.647v-2.745h-1.813v2.745h-.651v-3.455Zm5.259.089,1.362,3.366h-.717l-.288-.7H746.6l-.286.7h-.718l1.4-3.455h.762l.036.089Zm.088,1.952-.5-1.255-.5,1.255Zm3.131,1.272v-3.314h.647v1.287h.169l1.479-1.287h1.056l-1.879,1.641,1.974,1.814h-1.016l-1.613-1.46h-.169v1.46h-.647Zm5.005.188a5.451,5.451,0,0,1-.663-.035,1.724,1.724,0,0,1-.455-.1.8.8,0,0,1-.3-.228.885.885,0,0,1-.164-.357,2.207,2.207,0,0,1-.046-.4c-.011-.175-.016-.391-.016-.646s0-.474.014-.651a2.58,2.58,0,0,1,.044-.393.871.871,0,0,1,.166-.36v0a.79.79,0,0,1,.307-.228,1.728,1.728,0,0,1,.458-.107,5.866,5.866,0,0,1,.66-.035,3.2,3.2,0,0,1,1.118.139.792.792,0,0,1,.3.226.963.963,0,0,1,.166.362,2.474,2.474,0,0,1,.046.4c.009.175.016.391.016.646s-.007.475-.016.651a2.092,2.092,0,0,1-.044.391.929.929,0,0,1-.162.36.791.791,0,0,1-.305.23,1.732,1.732,0,0,1-.458.1,5.477,5.477,0,0,1-.665.035h0Zm0-.711a4.2,4.2,0,0,0,.646-.039.47.47,0,0,0,.24-.075.644.644,0,0,0,.078-.268,4.779,4.779,0,0,0,.035-.676,4.872,4.872,0,0,0-.035-.684.623.623,0,0,0-.076-.267.478.478,0,0,0-.24-.076,4.385,4.385,0,0,0-.649-.039,1.789,1.789,0,0,0-.89.114.657.657,0,0,0-.073.267,4.821,4.821,0,0,0-.037.684,4.7,4.7,0,0,0,.037.674.644.644,0,0,0,.075.267.48.48,0,0,0,.243.077,4.2,4.2,0,0,0,.644.039Zm2.9-2.71,1.133,2.343,1.175-2.423h.882v3.455h-.649v-2.425l-1.207,2.425h-.4l-1.2-2.418v2.418h-.648v-3.455h.88l.039.08Zm3.762-.08h2.969v3.455h-.651v-2.745h-1.813v2.745h-.647v-3.455Zm5.257.089,1.361,3.366h-.715l-.29-.7h-1.55l-.286.7h-.717l1.4-3.455h.759l.037.089Zm.084,1.952-.5-1.255-.5,1.255h1Zm1.467-2.041h.5v1.346h1.817v-1.346h.649v3.455h-.649v-1.4h-1.817v1.4h-.646v-3.455Zm5.837,0H776v3.455h-.651v-2.473l-1.862,2.473h-.764v-3.455h.65v2.5l1.881-2.5Zm3.6,0h.674v3.455h-.649v-2.473l-1.863,2.473h-.763v-3.455h.649v2.493l1.881-2.493Zm-1.532-.469h1.234v.711h-1.376v-.711Zm24.764-23.169a47.6,47.6,0,1,1-13.941-33.652A47.435,47.435,0,0,1,802.157,2337.4Zm-15.2,32.4a45.821,45.821,0,1,0-32.4,13.419A45.683,45.683,0,0,0,786.959,2369.8Zm13.805-15.438a49.337,49.337,0,1,0-45,32.4A49.235,49.235,0,0,0,800.764,2354.357Z" transform="translate(-701.445 -2284.462)"/>
</svg>
