<svg xmlns="http://www.w3.org/2000/svg" xmlns:xlink="http://www.w3.org/1999/xlink" viewBox="0 0 347.79 320.228">
  <defs>
    <style>
      .cls-1 {
        fill: none;
      }

      .cls-2 {
        fill-rule: evenodd;
        fill: url(#linear-gradient);
      }
    </style>
    <linearGradient id="linear-gradient" x1="0.178" y1="0.27" x2="0.859" y2="0.835" gradientUnits="objectBoundingBox">
      <stop offset="0" stop-color="#fcec94"/>
      <stop offset="0.169" stop-color="#f0c46c"/>
      <stop offset="0.502" stop-color="#fffabd"/>
      <stop offset="0.82" stop-color="#f0c46c"/>
      <stop offset="1" stop-color="#fce79a"/>
    </linearGradient>
  </defs>
  <g id="архи" transform="translate(-0.01 0.01)">
    <rect id="Rectangle_2671" data-name="Rectangle 2671" width="347.789" height="320.228" transform="translate(0.011 -0.01)"/>
    <path id="Path_1359" data-name="Path 1359" class="cls-2" d="M284.025,935.935v4.427a.49.49,0,0,1-.386.475l-.334.048a1.4,1.4,0,0,0-.317.059.493.493,0,0,1-.193.039.487.487,0,0,1-.487-.487l0-4.576a.487.487,0,0,1,.523-.447l.3.009.406-.036a.488.488,0,0,1,.489.487ZM5.655,987.987c1.349,0,2.34-1.022,2.34-2.823S7,982.34,5.655,982.34s-2.338,1.022-2.338,2.823S4.314,987.987,5.655,987.987Zm0-1.068c-.622,0-1.06-.515-1.06-1.755s.437-1.754,1.06-1.754,1.069.515,1.069,1.754S6.287,986.919,5.655,986.919ZM.01,982.435v1.014H1.1v4.444H2.365v-5.458H.011ZM261.532,845.643v1.014h1.092V851.1h1.262v-5.459Zm2.373,99.407,1.807,1.106.963.66h.53a.491.491,0,0,1,.3-.056l.286.018.392-.039a.489.489,0,0,1,.263.078h13.863v-2.695l.029-.161a.486.486,0,0,1,.618-.3l.285.079.3.042a.488.488,0,0,1,.485.487v2.548h17.585v-24.8h-4.348a.488.488,0,0,1-.475-.392,3.051,3.051,0,0,1-.052-.508l-.022-.328a.488.488,0,0,1,.487-.487h4.411V871.636H286.945v.96a.491.491,0,0,1-.236.414l-.109.058a1.609,1.609,0,0,1-.461.083A1.072,1.072,0,0,1,285.5,873a.671.671,0,0,1-.206-.225.487.487,0,0,1-.069-.251v-.884H250.063l0,.648a.487.487,0,0,1-.537.427l-.306-.015-.38.032a.487.487,0,0,1-.487-.487v-.472H227.682v35.459h3.875a.489.489,0,0,1,.478.394c.01.06.133.344.2.508l.048.109a.474.474,0,0,1,.052.217.488.488,0,0,1-.487.487H227.59v37.874h.143l.748-.471,1.965-1.311a.369.369,0,0,1,.545.193l.294.652a.544.544,0,0,1-.159.66l-.4.259h32.848l-.38-.268a.546.546,0,0,1-.145-.666l.308-.64a.367.367,0,0,1,.549-.173Zm2.827,3.481-2.821,1.668a.368.368,0,0,1-.543-.187l-.3-.65a.546.546,0,0,1,.155-.662l.2-.133-13.043-.037H230.893l.251.181a.55.55,0,0,1,.139.668l-.3.612a.373.373,0,0,1-.525.217l-3-1.678h-1.1a.487.487,0,0,1-.487-.487v-39h-2.487V950.86h43.564v-2.33h-.219Zm62.814-37.916,1.106-1.807.636-.929v-.048h-7.6v38.988h7.6v-.066l-.448-.71-1.311-1.965a.369.369,0,0,1,.193-.545l.652-.294a.543.543,0,0,1,.66.159l.255.392V910.955l-.264.374a.548.548,0,0,1-.666.145l-.64-.308a.367.367,0,0,1-.173-.549Zm3.506-2.785,1.643,2.779a.367.367,0,0,1-.189.543l-.648.3a.546.546,0,0,1-.662-.155l-.133-.2L333,932.7v10.961l.2-.284a.549.549,0,0,1,.668-.139l.612.3a.373.373,0,0,1,.217.525l-1.543,2.755h3.813a2.727,2.727,0,0,1,1.7-2.022l.034-.015a3.2,3.2,0,0,1,2.453.083l.032.014a2.773,2.773,0,0,1,1.6,2.616,2.8,2.8,0,0,1-1.28,2.435l-.03.021a3.139,3.139,0,0,1-2.682.3,2.77,2.77,0,0,1-1.72-1.722H333v19.634h3.915a2.725,2.725,0,0,1,1.73-2.079,3.2,3.2,0,0,1,2.457.072,2.769,2.769,0,0,1,1.641,2.638,2.8,2.8,0,0,1-1.274,2.428,3.084,3.084,0,0,1-1.314.478,3.116,3.116,0,0,1-1.388-.143,2.776,2.776,0,0,1-1.71-1.676H323.511v26.448a2.728,2.728,0,0,1,2.028,1.7l.012.029a3.2,3.2,0,0,1,.2,1.25,3.153,3.153,0,0,1-.282,1.189l-.018.045a2.774,2.774,0,0,1-2.62,1.6,2.8,2.8,0,0,1-2.452-1.306,3.142,3.142,0,0,1-.3-2.684,2.777,2.777,0,0,1,1.72-1.72v-9.8H307.153l-.039,9.575a2.732,2.732,0,0,1,2.025,1.694l.015.036a3.212,3.212,0,0,1-.1,2.488,2.775,2.775,0,0,1-2.618,1.6,2.806,2.806,0,0,1-2.451-1.306,3.143,3.143,0,0,1-.306-2.688,2.768,2.768,0,0,1,1.724-1.718l.038-9.678H268.669v9.515a2.718,2.718,0,0,1,2.253,1.737,3.215,3.215,0,0,1,0,2.376,2.756,2.756,0,0,1-2.692,1.763,2.828,2.828,0,0,1-2.318-1.123,3.1,3.1,0,0,1-.467-2.795,2.8,2.8,0,0,1,1.507-1.682v-9.792H223.394v9.575a2.719,2.719,0,0,1,2.036,1.729,3.189,3.189,0,0,1-.1,2.482,2.772,2.772,0,0,1-2.617,1.6,2.806,2.806,0,0,1-2.454-1.309,3.146,3.146,0,0,1-.317-2.658l.009-.028a2.771,2.771,0,0,1,1.72-1.716v-9.68H207.54v9.575a2.724,2.724,0,0,1,2.038,1.729,3.175,3.175,0,0,1,.2,1.243,3.221,3.221,0,0,1-.3,1.24,2.775,2.775,0,0,1-2.617,1.6,2.8,2.8,0,0,1-2.454-1.309,3.092,3.092,0,0,1-.458-1.308,3.157,3.157,0,0,1,.143-1.349l.01-.029a2.769,2.769,0,0,1,1.72-1.715V961.7l.024-.151v-8.939H191.861a2.761,2.761,0,0,1-1.723,1.746,3.168,3.168,0,0,1-1.368.154,3.1,3.1,0,0,1-1.3-.444,2.805,2.805,0,0,1-1.33-2.467,2.777,2.777,0,0,1,1.577-2.606,3.136,3.136,0,0,1,1.23-.312,3.219,3.219,0,0,1,1.272.2,2.736,2.736,0,0,1,1.728,2.014h4.587V909.047h-4.647a2.761,2.761,0,0,1-1.723,1.746,3.153,3.153,0,0,1-2.67-.29,2.946,2.946,0,0,1,.215-5.055l.032-.018a3.138,3.138,0,0,1,1.229-.312,3.22,3.22,0,0,1,1.273.2,2.732,2.732,0,0,1,1.728,2.014h4.913l.137-.02h8.831V896.284a.488.488,0,0,1,.487-.487H221.67v-29.65a.488.488,0,0,1,.487-.487h3.716v-8.845a.5.5,0,0,1,.068-.249v-2.056a2.766,2.766,0,0,1-1.722-1.715,3.144,3.144,0,0,1,.3-2.685,2.8,2.8,0,0,1,2.457-1.31,2.769,2.769,0,0,1,2.617,1.6,3.191,3.191,0,0,1,.1,2.467l-.007.02a2.73,2.73,0,0,1-2.038,1.729l.012,1.96,1.113-.7,1.965-1.311a.369.369,0,0,1,.545.193l.294.652a.543.543,0,0,1-.159.66l-.4.259h17.319v-1.917a2.77,2.77,0,0,1-1.72-1.72,3.135,3.135,0,0,1,.306-2.684,2.807,2.807,0,0,1,2.452-1.306,2.774,2.774,0,0,1,2.594,1.553l.024.043a3.206,3.206,0,0,1,.1,2.489,2.734,2.734,0,0,1-2.04,1.731v1.811h35.057v-1.917a2.772,2.772,0,0,1-1.72-1.717,3.141,3.141,0,0,1,.306-2.687,2.809,2.809,0,0,1,2.452-1.3,2.778,2.778,0,0,1,2.616,1.6,3.2,3.2,0,0,1,.1,2.488,2.739,2.739,0,0,1-2.041,1.731v1.811H298.56l-.38-.268a.548.548,0,0,1-.145-.666l.308-.64a.367.367,0,0,1,.549-.173l1.76,1.25.976.668-.02-2.087a2.771,2.771,0,0,1-1.72-1.72,3.139,3.139,0,0,1,.3-2.682,2.809,2.809,0,0,1,2.453-1.308,2.775,2.775,0,0,1,2.615,1.6,3.2,3.2,0,0,1,.1,2.488,2.733,2.733,0,0,1-2.038,1.73V865.66H306.8a.487.487,0,0,1,.487.487V895.8h29.394a2.744,2.744,0,0,1,1.729-1.9,3.165,3.165,0,0,1,2.563.177l.01.006a2.949,2.949,0,0,1,.037,5.082,3.135,3.135,0,0,1-1.276.386,3.175,3.175,0,0,1-1.324-.176,2.751,2.751,0,0,1-1.726-1.859H333v8.6H336.7a2.737,2.737,0,0,1,1.728-2.014,3.194,3.194,0,0,1,2.5.113,2.946,2.946,0,0,1,.246,5.072,3.154,3.154,0,0,1-2.67.29,2.771,2.771,0,0,1-1.723-1.746H333.05Zm-68.607,58.589,1.759,1.25.726.5h.02v-2.736H223.394v2.736h.061l.716-.453,1.966-1.311a.368.368,0,0,1,.544.193l.295.652a.545.545,0,0,1-.159.66l-.4.259h37.694l-.38-.268a.546.546,0,0,1-.145-.666l.308-.64a.366.366,0,0,1,.549-.173Zm2.507,3.768-2.5,1.382a.367.367,0,0,1-.543-.189l-.3-.648a.545.545,0,0,1,.155-.662l.2-.133-7.959-.02H226.611l.225.163a.55.55,0,0,1,.14.668l-.3.612a.373.373,0,0,1-.525.217l-2.756-1.543v14.881h43.557V970.186ZM301.61,858.234l-2.71,1.5a.367.367,0,0,1-.543-.189l-.3-.648a.545.545,0,0,1,.155-.662l.2-.133-11.575-.016v7.578h14.774v-7.428Zm-16.49-.151-27.083-.037h-7.974v7.617H285.12v-7.58Zm-53.949-.037.276.2a.549.549,0,0,1,.139.668l-.3.612a.373.373,0,0,1-.525.217l-3.03-1.7h-.074v7.617h20.69v-7.617Zm108.9,67.057A1.876,1.876,0,0,0,338,926.919a1.732,1.732,0,0,0,1.879,1.7,1.861,1.861,0,0,0,1.356-.492,1.456,1.456,0,0,1-1.535,1.591,1.759,1.759,0,0,1-1.022-.273l-.469.928a2.914,2.914,0,0,0,1.513.374,2.654,2.654,0,0,0,2.785-2.939c0-1.763-.929-2.706-2.441-2.706Zm.094,2.573a.821.821,0,1,1-.015-1.63c.6,0,.951.344.951.811a.847.847,0,0,1-.936.819Zm5.295,3.072c1.349,0,2.34-1.022,2.34-2.823s-.99-2.823-2.34-2.823-2.338,1.022-2.338,2.823S344.118,930.747,345.459,930.747Zm0-1.068c-.622,0-1.059-.515-1.059-1.754s.436-1.755,1.059-1.755,1.069.515,1.069,1.755S346.092,929.679,345.459,929.679Zm-106,42.216v1.014h1.092v4.446h1.262V971.9h-2.354Zm3.057,0v1.014h1.092v4.446h1.262V971.9h-2.354Zm5.646,5.552c1.349,0,2.34-1.022,2.34-2.823s-.99-2.823-2.34-2.823-2.338,1.022-2.338,2.823S246.825,977.446,248.165,977.446Zm0-1.067c-.624,0-1.06-.515-1.06-1.755s.436-1.754,1.06-1.754,1.068.515,1.068,1.754S248.8,976.379,248.165,976.379Zm-4.094-38.215a1.877,1.877,0,0,0-2.066,1.818,1.732,1.732,0,0,0,1.879,1.7,1.863,1.863,0,0,0,1.358-.491,1.456,1.456,0,0,1-1.537,1.591,1.759,1.759,0,0,1-1.022-.273l-.467.929a2.924,2.924,0,0,0,1.513.372,2.652,2.652,0,0,0,2.784-2.939c0-1.763-.928-2.706-2.44-2.706Zm.093,2.575a.822.822,0,1,1-.014-1.632c.6,0,.951.344.951.813A.848.848,0,0,1,244.164,940.739Zm5.3,3.071c1.349,0,2.34-1.022,2.34-2.823s-.99-2.823-2.34-2.823-2.338,1.022-2.338,2.823S248.12,943.811,249.461,943.811Zm0-1.067c-.622,0-1.06-.515-1.06-1.755s.437-1.754,1.06-1.754,1.069.515,1.069,1.754S250.093,942.743,249.461,942.743Zm19.114-94.511a1.269,1.269,0,0,0,.641-1.123c0-.959-.859-1.56-2.114-1.56s-2.1.6-2.1,1.56a1.26,1.26,0,0,0,.632,1.123,1.385,1.385,0,0,0-.827,1.286c0,1.03.911,1.676,2.292,1.676s2.308-.647,2.308-1.676A1.379,1.379,0,0,0,268.575,848.232Zm-1.473-1.755c.513,0,.857.258.857.686s-.336.671-.857.671-.843-.257-.843-.671S266.595,846.477,267.1,846.477Zm0,3.791c-.624,0-1.014-.306-1.014-.788s.391-.78,1.014-.78,1.028.3,1.028.78S267.732,850.268,267.1,850.268Zm5.225.927c1.349,0,2.34-1.022,2.34-2.823s-.99-2.823-2.34-2.823-2.338,1.022-2.338,2.823S270.986,851.194,272.326,851.194Zm0-1.068c-.622,0-1.06-.513-1.06-1.754s.437-1.755,1.06-1.755,1.069.515,1.069,1.755S272.958,850.126,272.326,850.126ZM154.221,825.376,154.1,843.1h0l-.058,9.41,22.4.084v1.589l-23.852,0L148.96,973.108c8.207,0,16.41-.008,24.615.028l-1.422-2.41a.487.487,0,0,1,.171-.666l.639-.377a.487.487,0,0,1,.663.171l.336.565.751-113.518-.71.006c-.791.015-.6-.394-.181-1.032l1.372-1.686h.737l1.209,1.555c.489.726.663,1.2-.169,1.171l-.533-.051-.765,113.25.129-.235a.487.487,0,0,1,.66-.192l.648.356a.49.49,0,0,1,.212.622l-1.716,3.9a.488.488,0,0,1-.447.29l-6.927-.031v3.16a.487.487,0,0,1-.487.487h-1.737V995.6a.486.486,0,0,1-.093.286v7.008a.487.487,0,0,1-.487.487h-.034l-3.572,1.629a.486.486,0,0,1-.658-.187l-.364-.649a.489.489,0,0,1,.189-.662l.238-.133-136.142-.091.4.235a.489.489,0,0,1,.169.668l-.364.612a.487.487,0,0,1-.636.217l-3.817-1.763a.488.488,0,0,1-.317-.456v-.742l.02-.14V996.13H12.767a.491.491,0,0,1-.207-.045H12.4a.49.49,0,0,1-.441-.287l-1.776-3.863a.49.49,0,0,1,.189-.622l.636-.38a.489.489,0,0,1,.666.169l.239.4V977.842l-.225.4a.485.485,0,0,1-.66.187l-.647-.361a.487.487,0,0,1-.189-.66l2.041-3.651a.489.489,0,0,1,.487-.485h5.958a.485.485,0,0,1,.369-.17h18.77L34.269,854.183H31.888a.487.487,0,0,1-.487-.487v-4.521L31.367,849l-.006-5.9h-.028l.024-3.306,0-1.884a.505.505,0,0,1,.016-.125l.09-12.414,1.71,0-.008,1.173,1.344-.847,1.966-1.311a.369.369,0,0,1,.545.192l.294.652a.547.547,0,0,1-.159.661l-.338.225,112.621.093-.465-.328a.549.549,0,0,1-.145-.666l.306-.641a.368.368,0,0,1,.551-.173l1.759,1.25,1.159.793.007-1.077,1.611,0Zm-1.693,12.03.065-9.455-2.9,1.6a.369.369,0,0,1-.544-.189l-.3-.648a.546.546,0,0,1,.155-.662l.2-.133-112.356-.093.328.236a.552.552,0,0,1,.138.668l-.3.611a.373.373,0,0,1-.524.219L33.337,827.8a.43.43,0,0,1-.181-.165l-.071,9.789,119.442-.018Zm-119.454,1.73,0,.538.01,8.434H75.845v-4.021a.488.488,0,0,1,.487-.487h33.9a.488.488,0,0,1,.489.487v4.021H152.49V839.12l-119.415.016Zm64.384-15.331c1.349,0,2.34-1.022,2.34-2.823s-.99-2.823-2.34-2.823-2.338,1.02-2.338,2.823S96.117,823.806,97.458,823.806Zm0-1.068c-.622,0-1.059-.515-1.059-1.754s.436-1.755,1.059-1.755,1.069.515,1.069,1.755S98.092,822.738,97.458,822.738Zm-3.75-1.894a1.271,1.271,0,0,0,.64-1.123c0-.959-.859-1.56-2.114-1.56-1.239,0-2.1.6-2.1,1.56a1.264,1.264,0,0,0,.632,1.123,1.384,1.384,0,0,0-.827,1.286c0,1.03.912,1.676,2.292,1.676s2.308-.647,2.308-1.676a1.38,1.38,0,0,0-.835-1.286Zm-1.474-1.755c.513,0,.857.258.857.686s-.336.671-.857.671-.843-.257-.843-.671S91.727,819.088,92.234,819.088Zm0,3.791c-.624,0-1.014-.306-1.014-.788s.391-.78,1.014-.78,1.028.3,1.028.78S92.866,822.879,92.234,822.879Zm-5.568-4.625v1.014h1.092v4.446H89.02v-5.459H86.666Zm82.022,99.207c1.349,0,2.34-1.022,2.34-2.823s-.99-2.823-2.34-2.823-2.338,1.022-2.338,2.823S167.347,917.461,168.688,917.461Zm0-1.068c-.622,0-1.06-.515-1.06-1.754s.437-1.755,1.06-1.755,1.069.515,1.069,1.755S169.32,916.393,168.688,916.393Zm-5.3,1.068c1.349,0,2.341-1.022,2.341-2.823s-.992-2.823-2.341-2.823-2.338,1.022-2.338,2.823S162.051,917.461,163.391,917.461Zm0-1.068c-.622,0-1.059-.515-1.059-1.754s.436-1.755,1.059-1.755,1.069.515,1.069,1.755S164.025,916.393,163.391,916.393Zm-5.108-2.432h-.445l.087-1.038H160.2V911.91h-3.33l-.28,3.072h1.4c.99,0,1.272.281,1.272.71s-.391.709-1.022.709a2.64,2.64,0,0,1-1.553-.492l-.5.968a3.774,3.774,0,0,0,2.083.584c1.56,0,2.268-.841,2.268-1.809s-.639-1.692-2.253-1.692ZM98.32,1011.739c1.349,0,2.34-1.02,2.34-2.823s-.99-2.823-2.34-2.823-2.338,1.022-2.338,2.823S96.979,1011.739,98.32,1011.739Zm0-1.067c-.622,0-1.059-.515-1.059-1.755s.436-1.754,1.059-1.754,1.069.515,1.069,1.754S98.952,1010.672,98.32,1010.672Zm-5.295,1.067c1.349,0,2.34-1.02,2.34-2.823s-.99-2.823-2.34-2.823-2.338,1.022-2.338,2.823S91.684,1011.739,93.025,1011.739Zm0-1.067c-.624,0-1.06-.515-1.06-1.755s.436-1.754,1.06-1.754,1.068.515,1.068,1.754S93.657,1010.672,93.025,1010.672Zm-5.193-.056,1.255-1.185a2.177,2.177,0,0,0,.913-1.724c0-.99-.813-1.614-2.028-1.614a2.532,2.532,0,0,0-2.167,1.015l.92.591a1.334,1.334,0,0,1,1.131-.545c.577,0,.873.249.873.68,0,.264-.086.545-.569,1.006l-2.106,1.988v.819H90.18v-1.03H87.832ZM284.026,928.7l0,3.136a.487.487,0,0,1-.525.444l-.3,0-.4.058a.487.487,0,0,1-.487-.487v-3.35a.54.54,0,0,1,.048-.2.488.488,0,0,1,.646-.234,2.232,2.232,0,0,0,.543.154.488.488,0,0,1,.481.487Zm-1.716-4.054v-3.855a.487.487,0,0,1,.487-.487l2.989.006a.489.489,0,0,1,.421.543,1.556,1.556,0,0,0,0,.34l.023.34a.487.487,0,0,1-.487.487h-1.716V924.8a.5.5,0,0,1-.187.38.485.485,0,0,1-.672-.071l-.37.018a.486.486,0,0,1-.487-.487Zm10.836-2.627h-3.359l-.124-.018a.488.488,0,0,1-.346-.594l.052-.3-.008-.322a.488.488,0,0,1,.487-.487h3.567a.506.506,0,0,1,.229.06.486.486,0,0,1,.2.658l-.139.309-.073.249a.486.486,0,0,1-.485.441Zm-26.194,14.33.006-6.163a.487.487,0,0,1,.546-.417l.312.026.366-.012a.488.488,0,0,1,.487.487v5.964a.489.489,0,0,1-.448.486l-.782.115a.488.488,0,0,1-.487-.487Zm1.717-15.157,0,4.939a.487.487,0,0,1-.521.449l-.306,0-.4.054a.488.488,0,0,1-.487-.489l0-5.014a.486.486,0,0,1,.525-.444,6.077,6.077,0,0,0,.7.02.488.488,0,0,1,.487.487Zm0-11.068v6.8a.489.489,0,0,1-.481.485l-.749.029a.487.487,0,0,1-.487-.487l0-6.885a.486.486,0,0,1,.508-.462l.72.034a.487.487,0,0,1,.487.487Zm-16.762-2.414a.487.487,0,0,1,.3-.448v-2.232h-2.145v3.43a.487.487,0,0,1-.487.487h-3.223v1.937h5.855v-2.111a.49.49,0,0,1-.3-.451V907.7Zm-3.558-2.68h-1.995v2.2h1.995Zm1.715-1.716h3.376a.487.487,0,0,1,.487.487v3.4l5.432-.105a.487.487,0,0,1,.436.53,6.064,6.064,0,0,0-.053.7.488.488,0,0,1-.487.489h-5.328v3.3a.487.487,0,0,1-.487.487h-8.313a.487.487,0,0,1-.487-.487v-3.285a.48.48,0,0,1-.173-.362l-.057-.75a.489.489,0,0,1,.229-.413v-3.5a.487.487,0,0,1,.487-.487h3.223l0-1.129a.486.486,0,0,1,.525-.443l.317.009.383-.026a.486.486,0,0,1,.487.487v1.1Zm36.393,5.5h-3.452v1.767h5.854V904.72h-1.915v3.6a.488.488,0,0,1-.487.489Zm-1.229-4.087h-2.223v2.368h2.223Zm-3.94,7.082v-3.042a.49.49,0,0,1-.282-.491,5.513,5.513,0,0,0,.029-.694.49.49,0,0,1,.253-.428v-3.659a.487.487,0,0,1,.487-.487h3.453l0-.8a.485.485,0,0,1,.511-.459l.716.036a.488.488,0,0,1,.487.487V903h3.143a.488.488,0,0,1,.489.487V911.8a.488.488,0,0,1-.489.487h-8.312a.487.487,0,0,1-.487-.487Zm10.216-4.714h7.583a.489.489,0,0,1,.485.458l.048.772a.488.488,0,0,1-.487.489H291.45a.49.49,0,0,1-.485-.492l.012-.4.044-.393A.489.489,0,0,1,291.506,907.087Zm-6.276-8.706,0-4.69a.486.486,0,0,1,.5-.471l.716.024a.491.491,0,0,1,.5.487v4.662a.49.49,0,0,1-.5.486l-.734-.012a.488.488,0,0,1-.487-.487Zm1.716-21.89v4.354a.49.49,0,0,1-.491.485l-.738.048a.488.488,0,0,1-.487-.487l0-4.465a.486.486,0,0,1,.511-.459l.716.038A.487.487,0,0,1,286.945,876.491Zm-1.716,13.2,0-4.809a.487.487,0,0,1,.517-.453l.708.048a.488.488,0,0,1,.489.487l0,4.774a.485.485,0,0,1-.519.45c-.236-.01-.47-.022-.707-.012a.487.487,0,0,1-.487-.487Zm-21.9,17.531,5.632-.107a.487.487,0,0,1,.5.471l.042.732a.488.488,0,0,1-.487.489H263.44a.491.491,0,0,1-.483-.431l-.043-.225a2.735,2.735,0,0,1-.067-.445.49.49,0,0,1,.481-.485Zm9.609-.133h4.7l.135.02a.488.488,0,0,1,.334.6l-.079.328-.04.3a.488.488,0,0,1-.487.473l-4.641,0a.486.486,0,0,1-.455-.515l.044-.708a.488.488,0,0,1,.487-.493Zm-24.586-8.931v-4.084a.487.487,0,0,1,.451-.485l.4-.024c.546,0,.863.149.863.859v3.772a.493.493,0,0,1-.248.421,1.239,1.239,0,0,1-.647.135,1.192,1.192,0,0,1-.557-.163.486.486,0,0,1-.264-.433Zm0-8.182.008-4.692a.484.484,0,0,1,.557-.4l.3.026.364-.012a.486.486,0,0,1,.487.487l0,4.639a.486.486,0,0,1-.523.448,6.254,6.254,0,0,0-.7-.01.487.487,0,0,1-.487-.487Zm1.715-13.631v5.075l-.034.175a.487.487,0,0,1-.628.279l-.284-.081-.282-.018a.486.486,0,0,1-.487-.487l0-5.034a.485.485,0,0,1,.519-.45l.712.052a.488.488,0,0,1,.483.489Zm-9.136,32.6-5.137-.01a.487.487,0,0,1-.388-.567l.024-.279-.056-.372a.487.487,0,0,1,.487-.487h5.34a.506.506,0,0,1,.229.06.487.487,0,0,1,.2.656,3.154,3.154,0,0,0-.216.574.49.49,0,0,1-.483.426Zm99.98,59.328a1.227,1.227,0,0,0-2.226,0,1.479,1.479,0,0,0-.007,1.036l.006.014a1.229,1.229,0,0,0,2.227,0,1.462,1.462,0,0,0,0-1.049ZM323.7,906.115h7.6v-8.6h-7.6Zm0,62.052h7.6V948.533h-7.6Zm-.334,32.141a1.228,1.228,0,0,0,0-2.226,1.466,1.466,0,0,0-1.05,0,1.228,1.228,0,0,0,0,2.226,1.466,1.466,0,0,0,1.05,0Zm-16.14-30.391-.059,15H321.8v-15Zm11.947-4.486H307.24l-.01,2.735H321.8v-6.344a.5.5,0,0,1,.1-.293v-13h-2.239v16.412a.488.488,0,0,1-.487.487ZM307.3,952.089l-.048,11.629h10.69V948.533H307.3v3.555Zm10.643-44.258H307.3v38.988h10.643V907.83Zm0-5.871H307.3v4.157h10.643Zm3.956,44.859V907.83h-2.239v38.988Zm0-49.3H307.3v2.727h11.873a.488.488,0,0,1,.487.489v5.384H321.9v-8.6Zm-14.933,102.668a1.228,1.228,0,0,0,0-2.227,1.485,1.485,0,0,0-1.05,0,1.228,1.228,0,0,0,0,2.227,1.46,1.46,0,0,0,1.048,0Zm-38.292-30.266v15h36.78l.06-15Zm-1.717-26.8v-3.25a.487.487,0,0,1,.42-.481c.271-.038.537-.074.81-.093a.488.488,0,0,1,.487.487v3.47l-.031.167a.487.487,0,0,1-.624.288l-.3-.083-.279-.018a.488.488,0,0,1-.487-.487Zm2.394,55.427a1.23,1.23,0,0,0-2.229,0,1.5,1.5,0,0,0-.007,1.036l.006.014a1.231,1.231,0,0,0,2.23,0,1.485,1.485,0,0,0,0-1.05ZM223.4,952.609v11.11h43.557V952.577H226.627l-.175.032h-3.057Zm-.151,47.576a1.228,1.228,0,0,0,0-2.227,1.487,1.487,0,0,0-1.05,0,1.227,1.227,0,0,0,0,2.227,1.47,1.47,0,0,0,1.052,0Zm-15.521-30.266v15h13.955v-15Zm2.432-17.309h-2.59v15.559h14.112v-2.736H210.641a.487.487,0,0,1-.487-.487V952.61Zm0-43.56h-2.59v41.842h2.59Zm11.517-11.533H207.565v9.817h2.59v-6.6a.487.487,0,0,1,.487-.489h11.03v-2.727Zm-9.8,4.443v5.374h9.8V901.96Zm9.8,48.932V909.05h-9.8v41.842Zm.006,12.827V952.61h-9.809v11.11Zm4.266-96.338h-2.555v39.952h2.487V870.406a.5.5,0,0,1,.068-.249Zm.513-16.74a1.228,1.228,0,0,0,0,2.229,1.465,1.465,0,0,0,1.05,0,1.229,1.229,0,0,0,0-2.229,1.485,1.485,0,0,0-1.05,0Zm21.893,19.277v-2.537H227.66v2.537h20.69Zm.513-19.377a1.23,1.23,0,0,0,0,2.229,1.45,1.45,0,0,0,.523.1,1.469,1.469,0,0,0,.511-.09l.014-.006a1.229,1.229,0,0,0,0-2.229,1.483,1.483,0,0,0-1.049,0Zm1.2,19.377,35.057,0v-2.534H250.065v2.537Zm35.57-19.377a1.23,1.23,0,0,0,0,2.229,1.5,1.5,0,0,0,1.036.007l.014-.006a1.23,1.23,0,0,0,0-2.229,1.485,1.485,0,0,0-1.05,0Zm1.2,16.84v2.537h14.774v-2.537H286.838Zm18.679,100.787.01-2.735H268.669v2.735h36.847ZM268.67,952.577v11.142h36.867l.042-11.142Zm36.91-4.043H268.67v2.33h36.91Zm-3.454-97.992a1.229,1.229,0,0,0,0,2.229,1.5,1.5,0,0,0,1.036.007l.014-.006a1.231,1.231,0,0,0,0-2.231,1.49,1.49,0,0,0-1.05,0Zm3.454,96.278V907.832h-2.252V946.82Zm0-40.7V867.381h-2.252v38.735Zm-98.189,94.069a1.229,1.229,0,0,0,0-2.227,1.487,1.487,0,0,0-1.05,0,1.228,1.228,0,0,0,0,2.227,1.464,1.464,0,0,0,1.05,0Zm-9.145-49.445h7.6V909.05h-7.6Zm-10.271,1.382a1.23,1.23,0,0,0,2.229,0,1.466,1.466,0,0,0,0-1.05,1.229,1.229,0,0,0-2.229,0,1.481,1.481,0,0,0,0,1.048Zm.023-43.56a1.23,1.23,0,0,0,2.229,0,1.483,1.483,0,0,0,0-1.049,1.229,1.229,0,0,0-2.229,0,1.484,1.484,0,0,0-.006,1.034Zm152.629-12.455a1.229,1.229,0,0,0-2.228,0,1.488,1.488,0,0,0-.006,1.035l.006.014a1.229,1.229,0,0,0,2.228,0,1.464,1.464,0,0,0,0-1.05Zm.043,10.189a1.23,1.23,0,0,0-2.229,0,1.471,1.471,0,0,0-.1.525,1.452,1.452,0,0,0,.089.51l.006.014a1.23,1.23,0,0,0,2.229,0,1.425,1.425,0,0,0,.1-.524,1.47,1.47,0,0,0-.09-.511l-.006-.014Zm.287,40.675a1.23,1.23,0,0,0-2.229,0,1.485,1.485,0,0,0,0,1.05,1.23,1.23,0,0,0,2.229,0,1.462,1.462,0,0,0,0-1.049Zm-322.4,31.015V975H13.915l1.422,2.428a.484.484,0,0,1-.173.663l-.64.375a.484.484,0,0,1-.663-.173l-.235-.4v13.647l.221-.4a.487.487,0,0,1,.66-.193l.652.358a.486.486,0,0,1,.193.66l-1.358,2.463h6.414V978.475H19.045a.487.487,0,0,1-.487-.487Zm65.6-3.16H20.273v1.931H81.055a21.356,21.356,0,0,1,2.463-1.592l.644-.339ZM75.845,854.294l-39.859.028,2.945,98.7h5.511V939.791a.488.488,0,0,1,.489-.487H58.593a.487.487,0,0,1,.487.487V953.02h4.356V939.791a.487.487,0,0,1,.487-.487H77.586a.488.488,0,0,1,.489.487V953.02h5.106v-8.964a.488.488,0,0,1,.487-.487H102.4a.488.488,0,0,1,.487.487v8.964h5.537V939.731a.487.487,0,0,1,.487-.487h13.663a.487.487,0,0,1,.487.487V953.02h4.356V939.731a.487.487,0,0,1,.487-.487h13.662a.486.486,0,0,1,.487.487V953.02h5.736l3.072-98.778-40.141.028v67.964a.488.488,0,0,1-.489.487h-33.9a.488.488,0,0,1-.487-.487v-67.94Zm-42.726-4.467v2.645H75.845v-2.645Zm75.89-4.507H77.561V921h31.448Zm43.4,4.507H110.726v2.645h41.688Zm14.1,126.932v-1.931H102.579l.644.34a21.193,21.193,0,0,1,2.463,1.591h60.831Zm-52.074,17.615h49.851v-15.9H107.733a22.51,22.51,0,0,1,4.857,7.012,21.167,21.167,0,0,1,1.855,8.887Zm47.373,5.488,2.384,1.4v-5.169H22.257v5.067l2.382-1.311a.487.487,0,0,1,.66.193l.358.652a.487.487,0,0,1-.193.66l-.411.227,136.467.091-.565-.328a.487.487,0,0,1-.176-.666l.374-.64a.488.488,0,0,1,.666-.173Zm-139.56-5.488H72.294a22.39,22.39,0,0,1,2-9.212,21.952,21.952,0,0,1,4.715-6.687H22.125V993.41a.487.487,0,0,1,.132.334v.63Zm86.107-9.269a17.4,17.4,0,0,0-6.663-6.629H85.374a18.051,18.051,0,0,0-6.867,6.692,18.646,18.646,0,0,0-2.559,9.207h34.884a19.167,19.167,0,0,0-2.467-9.269ZM72.787,971.288v-5.326H39.316l.159,5.326Zm0-8.774v-6.143l-33.755.038.181,6.075Zm3.941-6.147v6.149l33.512.029v-6.219l-33.512.04Zm33.512,14.921v-5.326H76.727v5.326Zm3.942-14.963v6.225l33.317.028.2-6.292-33.512.039Zm33.046,14.963.165-5.326h-33.21v5.326Zm-6.883-18.433v-4.6h-4.436v4.6Zm-4.436-11.9v4.65h4.436v-4.65Zm-6.769,0v4.65h4.31v-4.65Zm4.31,11.9v-4.6h-4.31v4.6Zm-12.1,0v-4.6h-4.435v4.6Zm-4.435-11.9v4.65h4.435v-4.65Zm-6.769,0v4.65h4.31v-4.65Zm4.31,11.9v-4.6h-4.31v4.6Zm-13.552.165v-2.879H94.457v2.879Zm-6.446-7.961V948H100.9V945.06Zm-1.527,0v7.961h.045V945.06Zm-7.756,0V948h6.275V945.06Zm6.275,7.961v-2.879H85.174v2.879Zm-15.09-.1v-4.6H71.921v4.6Zm-4.438-11.9v4.65h4.438v-4.65Zm-6.769,0v4.65h4.312v-4.65Zm4.312,11.9v-4.6H65.152v4.6Zm-12.1,0v-4.6H52.93v4.6Zm-4.435-11.9v4.65h4.435v-4.65Zm-6.77,0v4.65h4.312v-4.65Zm4.312,11.9v-4.6H46.16v4.6Zm41.6-58.1H80.024v23.81H92.07Zm0-24.226H80.024V891.87H92.07Zm0-23.1H80.024v20.144H92.07Zm14.5,47.324H95.687v23.81h10.879Zm0-24.226H95.687V891.87h10.879Zm0-23.1H95.687v20.144h10.879ZM78.308,919.862V846.271a.488.488,0,0,1,.487-.487h29a.488.488,0,0,1,.487.487v73.591a.488.488,0,0,1-.487.487h-29A.488.488,0,0,1,78.308,919.862Zm20.151,17.079h7.06v-7.863h-7.06Zm-1.228-9.579h9.517a.487.487,0,0,1,.487.487v10.321a.487.487,0,0,1-.487.487H97.231a.487.487,0,0,1-.487-.487V927.85A.487.487,0,0,1,97.231,927.362Zm-15.893,9.486H88.4v-7.863H81.338Zm-1.229-9.579H89.63a.487.487,0,0,1,.487.487v10.32a.488.488,0,0,1-.487.489H80.109a.488.488,0,0,1-.487-.489v-10.32A.487.487,0,0,1,80.109,927.269Zm54.364,9.6h7.058V929h-7.058Zm-1.229-9.579h9.516a.486.486,0,0,1,.487.487v10.319a.487.487,0,0,1-.487.489h-9.516a.487.487,0,0,1-.487-.489V927.773A.486.486,0,0,1,133.244,927.286Zm1.229-8.221h7.058V911.2h-7.058Zm-1.229-9.579h9.516a.486.486,0,0,1,.487.487v10.32a.486.486,0,0,1-.487.487h-9.516a.486.486,0,0,1-.487-.487v-10.32A.486.486,0,0,1,133.244,909.487Zm1.229-8.221h7.058V893.4h-7.058Zm-1.229-9.579h9.516a.487.487,0,0,1,.487.487v10.321a.487.487,0,0,1-.487.487h-9.516a.487.487,0,0,1-.487-.487V892.173A.487.487,0,0,1,133.244,891.686Zm1.229-8.22h7.058V875.6h-7.058Zm-1.229-9.579h9.516a.487.487,0,0,1,.487.487v10.32a.487.487,0,0,1-.487.487h-9.516a.487.487,0,0,1-.487-.487v-10.32A.487.487,0,0,1,133.244,873.887Zm1.229-8.221h7.058V857.8h-7.058Zm-1.229-9.579h9.516a.487.487,0,0,1,.487.487V866.9a.487.487,0,0,1-.487.487h-9.516a.487.487,0,0,1-.487-.487V856.573A.487.487,0,0,1,133.244,856.086Zm-15.894,80.687h7.062v-7.863h-7.062Zm-1.229-9.581h9.521a.488.488,0,0,1,.487.487V938a.488.488,0,0,1-.487.487h-9.521a.488.488,0,0,1-.487-.487V927.679A.488.488,0,0,1,116.122,927.192Zm1.229-8.219h7.062v-7.864h-7.062Zm-1.229-9.579h9.521a.488.488,0,0,1,.487.487V920.2a.488.488,0,0,1-.487.487h-9.521a.488.488,0,0,1-.487-.487V909.881A.488.488,0,0,1,116.122,909.394Zm1.229-8.219h7.062V893.31h-7.062Zm-1.229-9.582h9.521a.488.488,0,0,1,.487.487V902.4a.488.488,0,0,1-.487.487h-9.521a.488.488,0,0,1-.487-.487V892.079A.488.488,0,0,1,116.122,891.592Zm1.229-8.218h7.062V875.51h-7.062Zm-1.229-9.581h9.521a.487.487,0,0,1,.487.487V884.6a.488.488,0,0,1-.487.489h-9.521a.488.488,0,0,1-.487-.489V874.281A.487.487,0,0,1,116.122,873.794Zm1.229-8.22h7.062v-7.863h-7.062ZM116.122,856h9.521a.487.487,0,0,1,.487.487V866.8a.487.487,0,0,1-.487.487h-9.521a.487.487,0,0,1-.487-.487V856.483A.487.487,0,0,1,116.122,856Zm-54,80.685h7.06v-7.863h-7.06ZM60.888,927.1h9.519a.486.486,0,0,1,.487.487v10.32a.487.487,0,0,1-.487.487H60.888a.487.487,0,0,1-.487-.487v-10.32A.486.486,0,0,1,60.888,927.1Zm1.229-8.221h7.06v-7.863h-7.06ZM60.888,909.3h9.519a.486.486,0,0,1,.487.487V920.11a.486.486,0,0,1-.487.487H60.888a.486.486,0,0,1-.487-.487V909.789A.486.486,0,0,1,60.888,909.3Zm1.229-8.22h7.06v-7.864h-7.06ZM60.888,891.5h9.519a.487.487,0,0,1,.487.489v10.319a.486.486,0,0,1-.487.487H60.888a.486.486,0,0,1-.487-.487V891.99A.487.487,0,0,1,60.888,891.5Zm1.229-8.22h7.06v-7.863h-7.06ZM60.888,873.7h9.519a.487.487,0,0,1,.487.487V884.51a.487.487,0,0,1-.487.487H60.888a.487.487,0,0,1-.487-.487V874.189A.487.487,0,0,1,60.888,873.7Zm1.229-8.221h7.06v-7.861h-7.06ZM60.888,855.9h9.519a.487.487,0,0,1,.487.487V866.71a.487.487,0,0,1-.487.487H60.888a.487.487,0,0,1-.487-.487V856.389A.487.487,0,0,1,60.888,855.9ZM45,936.589h7.058v-7.865H45Zm-1.229-9.581h9.517a.488.488,0,0,1,.487.487v10.323a.488.488,0,0,1-.487.487H43.769a.488.488,0,0,1-.487-.487V927.495A.488.488,0,0,1,43.769,927.008ZM45,918.789h7.058v-7.863H45Zm-1.229-9.581h9.517a.488.488,0,0,1,.487.487v10.323a.488.488,0,0,1-.487.487H43.769a.488.488,0,0,1-.487-.487V909.695a.488.488,0,0,1,.487-.487ZM45,900.989h7.058v-7.864H45Zm-1.229-9.581h9.517a.488.488,0,0,1,.487.487v10.324a.488.488,0,0,1-.487.487H43.769a.488.488,0,0,1-.487-.487V891.9A.488.488,0,0,1,43.769,891.408ZM45,883.189h7.058v-7.864H45Zm-1.229-9.579h9.517a.488.488,0,0,1,.487.487v10.323a.488.488,0,0,1-.487.487H43.769a.488.488,0,0,1-.487-.487V874.1A.488.488,0,0,1,43.769,873.61ZM45,865.389h7.058v-7.863H45Zm-1.229-9.579h9.517a.487.487,0,0,1,.487.487v10.319a.488.488,0,0,1-.487.489H43.769a.488.488,0,0,1-.487-.489V856.3A.487.487,0,0,1,43.769,855.81ZM58.154,992.287h7.68V980.579h-7.68Zm-1.229-13.424H67.062a.488.488,0,0,1,.487.487v14.165a.488.488,0,0,1-.487.487H56.925a.488.488,0,0,1-.487-.487V979.35A.488.488,0,0,1,56.925,978.863ZM43.074,992.287h7.678V980.579H43.074Zm-1.229-13.424H51.981a.488.488,0,0,1,.487.487v14.165a.488.488,0,0,1-.487.487H41.845a.487.487,0,0,1-.487-.487V979.35A.487.487,0,0,1,41.845,978.863ZM28.691,992.287H36.37V980.579H28.691Zm-1.23-13.424H37.6a.487.487,0,0,1,.487.487v14.165A.487.487,0,0,1,37.6,994H27.461a.488.488,0,0,1-.487-.487V979.35a.488.488,0,0,1,.487-.487Zm122.25,13.424h7.68V980.579h-7.68Zm-1.23-13.424h10.139a.488.488,0,0,1,.487.487v14.165a.488.488,0,0,1-.487.487H148.481a.488.488,0,0,1-.487-.487V979.35A.488.488,0,0,1,148.481,978.863Zm-13.217,13.424h7.678V980.579h-7.678Zm-1.229-13.424H144.17a.488.488,0,0,1,.487.487v14.165a.488.488,0,0,1-.487.487H134.034a.488.488,0,0,1-.487-.487V979.35A.488.488,0,0,1,134.034,978.863Zm-13.152,13.424h7.68V980.579h-7.68Zm-1.229-13.424H129.79a.487.487,0,0,1,.487.487v14.165a.487.487,0,0,1-.487.487H119.654a.488.488,0,0,1-.487-.487V979.35A.488.488,0,0,1,119.654,978.863Z" transform="translate(0 -758.327)"/>
  </g>
</svg>
