<?xml version="1.0" encoding="UTF-8"?>
<!DOCTYPE svg PUBLIC "-//W3C//DTD SVG 1.1//EN" "http://www.w3.org/Graphics/SVG/1.1/DTD/svg11.dtd">
<!-- Creator: CorelDRAW 2018 (64-Bit) -->
<svg xmlns="http://www.w3.org/2000/svg" xml:space="preserve" width="30.0615mm" height="27.6748mm" version="1.1" style="shape-rendering:geometricPrecision; text-rendering:geometricPrecision; image-rendering:optimizeQuality; fill-rule:evenodd; clip-rule:evenodd"
viewBox="0 0 4756.48 4378.85"
 xmlns:xlink="http://www.w3.org/1999/xlink">
 <defs>
  <style type="text/css">
   <![CDATA[
    .fil0 {fill:none}
    .fil1 {fill:url(#id0)}
    .fil3 {fill:url(#id1)}
    .fil2 {fill:url(#id2)}
    .fil4 {fill:url(#id3)}
   ]]>
  </style>
  <linearGradient id="id0" gradientUnits="userSpaceOnUse" x1="1823.32" y1="36.61" x2="2397.38" y2="157.86">
   <stop offset="0" style="stop-opacity:1; stop-color:#FCEC94"/>
   <stop offset="0.168627" style="stop-opacity:1; stop-color:#F0C46C"/>
   <stop offset="0.501961" style="stop-opacity:1; stop-color:#FFFABD"/>
   <stop offset="0.819608" style="stop-opacity:1; stop-color:#F0C46C"/>
   <stop offset="1" style="stop-opacity:1; stop-color:#FCE79A"/>
  </linearGradient>
  <linearGradient id="id1" gradientUnits="userSpaceOnUse" xlink:href="#id0" x1="3135.59" y1="878.51" x2="4504.81" y2="999.76">
  </linearGradient>
  <linearGradient id="id2" gradientUnits="userSpaceOnUse" xlink:href="#id0" x1="109.92" y1="475.75" x2="615.48" y2="596.98">
  </linearGradient>
  <linearGradient id="id3" gradientUnits="userSpaceOnUse" xlink:href="#id0" x1="1113" y1="1459.58" x2="3730.66" y2="3597.1">
  </linearGradient>
 </defs>
 <g id="Слой_x0020_1">
  <metadata id="CorelCorpID_0Corel-Layer"/>
  <rect class="" x="0.02" y="-0.01" width="4755.72" height="4378.85"/>
  <path class="fil1" d="M2472.05 0.41l-741.57 0c-17.04,0 -31.71,13.34 -31.98,30.38 -0.27,17.26 13.65,31.34 30.87,31.34l176.22 0c17.23,0.02 31.17,14.15 30.85,31.46 -0.32,16.99 -14.87,30.28 -31.87,30.28l-24.54 0c-20.06,0 -33.88,13.81 -33.88,30.85 0,17.06 13.81,30.87 30.87,30.87l427.56 0c17.04,0 30.85,-13.81 30.85,-30.87 0,-17.04 -13.81,-30.85 -30.85,-30.85l-165.61 0c-16.99,0 -31.57,-13.29 -31.88,-30.28 -0.32,-17.31 13.61,-31.44 30.85,-31.46l333.1 0c16.99,0 31.57,-13.29 31.88,-30.28 0.32,-17.31 -13.62,-31.44 -30.87,-31.44z"/>
  <path class="fil2" d="M190.2 439.55l486.26 0c17.04,0 31.71,13.32 31.98,30.36 0.27,17.28 -13.65,31.36 -30.87,31.36l-109.82 0c-17.25,0 -31.17,14.15 -30.85,31.46 0.3,16.98 14.86,30.28 31.85,30.28l9.22 0c20.06,0 33.88,13.81 33.88,30.85 0,17.06 -13.81,30.87 -30.85,30.87l-550.12 0c-17.04,0 -30.87,-13.81 -30.87,-30.87 0,-17.04 13.83,-30.85 30.87,-30.85l303.48 0c17.01,0 31.58,-13.31 31.9,-30.28 0.32,-17.31 -13.62,-31.46 -30.85,-31.46l-144.16 0c-17.01,0 -31.58,-13.29 -31.9,-30.28 -0.32,-17.31 13.62,-31.44 30.87,-31.44z"/>
  <path class="fil3" d="M4469.3 842.31l-1599.4 0c-17.04,0 -31.69,13.34 -31.96,30.38 -0.27,17.26 13.64,31.34 30.85,31.34l584.7 0c17.23,0.02 31.17,14.15 30.84,31.46 -0.3,16.99 -14.86,30.28 -31.85,30.28l-80.71 0c-20.06,0 -33.88,13.81 -33.88,30.85 0,17.06 13.81,30.87 30.85,30.87l1356.86 0c17.06,0 30.87,-13.81 30.87,-30.87 0,-17.04 -13.81,-30.85 -30.87,-30.85l-523.03 0c-16.99,0 -31.57,-13.29 -31.88,-30.28 -0.32,-17.31 13.62,-31.44 30.85,-31.46l266.72 0c16.99,0 31.57,-13.29 31.88,-30.28 0.32,-17.31 -13.62,-31.44 -30.85,-31.44z"/>
  <path class="fil4" d="M1462.21 4033.73l-94.78 -94.79 -90.2 90.19 0 57.15 -75.27 0 0 -948.07 0 -65.09 0 -875.24 55.22 0 0 -157.09 0 -36.04 0 -133.83 0 -36.09 0 -133.8 0 -36.01 0 -36.99 -39.92 0 0 -72.31 -430.04 0 0 43.4 -243.26 0 0 -268.44 243.26 0 0 8.01 570.26 -517.32 1677 664.99 -0.09 0.28 88.89 35.43 0 8.4 0 25.25 0 464.71 40.6 0 0 45.68 100.58 0 0 209.41 -306.8 0 -0.02 -209.41 102.64 0 0 -45.68 38.56 0 0 -464.71 -972.45 0 -46.93 0 -566.57 0 0 72.31 -39.9 0 0 569.85 55.2 0 0 875.24 0 65.09 0 948.07 -65.88 0 0 -52.63 -0.09 0.08zm905.3 -58.8l-681.35 0 0 109.25 681.35 0 1406.1 0 0 -431.83 -72.42 0 0 -85.5 72.75 0 0 -25.49 -72.75 0 0 -106.98 72.75 0 0 -25.46 -72.75 0 0 -106.98 72.75 0 0 -25.47 -72.75 0 0 -106.94 72.75 0 0 -25.51 -72.75 0 0 -119.38 72.74 0 0 -25.49 -72.74 0 0 -119.38 72.74 0 0 -25.49 -72.74 0 0 -176.22 -50.92 0 0 176.22 -143.92 0 0 -176.22 -50.95 0 0 176.22 -143.92 0 0 -176.22 -50.92 0 0 176.22 -143.92 0 0 -176.22 -50.93 0 0 281.23 -143.91 0 0 -281.23 -50.93 0 0 359.31 -143.95 0 0 -359.31 -50.92 0 0 465.96 -143.91 0 0 -465.96 -50.96 0 0 465.96 -113.92 0 0 25.51 113.92 0 0 106.94 -113.92 0 0 25.47 113.92 0 0 106.98 -113.92 0 0 25.46 113.92 0 0 106.98 -113.92 0 0 25.49 113.92 0 0 85.5 -113.62 0 0 322.57zm-1680.73 -672.09l0 69.81 71.6 0 0 -147.23 26.58 0 0 147.23 49.68 0 0 26.57 -49.68 0 0 92.96 50.87 0 0 26.57 -50.87 0 0 115.25 50.87 0 0 26.58 -50.87 0 0 115.24 50.87 0 0 26.55 -50.87 0 0 115.2 50.87 0 0 26.57 -50.87 0 0 128.24 -26.58 0 0 -128.24 -71.6 0 0 128.24 -26.55 0 0 -128.24 -61.03 0 0 -26.57 61.03 0 0 -115.2 -61.03 0 0 -26.55 61.03 0 0 -115.24 -61.03 0 0 -26.58 61.03 0 0 -115.25 -61.03 0 0 -26.57 61.03 0 0 -92.96 -62.23 0 0 -26.57 62.23 0 0 -69.81 26.55 0zm0 96.37l0 92.96 71.6 0 0 -92.96 -71.6 0zm0 119.52l0 115.25 71.6 0 0 -115.25 -71.6 0zm0 141.83l0 115.24 71.6 0 0 -115.24 -71.6 0zm0 141.79l0 115.2 71.6 0 0 -115.2 -71.6 0zm312.23 -1008.62l0 149.21 71.6 0 0 -226.66 26.58 0 0 226.66 49.68 0 0 26.6 -49.68 0 0 115.25 49.68 0 0 26.6 -49.68 0 0 115.2 49.68 0 0 26.55 -49.68 0 0 115.24 49.68 0 0 26.6 -49.68 0 0 92.93 50.85 0 0 26.6 -50.85 0 0 115.24 50.85 0 0 26.58 -50.85 0 0 115.24 50.85 0 0 26.55 -50.85 0 0 115.19 50.85 0 0 26.6 -50.85 0 0 128.23 -26.58 0 0 -128.23 -71.6 0 0 128.23 -26.57 0 0 -128.23 -61.03 0 0 -26.6 61.03 0 0 -115.19 -61.03 0 0 -26.55 61.03 0 0 -115.24 -61.03 0 0 -26.58 61.03 0 0 -115.24 -61.03 0 0 -26.6 61.03 0 0 -92.93 -62.21 0 0 -26.6 62.21 0 0 -115.24 -62.21 0 0 -26.55 62.21 0 0 -115.2 -62.21 0 0 -26.6 62.21 0 0 -115.25 -62.21 0 0 -26.6 62.21 0 0 -149.21 26.57 0zm0 175.8l0 115.25 71.6 0 0 -115.25 -71.6 0zm0 141.85l0 115.2 71.6 0 0 -115.2 -71.6 0zm0 141.75l0 115.24 71.6 0 0 -115.24 -71.6 0zm0 141.83l0 92.93 71.6 0 0 -92.93 -71.6 0zm0 119.52l0 115.24 71.6 0 0 -115.24 -71.6 0zm0 141.82l0 115.24 71.6 0 0 -115.24 -71.6 0zm0 141.79l0 115.19 71.6 0 0 -115.19 -71.6 0zm1533.09 -145.74l143.91 0 0 -85.5 -143.91 0 0 85.5zm194.82 0l143.95 0 0 -85.5 -143.95 0 0 85.5zm194.89 0l143.91 0 0 -85.5 -143.91 0 0 85.5zm194.84 0l143.92 0 0 -85.5 -143.92 0 0 85.5zm194.84 0l143.92 0 0 -85.5 -143.92 0 0 85.5zm194.87 0l143.92 0 0 -85.5 -143.92 0 0 85.5zm-2683.45 -2278.28l9.38 0 30.35 0 112.62 0 30.36 0 112.64 0 30.3 0 68.7 0 0 -72.28 42.28 0 0 -4.78 0 -133.83 0 -36.09 0 -133.78 0 -15.35 -436.64 396.1zm652.43 -452.02l0 43.27 0 27.99 0 308.48 37.56 0 0 72.28 156.14 0 30.28 0 112.64 0 30.43 0 112.59 0 30.3 0 94.19 0 18.54 0 28.39 0 1.87 0 117.91 0 30.32 0 112.66 0 30.35 0 112.66 0 30.32 0 52.77 0 -1139.9 -452.02zm1230.11 487.79l0 98.53 70.47 -70.57 -70.47 -27.96zm90.46 35.87l-76.23 76.34 93.51 0 0 -69.51 -17.28 -6.84zm47.56 18.86l0 57.48 144.93 0 -144.93 -57.48zm-2056.23 -61.72l0 31.33 31.31 -31.33 -31.31 0zm0 84.84l0 34.37 34.35 0 -34.35 -34.37zm645.75 140.33l-27.88 0 27.88 27.88 0 -27.88zm-61.03 0l-23.13 0 -37.02 36.99 97.18 0 -37.02 -36.99zm-56.3 0l-24.32 0 0 24.3 24.32 -24.3zm-98.38 -105.96l0 -33.27 -13.86 -13.86 -47.12 47.14 60.98 0zm0 -88.97l0 -30.24 -57.96 0 44.1 44.1 13.86 -13.86zm295.63 -30.24l0 119.21 23.24 0 61.07 -61.12 -58.04 -58.08 -26.28 0zm2512.77 2053.3l150 0 0 -50.3 36.17 0 0 50.3 0 38.15 0 141.72 0 38.2 0 141.67 0 38.15 0 141.8 0 38.1 0 33.69 -36.17 0 0 -33.69 -150 0 0 33.69 -42.36 0 0 -661.78 42.36 0 0 50.3zm128.34 38.15l-102.89 0 51.45 51.44 51.44 -51.44zm-106.68 141.72l110.47 0 -55.24 -55.22 -55.24 55.22zm106.69 38.2l-102.93 0 51.47 51.42 51.45 -51.42zm-106.69 141.67l110.47 0 -55.24 -55.22 -55.24 55.22zm106.72 38.15l-102.97 0 51.49 51.45 51.49 -51.45zm-106.79 141.8l110.6 0 -55.3 -55.25 -55.3 55.25zm-21.6 -491.91l0 118.67 59.35 -59.33 -59.35 -59.33zm0 179.87l0 118.68 59.37 -59.33 -59.37 -59.35zm0 179.93l0 118.57 59.33 -59.29 -59.33 -59.29zm150 114.76l0 -110.98 -55.55 55.51 55.55 55.47zm0 -179.82l0 -111.06 -55.58 55.54 55.58 55.52zm0 -179.87l0 -111.07 -55.57 55.54 55.57 55.54zm-2740.09 208.68l-136.28 0 68.15 68.15 68.13 -68.15zm-131.55 -47.07l126.82 0 -63.4 -63.42 -63.42 63.42zm131.53 -174.84l-136.26 0 68.15 68.13 68.12 -68.13zm-131.53 -47.07l126.82 0 -63.4 -63.42 -63.42 63.42zm131.55 -174.85l-136.3 0 68.16 68.15 68.13 -68.15zm-131.56 -47.07l126.85 0 -63.42 -63.43 -63.43 63.43zm131.55 -174.84l-136.23 0 68.12 68.13 68.12 -68.13zm-158.32 -47.07l185.08 0 -94.87 -90.19 -90.2 90.19zm185.08 63.59l-73.23 73.26 73.23 73.24 0 -146.5zm0 221.93l-73.23 73.24 73.23 73.24 0 -146.48zm0 221.94l-73.23 73.23 73.23 73.24 0 -146.47zm0 221.91l-73.23 73.24 73.23 73.24 0 -146.48zm-185.08 141.79l68.56 -68.54 -68.56 -68.56 0 137.1zm0 -221.91l68.54 -68.56 -68.54 -68.54 0 137.1zm0 -221.93l68.56 -68.56 -68.56 -68.56 0 137.12zm0 -221.91l68.56 -68.56 -68.56 -68.57 0 137.13zm158.32 -407.03l-136.26 0 68.15 68.15 68.12 -68.15zm-131.56 -47.06l126.88 0 -63.43 -63.43 -63.45 63.43zm131.58 -174.89l-136.3 0 68.16 68.15 68.13 -68.15zm-131.56 -47.06l126.85 0 -63.42 -63.42 -63.43 63.42zm131.55 -174.85l-136.26 0 68.15 68.15 68.12 -68.15zm-131.56 -47.04l126.9 0 -63.45 -63.46 -63.45 63.46zm131.56 -174.89l-136.26 0 68.15 68.15 68.12 -68.15zm-144.22 -48.61l141.64 0 0 0 -72.61 -72.56 -69.03 69.02 0 3.54zm170.98 65.14l-73.23 73.26 73.23 73.23 0 -146.48zm0 221.94l-73.23 73.23 73.23 73.24 0 -146.47zm0 221.91l-73.23 73.24 73.23 73.23 0 -146.47zm0 221.93l-73.23 73.24 73.23 73.26 0 -146.5zm-185.08 -661.08l0 137.12 68.56 -68.56 -68.56 -68.56zm0 221.93l0 137.12 68.56 -68.57 -68.56 -68.54zm0 221.93l0 137.1 68.56 -68.56 -68.56 -68.54zm0 221.91l0 137.13 68.56 -68.57 -68.56 -68.56zm135.35 -893.48l-104.41 0 52.2 52.18 52.21 -52.18zm-100.76 -36.04l97.12 0 -48.58 -48.54 -48.54 48.54zm100.73 -133.83l-104.33 0 52.15 52.15 52.18 -52.15zm-100.71 -36.09l97.09 0 -48.56 -48.51 -48.53 48.51zm100.71 -133.8l-104.33 0 52.15 52.14 52.18 -52.14zm20.43 464.53l0 -112.04 -56.03 56.01 56.03 56.03zm0 -169.87l0 -112.09 -56.04 56.03 56.04 56.06zm0 -169.92l0 -112.02 -56.03 56 56.03 56.03zm-141.64 -108.45l0 104.87 52.45 -52.45 -52.45 -52.42zm0 169.85l0 104.93 52.48 -52.48 -52.48 -52.45zm0 169.92l0 104.87 52.45 -52.44 -52.45 -52.44zm22.8 -760.08l97.17 0 -48.56 -48.56 -48.61 48.56zm100.74 -133.83l-104.3 0 52.17 52.14 52.14 -52.14zm-100.71 -36.09l97.12 0 -48.54 -48.51 -48.58 48.51zm100.71 -133.78l-104.3 0 52.17 52.12 52.14 -52.12zm20.46 294.58l0 -112.01 -56.04 56 56.04 56.01zm0 -169.89l0 -111.98 -56.04 55.98 56.04 56zm-141.66 -108.45l0 104.93 52.48 -52.48 -52.48 -52.45zm0 169.85l0 104.93 52.5 -52.47 -52.5 -52.47zm-461.38 325.47l0 -87.89 -43.92 43.94 43.92 43.95zm30.35 -84.82l0 81.75 40.85 -40.89 -40.85 -40.87zm112.62 84.78l0 -87.81 -43.88 43.91 43.88 43.91zm30.36 -84.78l0 81.75 40.87 -40.89 -40.87 -40.87zm112.64 84.78l0 -87.81 -43.91 43.91 43.91 43.91zm30.3 -84.79l0 81.79 40.87 -40.9 -40.87 -40.89zm-278.27 102.01l94.29 0 -47.15 -47.18 -47.14 47.18zm142.97 0l94.3 0 -47.14 -47.18 -47.17 47.18zm91.26 -119.21l-88.23 0 44.13 44.13 44.1 -44.13zm-142.99 0l-88.21 0 44.1 44.13 44.11 -44.13zm707.49 102.04l0 -87.89 -43.92 43.94 43.92 43.95zm30.28 -84.84l0 81.77 40.87 -40.9 -40.87 -40.87zm112.64 84.79l0 -87.8 -43.88 43.89 43.88 43.91zm30.43 -84.76l0 81.71 40.81 -40.85 -40.81 -40.85zm112.59 84.76l0 -87.8 -43.88 43.89 43.88 43.91zm30.3 -84.84l0 81.85 40.9 -40.92 -40.9 -40.93zm112.74 84.89l0 -87.89 -43.94 43.94 43.94 43.95zm30.25 -90.06l0 92.23 46.09 -46.12 -46.09 -46.11zm-564.26 107.23l94.29 0 -47.14 -47.18 -47.15 47.18zm142.99 0l94.3 0 -47.15 -47.17 -47.15 47.17zm143.02 0l94.25 0 -47.12 -47.17 -47.14 47.17zm142.97 0l86.49 0 7.77 0 -47.12 -47.18 -47.14 47.18zm86.49 -119.21l-83.45 0 44.1 44.13 44.1 -44.13 -4.75 0zm-138.24 0l-88.19 0 44.11 44.11 44.08 -44.11zm-142.97 0l-88.23 0 44.1 44.11 44.13 -44.11zm-142.97 0l-88.23 0 44.1 44.13 44.13 -44.13zm590.89 102.04l0 -87.89 -43.91 43.94 43.91 43.95zm30.32 -84.82l0 81.75 40.85 -40.89 -40.85 -40.87zm112.66 84.78l0 -87.8 -43.89 43.89 43.89 43.91zm30.35 -84.78l0 81.74 40.85 -40.89 -40.85 -40.85zm112.66 84.81l0 -87.86 -43.89 43.92 43.89 43.94zm30.32 -84.86l0 81.83 40.87 -40.92 -40.87 -40.92zm112.67 84.87l0 -87.89 -43.91 43.94 43.91 43.95zm-533.95 17.17l94.25 0 -47.14 -47.17 -47.12 47.17zm142.97 0l94.3 0 -47.17 -47.18 -47.14 47.18zm143 0l94.25 0 -47.12 -47.17 -47.14 47.17zm142.96 0l94.29 0 -47.14 -47.18 -47.15 47.18zm91.28 -119.21l-88.23 0 44.1 44.13 44.13 -44.13zm-143.02 0l-88.18 0 44.1 44.11 44.08 -44.11zm-142.97 0l-88.21 0 44.1 44.13 44.11 -44.13zm-142.99 0l-88.19 0 44.08 44.11 44.11 -44.11zm1417.85 2138.51l-143.92 0 0 -106.98 143.92 0 0 106.98zm-194.87 0l-143.92 0 0 -106.98 143.92 0 0 106.98zm-194.84 0l-143.92 0 0 -106.98 143.92 0 0 106.98zm-194.85 0l-143.91 0 0 -106.98 143.91 0 0 106.98zm-194.84 0l-143.95 0 0 -106.98 143.95 0 0 106.98zm-194.87 0l-143.91 0 0 -106.98 143.91 0 0 106.98zm974.27 -132.43l-143.92 0 0 -106.98 143.92 0 0 106.98zm-194.87 0l-143.92 0 0 -106.98 143.92 0 0 106.98zm-194.84 0l-143.92 0 0 -106.98 143.92 0 0 106.98zm-194.85 0l-143.91 0 0 -106.98 143.91 0 0 106.98zm-194.84 0l-143.95 0 0 -106.98 143.95 0 0 106.98zm-194.87 0l-143.91 0 0 -106.98 143.91 0 0 106.98zm974.27 -132.45l-143.92 0 0 -106.94 143.92 0 0 106.94zm-194.87 0l-143.92 0 0 -106.94 143.92 0 0 106.94zm-194.84 0l-143.92 0 0 -106.94 143.92 0 0 106.94zm-194.85 0l-143.91 0 0 -106.94 143.91 0 0 106.94zm-194.84 0l-143.95 0 0 -106.94 143.95 0 0 106.94zm-194.87 0l-143.91 0 0 -106.94 143.91 0 0 106.94zm440.64 -396.7l143.92 0 0 119.38 -143.92 0 0 -119.38zm194.84 0l143.92 0 0 119.38 -143.92 0 0 -119.38zm194.87 0l143.92 0 0 119.38 -143.92 0 0 -119.38zm-389.71 144.87l143.92 0 0 119.38 -143.92 0 0 -119.38zm194.84 0l143.92 0 0 119.38 -143.92 0 0 -119.38zm194.87 0l143.92 0 0 119.38 -143.92 0 0 -119.38z"/>
 </g>
</svg>
