<svg xmlns="http://www.w3.org/2000/svg" xmlns:xlink="http://www.w3.org/1999/xlink" viewBox="0 0 347.79 320.12">
  <defs>
    <style>
      .cls-1 {
        fill: none;
      }

      .cls-2 {
        fill-rule: evenodd;
        fill: url(#linear-gradient);
      }
    </style>
    <linearGradient id="linear-gradient" x1="0.155" y1="0.195" x2="0.869" y2="0.85" gradientUnits="objectBoundingBox">
      <stop offset="0" stop-color="#fcec94"/>
      <stop offset="0.169" stop-color="#f0c46c"/>
      <stop offset="0.502" stop-color="#fffabd"/>
      <stop offset="0.82" stop-color="#f0c46c"/>
      <stop offset="1" stop-color="#fce79a"/>
    </linearGradient>
  </defs>
  <g id="инвестиции" transform="translate(-0.01 0.01)">
    <rect id="Rectangle_2673" data-name="Rectangle 2673" width="347.672" height="320.12" transform="translate(0.069 -0.01)"/>
    <path id="Path_1361" data-name="Path 1361" class="cls-2" d="M194.582,62.552c-3.475-.188-6.559,2.989-6.874,7.094s2.262,7.586,5.738,7.772,6.559-2.989,6.874-7.094S198.057,62.738,194.582,62.552Zm15.572,199.99c-4.17,0-7.551-.948-7.551-2.117v1.483c0,1.168,3.381,2.116,7.551,2.116s7.552-.947,7.552-2.116v-1.483C217.707,261.593,214.326,262.542,210.154,262.542Zm-69.323-2.384c4.17,0,7.551-.948,7.551-2.117v1.483c0,1.168-3.381,2.116-7.551,2.116s-7.552-.948-7.552-2.116v-1.483C133.279,259.209,136.66,260.158,140.831,260.158Zm16.94-1.941c4.17,0,7.551-.948,7.551-2.117v1.483c0,1.168-3.381,2.116-7.551,2.116s-7.552-.948-7.552-2.116V256.1C150.219,257.268,153.6,258.217,157.771,258.217Zm-2.591-24.671c4.17,0,7.551-.948,7.551-2.117v1.483c0,1.168-3.381,2.116-7.551,2.116s-7.552-.947-7.552-2.116v-1.483C147.628,232.6,151.009,233.546,155.18,233.546Zm3.412,12.089c4.17,0,7.551-.948,7.551-2.117V245c0,1.168-3.381,2.116-7.551,2.116s-7.552-.948-7.552-2.116v-1.483C151.04,244.686,154.421,245.635,158.593,245.635ZM157,242.32c4.17,0,7.551-.948,7.551-2.117v1.483c0,1.168-3.381,2.116-7.551,2.116s-7.552-.947-7.552-2.116V240.2C149.446,241.371,152.827,242.32,157,242.32Zm.765-2.87c4.17,0,7.551-.948,7.551-2.117v1.483c0,1.168-3.381,2.116-7.551,2.116s-7.552-.947-7.552-2.116v-1.483C150.211,238.5,153.592,239.451,157.763,239.451Zm-.7-2.933c4.17,0,7.551-.948,7.551-2.117v1.483c0,1.168-3.381,2.116-7.551,2.116s-7.552-.948-7.552-2.116V234.4C149.51,235.569,152.891,236.517,157.062,236.517Zm-1.882-7.523c-4.171,0-7.552.952-7.552,2.117s3.381,2.117,7.552,2.117,7.552-.952,7.552-2.117S159.352,228.994,155.18,228.994Zm-4.233,1.9a12.988,12.988,0,0,1,2.708-.123c.353.012.708.034,1.053.058.155.01.321.023.493.037l2.5-.478a6.124,6.124,0,0,0-1.673-.043c-.3.058-.313.115-.285.154a5.223,5.223,0,0,1-1.087-.063c-.442-.072-.421-.154.051-.244a13.689,13.689,0,0,1,3.574.085l.448-.085.768.125-.46.088c1.283.254,1.381.519.367.712a14.316,14.316,0,0,1-3.252.091c-.307-.018-.636-.043-.976-.067l-2.528.481a6.174,6.174,0,0,0,1.671.043c.305-.058.313-.115.285-.154a5.327,5.327,0,0,1,1.088.061c.442.073.421.155-.052.245a13.678,13.678,0,0,1-3.573-.085l-.448.085-.768-.125.46-.088c-1.284-.254-1.381-.519-.368-.712Zm7.562,0h0c.579-.111.515-.243-.057-.373l-2.2.42A10.374,10.374,0,0,0,158.509,230.892Zm-6.606.6h0l2.216-.422c-.519-.028-1.037-.044-1.517-.028a5.052,5.052,0,0,0-.755.077c-.581.111-.515.243.056.373Zm4.275,23.407c4.17,0,7.551-.948,7.551-2.117v1.483c0,1.168-3.381,2.116-7.551,2.116s-7.552-.947-7.552-2.116v-1.483C148.625,253.954,152.006,254.9,156.177,254.9Zm.765-2.87c4.17,0,7.551-.948,7.551-2.117V251.4c0,1.168-3.381,2.116-7.551,2.116s-7.552-.947-7.552-2.116v-1.483C149.39,251.084,152.771,252.033,156.942,252.033Zm-.7-2.933c4.17,0,7.551-.948,7.551-2.117v1.483c0,1.168-3.381,2.116-7.551,2.116s-7.552-.947-7.552-2.116v-1.483C148.689,248.151,152.07,249.1,156.241,249.1Zm-16.877,8.064c4.17,0,7.551-.948,7.551-2.117v1.483c0,1.168-3.381,2.116-7.551,2.116s-7.552-.947-7.552-2.116v-1.483C131.812,256.215,135.193,257.164,139.364,257.164Zm.494-2.8c4.17,0,7.551-.948,7.551-2.117v1.483c0,1.168-3.381,2.116-7.551,2.116s-7.552-.947-7.552-2.116v-1.483C132.306,253.413,135.687,254.362,139.858,254.362Zm0-4.553c-4.171,0-7.552.952-7.552,2.117s3.381,2.117,7.552,2.117,7.552-.952,7.552-2.117S144.029,249.81,139.858,249.81Zm-4.233,1.9a12.987,12.987,0,0,1,2.708-.123c.353.012.708.034,1.053.058.155.01.321.023.493.037l2.5-.478a6.124,6.124,0,0,0-1.673-.043c-.3.058-.313.115-.285.154a5.221,5.221,0,0,1-1.087-.063c-.442-.072-.421-.154.051-.244a13.691,13.691,0,0,1,3.574.085l.448-.085.768.125-.46.088c1.283.254,1.381.519.367.712a14.317,14.317,0,0,1-3.252.091c-.307-.018-.636-.043-.976-.067l-2.528.481a6.174,6.174,0,0,0,1.671.043c.305-.058.313-.115.285-.154a5.325,5.325,0,0,1,1.088.061c.442.073.421.155-.052.245a13.68,13.68,0,0,1-3.573-.085l-.448.085-.768-.125.46-.088c-1.284-.254-1.381-.519-.368-.712Zm7.562,0h0c.579-.111.515-.243-.057-.373l-2.2.42a10.374,10.374,0,0,0,2.26-.047Zm-6.606.6h0l2.216-.422c-.519-.028-1.037-.044-1.517-.028a5.05,5.05,0,0,0-.755.077c-.581.111-.515.243.056.373Zm75.041,7.237c-4.17,0-7.551-.948-7.551-2.117v1.483c0,1.168,3.381,2.116,7.551,2.116s7.552-.948,7.552-2.116v-1.483C219.173,258.6,215.793,259.548,211.621,259.548Zm-.494-2.8c-4.17,0-7.551-.948-7.551-2.117v1.483c0,1.168,3.381,2.116,7.551,2.116s7.552-.948,7.552-2.116V254.63C218.68,255.8,215.3,256.747,211.127,256.747Zm0-4.553c4.171,0,7.552.952,7.552,2.117s-3.381,2.117-7.552,2.117-7.552-.952-7.552-2.117S206.956,252.194,211.127,252.194Zm4.233,1.9a12.987,12.987,0,0,0-2.708-.123c-.353.012-.708.034-1.053.058-.155.01-.321.023-.493.037l-2.5-.478a6.124,6.124,0,0,1,1.673-.043c.3.058.313.115.285.154a5.223,5.223,0,0,0,1.087-.063c.442-.072.421-.154-.051-.244a13.689,13.689,0,0,0-3.574.085l-.448-.085-.768.125.46.088c-1.283.254-1.381.519-.367.712a14.316,14.316,0,0,0,3.252.091c.307-.018.636-.043.976-.067l2.528.481a6.174,6.174,0,0,1-1.671.043c-.305-.058-.313-.115-.285-.154a5.327,5.327,0,0,0-1.088.061c-.442.073-.421.155.052.245a13.678,13.678,0,0,0,3.573-.085l.448.085.768-.125-.46-.088c1.284-.254,1.381-.519.368-.712Zm-7.562,0h0c-.579-.111-.515-.243.057-.373l2.2.42A10.374,10.374,0,0,1,207.8,254.091Zm6.606.6h0l-2.216-.422c.519-.028,1.037-.044,1.517-.028a5.052,5.052,0,0,1,.755.077c.581.111.515.243-.056.373ZM89.925,43.732H4.115a2.309,2.309,0,0,0-2.336,2.221,2.256,2.256,0,0,0,2.256,2.292H46.78a2.257,2.257,0,0,1,2.254,2.3,2.3,2.3,0,0,1-2.328,2.214h-5.9a2.313,2.313,0,0,0-2.477,2.256,2.256,2.256,0,0,0,2.256,2.257h68.078a2.256,2.256,0,1,0,0-4.513H70.427A2.306,2.306,0,0,1,68.1,50.544a2.258,2.258,0,0,1,2.256-2.3h19.5a2.306,2.306,0,0,0,2.331-2.214,2.256,2.256,0,0,0-2.256-2.3Zm237.817,9.5H273.529a2.311,2.311,0,0,0-2.338,2.221,2.256,2.256,0,0,0,2.257,2.292H286.33a2.259,2.259,0,0,1,2.256,2.3,2.3,2.3,0,0,1-2.33,2.214h-1.794a2.313,2.313,0,0,0-2.477,2.256,2.256,2.256,0,0,0,2.257,2.257H315.5a2.256,2.256,0,0,0,0-4.513H303.391a2.306,2.306,0,0,1-2.331-2.214,2.258,2.258,0,0,1,2.256-2.3h24.352A2.306,2.306,0,0,0,330,55.535a2.256,2.256,0,0,0-2.257-2.3ZM210.147.05H245.7a2.31,2.31,0,0,1,2.338,2.22,2.256,2.256,0,0,1-2.257,2.292h-8.029a2.257,2.257,0,0,0-2.256,2.3,2.3,2.3,0,0,0,2.328,2.214h.674a2.313,2.313,0,0,1,2.477,2.256,2.256,2.256,0,0,1-2.256,2.257H198.5a2.256,2.256,0,1,1,0-4.513h22.186a2.307,2.307,0,0,0,2.332-2.214,2.257,2.257,0,0,0-2.256-2.3H210.222a2.306,2.306,0,0,1-2.332-2.214,2.256,2.256,0,0,1,2.257-2.3ZM80.628,236.644a13.98,13.98,0,0,0,.151,2.078h-4.1a14.172,14.172,0,0,0,.151-2.078,11.68,11.68,0,0,0-1.733-6.435c1.507.273,2.815,1.666,3.629,3.678.813-2.013,2.123-3.406,3.631-3.678a11.674,11.674,0,0,0-1.734,6.435Zm42.821,42.4a3.977,3.977,0,0,1-.129,1H125.8v-.012a4.178,4.178,0,0,0-3.813-4.095A4.046,4.046,0,0,1,123.449,279.043Zm7.911-1.283a15.945,15.945,0,0,0,.165,2.284h-4.5a15.424,15.424,0,0,0,.167-2.284,12.871,12.871,0,0,0-1.906-7.078c1.658.3,3.1,1.834,3.992,4.047.894-2.214,2.334-3.748,3.993-4.047a12.859,12.859,0,0,0-1.909,7.078ZM38.646,283.9h4.987a23.517,23.517,0,0,1-.254-3.476,19.54,19.54,0,0,1,2.9-10.769c-2.522.454-4.713,2.786-6.075,6.151-1.362-3.366-3.553-5.7-6.074-6.151a19.224,19.224,0,0,1,2.891,10.081,6.577,6.577,0,0,0-4.178-2.088,6.124,6.124,0,0,1,2.038,6.252h3.763Zm38.461,12.534a8.359,8.359,0,0,1-.266,2.081h5.139v-.024a8.681,8.681,0,0,0-7.921-8.509,8.412,8.412,0,0,1,3.048,6.452Zm15.666-2.661a32.69,32.69,0,0,0,.346,4.743H83.765a32.268,32.268,0,0,0,.346-4.743c0-5.868-1.535-11.125-3.961-14.7,3.444.621,6.434,3.8,8.292,8.4,1.858-4.594,4.848-7.776,8.292-8.4-2.425,3.574-3.961,8.831-3.961,14.7Zm-8.681-55.963a3.643,3.643,0,0,0,.117.912H81.96v-.012a3.8,3.8,0,0,1,3.466-3.724,3.681,3.681,0,0,0-1.334,2.824Zm168.955,46.627a33.2,33.2,0,0,0,.354,4.863h-9.588a32.981,32.981,0,0,0,.354-4.863c0-6.015-1.572-11.4-4.057-15.067,3.529.636,6.593,3.9,8.5,8.609,1.9-4.71,4.969-7.972,8.5-8.609-2.487,3.664-4.059,9.053-4.059,15.067Zm93.6-49.754c-36.033-2.586-72.354-3.3-108.477-2.4l-.226-.014c-18-3.21-37.386-5.8-58.489-7.63l-.023-2.3c21.039,1.834,40.847,4.434,58.813,7.634,36.909-.9,72.735-.129,109.557,2.563v2.209l-1.156-.061ZM170.689,223.957c-21.219-1.609-43.686-2.488-66.937-2.488A818.383,818.383,0,0,0,.01,227.65v-2.173a816.15,816.15,0,0,1,103.742-6.321c23.256,0,45.746.862,67.005,2.488.093.007.257-.031.257.046L171,223.929c0,.125-.193.036-.31.028Zm124.516,46.226h-3.971a18.96,18.96,0,0,0,.2-2.769,15.591,15.591,0,0,0-2.31-8.578c2.009.363,3.753,2.221,4.838,4.9,1.085-2.681,2.831-4.539,4.84-4.9a15.327,15.327,0,0,0-2.3,8.031,5.232,5.232,0,0,1,3.328-1.663,4.867,4.867,0,0,0-1.624,4.98h-3ZM309.836,298.6h-3.971a18.79,18.79,0,0,0,.2-2.768,15.558,15.558,0,0,0-2.314-8.578c2.01.362,3.756,2.22,4.84,4.9,1.084-2.682,2.829-4.54,4.838-4.9a15.305,15.305,0,0,0-2.3,8.031,5.231,5.231,0,0,1,3.328-1.664,4.873,4.873,0,0,0-1.624,4.98h-3Zm3.667-48.315a5.619,5.619,0,0,1-.178,1.4h3.461c0-.006,0-.012,0-.016a5.847,5.847,0,0,0-5.335-5.732A5.667,5.667,0,0,1,313.5,250.281Zm10.374-1.793a21.751,21.751,0,0,0,.234,3.195h-6.3a21.863,21.863,0,0,0,.232-3.195,17.989,17.989,0,0,0-2.667-9.9c2.319.419,4.334,2.562,5.586,5.657,1.251-3.1,3.266-5.239,5.585-5.657a17.979,17.979,0,0,0-2.669,9.9Zm-64.188,38.678a8.482,8.482,0,0,0,.271,2.134h-5.266v-.026a8.894,8.894,0,0,1,8.117-8.72,8.621,8.621,0,0,0-3.121,6.613ZM144.85,132.991h7.289l-6.676-6.676a2.166,2.166,0,1,1,3.063-3.063l24.565,23.942V118.1l-10.572-10.572H151.3a2.165,2.165,0,0,1,0-4.331h6.885l-8.416-8.416a2.166,2.166,0,1,1,3.063-3.063l20.258,20.258V60.916a2.166,2.166,0,1,1,4.332,0V79.367l6.7-6.7a2.166,2.166,0,1,1,3.063,3.063l-9.761,9.763V98.983l12.608-12.807a2.012,2.012,0,0,1,2.845,2.845l-6.2,6.2h6.771a2.012,2.012,0,0,1,0,4.025h-10.8l-5.227,5.4V117.2h0v20l35.008-35.079a2.165,2.165,0,0,1,3.062,3.063l-12.517,12.589h7.289a2.166,2.166,0,1,1,0,4.332H198.645l-21.222,21.221.064,97.869a20.673,20.673,0,0,0-4.332.079l-.064-87.927L156.47,137.324H144.849a2.166,2.166,0,0,1,0-4.332Zm-6.273-33.917a30.34,30.34,0,0,0,10.763.3c.162-.021.321-.045.48-.068a14.612,14.612,0,0,1-19.412.844,14.621,14.621,0,0,1,18.971-4.2c-1.2,3.048-8.3,1.745-10.8,3.127Zm65.774,33.755a30.4,30.4,0,0,0-8.308-6.852c-.139-.081-.279-.161-.42-.242A14.616,14.616,0,0,1,211.452,137a14.612,14.612,0,0,1-17.542-8.352c2.817-1.668,7.612,3.726,10.442,4.176Zm19.716-13.2A30.374,30.374,0,0,0,213.319,119c-.162.015-.323.034-.482.053a14.61,14.61,0,0,1,19.429-.228,14.616,14.616,0,0,1-19.1,3.594c1.292-3.006,8.347-1.479,10.9-2.783Zm-19.046-27.7a30.317,30.317,0,0,1,5.521,9.244c.06.15.119.3.175.452a14.612,14.612,0,0,0-8.75-17.348,14.611,14.611,0,0,0,5.609,18.6c2.072-2.533-2.533-8.086-2.554-10.951Zm-15.481,16.619a30.34,30.34,0,0,0-10.755-.481c-.162.018-.321.04-.482.059a14.618,14.618,0,0,1,19.423-.512,14.614,14.614,0,0,1-19.04,3.876C179.937,108.465,187.011,109.892,189.541,108.551Zm-26.825-51.7a30.375,30.375,0,0,0,7.226,7.983q.19.152.381.3a14.616,14.616,0,0,1-14.03-13.444,14.616,14.616,0,0,1,16.149,10.806c-3.027,1.241-6.993-4.79-9.726-5.645ZM159.66,85.4a30.335,30.335,0,0,0-.27,10.763c.021.162.045.321.068.48a14.618,14.618,0,0,1-.893-19.409,14.611,14.611,0,0,1,4.247,18.96C159.764,95,161.05,87.9,159.66,85.4Zm-.592,33.808a30.469,30.469,0,0,0,0,10.768c.026.161.056.319.082.476a14.61,14.61,0,0,1-1.379-19.38,14.61,14.61,0,0,1,4.719,18.847c-3.078-1.112-1.97-8.243-3.423-10.713Zm-11.26,25.476a30.34,30.34,0,0,0,10.763.3c.162-.021.321-.045.48-.068a14.612,14.612,0,0,1-19.412.844,14.621,14.621,0,0,1,18.971-4.2c-1.2,3.048-8.294,1.745-10.8,3.127Zm-17.663-10.469a30.407,30.407,0,0,0,10.533,2.228c.162.008.324.012.484.021a14.616,14.616,0,0,1-19.247-2.664,14.617,14.617,0,0,1,19.419-.717c-1.728,2.782-8.476.222-11.189,1.132Zm65.4,115.622c-4.17,0-7.551-.948-7.551-2.117V249.2c0,1.168,3.381,2.116,7.551,2.116s7.552-.948,7.552-2.116v-1.483C203.1,248.886,199.715,249.835,195.544,249.835Zm-3.412,12.089c-4.17,0-7.551-.948-7.551-2.117v1.483c0,1.168,3.381,2.116,7.551,2.116s7.552-.948,7.552-2.116v-1.483C199.684,260.975,196.3,261.924,192.131,261.924Zm-17.46-9.44c-4.17,0-7.551-.948-7.551-2.117v1.483c0,1.168,3.381,2.116,7.551,2.116s7.552-.947,7.552-2.116v-1.483C182.223,251.535,178.842,252.484,174.671,252.484Zm1.467-3c-4.17,0-7.551-.948-7.551-2.117v1.483c0,1.168,3.381,2.116,7.551,2.116s7.552-.948,7.552-2.116v-1.483C183.69,248.539,180.309,249.488,176.138,249.488Zm-.494-2.8c-4.17,0-7.551-.948-7.551-2.117v1.483c0,1.168,3.381,2.116,7.551,2.116s7.552-.948,7.552-2.116v-1.483C183.2,245.737,179.815,246.686,175.644,246.686Zm0-4.553c4.171,0,7.552.952,7.552,2.117s-3.381,2.117-7.552,2.117-7.552-.952-7.552-2.117S171.473,242.134,175.644,242.134Zm4.233,1.9a12.987,12.987,0,0,0-2.708-.123c-.353.012-.708.034-1.053.058-.155.01-.321.023-.493.037l-2.5-.478a6.124,6.124,0,0,1,1.673-.043c.3.058.313.115.285.154a5.22,5.22,0,0,0,1.087-.063c.442-.072.421-.154-.051-.244a13.69,13.69,0,0,0-3.574.085l-.448-.085-.768.125.46.088c-1.283.254-1.381.519-.367.712a14.317,14.317,0,0,0,3.252.091c.307-.018.636-.043.976-.067l2.528.481a6.174,6.174,0,0,1-1.671.043c-.305-.058-.313-.115-.285-.154a5.325,5.325,0,0,0-1.088.061c-.442.073-.421.155.052.245a13.68,13.68,0,0,0,3.573-.085l.448.085.768-.125-.46-.088c1.284-.254,1.381-.519.368-.712Zm-7.562,0h0c-.579-.111-.515-.243.057-.373l2.2.42A10.374,10.374,0,0,1,172.316,244.031Zm6.606.6h0l-2.216-.422c.519-.028,1.037-.044,1.517-.028a5.05,5.05,0,0,1,.755.077c.581.111.515.243-.056.373Zm14.8,13.974c-4.17,0-7.551-.948-7.551-2.117v1.483c0,1.168,3.381,2.116,7.551,2.116s7.552-.948,7.552-2.116v-1.483C201.278,257.661,197.9,258.609,193.725,258.609Zm-.765-2.87c-4.17,0-7.551-.948-7.551-2.117v1.483c0,1.168,3.381,2.116,7.551,2.116s7.552-.947,7.552-2.116v-1.483C200.513,254.791,197.132,255.74,192.96,255.74Zm.7-2.933c-4.17,0-7.551-.948-7.551-2.117v1.483c0,1.168,3.381,2.116,7.551,2.116s7.552-.947,7.552-2.116V250.69C201.214,251.858,197.833,252.807,193.662,252.807Zm-19.068,8.262c-4.17,0-7.551-.948-7.551-2.117v1.483c0,1.168,3.381,2.116,7.551,2.116s7.552-.948,7.552-2.116v-1.483C182.146,260.12,178.765,261.069,174.593,261.069Zm0-4.553c4.171,0,7.552.952,7.552,2.117s-3.381,2.117-7.552,2.117-7.552-.952-7.552-2.117S170.422,256.517,174.593,256.517Zm4.233,1.9a12.987,12.987,0,0,0-2.708-.123c-.353.012-.708.034-1.053.058-.155.01-.321.023-.493.037l-2.5-.478a6.123,6.123,0,0,1,1.673-.043c.3.058.313.115.285.154a5.22,5.22,0,0,0,1.087-.063c.442-.072.421-.154-.051-.244a13.691,13.691,0,0,0-3.574.085l-.448-.085-.768.125.46.088c-1.283.254-1.381.519-.367.712a14.316,14.316,0,0,0,3.252.091c.307-.018.636-.043.976-.067l2.528.481a6.175,6.175,0,0,1-1.671.043c-.305-.058-.313-.115-.285-.154a5.325,5.325,0,0,0-1.088.061c-.442.073-.421.155.052.245a13.679,13.679,0,0,0,3.573-.085l.448.085.768-.125-.46-.088c1.284-.254,1.381-.519.368-.712Zm-7.562,0h0c-.579-.111-.515-.243.057-.373l2.2.42A10.373,10.373,0,0,1,171.265,258.414Zm6.606.6h0l-2.216-.422c.519-.028,1.037-.044,1.517-.028a5.048,5.048,0,0,1,.755.077c.581.111.515.243-.056.373Zm17.672-13.734c4.171,0,7.552.952,7.552,2.117s-3.381,2.117-7.552,2.117-7.552-.952-7.552-2.117S191.372,245.284,195.544,245.284Zm4.233,1.9a12.986,12.986,0,0,0-2.708-.123c-.353.012-.708.034-1.053.058-.155.01-.321.023-.493.037l-2.5-.478a6.124,6.124,0,0,1,1.673-.043c.3.058.313.115.285.154a5.22,5.22,0,0,0,1.087-.063c.442-.072.421-.154-.051-.244a13.69,13.69,0,0,0-3.574.085l-.448-.085-.768.125.46.088c-1.283.254-1.381.519-.367.712a14.316,14.316,0,0,0,3.252.091c.307-.018.636-.043.976-.067l2.528.481a6.174,6.174,0,0,1-1.671.043c-.305-.058-.313-.115-.285-.154a5.325,5.325,0,0,0-1.088.061c-.442.073-.421.155.052.245a13.679,13.679,0,0,0,3.573-.085l.448.085.768-.125-.46-.088c1.284-.254,1.381-.519.368-.712Zm-7.562,0h0c-.579-.111-.515-.243.057-.373l2.2.42A10.373,10.373,0,0,1,192.215,247.181Zm6.606.6h0l-2.216-.422c.519-.028,1.037-.044,1.517-.028a5.054,5.054,0,0,1,.755.077c.581.111.515.243-.056.373ZM160.455,183.17c-3.475-.188-6.559,2.989-6.874,7.094s2.262,7.586,5.738,7.772,6.559-2.989,6.874-7.094S163.93,183.356,160.455,183.17Zm34.018,48.921c.745-2.192,3.836-4.433,7.915-2.864a7.194,7.194,0,0,1,3.969,3.61,5.69,5.69,0,0,1,.278,3.963,5.363,5.363,0,0,1-2.592,2.81,6.654,6.654,0,0,1-2.937.565,7.342,7.342,0,0,1-6.356-4.114,5.583,5.583,0,0,1-.276-3.971Zm6.925-58.269c-3.475-.188-6.559,2.989-6.874,7.094s2.262,7.586,5.738,7.772,6.559-2.989,6.874-7.094S204.873,174.008,201.4,173.822Zm1.932.3-.2-.06c3.344,1.218,5.183,5.347,4.117,9.336-.05.193-.107.382-.171.567s-.123.343-.191.511a8.471,8.471,0,0,1-.728,1.38,7.426,7.426,0,0,1-1.81,1.92,6.593,6.593,0,0,1-1.072.637,5.742,5.742,0,0,1-4.073.349l.2.066a6.315,6.315,0,0,0,5.128-.53,7.071,7.071,0,0,0,.92-.627,7.337,7.337,0,0,0,1.666-1.9,8.017,8.017,0,0,0,.665-1.376c.06-.165.117-.335.169-.508.022-.077.046-.156.068-.234,1.084-4.06-1.015-8.326-4.686-9.527Zm-.132,6.073a1.528,1.528,0,0,0-1.7.015,3.555,3.555,0,0,0-.563.387c-.081.068-.165.141-.253.218l-1.912-1.315c.339-.484.7-.609.936-.444a.716.716,0,0,1,.313.516.667.667,0,0,0,.577-.412.613.613,0,0,0-.26-.884c-.573-.393-1.43.045-2.008.92l-.343-.236-.332.587.353.242a2.02,2.02,0,0,0,.456,2.666,1.615,1.615,0,0,0,1.985-.226c.164-.117.333-.264.509-.411l1.931,1.328c-.338.484-.7.609-.937.444a.7.7,0,0,1-.31-.516.671.671,0,0,0-.579.413.613.613,0,0,0,.26.884c.571.393,1.43-.046,2.007-.918l.343.234L204,183.1l-.351-.243a2.021,2.021,0,0,0-.456-2.665Zm-4.423,1.275h0a1.075,1.075,0,0,1-.318-1.37l1.684,1.159C199.7,181.569,199.22,181.772,198.774,181.464Zm4.429,1.081h0l-1.693-1.164a1.828,1.828,0,0,1,.859-.363.824.824,0,0,1,.516.159,1.071,1.071,0,0,1,.317,1.37Zm-17.149,17.316c-3.475-.188-6.559,2.989-6.874,7.094s2.262,7.586,5.738,7.772,6.559-2.989,6.874-7.094S189.529,200.048,186.054,199.861Zm1.932.3-.2-.06c3.344,1.218,5.183,5.348,4.117,9.336-.05.193-.107.382-.171.567s-.123.343-.191.511a8.469,8.469,0,0,1-.728,1.38,7.426,7.426,0,0,1-1.81,1.92,6.591,6.591,0,0,1-1.072.637,5.742,5.742,0,0,1-4.073.349l.2.066a6.315,6.315,0,0,0,5.128-.53,7.071,7.071,0,0,0,.92-.627,7.337,7.337,0,0,0,1.666-1.9,8.015,8.015,0,0,0,.665-1.376c.06-.165.117-.335.169-.508.022-.077.046-.156.068-.234,1.084-4.06-1.015-8.326-4.686-9.527Zm-.132,6.073a1.528,1.528,0,0,0-1.7.015,3.554,3.554,0,0,0-.562.387c-.081.068-.165.141-.253.218l-1.912-1.315c.339-.484.7-.609.936-.444a.717.717,0,0,1,.313.516.667.667,0,0,0,.577-.412.613.613,0,0,0-.26-.884c-.573-.393-1.43.045-2.008.92l-.343-.236-.332.587.353.242a2.02,2.02,0,0,0,.456,2.666,1.615,1.615,0,0,0,1.985-.226c.164-.117.333-.264.509-.411l1.931,1.328c-.338.484-.7.609-.937.444a.7.7,0,0,1-.31-.516.671.671,0,0,0-.579.413.613.613,0,0,0,.26.884c.571.393,1.43-.046,2.007-.918l.343.234.329-.585-.351-.243a2.021,2.021,0,0,0-.456-2.665ZM183.43,207.5h0a1.075,1.075,0,0,1-.318-1.37l1.684,1.159C184.356,207.609,183.876,207.812,183.43,207.5Zm4.429,1.081h0l-1.693-1.164a1.828,1.828,0,0,1,.859-.363.824.824,0,0,1,.516.159,1.071,1.071,0,0,1,.317,1.37Zm5.984,4.323c.745-2.192,3.836-4.433,7.915-2.864a7.194,7.194,0,0,1,3.969,3.61,5.69,5.69,0,0,1,.278,3.963,5.363,5.363,0,0,1-2.592,2.81,6.654,6.654,0,0,1-2.937.565,7.342,7.342,0,0,1-6.356-4.114,5.583,5.583,0,0,1-.276-3.971Zm11.434,6.5.111-.15c-2.008,2.471-6.038,2.814-9.1.748-.146-.1-.29-.206-.428-.311s-.254-.206-.375-.311a7.265,7.265,0,0,1-.954-1.019,6.656,6.656,0,0,1-1.092-2.09,5.991,5.991,0,0,1-.226-1.1,5.117,5.117,0,0,1,.9-3.541c-.038.047-.077.094-.115.143a5.652,5.652,0,0,0-1.051,4.491,6.243,6.243,0,0,0,.259.96,6.576,6.576,0,0,0,1.122,1.963,7.2,7.2,0,0,0,.968.966c.121.1.25.2.381.291.059.043.118.085.179.126,3.115,2.106,7.334,1.581,9.42-1.17Zm-5.211-2.113a1.337,1.337,0,0,0,.473-1.406,3.24,3.24,0,0,0-.161-.577c-.034-.085-.071-.177-.109-.271l1.636-1.205c.3.418.3.752.1.9a.617.617,0,0,1-.516.109.588.588,0,0,0,.175.6.538.538,0,0,0,.807.039c.489-.359.373-1.2-.185-1.925l.293-.218-.39-.441-.3.221a1.77,1.77,0,0,0-2.336-.386,1.418,1.418,0,0,0-.384,1.709c.052.168.123.348.2.537l-1.652,1.217c-.3-.418-.3-.752-.1-.9a.625.625,0,0,1,.515-.111.584.584,0,0,0-.177-.595.536.536,0,0,0-.805-.038c-.489.362-.37,1.2.188,1.925l-.294.216.391.443.3-.221a1.77,1.77,0,0,0,2.338.384Zm.212-4.021h0a.937.937,0,0,1,1.224.129l-1.441,1.061C199.925,214.011,199.9,213.557,200.278,213.277Zm-2.163,3.355h0l1.447-1.069a1.588,1.588,0,0,1,.054.817.71.71,0,0,1-.279.379.937.937,0,0,1-1.223-.127Zm7.792,21.961.111-.15c-2.008,2.471-6.038,2.814-9.1.748-.146-.1-.29-.206-.428-.311s-.254-.206-.375-.311a7.266,7.266,0,0,1-.954-1.019,6.656,6.656,0,0,1-1.092-2.09,5.99,5.99,0,0,1-.226-1.1,5.117,5.117,0,0,1,.9-3.541c-.038.047-.077.094-.115.143a5.652,5.652,0,0,0-1.051,4.491,6.242,6.242,0,0,0,.259.96,6.575,6.575,0,0,0,1.122,1.963,7.2,7.2,0,0,0,.968.966c.121.1.25.2.381.291.059.043.118.085.179.126,3.115,2.106,7.334,1.581,9.42-1.17Zm-5.211-2.113a1.337,1.337,0,0,0,.473-1.406,3.24,3.24,0,0,0-.161-.577c-.034-.085-.071-.177-.109-.271l1.636-1.205c.3.418.3.752.1.9a.617.617,0,0,1-.516.109.588.588,0,0,0,.175.6.538.538,0,0,0,.807.039c.489-.359.373-1.2-.185-1.925l.293-.218-.39-.441-.3.221a1.77,1.77,0,0,0-2.336-.386,1.418,1.418,0,0,0-.384,1.709c.052.168.123.348.2.537l-1.652,1.217c-.3-.418-.3-.752-.1-.9a.625.625,0,0,1,.515-.111.584.584,0,0,0-.177-.595.536.536,0,0,0-.805-.038c-.489.362-.37,1.2.188,1.925l-.294.216.391.443.3-.221a1.77,1.77,0,0,0,2.338.384Zm.212-4.021h0a.937.937,0,0,1,1.224.129l-1.441,1.061C200.555,233.193,200.525,232.738,200.908,232.459Zm-2.163,3.355h0l1.447-1.069a1.588,1.588,0,0,1,.054.817.71.71,0,0,1-.279.379.937.937,0,0,1-1.223-.127Zm-36.358-52.349-.2-.06c3.344,1.218,5.183,5.348,4.117,9.336-.05.193-.107.382-.171.567s-.123.343-.191.511a8.471,8.471,0,0,1-.728,1.38,7.426,7.426,0,0,1-1.81,1.92,6.592,6.592,0,0,1-1.072.637,5.742,5.742,0,0,1-4.073.349l.2.066a6.315,6.315,0,0,0,5.128-.53,7.072,7.072,0,0,0,.92-.627,7.337,7.337,0,0,0,1.666-1.9,8.018,8.018,0,0,0,.665-1.376c.06-.165.117-.335.169-.508.022-.077.046-.156.068-.234,1.084-4.06-1.015-8.326-4.686-9.527Zm-.132,6.073a1.528,1.528,0,0,0-1.7.015,3.555,3.555,0,0,0-.562.387c-.081.068-.165.141-.253.218l-1.912-1.315c.339-.484.7-.609.936-.444a.717.717,0,0,1,.313.516.667.667,0,0,0,.577-.412.613.613,0,0,0-.26-.884c-.573-.393-1.43.045-2.008.92l-.343-.236-.332.587.353.242a2.02,2.02,0,0,0,.456,2.666,1.616,1.616,0,0,0,1.985-.226c.164-.117.333-.264.509-.411l1.931,1.328c-.338.484-.7.609-.937.444a.7.7,0,0,1-.31-.516.671.671,0,0,0-.579.413.613.613,0,0,0,.26.884c.571.393,1.43-.046,2.007-.918l.343.234.329-.585-.351-.243a2.021,2.021,0,0,0-.456-2.665Zm-4.423,1.275h0a1.075,1.075,0,0,1-.318-1.37L159.2,190.6C158.758,190.916,158.278,191.119,157.831,190.812Zm4.429,1.081h0l-1.693-1.164a1.828,1.828,0,0,1,.859-.363.824.824,0,0,1,.516.159,1.071,1.071,0,0,1,.317,1.37Zm-43.154-21.945c.745-2.192,3.836-4.433,7.915-2.864a7.194,7.194,0,0,1,3.969,3.61,5.69,5.69,0,0,1,.278,3.963,5.363,5.363,0,0,1-2.592,2.81,6.654,6.654,0,0,1-2.937.565,7.342,7.342,0,0,1-6.356-4.114,5.584,5.584,0,0,1-.276-3.971Zm11.434,6.5.111-.15c-2.008,2.471-6.038,2.814-9.1.748-.146-.1-.29-.206-.428-.311s-.254-.206-.375-.311a7.265,7.265,0,0,1-.954-1.019,6.656,6.656,0,0,1-1.092-2.09,5.988,5.988,0,0,1-.226-1.1,5.117,5.117,0,0,1,.9-3.541c-.038.047-.077.094-.115.143a5.652,5.652,0,0,0-1.051,4.491,6.241,6.241,0,0,0,.259.96,6.576,6.576,0,0,0,1.122,1.963,7.2,7.2,0,0,0,.968.966c.121.1.25.2.381.291.059.043.118.085.179.126,3.115,2.106,7.334,1.581,9.42-1.17Zm-5.211-2.113a1.337,1.337,0,0,0,.473-1.406,3.242,3.242,0,0,0-.161-.577c-.034-.085-.071-.177-.109-.271l1.636-1.205c.3.418.3.752.1.9a.617.617,0,0,1-.516.109.588.588,0,0,0,.175.6.538.538,0,0,0,.807.039c.489-.359.373-1.2-.185-1.925l.293-.218-.39-.441-.3.221a1.77,1.77,0,0,0-2.336-.386,1.418,1.418,0,0,0-.384,1.709c.052.168.123.348.2.537l-1.652,1.217c-.3-.418-.3-.752-.1-.9a.625.625,0,0,1,.515-.111.584.584,0,0,0-.177-.595.536.536,0,0,0-.805-.038c-.489.362-.37,1.2.188,1.925l-.294.216.391.443.3-.221a1.77,1.77,0,0,0,2.338.384Zm.212-4.021h0a.937.937,0,0,1,1.224.129l-1.441,1.061C125.189,171.051,125.159,170.6,125.542,170.317Zm-2.163,3.355h0l1.447-1.069a1.588,1.588,0,0,1,.054.817.71.71,0,0,1-.279.379.937.937,0,0,1-1.223-.127Zm61.356-33.546c.745-2.192,3.836-4.433,7.915-2.864a7.194,7.194,0,0,1,3.969,3.61,5.69,5.69,0,0,1,.278,3.963,5.363,5.363,0,0,1-2.592,2.81,6.654,6.654,0,0,1-2.937.565,7.342,7.342,0,0,1-6.356-4.114,5.583,5.583,0,0,1-.276-3.971Zm11.434,6.5.111-.15c-2.008,2.471-6.038,2.814-9.1.748-.146-.1-.29-.206-.428-.311s-.254-.206-.375-.311a7.266,7.266,0,0,1-.954-1.019,6.657,6.657,0,0,1-1.092-2.09,5.99,5.99,0,0,1-.226-1.1,5.118,5.118,0,0,1,.9-3.541c-.038.047-.077.094-.115.143a5.652,5.652,0,0,0-1.051,4.491,6.243,6.243,0,0,0,.259.96,6.576,6.576,0,0,0,1.122,1.963,7.2,7.2,0,0,0,.968.966c.121.1.25.2.381.291.059.043.118.085.179.126C189.864,149.9,194.082,149.379,196.169,146.628Zm-5.211-2.113a1.337,1.337,0,0,0,.473-1.406,3.241,3.241,0,0,0-.161-.577c-.034-.085-.071-.177-.109-.271l1.636-1.205c.3.418.3.752.1.9a.617.617,0,0,1-.516.109.588.588,0,0,0,.175.6.538.538,0,0,0,.807.039c.489-.359.373-1.2-.185-1.925l.293-.218-.39-.441-.3.221a1.77,1.77,0,0,0-2.336-.386,1.418,1.418,0,0,0-.384,1.709c.052.168.123.348.2.537l-1.652,1.217c-.3-.418-.3-.752-.1-.9a.625.625,0,0,1,.515-.111.584.584,0,0,0-.177-.595.536.536,0,0,0-.805-.038c-.489.362-.37,1.2.188,1.925l-.294.215.391.443.3-.221a1.77,1.77,0,0,0,2.338.384Zm.212-4.021h0a.937.937,0,0,1,1.224.129l-1.441,1.061C190.817,141.228,190.787,140.774,191.17,140.494Zm-2.163,3.355h0l1.447-1.069a1.588,1.588,0,0,1,.054.817.71.71,0,0,1-.279.379.937.937,0,0,1-1.223-.127Zm-51.75-33.241c-3.475-.188-6.559,2.989-6.874,7.094s2.262,7.586,5.738,7.772,6.559-2.989,6.874-7.094S140.732,110.793,137.256,110.607Zm1.932.3-.2-.06c3.344,1.218,5.183,5.347,4.117,9.336-.05.193-.107.382-.171.567s-.123.343-.191.511a8.471,8.471,0,0,1-.728,1.38,7.426,7.426,0,0,1-1.81,1.92,6.592,6.592,0,0,1-1.072.637,5.742,5.742,0,0,1-4.073.349l.2.066a6.315,6.315,0,0,0,5.128-.53,7.072,7.072,0,0,0,.92-.627,7.337,7.337,0,0,0,1.666-1.9,8.016,8.016,0,0,0,.665-1.376c.06-.165.117-.335.169-.508.022-.077.046-.156.068-.234,1.084-4.06-1.015-8.326-4.686-9.527Zm-.132,6.073a1.528,1.528,0,0,0-1.7.015,3.553,3.553,0,0,0-.562.387c-.081.068-.165.141-.253.218l-1.912-1.315c.339-.484.7-.609.936-.444a.716.716,0,0,1,.313.516.667.667,0,0,0,.577-.412.613.613,0,0,0-.26-.884c-.573-.393-1.43.045-2.008.92l-.343-.236-.332.587.353.242a2.02,2.02,0,0,0,.456,2.666,1.616,1.616,0,0,0,1.985-.226c.164-.117.333-.264.509-.411l1.931,1.328c-.338.484-.7.609-.937.444a.7.7,0,0,1-.31-.516.671.671,0,0,0-.579.413.613.613,0,0,0,.26.884c.571.393,1.43-.046,2.007-.918l.343.234.329-.585-.351-.243a2.021,2.021,0,0,0-.456-2.665Zm-4.423,1.275h0a1.075,1.075,0,0,1-.318-1.37L136,118.04c-.44.315-.92.518-1.366.21Zm4.429,1.081h0l-1.693-1.164a1.828,1.828,0,0,1,.859-.363.824.824,0,0,1,.516.159,1.071,1.071,0,0,1,.317,1.37Zm2.784-43.419c.745-2.192,3.836-4.433,7.915-2.864a7.194,7.194,0,0,1,3.969,3.61,5.69,5.69,0,0,1,.278,3.963,5.363,5.363,0,0,1-2.592,2.81,6.654,6.654,0,0,1-2.937.565,7.342,7.342,0,0,1-6.356-4.114,5.584,5.584,0,0,1-.276-3.971Zm11.434,6.5.111-.15c-2.008,2.471-6.038,2.814-9.1.748-.146-.1-.29-.206-.428-.311s-.254-.206-.375-.311a7.265,7.265,0,0,1-.954-1.019,6.657,6.657,0,0,1-1.092-2.09,5.99,5.99,0,0,1-.226-1.1,5.118,5.118,0,0,1,.9-3.541c-.038.047-.077.094-.115.143a5.652,5.652,0,0,0-1.051,4.491,6.241,6.241,0,0,0,.259.96,6.576,6.576,0,0,0,1.122,1.963,7.2,7.2,0,0,0,.968.966c.121.1.25.2.381.291.059.043.118.085.179.126C146.975,85.692,151.194,85.167,153.28,82.416ZM148.069,80.3a1.338,1.338,0,0,0,.473-1.406,3.242,3.242,0,0,0-.161-.577c-.034-.085-.071-.177-.109-.271l1.636-1.205c.3.418.3.752.1.9a.617.617,0,0,1-.516.109.588.588,0,0,0,.175.6.538.538,0,0,0,.807.039c.489-.359.373-1.2-.185-1.925l.293-.218-.39-.441-.3.221a1.77,1.77,0,0,0-2.336-.386,1.418,1.418,0,0,0-.384,1.709c.052.168.123.348.2.537L145.714,79.2c-.3-.418-.3-.752-.1-.9a.625.625,0,0,1,.515-.111.584.584,0,0,0-.177-.595.536.536,0,0,0-.805-.038c-.489.362-.37,1.2.188,1.925l-.294.216.391.443.3-.221a1.77,1.77,0,0,0,2.338.384Zm.212-4.021h0a.937.937,0,0,1,1.224.129l-1.441,1.061C147.928,77.016,147.9,76.561,148.281,76.282Zm-2.163,3.355h0l1.447-1.069a1.588,1.588,0,0,1,.054.817.71.71,0,0,1-.279.379.937.937,0,0,1-1.223-.127Zm50.4-16.783-.2-.06c3.344,1.218,5.183,5.348,4.117,9.336-.05.193-.107.382-.171.567s-.123.343-.191.511a8.47,8.47,0,0,1-.728,1.38,7.426,7.426,0,0,1-1.81,1.92,6.592,6.592,0,0,1-1.072.637,5.742,5.742,0,0,1-4.073.349l.2.066a6.315,6.315,0,0,0,5.128-.53,7.071,7.071,0,0,0,.92-.627,7.337,7.337,0,0,0,1.666-1.9,8.017,8.017,0,0,0,.665-1.376c.06-.165.117-.335.169-.508.022-.077.046-.156.068-.235,1.084-4.06-1.015-8.326-4.686-9.527Zm-.132,6.073a1.528,1.528,0,0,0-1.7.015,3.555,3.555,0,0,0-.563.387c-.081.068-.165.141-.253.218l-1.912-1.315c.339-.484.7-.609.936-.444a.717.717,0,0,1,.313.516.667.667,0,0,0,.577-.412.613.613,0,0,0-.26-.884c-.573-.393-1.43.045-2.008.92l-.343-.236-.332.587.353.242a2.02,2.02,0,0,0,.456,2.666,1.616,1.616,0,0,0,1.985-.226c.164-.117.333-.264.509-.411l1.931,1.328c-.338.484-.7.609-.937.444a.7.7,0,0,1-.31-.516.671.671,0,0,0-.579.413.613.613,0,0,0,.26.884c.571.393,1.43-.046,2.007-.918l.343.234.329-.585-.351-.243a2.021,2.021,0,0,0-.456-2.665ZM191.959,70.2h0a1.075,1.075,0,0,1-.318-1.37l1.684,1.159C192.886,70.306,192.406,70.509,191.959,70.2Zm4.429,1.081h0L194.7,70.118a1.828,1.828,0,0,1,.859-.363.824.824,0,0,1,.516.159,1.071,1.071,0,0,1,.317,1.37Z" transform="translate(0 -0.055)"/>
  </g>
</svg>
