<svg xmlns="http://www.w3.org/2000/svg" viewBox="0 0 11.615 439">
  <defs>
    <style>
      .line {
        fill: #fcf1af;
        fill-rule: evenodd;
      }
    </style>
  </defs>
  <path id="Path_1236" data-name="Path 1236" class="line" d="M1889.575,993.447a5.768,5.768,0,0,1-2.839,4.975l-.041.024-.058.034-.042.023a5.673,5.673,0,0,1-1.175.507v60.137a5.78,5.78,0,0,1,1.275,10.546l-.058.034-.042.023a5.668,5.668,0,0,1-1.175.506v60.137a5.779,5.779,0,0,1,1.314,10.521l-.039.023-.081.047-.019.009a5.8,5.8,0,0,1-1.175.507v60.137a5.78,5.78,0,0,1,0,11.093v60.153a5.779,5.779,0,1,1-3.245,0v-60.153a5.779,5.779,0,0,1,0-11.093v-60.1A5.78,5.78,0,0,1,1880.8,1131l.041-.024.059-.034.041-.023h0a5.778,5.778,0,0,1,1.174-.5v-60.137a5.779,5.779,0,0,1-1.217-10.58l.041-.023h0a5.788,5.788,0,0,1,1.174-.5V999.027a5.779,5.779,0,0,1-1.326-10.517l.009-.006.041-.023a5.816,5.816,0,0,1,1.276-.565V927.782a5.779,5.779,0,0,1,0-11.092V856.535a5.776,5.776,0,1,1,3.245,0v60.155a5.78,5.78,0,0,1,0,11.092v60.1A5.78,5.78,0,0,1,1889.575,993.447Zm-3.37,284.983a2.406,2.406,0,1,1-2.406-2.406A2.4,2.4,0,0,1,1886.2,1278.43Zm0-71.246a2.406,2.406,0,1,1-2.406-2.406A2.405,2.405,0,0,1,1886.2,1207.184Zm-1.318-69.1a2.367,2.367,0,1,1,.059-.032l-.009,0-.043.023Zm.1-71.3a2.407,2.407,0,0,1-2.487-4.119l.041-.025.009,0,.007,0a2.407,2.407,0,0,1,2.438,4.149Zm0-71.246a2.407,2.407,0,0,1-2.487-4.119l.041-.025.009,0,.007,0a2.407,2.407,0,0,1,2.438,4.149Zm1.158-73.3a2.406,2.406,0,1,1-2.406-2.406A2.4,2.4,0,0,1,1886.145,922.234Zm0-71.246a2.406,2.406,0,1,1-2.406-2.406A2.405,2.405,0,0,1,1886.145,850.988Z" transform="translate(-1877.96 -845.21)"/>
</svg>
