<svg xmlns="http://www.w3.org/2000/svg" xmlns:xlink="http://www.w3.org/1999/xlink" viewBox="0 0 347.79 320.229">
  <defs>
    <style>
      .cls-1 {
        fill: none;
      }

      .cls-2 {
        fill-rule: evenodd;
        fill: url(#linear-gradient);
      }
    </style>
    <linearGradient id="linear-gradient" x1="0.155" y1="0.195" x2="0.869" y2="0.85" gradientUnits="objectBoundingBox">
      <stop offset="0" stop-color="#fcec94"/>
      <stop offset="0.169" stop-color="#f0c46c"/>
      <stop offset="0.502" stop-color="#fffabd"/>
      <stop offset="0.82" stop-color="#f0c46c"/>
      <stop offset="1" stop-color="#fce79a"/>
    </linearGradient>
  </defs>
  <g id="ресторан" transform="translate(0 0.01)">
    <rect id="Rectangle_2675" data-name="Rectangle 2675" width="347.79" height="320.229" transform="translate(0 -0.01)"/>
    <path id="Path_1363" data-name="Path 1363" class="cls-2" d="M684.1,1208.089l1.295-3.659-1.583-7.2-3.229,10.858H684.1Zm26.647-171.33a4.654,4.654,0,0,0,5.083-3.561,2.588,2.588,0,0,1,1.831-.757h.024a2.543,2.543,0,0,1-.153-.873,2.587,2.587,0,1,1,4.846,1.261,2.618,2.618,0,0,1,.5-.048,2.584,2.584,0,0,1,1.826.757,2.622,2.622,0,0,1,.688,1.217,2.585,2.585,0,1,1,2.573,2.861,2.632,2.632,0,0,1-.617-.074c-.273.317-.58.638-.9.947a2.592,2.592,0,0,1,2.9,2.568,2.587,2.587,0,0,1-2.587,2.587,2.6,2.6,0,0,1-.716-.1,12.244,12.244,0,0,1-1.992,1.745c-.326.23-.666.445-1.014.646l-.258,3.608.934-.69a2.586,2.586,0,0,1,4.267-2.687,2.586,2.586,0,0,1-2.594,4.3,14.947,14.947,0,0,1-2.349,1.377l-.44.223-.213,2.972h.067a2.574,2.574,0,0,1,1.825.758,2.661,2.661,0,0,1,.475.646c.029-.31.073-.612.129-.9a2.587,2.587,0,1,1,4.444-1.443,2.783,2.783,0,0,1,.323-.02,2.584,2.584,0,0,1,2.45,1.753,2.537,2.537,0,0,1,.32-.388,2.588,2.588,0,1,1,1.277,4.358,5.364,5.364,0,0,1-1.326.278c.07.057.137.116.2.179a2.584,2.584,0,0,1-3.156,4.046,8.326,8.326,0,0,1-1.148.443l-4.8,14.991a8.234,8.234,0,0,1,1.608.39,2.435,2.435,0,0,1,.9.558,1.222,1.222,0,0,1,.3,1.288,1.666,1.666,0,0,1-.324.553,10.6,10.6,0,0,0-1.6,3.64,29.6,29.6,0,0,0-.978,5.68c-.184,2.37.912,4.237,2,6.082.213.362.426.724.63,1.09l2.557.044,2.453.064a17.746,17.746,0,0,1,.843-1.577,2.566,2.566,0,0,1,1.621-1.319,10.176,10.176,0,0,1,6.134,0,3.625,3.625,0,0,1,1.068.585v-1.457a1.328,1.328,0,0,0-.146-.612,1.312,1.312,0,0,0-.417-.472,8.16,8.16,0,0,1-3.495-6.695v-6.328h.143a3.437,3.437,0,0,1,2.08-1.589,14.465,14.465,0,0,1,8.591,0,3.437,3.437,0,0,1,2.08,1.589h.143v6.328a8.189,8.189,0,0,1-3.5,6.7,1.318,1.318,0,0,0-.417.473,1.332,1.332,0,0,0-.146.611v4.4c2.422.148,4.758.315,6.995.5,2.388.192,4.734.41,7.023.646a2.086,2.086,0,0,1,1.134-.342h9.548c.012-.073.029-.146.048-.219a1.915,1.915,0,0,1,.909-1.147,1.884,1.884,0,0,1,1.446-.173,3.7,3.7,0,0,1,1.981,1.537h8.784a2.742,2.742,0,0,1,2.33,1.756,7.88,7.88,0,0,1,.744,3.453,23.486,23.486,0,0,1,5.557,2.5c1.565,1.048,2.4,2.2,2.4,3.456v.031h0v15.605c0,5.289-9.441,8.772-9.468,8.781l-1.145.413V1123.08c-6.483,1.782-15.765,3.276-26.887,4.329-7.009.664-14.745,1.153-22.968,1.431l15.4,51.792,3.6-18.256h-.259a2.932,2.932,0,0,1-2.923-2.922v-6.2h0a1.9,1.9,0,0,1,.059-.487,1.84,1.84,0,0,1,.72-1.052l.026-.02,4.868-3.261.075-.2a10.769,10.769,0,0,1,3.893-5l6.508-3.547a16.053,16.053,0,0,1,9.207-2.9h31.4a16.024,16.024,0,0,1,8.424,2.39l4.287-18.714c-.9-.238-1.8-.47-2.68-.693a4.6,4.6,0,0,1-3.379-5.38l3.847-18.858a4.6,4.6,0,0,1,4.424-3.678l20.92-.369a3.038,3.038,0,0,1,.577.044l2.521-.044a2.869,2.869,0,0,1,.712.073,2.921,2.921,0,0,1,2.183,3.5l-6.3,27.3a2.575,2.575,0,0,1-1.282,1.748,4.205,4.205,0,0,1-2.069.457h-.6l-6.166,30.044v4.846a2.912,2.912,0,0,1-.27,1.224l10.348,52.507a2.3,2.3,0,0,1-4.506.935l-11.379-51.744h-3.492l7.116,36.12a2.248,2.248,0,0,1-4.4.917l-8.148-37.035H768.853l-8.144,37.033a2.252,2.252,0,0,1-2.68,1.714,2.248,2.248,0,0,1-1.729-2.628l7.118-36.12h-4.525l-6.334,28.8L758.1,1209.8h-7.018l-1.613-4.558-1.951,8.872a2.3,2.3,0,0,1-4.508-.935l3.378-17.152-.177.015-23.126-65.329-1.619,71.654H714.92q-.778-35.83-1.616-71.659L689.275,1198.6l-.121-.01,2.877,14.6a2.3,2.3,0,0,1-4.507.935l-1.435-6.525-.782,2.211h-7.018l4.764-16.019-6.907-31.411H671.62l7.118,36.12a2.25,2.25,0,0,1-1.728,2.631l-.038,0a2.243,2.243,0,0,1-2.638-1.72l-8.146-37.035H617.749l-8.144,37.033a2.251,2.251,0,0,1-2.679,1.714,2.245,2.245,0,0,1-1.728-2.628l7.118-36.12h-3.493l-11.378,51.744a2.3,2.3,0,0,1-4.508-.935l10.347-52.507a2.893,2.893,0,0,1-.27-1.223v-4.846l-6.167-30.044h-.6a4.194,4.194,0,0,1-2.068-.457,2.577,2.577,0,0,1-1.283-1.748l-6.3-27.3a2.991,2.991,0,0,1-.074-.709,2.922,2.922,0,0,1,2.256-2.788,2.821,2.821,0,0,1,.713-.074l2.525.044a2.971,2.971,0,0,1,.571-.044l20.92.369a4.6,4.6,0,0,1,4.426,3.677l3.847,18.858a4.6,4.6,0,0,1-3.379,5.38c-.863.219-1.759.455-2.68.7l4.286,18.706a16.174,16.174,0,0,1,3.769-1.7,16,16,0,0,1,4.656-.693h31.4a16.054,16.054,0,0,1,9.207,2.9l6.508,3.547a10.811,10.811,0,0,1,3.9,5.015l.145.4h.034l.037.151,4.748,2.911a1.858,1.858,0,0,1,.723,1.05,2.014,2.014,0,0,1,.057.489h0v6.2a2.929,2.929,0,0,1-2.922,2.921h-.262l4.134,20.983,16.212-54.52c-8.221-.279-15.957-.767-22.968-1.431-11.122-1.053-20.4-2.547-26.885-4.329v13.474l-1.145-.413c-.026-.01-9.468-3.492-9.468-8.782v-15.605h0v-.031c0-1.548,1.287-2.958,3.675-4.207a43.22,43.22,0,0,1,9.609-3.227l.02,0,.817-.189.284-.064a6.776,6.776,0,0,1,.574-1.717,2.74,2.74,0,0,1,2.33-1.756h8.784a3.694,3.694,0,0,1,1.98-1.537,1.916,1.916,0,0,1,2.354,1.31c.021.075.038.153.051.228h7.893c2.521-.23,5.094-.439,7.7-.618,2.362-.163,4.815-.309,7.345-.435v-3a1.329,1.329,0,0,0-.146-.612,1.312,1.312,0,0,0-.417-.472,8.159,8.159,0,0,1-3.495-6.695V1082.4h.143a3.444,3.444,0,0,1,2.08-1.587,14.446,14.446,0,0,1,8.589,0,3.449,3.449,0,0,1,2.08,1.587h.145v6.328a8.186,8.186,0,0,1-3.5,6.7,1.317,1.317,0,0,0-.417.473,1.354,1.354,0,0,0-.145.551,9.6,9.6,0,0,1,2.866-.405,9.263,9.263,0,0,1,3.066.473,2.567,2.567,0,0,1,1.624,1.32c.154.255.4.674.666,1.217l2.293-.043,2.372-.03c.2-.353.4-.7.609-1.05,1.085-1.843,2.18-3.71,2-6.078a29.573,29.573,0,0,0-.979-5.682,10.633,10.633,0,0,0-1.6-3.645,1.607,1.607,0,0,1-.324-.559,1.225,1.225,0,0,1,.328-1.3,2.514,2.514,0,0,1,.924-.551,8.664,8.664,0,0,1,1.7-.394l-4.786-17.4a15.14,15.14,0,0,1-3.1-2.173,2.584,2.584,0,0,1-2.417-4.344,2.788,2.788,0,0,1,.236-.211,19.461,19.461,0,0,1-2.436-1.463,2.588,2.588,0,1,1-1.133-4.915,2.419,2.419,0,0,1,.292.016,2.588,2.588,0,0,1,2.586-2.481,2.537,2.537,0,0,1,.883.156,2.585,2.585,0,0,1,4.111-.616,2.62,2.62,0,0,1,.366.459l.131-1.4a2.589,2.589,0,1,1,2.673-.616,2.523,2.523,0,0,1-.345.29,18.049,18.049,0,0,1-.132,4.245c-.032.213-.066.423-.108.634a2.587,2.587,0,0,1,3.29,3.964,2.619,2.619,0,0,1-.8.545,16.482,16.482,0,0,1-.1,2.534,7.369,7.369,0,0,1-.722,2.5c.375,1.08.718,2.169,1.052,3.261a76.125,76.125,0,0,1,2.378,10.465,56.137,56.137,0,0,1,.6,6.4l.366,0c-.066-5.729-.176-16.675.565-26.694a.858.858,0,0,1,.048-.625c.079-1.01.171-2.044.274-3.087.107-1.074.228-2.139.361-3.183l0-.01v-.02q.1-.849.223-1.694a5.281,5.281,0,0,1-.467-.513,8.093,8.093,0,0,1-.508-.707,6.8,6.8,0,0,1-2.969-1.282,10.1,10.1,0,0,1-2.372-2.454,2.592,2.592,0,0,1-3.083-2.54Zm5.168.177a2.592,2.592,0,0,1-.2.841l1.674,1.408a13.813,13.813,0,0,1-.44-1.668A2.587,2.587,0,0,1,715.915,1036.936Zm-3.2-.8a.874.874,0,0,0,1.067,1.368l.177-.141a.874.874,0,0,0-1.244-1.227Zm7.1.312a2.527,2.527,0,0,1-.331.406c-.054.054-.111.107-.169.156l1.437,3.823.032-.16a.854.854,0,0,1,.189-.885l.208-.928.08-.3a.834.834,0,0,1-.2-.177,10.845,10.845,0,0,1-1.245-1.938Zm-2.777-2.041a.871.871,0,0,0,.618,1.491l.079,0h.02l.008,0h.071l.1-.028h0l.022-.008h.007l.01,0,.01,0h0a.854.854,0,0,0,.287-.192.873.873,0,0,0-1.235-1.235Zm8.408,1.229a2.6,2.6,0,0,1-.121.559l.239-.2A2.593,2.593,0,0,1,725.45,1035.64Zm-3.191-.89a.872.872,0,0,0,.453,1.476h.01l.012,0,.109.012h.036a.873.873,0,1,0-.618-1.492Zm-2.758-3.8a.883.883,0,0,0,0,1.235.892.892,0,0,0,.4.229h0l.007,0h.021c.057.01.1.016.154.02h.056a.874.874,0,1,0-.641-1.492Zm7.845,3.46a.878.878,0,0,0-.022,1.213l.222.173a.9.9,0,0,0,.419.1.865.865,0,0,0,.873-.873.876.876,0,0,0-1.491-.62Zm-3.177,6.646a2.554,2.554,0,0,1,.156-.887,9.879,9.879,0,0,1-.917.53l-.155,2.165,1.081-.9a2.541,2.541,0,0,1-.165-.906Zm1.97-.617a.88.88,0,0,0-.075,1.156h0l.006.008.007.007a1.3,1.3,0,0,0,.17.157l.007.006.008.006h0l.007,0a.881.881,0,0,0,.483.143.874.874,0,0,0,.873-.873.871.871,0,0,0-1.488-.616Zm-.609,6.935a.883.883,0,0,0-.044,1.189l.067.069.008.007.007.008.006.006h0l.008.006.008.007.008.006.008.007.008.006.008.006.009.006.008.006a.872.872,0,1,0-.112-1.331Zm4.59,14.094a.878.878,0,0,0-.256.618.9.9,0,0,0,.056.312h0l0,.01v0l0,0,.075.145,0,0,.007.008.081.1.023.024a.874.874,0,1,0,0-1.235Zm3.5-4.815a.878.878,0,0,0-.256.618.9.9,0,0,0,.135.472l.007.008v0l.006.007,0,.007.184.193.057.042.007,0,.007,0,0,0,.008.006h0l.006,0,.008,0h0l.009.006,0,0,0,0,.01,0h0a.874.874,0,1,0-.208-1.393Zm-5.947,1.692a2.564,2.564,0,0,1-.354-.537l-.075,1.05.068-.087c.119-.146.238-.287.361-.427Zm1.348-2.3a.876.876,0,0,0,0,1.237.9.9,0,0,0,.3.194l.01,0h0l.127.037h.012l.015,0h0l.008,0a.873.873,0,1,0-.472-1.48Zm-2.885-2.9a.879.879,0,0,0,0,1.236.923.923,0,0,0,.163.129,1.016,1.016,0,0,0,.344.121h.026l.087,0a.873.873,0,1,0-.616-1.491Zm-1.407,5.691a2.579,2.579,0,0,1-.971,1.013,5.324,5.324,0,0,0,.793,1.273,3.887,3.887,0,0,0,.608.582,18.049,18.049,0,0,1-.429-2.869Zm-2.684,1.342-.034-.006-1.39,19.391h.181a53.94,53.94,0,0,1,.821-6.37,45.736,45.736,0,0,1,2.644-9.14v0l.007-.015.008-.02.016-.037.008-.018.009-.018.25-.582a5.242,5.242,0,0,1-1.312-1.126A7.149,7.149,0,0,1,722.05,1060.18Zm-.369-2.976-.014.029,0,0-.015.032h0l0,.01h0l-.014.039,0,.006v0l0,.008v0l-.01.031v0l-.007.029,0,.008h0l0,.012h0v.012l0,.008v.031l0,.01h0l0,.01v.066h0v.065h0v.01h0v.01h0v.01h0v.01h0v.022h0v.033h0v.012l0,.008v0l0,.018v0l0,.007v0l0,.008,0,.024,0,.007,0,.01v0l.008.028v0l0,.007.01.03v0l.023.058,0,.01h0l0,.01,0,.008h0l.008.018.006.01,0,.007,0,0,.021.036.006.01,0,0,0,0,.031.045,0,.007.006.008h0l.006.007.007.008h0l.006.006.006.008h0l.012.015h0l.007.008.022.022.007.007,0,0,0,0,.008.008h0l.006.006.006.007h0a.873.873,0,1,0-.028-1.268h0l-.007.006h0l-.026.029h0l-.007.008h0l0,.008,0,0,0,.006-.006,0-.008.012-.007.008h0l0,.006,0,0,0,0-.006.007h0l-.006.01-.028.044h0l0,.008-.009.014v0l-.006.008h0Zm-11.834.923a2.592,2.592,0,0,1-.1.374l.263.2ZM706.69,1057a.875.875,0,0,0,1.006,1.4h0l.007,0h.005l.008,0,0,0,0,0,.01,0,.008,0,.006,0,.031-.02.008-.006.009-.006.008-.006.01-.006.008-.006.008-.006.008-.007.006,0,0,0,.008-.006,0,0,0,0,.008-.007.008-.007.1-.105,0,0,0,0,.006-.008,0,0,0,0,.007-.008a.856.856,0,0,0,.173-.524.876.876,0,0,0-1.492-.621Zm6.287-2.62a2.615,2.615,0,0,1-.738-.519,2.677,2.677,0,0,1-.441-.585l.318.7.032.072,0,.006.007.018h0c.228.511.458,1.05.688,1.608l.13-1.3Zm-1.331-1.428-.022-.059,0,.006Zm1.8-1.537a.871.871,0,0,0,.527,1.485h.167a.872.872,0,0,0-.077-1.741.868.868,0,0,0-.617.256Zm-2.706-9.136a.873.873,0,0,0,.618,1.491l.078,0h.031l.1-.018h.022l.006,0h0l.01,0a.867.867,0,0,0,.37-.219.872.872,0,0,0-.618-1.492.868.868,0,0,0-.618.255Zm-.654,7.591-.056.058.044.071Zm-2.291.8a2.529,2.529,0,0,1-.491-.127l-.006.012.573.391Zm-1.9-1.363a2.6,2.6,0,0,1-.213-.549.874.874,0,1,0-.661,1.445.887.887,0,0,0,.317-.058l.193-.1,0,0,.008-.006h0l.007,0a.774.774,0,0,0,.086-.075.875.875,0,0,0,.256-.622l0-.022Zm1.676-1.812a.871.871,0,0,0-.256.617,1.009,1.009,0,0,0,.014.156v.01l0,.01,0,.012.022.083,0,.01,0,.01.015.04,0,.01,0,.01.038.076,0,.008,0,.01.006.01a.825.825,0,0,0,.127.163.875.875,0,1,0,0-1.234Zm-2.3,4.41c-.083.008-.167.012-.252.012a2.762,2.762,0,0,1-.292-.016l-.012.17,1.607.765a8.559,8.559,0,0,1-1.052-.93Zm-3.746-.728a.873.873,0,0,0,1.213,1.257v0l.006-.006,0,0,0,0,0,0,0,0,0,0,0,0,0,0,0-.006,0,0,0-.006h0l.006-.006v0l.006-.006h0l.006-.006,0,0,0-.006,0,0,0,0h0l0,0,0,0,0,0,0,0a.865.865,0,0,0,.094-.145h0l0-.008v0l0-.007,0,0v-.006l.006-.01,0,0a.873.873,0,0,0-1.415-.972Zm24.753,13.957c-.195.02-.385.034-.567.044l-.04,0h-.026a44.954,44.954,0,0,0-2.344,8.324c-.148.786-.274,1.549-.38,2.281l3.414-10.657h-.015l-.042,0Zm.483-2.393.389-.154.378-1.183c-.2.32-.392.654-.581.993a.788.788,0,0,1-.1.187l-.083.156Zm-13.128.954-.574-.3,3.128,11.37-.187-1.339a74.069,74.069,0,0,0-2.147-9.643.892.892,0,0,1-.217-.087Zm-1.38-3.233.745.582-.439-1.3-.849-1.257.541,1.972Zm107.849,81.591,5.083,2.849a8.457,8.457,0,0,1,2.251,2.209c.107.154.208.312.3.471l5.4-23.559c-2.9-.66-5.9-1.449-8.873-2.243l-4.162,20.274Zm2.974,10.747c-.513.008-1.024.007-1.515.007-17.691.237-35.46.09-53.183.105l-7.716.018h-.487l-.973.006c-.266,0-.532,0-.8,0h-.044l-3.489.009a19.438,19.438,0,0,1,.073-2.079l-3.344,2.24-.05.078a.182.182,0,0,0,0,.108l.058.089.01.008h0a.189.189,0,0,0,.1.022h78.4l.039,0,.032-.008h0l.018-.007,0,0,.009-.007.007,0,.057-.088a.231.231,0,0,0,.01-.064l-.01-.06-.01-.021-.034-.04,0,0-1.295-.791v.481l-5.714.006h-.162Zm5.806-2.551c.624.342,1.205.7,2.03,1.244l5.518-26.882-.235.01a2.883,2.883,0,0,1-.535-.052h-.012l-.109-.023h0l-.024-.006-.01,0-.012,0-.01,0-.677-.139-5.923,25.858Zm1.4,4.871-.153.006h0c-23.312,1.063-55.08,1.06-78.4,0h0l-.153-.006-.021,0h0v4.33a1.2,1.2,0,0,0,1.208,1.207h76.471l.018,0h.02l.015,0h.023l.02,0h.01a1.194,1.194,0,0,0,.617-.331,1.245,1.245,0,0,0,.14-.165h0l.007-.012,0,0,0-.008.015-.024h0a1.2,1.2,0,0,0,.181-.64v-4.33h0l-.023,0Zm8.748-32.726,0,.021a3.236,3.236,0,0,1-.143.426,2.455,2.455,0,0,0,1.135-.234.924.924,0,0,0,.453-.636l6.3-27.3a1.3,1.3,0,0,0,.034-.3,1.212,1.212,0,0,0-.274-.737,1.2,1.2,0,0,0-.66-.413,1.262,1.262,0,0,0-.3-.032l-.413.007a2.89,2.89,0,0,1,.195,1.821l-6.307,27.338-.01.043Zm-16.417-1.058-1.651-.443-4.392,19.178,1.97,1.105,4.073-19.84ZM751.8,1194.626l-1.64,7.456,2.126,6.008h3.518l-4-13.463Zm-71.668-43.294q.03.382.029.763v.855q-37.038-.089-74.078-.153v-.48l-1.3.794h0l-.046.069-.012.059.01.057.056.086a.174.174,0,0,0,.112.034h78.4a.169.169,0,0,0,.113-.034l.054-.087.007-.108-.046-.073c-2.725-1.668-3.241-2.417-3.306-1.783Zm-72.838-3.746c.1-.159.2-.317.306-.471a8.462,8.462,0,0,1,2.249-2.209l5.082-2.847-4.154-20.234c-3,.824-6.062,1.641-8.869,2.247Zm76.169,7.539-.153.006h0c-23.316,1.059-55.084,1.064-78.4,0h0l-.153-.006-.022,0h0v4.33a1.215,1.215,0,0,0,.179.639h0l.008.014h0l.007.01,0,.006,0,.007.008.008v0l.008.012h0l.007.01,0,0,0,.007.006.008,0,0,.01.01h0l.008.012,0,0,.006.007.007.008,0,0,.01.012h0l.08.082h0l.01.01,0,0,.007.007.007,0,0,0,.01.01h0l.012.008,0,0,.008.007.007.006,0,0,.012.008h0l.01.01h0l.008.007.007,0,0,0,.01.007h0l.012.008h0l.01.006.006,0,.007,0,.009.006,0,0,0,0,.008,0h0l.012.007,0,0,.008,0,.026.014h0l.008,0h.006l.052.028h0l.034.015.006,0h0l.052.02h0l.008,0,.089.029h0l.065.016h.022l.007,0h76.58a1.2,1.2,0,0,0,1.207-1.207v-4.33h0l-.021,0Zm-79.34-3.624c.658-.425,1.344-.839,2.03-1.25l-5.919-25.839-.723.133h0l-.012,0h-.012l-.012,0-.01,0h-.012l-.034.007h-.01l-.012,0-.01,0h-.012l-.012,0-.01,0h0l-.007,0h-.012l-.045.008h-.012l-.022,0h-.01a2.783,2.783,0,0,1-.4.029l-.067,0h-.034l-.037,0-.034,0-.062,0,5.521,26.885Zm9.955-30.583-1.648.453,4.066,19.812,1.97-1.105-4.389-19.159Zm-17.924,1.929-.031-.079,0-.01-.022-.058h0l-.006-.015,0-.016,0,0,0-.012-.006-.015,0-.007,0-.008,0-.015,0-.012-.01-.034h0l0-.015,0-.016v0l0-.012,0-.015,0-.01v-.007l0-.015,0-.012v0l0-.015,0-.016v0l0-.014,0-.015c-2.251-9.008-4.213-18.268-6.3-27.334l-.031-.154h0v-.012l0-.01v-.012l0-.012v-.022l0-.012v-.01h0l0-.01v-.034l0-.01v-.065h0v-.089h0v-.087h0v-.054a2.76,2.76,0,0,1,.258-1.26l-.413-.007a1.244,1.244,0,0,0-.3.032,1.192,1.192,0,0,0-.664.414,1.21,1.21,0,0,0-.274.736,1.3,1.3,0,0,0,.034.3l6.3,27.3a.929.929,0,0,0,.453.636,2.469,2.469,0,0,0,1.137.234Zm143.447-24.8-.583-.211a8.618,8.618,0,0,0-4.968,0l-.583.211.583.211a8.6,8.6,0,0,0,4.968,0Zm-6.885,1.46c-.087.171-.177.359-.268.558l-.014.031-.012.03-.015.03-.148.342,0,0-.04.1h0l-.026.067v0a12.567,12.567,0,0,0-1.05,5.889v.018l.007.057v.015h0v.015l0,.014v.014l0,.015v.045l0,.014v.029l0,.015,0,.015v.029l0,.014,0,.016,0,.015v.014l0,.012v0l0,.014,0,.015v.015l0,.016,0,.014,0,.015a13.173,13.173,0,0,0,3,6.9c.794.8,4.049.642,4.691,0h0l.007-.007,0-.006,0,0,0-.006.008-.007v0l.01-.012h0l.01-.01.009-.01,0-.006.014-.016h0a12.208,12.208,0,0,0,1.965-3.32l.1-.255c.066-.171.129-.342.189-.513l0-.014.018-.054,0-.006v-.006l0-.014,0-.012,0-.014,0-.014,0-.012,0-.014,0-.014,0-.012,0-.012,0-.015,0-.012,0-.012h0l0-.012.006-.014,0-.012,0-.014,0-.012.006-.014,0-.014,0-.012.02-.066.141-.481.008-.03,0-.015,0-.01,0,0,0-.022.236-1.016a10.639,10.639,0,0,0,.223-2.137v-.2l0-.032v-.016l0-.05v-.05a13.5,13.5,0,0,0-1-4.4l-.008-.024-.01-.024-.045-.112-.014-.032h0l-.068-.165-.01-.022-.06-.137v-.008c-.132-.3-.264-.582-.39-.829l-.01.006-.01.007-.01.006-.006,0,0,0-.01.006-.01.007-.01.006,0,0-.007,0-.01.007-.01.006-.01.006h0l-.01,0-.01.007-.01.006-.01.006h0l-.01.006-.012.007-.01.006-.008,0,0,0-.012.006-.01.006-.012.006-.006,0-.006,0-.012.006-.012.006-.01.006h0l-.009,0-.01.006-.012.006-.012.006-.012.006-.012.006-.012,0-.01.006h0l-.012.006-.012.006-.012,0-.007,0-.006,0-.012.006-.012,0-.024.012-.012,0-.012.006-.012.006h0l-.012,0-.012.006-.014,0-.01.006h0l-.012,0-.012,0-.012.006-.009,0h0l-.012,0-.014.006-.012,0-.006,0-.008,0-.012,0-.012,0-.012.006h0l-.01,0-.014,0-.012,0-.012,0a10.144,10.144,0,0,1-6.134,0l-.012,0-.014,0-.012,0-.01,0h0l-.012-.006-.012,0-.014,0-.007,0-.006,0-.012,0-.012-.006-.012,0h0l-.009,0-.012-.006-.014,0-.012,0h0l-.012-.006-.012,0-.012-.006-.01,0h0l-.012-.006-.012-.006-.012,0-.024-.012-.012,0-.012-.006,0,0-.007,0-.012,0-.012-.006-.012-.006h0l-.01-.006-.012,0-.01-.006-.012-.006-.012-.006-.012-.006-.01-.006-.01,0h0l-.012-.006-.01-.006-.012-.006,0,0-.006,0-.012-.006-.012-.006-.01-.006,0,0-.008,0-.01-.006-.012-.007-.012-.006h0l-.01-.006-.01-.006-.012-.007-.01,0h0l-.01-.006-.012-.006-.01-.007-.008,0,0,0-.01-.006-.01-.007-.01-.006-.006,0,0,0-.012-.006-.01-.007-.01-.006Zm-3.318,6.725-.01-.255h-2.03a11.433,11.433,0,0,1-.8,2.335l-.048.1-.043.088-.187.375-.007.016-.082.155-.007.012-.1.179-.062.113-.038.065-.048.083-.052.09-.034.057-.068.115-.018.03-.086.137,0,0-.088.14-.012.02-.075.117-.029.044-.1.157-.043.066-.06.088-.028.042-.075.109-.012.018-.088.123,0,0-.084.116-.018.026-.068.094-.032.044-.053.071-.048.064-.037.048-.061.082-.022.026-.075.1-.007.009-.081.1-.008.01-.072.09-.021.026-.058.069-.034.043-.043.051-.046.057-.028.032-.073.087-.07.082h0l-.068.081-.012.012-.056.064-.02.024-.043.048-.031.036-.03.034-.039.044-.018.021-.048.052-.008.008-.053.058v0l-.048.051-.01.01-.037.038-.018.018-.026.028-.023.024-.016.018-.028.028-.01.01-.029.03,0,0-.028.028,0,0-.022.022-.007.006-.014.015-.008.008-.008.008-.008.007,0,0-.007.007h0l0,0-.251.251h-6.863l-.25-.251,0,0h0l-.006-.007,0,0-.008-.007-.008-.008-.008-.008-.014-.015-.006-.006-.022-.022,0,0-.029-.028,0,0-.03-.03-.009-.01-.026-.028-.018-.018-.022-.024-.026-.028-.018-.018-.036-.038-.01-.01-.048-.051,0,0-.052-.058-.008-.008-.048-.052-.018-.021-.039-.044-.031-.034-.031-.036-.042-.048-.022-.024-.056-.064-.012-.012-.067-.081h0l-.068-.082-.073-.087-.029-.032-.046-.057-.043-.051-.034-.043-.058-.069-.021-.026-.072-.09-.007-.01-.082-.1-.006-.009-.076-.1-.02-.026-.062-.082-.037-.048-.048-.064-.053-.071-.031-.044-.069-.094-.018-.026-.083-.116,0,0-.087-.123-.014-.018-.074-.109-.029-.042-.059-.088-.044-.066-.1-.157-.03-.044-.074-.117-.012-.02-.088-.14,0,0-.084-.137-.018-.03-.068-.115-.032-.057-.053-.09-.048-.083-.037-.065-.064-.113-.1-.179-.008-.012-.081-.155-.008-.016-.187-.375-.043-.088-.048-.1a11.535,11.535,0,0,1-.8-2.335h-1.486a10.624,10.624,0,0,1-.072,1.251l0,.01,0,.02,0,.02,0,.018,0,.02v.018h0l0,.02,0,.02v.018l0,.02,0,.02v.018l0,.02,0,.018,0,.02,0,.02,0,.018a15.168,15.168,0,0,1-3.467,7.853,2.345,2.345,0,0,1-1.35.573,16.547,16.547,0,0,1-4.435,0l-.03,0-.028,0h0l-.029,0-.028,0-.029-.007-.028,0-.028,0h0l-.026-.007-.028-.006-.026-.006h0l-.026-.006h0l-.026-.007h0l-.026-.006-.026-.007h0l-.026-.006h0l-.024-.007h0l-.026-.007-.026-.008-.024-.007h0l-.024-.007h0l-.023-.007h0l-.023-.007h0l-.023-.007h0l-.024-.007h0l-.023-.008h0l-.022-.008h0l-.022-.008h0l-.02-.008h0l-.021-.01h0l-.022-.008h0l-.02-.008h0l-.02-.008h0l-.02-.008h0l-.02-.009h0l-.02-.01h0l-.02-.01h0l-.018-.01h0l-.02-.01h0l-.018-.01h0l-.018-.009h0l-.018-.01h0l-.018-.01h0l-.018-.01h0l-.018-.01h0l-.016-.01h0l-.016-.01h0l-.015-.01h0l-.015-.012h0l-.015-.01h0l-.015-.01h0l-.015-.012h0l-.015-.01h0l-.014-.012h0l-.014-.01h0l-.012-.012h0l-.012-.01h0l-.014-.012h0l-.014-.012h0l-.012-.012h0l-.012-.012h0l-.012-.012h0l-.012-.012h0l-.012-.012h0l-.012-.012h0l-.007-.008,0-.006,0,0-.01-.01,0,0-.007-.008-.012-.012v0l-.01-.012-.012-.012,0,0-.014-.016-.01-.012-.006-.006-.016-.018-.007-.008-.01-.012-.02-.024-.016-.018-.018-.021v0l-.02-.023-.015-.018-.007-.008-.02-.026-.01-.012-.012-.015-.023-.029-.006-.007L699.2,1115l-.024-.03h0l-.026-.031-.02-.026-.007-.008-.026-.034-.014-.018-.014-.017-.036-.048-.02-.026-.029-.04h0l-.054-.072-.006-.008a14.734,14.734,0,0,1-1.252-2.036h-.034a16.766,16.766,0,0,1-1.946-.111h0l-.068-.007h0l-.135-.016-.066-.008h0l-.066-.01-.066-.01-.066-.01h0l-.129-.02h0l-.065-.01-.064-.01-.064-.012-.062-.01-.062-.012-.062-.012-.061-.012-.061-.012-.061-.014-.059-.012-.06-.014-.06-.012h0l-.058-.012-.059-.014-.058-.012h0l-.058-.012-.057-.015-.057-.014-.056-.015-.054-.015-.054-.014-.056-.016-.053-.016-.053-.015-.053-.016-.051-.016-.052-.016-.051-.016-.052-.016-.012,0-.04-.012-.022-.008-.029-.01-.034-.012-.016-.006-.045-.016-.006,0-.05-.018h0l-.045-.018-.015-.006-.034-.014-.026-.01-.022-.009-.036-.015-.012-.006-.045-.018h0l-.048-.021-.008,0-.037-.016-.018-.008-.026-.014-.028-.012-.018-.008-.037-.018-.006,0-.044-.022h0l-.04-.02-.012-.006-.051-.028-.02-.01-.03-.016-.01-.007-.038-.02,0,0-.04-.022-.006,0-.034-.021-.014-.008-.024-.015-.023-.014-.016-.01-.03-.02-.007,0-.037-.026h0l-.036-.024-.009-.006-.026-.018-.016-.012-.018-.012-.024-.018-.01-.007-.03-.023,0,0L692,1111.3l0,0-.029-.022-.01-.01-.021-.018-.018-.015-.012-.012-.024-.021-.006-.006-.03-.026h0l-.029-.026-.006-.006-.023-.021-.012-.014-.015-.015-.018-.018-.01-.01-.023-.026,0,0-.024-.028,0,0-.022-.026-.007-.01-.018-.018-.012-.015-.01-.015-.018-.021-.006-.008-.022-.028h0l-.021-.03,0-.006-.018-.024-.008-.012-.01-.018-.012-.02-.007-.01-.016-.026,0,0-.018-.031v0l-.016-.028,0-.01-.012-.022-.008-.016-.007-.015-.012-.023,0-.008-.014-.031h0l-.012-.032,0,0-.012-.028,0-.012-.007-.021-.01.006,0,0-.006,0-.008,0-.01,0,0,0h0l-.01,0h0l-.008,0-.007,0h0l-.01,0h0l-.007,0-.007,0h0l-.01,0h0l-.007,0-.008,0h0l-.01,0-.01,0-.009,0h0l-.008,0-.006,0h0l-.008,0h0l-.008,0-.007,0h0l-.008,0h0l-.007,0-.008,0h0l-.01,0h0l0,0-.01,0h0l-.008,0-.007,0h0l-.01,0h-.01l-.008,0h0l-.01,0H691l-.01,0h0l-.01,0h-.039l-.01,0h-.021l-.01,0h-.2a12.164,12.164,0,0,1-3.579-.469,4.212,4.212,0,0,1-1.95-1.159l-.753-.043h0l-.007.016-.006.016-.007.015-.007.016-.006.012v0l-.007.015-.007.016,0,.01,0,.007-.007.015-.007.015,0,.007,0,.01-.007.015-.008.015v0l-.007.012-.007.016-.007.015-.008.015-.007.015-.006.012v0l-.007.015-.008.015,0,.008,0,.007-.007.015-.008.015,0,.006,0,.01-.008.014-.03.059h0l-.007.014c-.086.157-.179.306-.271.445a3.506,3.506,0,0,1-.5.571l.048.137-.738.316-.007,0a1.959,1.959,0,0,1-.259.111l-.571.248-.034-.1c-2.561.469-8.389-.093-9.669-.093h0l-.006.01v0l-.007.012v0l-.008.014h0l-.008.014v0l-.007.012v0l-.007.008,0,.008,0,.007,0,.008,0,0-.006.01,0,0-.007.012h0l-.008.012-.008.012,0,0-.006.01,0,0-.007.008,0,.007,0,.007-.006.008,0,0-.007.01h0l-.008.014-.009.012v0l-.008.012,0,0-.007.009,0,.006-.006.007,0,.007,0,0-.007.01,0,0-.008.01h0l-.009.012h0l-.01.01v0l-.008.01,0,0-.007.007,0,.007,0,.006-.007.007,0,0-.007.01,0,0-.01.012h0l-.01.01h0l-.01.01,0,0-.008.008,0,0-.007.007,0,0,0,0,0,0-.007.008,0,0-.01.009,0,0-.01.01-.01.01h0l-.01.01,0,0-.008.007-.006,0-.006.006-.007.007,0,0-.008.007,0,0-.01.01h0l-.01.01h0l-.012.01,0,0-.008.007,0,0-.008.006,0,0-.007,0-.008.006,0,0-.009.007h0l-.01.008h0l-.012.01h0l-.01.008,0,0-.01.006,0,0-.008,0-.006,0-.007,0-.008.006,0,0-.01.007,0,0-.012.008a1.895,1.895,0,0,1-1.432.292,1.886,1.886,0,0,1-.35-.107l-.016-.006-.015-.007-.015-.006-.008,0-.007,0-.015-.007-.015-.006-.015-.007h0l-.012-.006-.016-.006-.015-.006-.01-.006h-.006l-.015-.008-.014-.006-.015-.007h0l-.012-.006-.016-.007-.014-.007-.01,0,0,0-.015-.008-.014-.007-.015-.007h0l-.012-.006-.015-.007-.014-.008-.01,0-.006,0-.014-.007-.016-.008-.014-.007h0l-.012-.007-.014-.008-.014-.008-.008,0-.007,0-.015-.008-.014-.007-.015-.008-.014-.008-.015-.008-.014-.008-.007,0-.007-.006-.014-.008a4.71,4.71,0,0,1-.854-.624H659.21a2.743,2.743,0,0,1-2.332-1.756l-.02-.04v0l-.02-.039v0l-.018-.038,0-.006-.016-.036,0-.008-.016-.034,0-.01-.015-.032,0-.012-.014-.031-.006-.015-.012-.029-.007-.016-.012-.029-.008-.018-.01-.026-.008-.021-.01-.024-.01-.023-.008-.022-.01-.026-.008-.02-.01-.029-.007-.018-.01-.031-.006-.015-.012-.034-.006-.014-.012-.036,0-.01-.012-.038,0-.01-.012-.04,0-.008-.014-.043,0,0-.014-.046v0l-.015-.048h0l-.014-.048v0l-.014-.047v0l-.014-.046v-.006l-.012-.044,0-.01-.01-.04,0-.012-.01-.04,0-.012-.01-.038,0-.016-.008-.034,0-.02-.007-.034,0-.021-.008-.031-.006-.023-.006-.029-.006-.026-.006-.026-.007-.03,0-.024-.007-.031,0-.021-.007-.034,0-.02-.007-.037,0-.016-.007-.04,0-.014-.007-.043,0-.012-.008-.045v-.01l-.008-.048v-.006l-.008-.052v0l-.008-.053h0l-.008-.056v0l-.007-.054v0l-.012-.109,0-.008,0-.047,0-.012,0-.044,0-.016,0-.04v-.018l0-.039,0-.021,0-.037,0-.023,0-.034v-.026l0-.032,0-.058,0-.032v-.026l0-.034v-.083l0-.04v-.02l0-.042v-.076l0-.048v-.069h-.66a41.356,41.356,0,0,0-9.112,3.049c-1.787.934-2.749,1.845-2.749,2.695l.007.127h0l0,.03v0l0,.032a2.308,2.308,0,0,0,.754,1.175l.028.026.01.01.038.034.028.024.01.009.04.036.026.021.015.014.042.034.022.02.021.016.044.036.018.014.026.02.045.036.012.009.034.026.048.034,0,0,.044.031.044.032,0,0,.05.034.034.024.016.012.05.034.024.016.029.02.052.036.01.006.044.029.048.031.006,0a19.378,19.378,0,0,0,2.935,1.461l1.314.494.089.032.023.008.007,0,.03.01.031.01.031.012.014,0,.016.006.03.01.031.012.031.01.006,0,.026.01.03.01.031.009.029.01h0l.031.01.031.01.031.01.02.007.012,0,.031.012.031.009.031.01.012,0,.02.007.032.01.031.012.032.01h0l.029.009.032.01.032.01.026.01h.006l.032.01.032.01.065.02.032.01.065.022.008,0,.026.007.032.01.034.012.031.01h0l.034.01.032.012.034.01.066.021.032.01.034.01.067.022.034.01.034.01,0,0,.03.009.032.01.034.01.03.01h0l.034.012.034.01.034.01.02.006.014,0,.034.012.034.01.034.01.01,0,.026.007.034.01.034.01.034.01H784.615l.881-.271.123-.038.014,0,.076-.026.03-.01.05-.018.543-.179.04-.014.075-.024.036-.012.079-.026.037-.012.075-.026.043-.014a21.077,21.077,0,0,0,4.207-1.911,7.772,7.772,0,0,0,.883-.636l.026-.023a2.69,2.69,0,0,0,.941-1.493v-.026c0-.638-.567-1.324-1.633-2.036a21.012,21.012,0,0,0-4.768-2.167l-.008.036-.007.036h0l-.008.037-.015.071v0l-.008.032-.008.036-.008.034v.007l-.007.028,0,.026,0,.01-.018.069-.007.03v0l-.037.137,0,.018-.006.016-.069.233,0,.01-.008.024-.008.026,0,.006-.01.032,0,.012-.008.02-.01.028v0l-.012.032,0,.014-.007.017-.01.031-.012.031,0,.018-.006.014-.012.031v0l-.012.028-.007.02,0,.01-.012.03v.007l-.01.024-.047.115,0,0-.012.029,0,.012-.008.018-.012.026v0l-.014.028-.006.015-.007.015-.012.028h0l-.014.028-.008.016-.006.01-.012.029,0,0-.012.023-.008.02,0,.008-.014.028-.008.015-.006.012-.015.028-.006.01-.008.016-.014.026,0,.008-.01.018-.014.026,0,0-.012.024-.015.024-.026.044,0,0-.023.04-.006.007-.02.034-.007.01-.048.074-.012.018-.015.023-.014.021-.014.02-.018.023-.06.086-.006.008-.026.032,0,.007-.026.034,0,0-.03.037h0l-.029.036,0,0-.026.031-.007.007-.023.028-.01.01-.022.026-.012.012-.02.022-.014.014-.018.018-.018.017-.034.034-.01.012-.023.022-.008.01-.026.024-.006.006-.03.026,0,0-.032.029h0l-.066.057-.006,0-.028.023-.01.007-.11.083-.018.014-.02.012-.015.012-.023.015-.012.008-.026.016-.01.006-.029.018-.006,0-.032.02,0,0-.037.02-.036.02h0l-.032.018-.007,0-.03.016-.01,0-.026.014-.012.006-.026.012-.015.006-.022.01-.018.007-.018.008-.023.008-.04.015h0l-.012,0-.029.01-.01,0-.032.009-.042.014h0l-.04.01-.039.01h0l-.036.008H783.9l-.034.007-.01,0-.029.006-.015,0-.026,0-.016,0-.023,0-.022,0-.018,0-.024,0-.016,0-.029,0h-.012l-.031,0h-.009l-.034,0h-.007l-.038,0h-9.169a4.727,4.727,0,0,1-.749.562l-.014.01-.014.008h0l-.086.05-.012.008h0l-.014.008-.014.008-.015.008,0,0-.01.006-.014.006-.014.008-.012.007h0l-.015.008-.014.007-.015.008,0,0-.01.006-.015.007-.015.008-.01,0,0,0-.014.007-.015.008-.015.007h0l-.01.006-.016.008-.015.007-.01,0-.006,0-.015.007-.014.007-.015.007h0l-.012.006-.016.007-.015.008-.009,0-.006,0-.015.006-.015.007-.015.006h0l-.015.006-.015.007-.015.007-.008,0-.008,0-.015.007-.016.006-.015.007-.01,0-.012.006-.01,0-.012,0-.012,0-.012,0-.012,0-.01,0-.012,0-.012,0-.01,0-.012,0-.012,0h0l-.01,0h0l-.01,0-.01,0-.012,0-.012,0-.01,0h0l-.01,0h0l-.01,0-.01,0h0l-.01,0h0l-.009,0h0l-.01,0h0l-.009,0h0l-.01,0h0l-.01,0h0l-.009,0h0l-.01,0h0l-.008,0h0l-.008,0h-.014l-.01,0h0l-.01,0h0l-.01,0h-.013l-.012,0h0l-.01,0h0l-.012,0h-.012l-.012,0h-.012l-.012,0h-.227a1.91,1.91,0,0,1-1.064-.328l-.012-.008v0l-.012-.007,0,0-.008-.006-.006,0-.007,0-.007,0,0,0-.009-.006,0,0-.012-.008h0l-.012-.01h0l-.012-.008h0l-.01-.007,0,0-.008-.006-.006-.006-.006,0-.007-.007,0,0-.022-.018h0l-.01-.01h0l-.012-.01,0,0-.009-.007,0,0-.007-.006-.006-.007-.006,0-.007-.007,0,0-.009-.01h0l-.01-.01-.01-.01,0,0-.01-.01,0,0-.007-.007,0-.006-.006,0-.007-.007,0,0-.008-.008,0,0-.01-.012-.02-.023,0,0-.008-.008,0,0-.007-.006-.006-.007,0-.006-.007-.008,0,0-.008-.012h0l-.01-.012-.01-.012v0l-.008-.01,0,0-.006-.01,0,0,0-.006-.006-.007,0-.006-.007-.01,0,0-.008-.012h0l-.01-.012h0l-.008-.012h0l-.006-.01,0,0-.006-.008,0-.008,0-.006-.007-.008,0,0-.006-.01,0,0-.008-.012h0l-.008-.012h0l-.007-.012,0,0-.006-.01,0-.006,0-.007,0-.008,0-.007-.007-.008v0l-.007-.012v0l-.008-.014-.008-.014v0l-.007-.012,0,0,0-.01h0c-3.352,0-6.565.559-9.643.018l-.059.17-.81-.35-.008,0-.006,0-.008,0c-.162-.042-.324-.087-.485-.135v-.073l-.259-.111.05-.139c-.069-.064-.138-.132-.2-.2l0,0c-.059-.065-.116-.131-.171-.2l-.043-.058,0,0-.038-.053-.008-.01v0l-.05-.071,0,0-.015-.022-.007-.012h0l-.008-.01-.007-.01-.007-.012,0,0,0-.008-.007-.012-.008-.012,0-.007,0,0-.007-.012-.008-.01-.006-.01v0l-.007-.012-.007-.012-.007-.012h0l-.006-.01-.008-.012-.007-.012,0-.006,0-.007-.007-.012-.007-.012,0-.008,0,0-.007-.012-.007-.012-.021-.037-.007-.012,0,0,0-.012-.018-.029,0-.007-.081-.153h-8.713l-.513-1.541h0l.016-.012h0l.008-.006.007,0,0,0,.015-.01.018-.01.007-.006.01-.007.016-.012,0,0,.023-.014,0,0,.02-.012.015-.012.01-.006.03-.02.031-.02.012-.008.02-.012.026-.018.008,0,.038-.023.007,0,.032-.018.024-.015.018-.01.043-.024h0l.046-.026.018-.01.029-.016.039-.023.01,0,.05-.029.012-.006.043-.023.034-.018.022-.012.058-.031.059-.031.024-.012.038-.018.051-.026.012-.006.065-.034.012-.007.054-.026.042-.02.028-.014.072-.034.073-.034.03-.014.045-.022.061-.028.015-.006.079-.036.016-.008.065-.028.05-.022.034-.014.086-.037.086-.034.036-.015.052-.022.073-.029.018-.007.093-.037.018-.007.075-.029.058-.022.038-.015.1-.034h0l.1-.036.04-.014.06-.021.082-.03.02-.006.105-.034.022-.008.084-.026.066-.022.043-.014.11-.034h0l.111-.034.046-.014.067-.02.094-.028.023-.006.116-.032.024-.007.1-.026.073-.021.048-.012.121-.031h0l.124-.03H745.59v.368l.042.007h.008l.032.006.02,0,.021,0,.031.006h.009l.04.008h0l.038.007.012,0,.028,0,.024,0,.015,0,.036.006h0l.039.008H746l.032.006.018,0,.021,0,.029.006.01,0,.039.008h0l.038.007.012,0,.026.006.023,0,.016,0,.032.007h0l.037.01h.006l.032.007.016,0,.022.006.026.007.01,0,.038.008.036.01.01,0,.028.007.02.006.016,0,.029.008h.007l.036.01h0l.031.008.014,0,.021.006.024.007.012,0,.034.01h0l.034.01h.008l.026.008.018.006.016,0,.026.008.007,0,.034.01h0l.03.008.012,0,.02.006.022.007.012,0,.031.01h0l.034.01.007,0,.026.008.015.006.016.006.026.008.007,0,.032.012h0l.031.01.009,0,.022.007.018.007.012,0,.028.01h0l.031.012.006,0,.024.008.015.006.016.006.022.01.008,0,.029.01h0l.029.012.01,0,.02.008.018.007.012.006.026.01h0l.028.012h0l.024.01.012.006.015.008.021.008.008,0,.026.012c.97.439,1.543,1.067,1.543,1.831,0,.911-.846,1.643-2.209,2.088a13.908,13.908,0,0,1-4.165.573h-.264l-.342-.007-.094.209-.018.04-.212.45,0,.01-.048.1-.02.038-.028.056-.044.084c-.119.229-.237.447-.355.648l-.026.045-.093.156-.021.034-.024.042-.045.071v0l-.045.073-.022.034-.023.037-.043.068v0l-.044.067-.021.032-.022.034-.044.064h0l-.064.093-.021.032-.04.06h0l-.042.059-.021.026-.1.139-.018.026-.018.026-.037.05h0l-.037.05-.018.024-.018.023-.034.046h0l-.034.043-.018.022-.016.022-.032.04h0l-.031.039-.015.018-.015.018-.029.037-.029.034-.014.018-.012.016-.026.031h0l-.024.03-.014.014-.01.014-.022.026h0l-.021.026-.01.012-.009.012-.02.021h0l-.018.02-.008.01-.008.008-.015.018-.012.014-.007.008-.006.007-.01.01-.01.01,0,0,0,0-.006.007-.012.014-.012.012-.014.012-.012.012-.014.012-.015.012-.014.012-.014.014h0l-.014.012-.015.012-.015.012h0l-.015.012-.016.01-.016.012-.016.012h0l-.016.012-.018.012-.018.01h0l-.018.01-.018.012-.018.009-.018.01-.02.012-.018.01-.02.01-.018.01h0l-.02.01-.02.01-.02.01-.02.008h0l-.02.01-.021.01-.022.009h0l-.022.008-.021.01h0l-.02.008h0l-.022.01-.023.008-.023.008-.023.008-.023.007-.023.008h0l-.023.008-.024.007-.024.007-.026.007-.024.007-.026.007-.026.007-.026.007-.024.006-.026.006-.026.007-.026.006-.026.006-.026.006h0l-.026.006-.028.006-.028,0-.028.006-.028,0-.028,0-.03,0-.028,0a16.56,16.56,0,0,1-4.435,0,2.315,2.315,0,0,1-1.362-.584,15.236,15.236,0,0,1-3.456-7.842v-.016l0-.016,0-.016,0-.016v-.016l0-.016v-.032l0-.018,0-.016,0-.016,0-.018,0-.015h0l0-.016,0-.018v-.016l0-.018,0-.016,0-.051,0-.016,0-.016v-.034l0-.012v-.006l0-.016,0-.018v-.018l0-.016,0-.018,0-.034v-.016l0-.016v-.018l0-.018v-.051l0-.018v-.018l0-.034v-.034l0-.052v-.069l-.007-.121v-.017Zm-23.223-7.9-.582-.211a8.618,8.618,0,0,0-4.968,0l-.559.2-.006.016.568.2a8.58,8.58,0,0,0,4.959,0l.587-.212Zm2.332,8.509a8.75,8.75,0,0,0,.04-.946v-.662l0-.018v-.034l0-.04v-.02l0-.02,0-.04,0-.029v-.009l0-.037,0-.038v0l0-.032,0-.037,0-.018,0-.018,0-.037,0-.032v-.006l0-.036,0-.037v-.008l0-.029,0-.037,0-.022v-.015l0-.036-.006-.037h0l0-.036,0-.037,0-.012,0-.023,0-.037,0-.026v-.01l-.006-.036-.006-.037v0l0-.032-.006-.037,0-.018,0-.018-.006-.036-.006-.031v0l-.007-.036-.007-.036v-.01l0-.026-.007-.036,0-.022v-.012l-.007-.037-.008-.036-.006-.034-.007-.036,0-.012,0-.022-.008-.034,0-.028,0-.008-.007-.034-.007-.036,0,0-.006-.03-.012-.053,0-.016-.008-.034-.007-.032v0l-.008-.034-.008-.034,0-.012-.006-.023-.008-.034-.006-.024,0-.01-.008-.034-.008-.034v0l-.007-.031-.01-.034,0-.016,0-.018-.009-.034-.008-.029v0l-.018-.067,0-.008-.006-.026-.009-.034-.006-.021,0-.012-.008-.034-.01-.034,0-.01-.012-.045-.007-.024-.006-.02-.012-.044,0-.015-.008-.029-.012-.044v0l-.012-.04-.012-.039,0,0-.012-.044-.009-.028,0-.015-.014-.043,0-.02-.008-.024-.014-.042,0-.01-.012-.034-.012-.043h0l-.014-.043-.01-.032,0-.01-.014-.043-.007-.02-.007-.021-.014-.043,0-.01-.01-.031-.015-.04v0l-.012-.038h0l-.012-.036,0,0-.012-.032,0-.01-.01-.028-.006-.012-.008-.024-.012-.037-.008-.02,0-.016-.054-.145h0c-.159-.425-.328-.815-.489-1.165l-.11-.239-.014-.028-.012-.028-.012-.026-.014-.028-.066-.132-.009.007-.022.012,0,0,0,0-.01.006-.012.006-.01.006,0,0-.008,0-.006,0,0,0-.012.007-.01.006h0l-.01.006-.012.006-.032.018-.01.007-.012.006-.007,0,0,0-.012.006-.012.007-.01,0-.006,0-.006,0-.012.006-.012.007-.012,0h0l-.01,0-.012.007-.01,0-.012,0h0l-.012.006-.012.006-.012,0-.008,0h0l-.012.006-.012.006-.012,0-.006,0,0,0-.012,0-.012,0-.012.007h0l-.008,0-.012,0-.012.006-.012.006h0l-.012,0-.012.006-.012,0-.012,0h0l-.012.006-.012,0-.014.006-.008,0h0l-.014,0-.012.006-.014,0,0,0-.007,0-.012.006-.014,0-.012.006h0l-.01,0-.012,0-.012.006-.014,0a10.144,10.144,0,0,1-6.134,0l-.014,0-.012-.006-.012,0-.01,0h0l-.012-.006-.014,0-.012-.006-.007,0-.006,0-.014,0-.012-.006-.012,0h0l-.01,0-.012-.006-.012,0-.012-.006h0l-.012,0-.012,0-.012-.006-.01,0h0l-.012-.006-.012-.006-.012,0-.024-.012-.012,0-.016-.008-.007,0-.012,0-.012-.006-.012-.006h0l-.009,0-.012,0-.012-.006-.012-.006h0l-.012,0-.024-.012-.008,0h0l-.034-.018-.006,0-.006,0-.01,0-.012-.006-.01-.006,0,0-.007,0-.012-.006-.01-.007-.032-.018-.012-.006-.01-.006h0l-.01-.006-.012-.007-.012-.007-.007,0,0,0-.01-.006-.012-.006-.01-.007-.006,0,0,0-.022-.012-.01-.007-.021.04-.007.014-.012.026-.021.04-.02.04-.014.026-.007.014-.02.043-.007.014-.014.029-.018.04v0l-.02.043-.012.026-.008.018-.021.043,0,.012-.016.034-.018.04,0,0-.021.046-.012.024-.008.022-.022.046,0,.01-.018.037-.018.04,0,.007-.021.048-.012.023-.009.024-.022.05,0,.007-.018.042-.016.04,0,.01-.021.05-.009.022-.012.029-.02.05,0,.006-.018.046-.016.037-.006.015-.02.051-.01.021-.012.032-.022.052h0l-.02.052-.015.036-.006.018-.021.054-.007.018-.014.037-.02.053h0l-.021.054-.012.034-.007.021-.021.056-.006.016-.014.04-.018.052,0,0-.018.057-.012.032-.008.024-.018.058-.006.014-.014.044-.018.051,0,.008-.018.058-.01.03-.01.029-.018.059,0,.01-.015.05-.015.048,0,.01-.018.06-.008.029-.01.032-.018.06,0,.006-.015.056-.012.045,0,.015-.018.061-.007.024-.01.038-.016.061v0l-.016.058-.012.045,0,.018-.016.062-.007.022-.01.04-.016.064a10.825,10.825,0,0,0-.264,4.139l0,.02,0,.02,0,.02,0,.022,0,.02,0,.02,0,.02,0,.021,0,.02,0,.02v.007l0,.012,0,.02,0,.02,0,.021,0,.02,0,.02,0,.02,0,.021,0,.02,0,.02,0,.012v.006l0,.02,0,.02,0,.02,0,.02,0,.02,0,.02,0,.02,0,.018,0,.021,0,.018h0l0,.018,0,.02,0,.018,0,.02,0,.018,0,.02,0,.02,0,.018,0,.02,0,.02v.008l0,.01,0,.02,0,.018,0,.018,0,.02,0,.018,0,.018,0,.02,0,.018,0,.02,0,.018h0l0,.018,0,.018,0,.018,0,.02,0,.018,0,.018,0,.02,0,.018.006.018,0,.018v.007l0,.012,0,.018,0,.018,0,.018,0,.02,0,.018,0,.018.006.018,0,.018,0,.018.026.11.006.018,0,.018.006.018,0,.018.006.018v0l0,.014,0,.018.006.018,0,.018.006.018,0,.018c.061.231.132.458.2.676l.034.111.009.026,0,.014,0,.014.006.014,0,.015,0,.014,0,.014,0,.01,0,.01,0,.01,0,.012c.072.212.151.426.234.638l.346.813a12.692,12.692,0,0,0,1.366,2.308h0l.126.161.006.008.024.029.007.01.036.043,0,0,.02.026.01.012.009.012.02.023,0,0,.016.018.012.015.006.006.016.018,0,0,.012.012.012.014,0,0,.012.015.006.006.007.007.012.012.008.01.006.006,0,0,.008.007v0l.006,0,0,0h0l0,0h0l.251.251v.355c0,.36.054-.53.137-.517a15.915,15.915,0,0,0,3.913,0c.084-.012.139.877.139.517v-.355l.251-.251a13.2,13.2,0,0,0,2.994-6.9l0-.018v-.017l0-.018,0-.018v-.022l0-.012,0-.018,0-.018v-.018l0-.018v-.034l0-.016,0-.018,0-.018v-.016h0l0-.017,0-.016,0-.018v-.018l0-.018v-.006l0-.01v-.016l0-.016v-.051Zm39.427-24.93c0-.165-.424-.4-1.092-.641a12.919,12.919,0,0,0-7.424,0c-.669.242-1.086.475-1.092.641.045.126.223.263.5.4l.012.007.012.006.012.006.01,0,.012.006.012.007.012,0,.012.006.012.006c.125.054.263.111.417.167l.031.01h0l.031.01h0l.034.012.01,0,.023.007.021.008.014,0,.032.01h0l.034.012.01,0,.034.01.044.014.016.006.073.022.02.007.024.006.123.036.016,0,.289.073h0c.279.066.579.121.895.167h0l.227.03.014,0,.043,0,.2.023.028,0,.034,0,.026,0,.037,0h.023l.042,0h.016l.11.01h.012l.053.006h.006l.058,0h0l.06,0h0l.06,0h0l.057,0h.01l.052,0h.014l.048,0h.018l.044,0h.021l.04,0h.064l.03,0h1.052l.034,0h.091l.042,0h.021l.046,0h.016l.05,0h.012l.053,0h.01l.057,0h0l.061,0,.06,0h0l.057,0h.008l.052-.006.119-.01h.02l.04,0h.022l.037,0,.026,0,.032,0,.059-.006.034,0,.024,0,.037,0,.021,0,.042,0,.016,0,.044,0,.012,0,.048-.006.01,0,.05-.006h.006l.054-.007h0l.111-.016h.006l.117-.018.042-.007.016,0,.038-.007.159-.028.029-.006.023,0,.053-.01.036-.006.016,0,.253-.053h0l.156-.036.04-.012.01,0,.084-.022.018,0,.075-.021.024-.006.023-.006.045-.014.028-.007.018-.006.078-.023.012,0,.081-.026.007,0,.034-.012h.006l.09-.03.006,0,.032-.012h0l.028-.01h0l.056-.02,0,0h0l.029-.009h0l.029-.012.03-.01h0l.028-.012h0l.052-.021h0l.024-.01h0l.023-.01.006,0,.022-.009,0,0,.021-.01.007,0,.02-.008.007,0,.018-.008.008,0,.018-.008.008,0c.356-.159.581-.317.63-.462Zm-2.5,26.144-.006.016v0l0,.012-.007.015h0l-.006.015a2.468,2.468,0,0,1-.475.752l-.007.007-.006,0-.01.012,0,0-.007.007-.012.012,0,0-.01.01-.012.012a2.458,2.458,0,0,1-1.739.721h-.1l-.026.091h.527l.046,0h.018l.046,0h.018l.046,0h.018l.046,0h.082l.046,0h.018l.045,0h.018l.046,0h.016l.046,0h.016l.048,0h.016l.046,0h.015l.046,0,.015,0,.048,0h.014l.048,0h.014l.046-.006h.015l.046,0h.012l.048,0h.012l.048,0h.012l.048-.006h.012l.047-.006.012,0,.048,0,.012,0,.048,0,.01,0,.048-.006h.01l.047-.007h.01l.046-.006.01,0,.048-.006.01,0,.048-.007h.01l.047-.007.008,0,.048-.007h.008l.048-.008h.007l.048-.008h.007l.048-.008h.007l.048-.008h.006l.048-.01h.007l.048-.01h.006l.046-.01h.006l.048-.009h0l.046-.01h.006l.046-.01h0l.048-.01h0l.046-.01h0l.045-.01h0l.046-.01h0l.046-.01h0l.046-.012h0l.046-.01h0l.046-.012h0l.044-.01h0l.045-.012h0l.044-.012h0l.045-.014h0l.043-.012h0l.044-.012h0l.043-.015h0l.043-.012h0l.042-.014c.63-.206,1.023-.377,1.023-.462a2.655,2.655,0,0,0-.53-.272l-.02-.01-.008,0a6.673,6.673,0,0,0-1.555-.447l-.026-.006H745.5l-.031,0h-.006l-.026,0Zm-42.852-25c-.008-.165-.424-.4-1.089-.638a12.928,12.928,0,0,0-7.428,0c-.669.241-1.085.472-1.094.638.048.139.257.293.588.447l.015.006.009.006.016.007.008,0,.018.006.007,0,.018.008.007,0,.02.008.006,0,.022.008.006,0,.022.01h0l.023.01,0,0,.026.01h0l.026.01h0l.028.012h0l.028.012.03.01h0l.03.012h0l.028.01h0l.059.023h0l.028.01h0l.168.057.293.09.021,0,.179.048.01,0,.042.012h.007c.162.04.331.078.505.111l.026,0,.286.05h.01l.056.01.051.008h0l.056.008h0l.057.007h0l.052.007h.007l.05.006.01,0,.046.006.014,0,.044,0,.018,0,.039,0,.02,0,.037,0,.026,0,.032,0,.029,0,.029,0,.034,0,.026,0,.037,0h.023l.04,0h.018l.11.01h.01l.053,0h.007l.058,0h0l.06,0h0l.059,0h.006l.056,0h.01l.052,0h.014l.048,0h.018l.044,0h.02l.042,0h.093l.034,0h1.02l.034,0h.092l.042,0h.021l.045,0h.018l.048,0h.012l.053,0h.008l.057,0h0l.06,0h0l.061,0h0l.058,0h.007l.054,0h.01l.109-.01h.018l.04,0h.022l.037,0,.026,0,.034,0,.029,0,.03,0,.032,0,.026,0,.036,0,.022,0,.039,0,.018,0,.043,0,.015,0,.046-.006.01,0,.05-.006h.007l.053-.007h0l.057-.007h0l.056-.008h0l.052-.008.054-.01h.012l.285-.05.026,0c.175-.034.345-.071.505-.111h.007l.042-.012.01,0,.1-.026.032-.008.018,0,.029-.01.02,0,.026-.008.167-.048.014,0,.087-.029.034-.012h0l.03-.01.014,0,.086-.03h0l.029-.01h0l.029-.012h0l.03-.012h0l.031-.01h0l.029-.012h0l.028-.01h0l.056-.023h0l.024-.009h0l.024-.01.006,0,.022-.01h0l.022-.01.007,0,.02-.008.007,0,.02-.008.007,0,.018-.008.008,0,.018-.007.01,0,.016-.006.008-.006.016-.006.008,0c.326-.153.533-.3.579-.442Zm-5.665,27.825-.042-.117-.054-.153-.05-.022h0l-.023-.012-.01,0-.014-.007h0l-.016-.008-.006,0-.012-.006-.012-.006,0,0-.016-.008,0,0-.012-.007-.01,0-.006,0-.016-.01h0l-.014-.007-.01,0-.007,0-.016-.01-.015-.009-.007,0-.009,0-.015-.01h0l-.015-.01-.007,0-.009-.006-.012-.007,0,0-.015-.01,0,0-.012-.007-.01-.007,0,0-.015-.01h0l-.012-.008-.01-.007,0,0-.015-.01h0l-.015-.01-.007-.006-.007,0-.015-.012-.014-.01-.007-.006-.008-.006-.012-.01h0l-.014-.01,0,0-.01-.007-.012-.01,0,0-.014-.012,0,0-.01-.008-.01-.01,0,0-.012-.012,0,0-.012-.01-.008-.008,0,0-.014-.012h0l-.012-.012-.007-.007-.006,0-.012-.014-.014-.012-.006-.006-.007-.006-.012-.012h0l-.014-.012,0,0-.009-.008-.01-.012h0l-.012-.014,0,0-.009-.01-.008-.01,0,0-.012-.014v0l-.01-.01-.008-.01,0,0-.012-.014h0l-.012-.012-.006-.007,0-.006-.012-.015-.01-.01-.007-.01h0l-.008-.01-.008-.01h0l-.009-.012-.007-.007v0l-.01-.01,0-.007,0,0-.008-.012,0,0,0-.006-.008-.012,0,0,0-.007-.008-.012,0,0,0-.008-.008-.01,0,0-.006-.01-.008-.012h0l-.007-.01-.008-.012-.008-.01-.006-.01h0l-.008-.012-.006-.01v0l-.008-.012,0-.008,0,0-.007-.012,0-.007,0,0-.007-.012,0-.006,0-.006-.007-.012,0,0,0-.008-.007-.012v0l-.006-.009-.007-.012v0l-.006-.008,0-.006,0-.008h0l-.006-.012-.007-.012h0l-.006-.012-.006-.01v0l-.006-.012-.006-.01v0l-.007-.012,0-.008,0,0-.006-.012,0-.007v0l-.007-.014,0,0,0-.007-.006-.014,0,0,0-.008,0-.014,0,0,0-.01-.006-.012v0l-.006-.012,0-.012-.006-.012,0-.012h0l0-.012-.006-.012v0l0-.012,0-.01v0l-.006-.012,0-.008v0l-.006-.014-.034.006h0l-.034.006h-.012l-.022,0-.026,0h-.008l-.034.006h0l-.032.006-.014,0-.02,0-.026,0h-.01l-.032.006h0l-.03.006-.015,0-.018,0-.026,0h-.008l-.034.006h0l-.029.006-.014,0-.018,0-.026.006h-.006l-.032.007h0l-.029.006-.015,0-.018,0-.026.006h-.006l-.032.007h0l-.028.007-.014,0-.016,0-.026,0,0,0-.032.007h0l-.026.006-.015,0-.015,0-.026.006h0l-.03.008h-.006l-.026.006-.015,0-.014,0-.026.007h0l-.03.008h-.006l-.023.007-.016,0-.014,0-.024.007h0l-.029.008h-.007l-.022.007-.015,0-.012,0-.024.008h0l-.029.01h-.006l-.02.007-.015,0-.012,0-.026.008h0l-.028.008-.006,0-.021.006-.015.007-.01,0-.024.008h0l-.026.008-.007,0-.02.006-.015.006-.01,0-.024.01h0l-.026.01h-.007l-.018.007-.015.007-.01,0-.024.009h0l-.024.01-.007,0-.018.006-.015.006-.008,0-.023.01h0l-.023.008-.007,0-.016.006-.015.006-.008,0-.023.01a2.3,2.3,0,0,0-.608.306c0,.084.392.256,1.024.462l.034.01.008,0,.029.01.015,0,.02.008.023.007.015,0,.03.01.007,0,.037.01.038.012.01,0,.029.01.018,0,.02.006.026.008.014,0,.034.01.007,0,.039.01h0l.039.01.01,0,.031.008.018,0,.023.006.026.006.015,0,.036.008h.006l.042.01h0l.039.008.012,0,.031.007.02,0,.023.006.029,0,.014,0,.038.008h.006l.043.01h0l.04.008h.012l.053.01.023,0,.031.006.012,0,.04.008h.006l.045.008h0l.042.008h.014l.032.006.023,0,.022,0,.034,0,.012,0,.043.006h0l.048.007h.006l.042.006.015,0,.032,0,.026,0,.022,0,.036,0,.012,0,.045.006h0l.048.006h.006l.043,0,.018,0,.032,0,.026,0,.023,0,.036,0H696l.047,0h0l.051,0h.007l.043,0h.018l.032,0,.029,0h.022l.039,0,.012,0,.05,0h0l.051,0h.01l.043,0h.02l.032,0h.052l.042,0h.01l.052,0,.053,0h.01l.043,0h.084l.065,0h.01Zm76.03-.915a3.157,3.157,0,0,0,.457-.427l.006-.008.113-.135.007-.01.01-.012.036-.048.012-.016.01-.015,0-.006.016-.022v0l.014-.018.008-.012.022-.031v0l.031-.045.01-.018,0-.006.015-.023,0,0,.012-.021.008-.012.007-.012.014-.022v0l.015-.023,0-.01.01-.015.01-.018,0-.007.014-.024v0l.012-.021.007-.014.006-.012.014-.023h0l.014-.024,0-.01.01-.016.01-.02,0-.006.012-.026,0,0,.01-.022.007-.014.006-.012.012-.026h0l.012-.024.007-.015,0-.012.012-.026v0l.01-.024.007-.016,0-.012.023-.053.006-.018.006-.01.01-.026v0l.01-.024.006-.018,0-.01.01-.028v0l.01-.023.007-.018,0-.01.01-.029v0l.01-.024.007-.02,0-.01.01-.029,0,0,.008-.023.006-.022,0-.008.009-.029,0-.006.007-.023.007-.023,0-.007.01-.03,0-.007.007-.022.006-.024,0-.007.009-.032v-.006l.008-.028,0-.017,0-.015.008-.032h0l.01-.034,0-.012,0-.022.007-.026v-.008l.008-.034v0l.006-.029.006-.018,0-.016.008-.031v0l.007-.034,0-.01,0-.023.006-.026v-.01l.007-.036v0l0-.031,0-.018,0-.018.006-.031v0l.006-.036,0-.012.008-.048v-.012l0-.037v0l0-.034,0-.018,0-.02,0-.032v0l0-.036,0-.01,0-.028,0-.024v-.012l0-.038h0l0-.036,0-.016,0-.021,0-.032v-.006l0-.038v-.01l0-.029.006-.078h0v-.038l0-.016v-.022l0-.032v-.007l0-.039v-.038l0-.024v-.016l0-.04v-.281h0v-.414l0-.042v-.006l0-.036v-.086l0-.031v-.094l0-.031v-.008l0-.023,0-.032h0l0-.03,0-.026v-.006l0-.031v-.031l0-.031v-.032l0-.031v-.006l0-.026,0-.031h0l0-.031,0-.024v-.008l0-.032,0-.016v-.015l0-.031v-.01l0-.022,0-.031v0l0-.029,0-.026v0l0-.032,0-.02,0-.012,0-.032v-.012l0-.018,0-.032v-.006l0-.026,0-.031h0l0-.031c-.054-.331-.129-.658-.213-.979-.047-.177-.1-.352-.156-.521l-.007-.015-.01-.028-.038-.109v0l-.01-.026-.008-.026h0l-.01-.028-.008-.022,0,0-.01-.026-.007-.02,0-.006-.01-.026-.006-.018,0-.008-.01-.026-.006-.016,0-.01-.01-.026,0-.012-.007-.014-.01-.026,0-.008-.007-.016-.012-.026,0-.007-.008-.018-.012-.026,0,0-.008-.021-.012-.026h0l-.01-.023-.01-.024h0l-.012-.024-.01-.022v0l-.012-.024-.01-.018v0l-.012-.024-.01-.017,0-.007-.012-.024-.008-.015,0-.01-.01-.023h0l-.01-.022-.024-.046h0l-.012-.023-.006-.01-.007-.012-.012-.021v0l-.018-.03-.008-.015-.029-.05-.018-.032a2.328,2.328,0,0,0-1.208-1.137h-.01a.194.194,0,0,0-.145.018.2.2,0,0,0-.1.109.217.217,0,0,0,.014.161l.014.02a.3.3,0,0,0,.115.076l.012,0,.014,0,.014.006.016,0,.018.006a3.784,3.784,0,0,1,1.437,2.179,9.107,9.107,0,0,1,.43,2.73,6.3,6.3,0,0,1-.453,2.459,2.836,2.836,0,0,1-1.518,1.549l-.031.016,0,0-.015.012h0l-.038.04a.2.2,0,0,0-.032.111v.007l.01.059,0,.01.012.026v0l.016.023.02.022.023.016a.179.179,0,0,0,.11.032l.072-.01.01,0,.01,0,.009-.006h0l.006,0,.01,0,.009,0,.01,0h0l.01,0,.01,0,.01,0h0l.006,0,.01,0,.01,0,.008,0h0l.01,0,.018-.01h0l.006,0,.009,0,.01,0,.018-.01.01-.006.01,0h0l.006,0,.009-.006.008,0h0l.008,0h0l.01,0,.01,0,.01-.006h0l.007,0,.01,0,.008-.006.008,0h0l.009-.006.01,0,.009,0,0,0,.007,0,.01,0,.008,0,.008,0h0l.01,0,.009-.006.01-.006h0l0,0,.009-.006.01-.006.008,0h0l.008,0,.008-.007.01,0,0,0,0,0,.008-.006.009-.006.008,0,.01-.006.008-.007.009,0,0,0,0,0,.01-.007.008,0,.01-.006h0l.008,0,.015-.01.008-.006.007-.006.016-.01.006-.006.01-.006.021-.016.01-.006.015-.012Zm-11.482-1.312.115-.221a4.4,4.4,0,0,0,.237-.612h0l0-.009a10.059,10.059,0,0,0,.245-2.3h-.734l.007.038h0l.007.036v0l.006.036v0l.007.034v.006l.007.034v.006l.006.034,0,.007,0,.032,0,.01,0,.031,0,.01,0,.031,0,.012,0,.03,0,.012.006.028v.016l0,.026,0,.016,0,.026,0,.018,0,.024,0,.02,0,.024,0,.021,0,.023,0,.023,0,.02,0,.024,0,.021,0,.026,0,.02,0,.028,0,.018,0,.03v.016l0,.031,0,.015,0,.034v.012l0,.034v.012l0,.038v.01l0,.038v.01l0,.04v.008l0,.042v.007l0,.044v0l0,.046v0l0,.048h0l0,.048h0l0,.05v0l0,.048v0l0,.048v.96l0,.038v.058l0,.015-.012.159v.01l0,.048v.008l0,.051v.006l-.006.052v.006l0,.054v0l-.006.057h0l-.007.057Zm2.128-4.854h.031l.089.647.007.04h0v.007l0,.032,0,.012v.018c.024.14.045.288.059.439l.07.519h-.039a8.714,8.714,0,0,1-.026.933v.006l-.006.058h0l0,.058v0a7.944,7.944,0,0,1-.5,2.237l0,.01-.018.045-.018.045,0,.007-.015.037-.007.016-.012.028-.01.024-.01.02-.014.032-.006.01-.018.04v0l-.021.043v.006l-.022.044,0,.006-.022.043,0,.006-.022.042,0,.007h7.42l.006-.01.012-.021.093-.159.012-.018h0l.009-.015.029-.042h0l.04-.056h0l.01-.015,0,0,.007-.009.008-.008,0,0,.012-.014h0l.045-.051h0l.01-.014,0,0,.016-.018,0,0,.024-.026.006,0,.008-.008.008-.008,0,0,.012-.012h0l.012-.012.006,0,.008-.008.008-.007,0,0,.012-.012.014-.012,0,0,.01-.008.009-.007,0,0,.015-.01.012-.012,0,0,.01-.008.01-.007,0,0,.014-.01h0l.012-.012.006,0,.008-.007.01-.007.006,0,.014-.01.014-.01,0,0,.01-.007.01-.006,0,0,.015-.01.015-.009,0,0,.01-.006.01-.007.006,0,.015-.01.016-.01,0,0,.01-.006.01-.006,0,0,.016-.01.016-.008.006,0,.01-.006.01-.006,0,0,.016-.008.018-.008.006,0,.01-.006.012-.006,0,0,.016-.006h0l.018-.007h0l.012-.006.012,0,0,0,.018-.007a1.187,1.187,0,0,0,.6-.658,4.58,4.58,0,0,0,.3-1.758,7.384,7.384,0,0,0-.352-2.213,5.268,5.268,0,0,0-.437-1.107l-.008,0-.01,0h0l-.006,0-.009,0-.006,0h0l-.01,0-.009,0h0l-.008,0-.01,0,0,0-.006,0-.01,0-.006,0h0l-.009,0-.01,0-.008,0-.008,0h0l-.006,0-.009,0-.006,0h0l-.01,0-.008,0h0l-.008,0-.01,0h0l-.007,0,0,0h0l-.006,0,0,0-.01,0-.008,0-.014-.006,0,0h0l-.006,0-.008-.006-.006,0h0l-.008-.006-.008,0-.01,0-.008,0,0,0-.006,0-.01-.006,0,0h0l-.008-.006-.008,0-.008,0-.008-.006h0l-.006,0,0,0-.006,0,0,0h0l-.023-.016-.008,0,0,0-.006,0-.008,0,0,0h0l-.015-.012-.018-.012-.006,0-.012-.01h0l-.008,0-.015-.012-.01-.01-.018-.012-.018-.014-.016-.014-.018-.015-.018-.014-.016-.014-.016-.014-.006,0h-7.842l.01.018.006.01.014.026v0l.015.03v0l.012.026.006.012.01.02.01.017,0,.012.012.026,0,0,.014.031,0,0,.012.028,0,.012.008.02.01.018.006.012.012.026v.006l.014.031v0l.012.029,0,.01.008.022.008.018,0,.014.012.028v0l.012.032v0l.012.03,0,.012.008.022.007.02.006.012.009.03,0,0,.012.034v0l.01.03,0,.012.007.023.007.021,0,.012.01.031v0l.012.034v0l.009.031,0,.012.007.022.007.022,0,.014.01.03,0,0,.01.036v0l.008.031,0,.012.007.022.006.023,0,.014.008.031v0l.01.037v0l.01.032,0,.014.006.023.006.023,0,.012.008.034v0l.01.036v0l.008.032,0,.016.006.022,0,.01Zm-4.184,2.672.02.2h0l.024.2v0a5.779,5.779,0,0,0,.344,1.333l.007-.083v-.006l.006-.078,0-.029,0-.054,0-.052v-.03l0-.074v-.007l0-.081v-.321l0-.074v-.026l0-.051v-.077l0-.068v-.006l0-.074V1107l0-.059,0-.034,0-.038,0-.054v-.018l-.008-.071v0l-.006-.066,0-.023-.006-.045,0-.042,0-.026-.008-.059v-.007l-.01-.065,0-.012-.007-.052,0-.03-.006-.032-.007-.048v-.015l-.01-.06v0l-.01-.058,0-.02-.007-.04-.006-.034,0-.023-.01-.048v-.007l-.01-.054,0-.01-.008-.044-.006-.023-.006-.029-.008-.037,0-.014-.01-.048h0l-.01-.046,0-.014-.008-.031-.006-.028,0-.018-.01-.038v0l-.01-.042v-.007l-.009-.034,0-.018-.006-.021-.007-.026,0-.01-.01-.034-.01-.034,0-.01-.006-.022-.007-.018,0-.012-.008-.024v0l-.008-.026v0l-.006-.02,0-.01,0-.012-.006-.016,0,0-.006-.02-.006-.017,0,0,0-.01,0-.008,0-.006,0-.01h0l0-.01h0l0-.007v-.008h0l-.012.1v.025c-.018.481-.02.908-.006,1.391Zm-1.577,1.072-.057-.32-.669-.006a15.448,15.448,0,0,0-2.982.325h3.708Zm1.823-3.744h2.172l-.006-.018,0-.01,0-.01-.006-.018v0l0-.014-.007-.018h0l-.006-.018,0-.012,0-.006-.006-.018,0-.008,0-.01-.006-.018v0l0-.015-.007-.016h0l-.007-.018,0-.012,0-.006-.006-.018,0-.007,0-.01-.007-.018v0l-.007-.015,0-.015v0l-.007-.016,0-.01,0-.006-.007-.017,0-.006,0-.01-.007-.018h0l-.006-.015-.006-.014v0l-.007-.018,0-.008,0-.008-.008-.016v0l-.006-.012-.007-.015-.007-.016-.006-.012v0l-.007-.015,0-.008,0-.008-.007-.015v0l-.007-.012-.007-.015-.007-.015,0-.01,0,0-.007-.015,0-.006,0-.01-.008-.015v0l-.006-.012-.007-.012v0l-.007-.014-.006-.01,0,0-.008-.015,0-.006,0-.008-.008-.015h0l-.007-.012-.007-.012h0l-.008-.015,0-.008,0-.006-.008-.012,0,0-.006-.01-.008-.014h0l-.008-.012-.006-.01,0,0-.008-.012,0-.007,0-.006-.008-.014,0,0-.006-.01-.008-.014c-.213-.322-.439-.513-.638-.513a.456.456,0,0,0-.251.086l-.081.072a1.727,1.727,0,0,0-.3.354l0,.01-.008.01,0,.006-.009.015h0l-.01.015v0l-.008.012,0,.008-.012.02,0,0-.02.034v0l-.084.157-.093.2,0,.01h0l0,.01-.006.01h0l-.01.018v0l-.008.018v0l0,.012,0,0-.015.038,0,0v.008l-.007.012,0,.01,0,.012h0l-.037.1,0,0v.008l0,.01v0l0,.01,0,.01h0l0,.012,0,.01h0l0,.012,0,.01v0l-.014.042v.007l0,.012v0l0,.008,0,.015,0,.01,0,.012h0l0,.012,0,.012h0l0,.012Zm24.606-.713c-.253-.5-.541-.811-.8-.811H775.54c.094.257.176.521.248.789l.044.173,0,.008q.081.323.143.655l0,.006.052.3,0,.031v.007l.007.037,0,.022,0,.015,0,.038,0,.015,0,.022.006.037v.008l0,.03,0,.037h0l.006.038,0,.029,0,.009,0,.037v.021l0,.018,0,.037v.012l0,.024,0,.038v0l0,.034,0,.034v0l0,.038,0,.026v.012l0,.037v.018l0,.02,0,.037v.01l0,.028,0,.038h0l0,.036,0,.03v.007l0,.038v.021l0,.016,0,.037v.014l0,.023,0,.037v.007l0,.031v.037l0,.052v.05l0,.04v.164l0,.051v.5l0,.094,0,.045v.1l0,.038v.01l0,.048v.008l0,.069v.018l0,.048v0l-.007.09,0,.043v0l0,.048v.015l-.018.171,0,.028-.007.064v0l-.018.13v0l-.008.06,0,.03-.02.135-.006.026-.01.062h0l-.007.042,0,.021,0,.023-.008.039v0l-.01.044,0,.014-.006.03-.007.032,0,.01-.009.043,0,.007-.014.062,0,.016-.009.042h0l-.01.042,0,.02-.006.022-.01.037v.006l-.012.04,0,.014-.007.028-.01.031,0,.01-.012.042,0,.007v.008l0,.015,0,.015,0,.015v.006l0,.01-.006.014,0,.015,0,.015v0l0,.01,0,.014-.006.015,0,.014v0l0,.01,0,.015-.006.015,0,.014v0l0,.012-.006.014,0,.015-.006.015h0l0,.012,0,.014,0,.014,0,.016-.006.014,0,.014,0,.014,0,.014h0l0,.014-.006.014,0,.014,0,.012v0l-.006.014,0,.014,0,.014,0,.012v0l0,.014-.006.014-.006.014,0,.009,0,.006-.006.012-.006.014,0,.014,0,.008,0,.007-.006.012,0,.014-.006.014,0,.008,0,.006-.006.014,0,.014-.007.014v.006l0,.008,0,.012-.007.015-.006.012v0l0,.008-.006.015-.007.012-.006.014v0l0,.01-.007.012-.006.014-.006.014h0l0,.012h7.989l.01,0,.032-.01h.006l.006,0,.007,0h0l.008,0,0,0,.022-.01h0a1.513,1.513,0,0,0,.543-.606l.061-.11,0,0,.012-.024h0l.012-.022,0-.007.014-.026v0l.014-.029h0l.014-.029v0l.012-.028,0-.006.012-.024,0-.008.01-.024,0-.01.008-.022.006-.012.008-.018.007-.018.007-.014.008-.02,0-.012.009-.023,0-.01.01-.026,0-.007.01-.029v0h0l.024-.066v0l.01-.03,0-.007.009-.028,0-.01.01-.024,0-.014.007-.021.006-.018.006-.018.006-.02.006-.016.007-.023,0-.012.007-.028,0-.01.009-.031,0,0,.01-.034v0l.01-.037h0l.01-.036v0l.008-.034,0-.008.008-.029v-.012l.007-.026,0-.015.006-.023,0-.018,0-.02.014-.066,0-.012.006-.03,0-.01.007-.034v0l.007-.04h0l.022-.121v-.008l.006-.032,0-.012.006-.028v-.018l0-.024,0-.021.02-.137,0-.01.01-.082h0l.01-.087v-.006l.014-.124v-.018l0-.026c.018-.215.026-.437.026-.663a6.174,6.174,0,0,0-.555-2.712Zm-112.189,6.028c.04.062.078.129.113.195l.006.012h7.42l-.075-.151a7.566,7.566,0,0,1-.654-2.6v0l0-.057v0l0-.056v-.008a9.129,9.129,0,0,1-.026-.932h-.04l.073-.53c.012-.143.032-.281.054-.414l0-.012v-.017l0-.012,0-.032v-.007h0l.007-.039.088-.647h.032l0-.01.006-.022,0-.016.008-.032v0l.01-.036v0l.008-.034,0-.012.006-.023.006-.023,0-.014.01-.032v0l.01-.037v0l.008-.031,0-.014.006-.023.007-.022,0-.012.01-.031v0l.01-.036,0,0,.009-.03,0-.014.007-.022.007-.022,0-.012.01-.031v0l.012-.034v0l.01-.031,0-.012.007-.021.007-.023,0-.012.01-.03v0l.012-.034,0,0,.01-.03.006-.012.007-.02.008-.022,0-.012.012-.03v0l.012-.032v0l.012-.028,0-.014.008-.018.008-.022,0-.01.012-.029v0l.014-.031v-.006l.012-.026.006-.012.01-.018.008-.02,0-.012.012-.028,0,0,.014-.031,0,0,.012-.026,0-.012.01-.018.01-.02.006-.012.012-.026v0l.015-.03v0l.014-.026.006-.01.01-.018h-7.842l-.022.018-.018.014-.016.014-.018.015-.016.014-.018.012-.028.023-.1.068,0,0-.008,0-.008,0h0l-.065.039-.008.006h0l-.006,0-.008,0-.006,0,0,0-.018.008h0l-.018.01h0l-.014.008h0l-.012.008-.008,0h0l-.01,0-.008,0h0l-.006,0-.01,0-.006,0h0l-.009,0-.01,0h0l-.01,0-.01,0h0l-.006,0-.01,0-.006,0h0l-.008,0-.01,0h0l-.009,0-.008,0h0l-.007,0-.01,0,0,0,0,0-.01,0-.008,0h0l-.01,0-.01,0h0l-.006,0-.01,0-.006,0h0l-.01,0-.008,0,0,0,0,0,0,0,0,0,0,.006h0l0,0,0,.006,0,.007h0l0,.007,0,.007,0,.007h0v0l0,.006h0l0,.006v0h0l0,0,0,0h0l0,.008h0l0,.01h0l0,.01h0l0,.01h0l-.006.01h0l-.006.012h0l0,0,0,.01h0l0,.01v0h0l-.007.014-.006.012h0l-.006.012h0l0,.015h0l-.007.015h0l-.006.014h0l-.006.015h0l-.007.016-.007.016h0l-.007.016h0l-.007.018h0l-.008.017h0l-.007.018-.007.018h0l-.007.02h0l-.008.018-.007.02h0l-.007.02-.008.022-.008.021h0l-.008.021h0l-.008.02h0l-.008.023-.008.023-.009.023h0l-.008.023h0l-.01.024-.008.024h0l-.008.024h0l-.008.026-.01.026-.01.026-.01.026-.01.028-.009.028h0l-.008.028-.01.029-.01.029-.01.029-.01.03-.008.03-.01.03A7.388,7.388,0,0,0,670.3,1106a4.581,4.581,0,0,0,.3,1.758,1.188,1.188,0,0,0,.6.658l.018.007,0,0,.012,0,.012.006h0l.018.008.016.007,0,0,.012,0,.01.006.007,0,.015.008h0l.016.008,0,0,.012.006.01.006.006,0,.016.01.016.008,0,0,.012.006.01.006.006,0,.014.01h0l.015.009,0,0,.01.007.009.007.006,0,.015.01h0l.016.01,0,0,.01.007.01.006.006,0,.012.01h0l.014.01,0,0,.012.007.008.007.006,0,.012.01h0l.012.012,0,0,.01.008.026.022h0l.015.012,0,0,.01.008.008.007,0,0,.012.012h0l.012.012,0,0,.01.008.008.007,0,.006.012.01h0l.012.012,0,0,.01.01.007.007.006.006.01.012h0l.012.012,0,0,.01.01.006.008.006,0,.01.012h0l.012.012,0,0,.01.01.007.008,0,0,.01.012h0l.01.014,0,0,.008.01.006.008,0,0,.01.014h0l.012.014,0,0,.008.01.006.008,0,.006.01.012h0l.01.014,0,0,.008.01v0l.006.006,0,.006.01.014h0l0,0Zm-1.444.922a.218.218,0,0,0-.064-.043,2.832,2.832,0,0,1-1.519-1.549,6.273,6.273,0,0,1-.451-2.459,9.082,9.082,0,0,1,.429-2.73,3.777,3.777,0,0,1,1.438-2.177l.146-.06.042-.042.014-.02a.2.2,0,0,0-.079-.271.2.2,0,0,0-.148-.018h-.01a2.273,2.273,0,0,0-1.189,1.105l-.018.031-.018.032,0,.006-.014.022v0l-.01.018-.008.015,0,.007-.024.046-.007.012-.006.01-.012.023h0l-.012.022,0,.012-.007.012-.012.023h0l-.012.024,0,.01-.008.015-.012.024,0,.007-.008.016-.012.024v.006l-.01.018-.012.024v0l-.01.021-.012.024v0l-.01.022-.01.024h0l-.012.026-.01.022v0l-.012.026-.008.02,0,.006-.01.026-.008.018,0,.008-.01.026-.007.015,0,.01-.01.026-.006.012-.006.015-.031.079,0,.007-.007.02-.01.026,0,0-.008.023c-.09.243-.173.495-.241.754a9.793,9.793,0,0,0-.233,1.107l0,.015,0,.017,0,.032,0,.007,0,.024,0,.032h0l0,.031,0,.026v.007l0,.031,0,.018v.014l0,.031,0,.012,0,.021,0,.031v0l0,.028,0,.029v0l0,.031,0,.022v.01l0,.032,0,.015v.017l0,.031v.031l0,.031h0l0,.031v.031l0,.031v.031l0,.031v.031l0,.031v.031l0,.031v.085l0,.034v.008l0,.043v.412h0v.279h0l0,.04v.015l0,.024v.085l0,.034v.021l0,.018v.037h0l0,.04,0,.038v.038l0,.037v.007l0,.032,0,.02,0,.018,0,.034v0l0,.038v.012l0,.026,0,.026v.01l0,.037v0l0,.032,0,.02,0,.018,0,.032v0l.006.036v.012l0,.024,0,.026v.012l.006.034v0l.007.032,0,.017,0,.018.006.031v0l.007.036,0,.01,0,.026.006.023v.012l.008.034v0l.007.032,0,.015,0,.02.007.029v0l.016.068.006.022.012.046h0l.012.048,0,.018.008.028v.006l.01.032.016.053v.006l.012.04,0,.02.037.113v0l.02.056.01.028h0l.015.044,0,.01.01.029,0,0,.016.043,0,.01.01.028,0,0,.018.042v.007l.012.028,0,.007.008.018.023.053,0,.01.007.016.012.024v0l.012.026.006.012.007.015.012.024h0l.012.026,0,.01.008.015.01.02,0,0,.012.024,0,.007.01.018.008.015.006.01.012.024v0l.012.022.007.012.007.012.012.022v0l.014.023,0,.008.01.016.01.018,0,.006.014.023,0,0,.012.02.008.014.007.01.014.022h0l.014.022.007.01.008.012.012.02v0l.015.022.006.007.01.015.012.016,0,.006.015.022,0,0,.012.018.032.043h0l.016.02.007.01.01.012.014.016,0,0,.016.02,0,.006.024.029,0,.006.087.1.007.007.012.012a3.03,3.03,0,0,0,.863.655h0l.01,0,.009,0,.01.006h.006l0,0,.01,0,.01,0,.008,0h0l.01.006.01,0,.01.006h0l.007,0,.009.006.01,0,.008,0h0l.01,0,.009,0,.01.006h0l.008,0,.01,0,.01,0,.007,0,0,0,.01,0,.01,0,.01,0,.075.014a.188.188,0,0,0,.183-.121l.015-.089h0v-.016l0-.01,0-.01,0-.01,0-.008h0l0-.008-.008-.016-.012-.022h0l-.016-.02,0,0,0,0Zm12.227-1.916.007.082.037-.09h0l.066-.193h0l.006-.018,0-.016.01-.032,0-.01.012-.039,0-.018v0l0-.01,0-.009,0-.01v0l0-.008,0-.01,0-.01v-.01l0-.01,0-.01v-.009h0a6.774,6.774,0,0,0,.2-1.034v-.026l.006-.071h0c.022-.53.022-.976,0-1.489v-.052l0-.026v-.014l0-.026v.008h0v.01l0,0v0l0,.007v0l0,.012v0l0,.015-.006.018,0,0,0,.015,0,.01,0,.012,0,.016,0,.007-.008.024-.008.026,0,.007-.006.022,0,.015,0,.015-.007.024,0,.008-.009.034v0l-.01.032,0,.012-.006.026-.007.023,0,.015-.01.036v0l-.01.042,0,.007-.009.037,0,.018,0,.026-.008.032,0,.014-.012.047-.01.048,0,.015-.008.036-.006.03,0,.022-.01.044v.01l-.012.054v.007l-.01.05,0,.023-.006.034-.008.04,0,.018-.01.058v0l-.01.06,0,.016-.007.046-.006.034,0,.03-.007.052,0,.012-.008.066v.007l-.007.059,0,.026,0,.042,0,.046,0,.023-.006.066v0l-.007.069v.018l-.006.056,0,.037,0,.034,0,.059v.014l0,.074v.007l0,.068v.547l0,.081v.006l0,.075v.03l0,.052,0,.054.008.107v.006Zm-2.019-.333a4.587,4.587,0,0,0,.246.646l.115.223v0l-.007-.056v0l-.006-.053v-.006l0-.05v-.01l-.006-.046v-.014l0-.043v-.016l0-.04v-.02l0-.037,0-.022v-.034l0-.023,0-.032,0-.028v-.058l0-.026v-.545h0v-.165l0-.044v-.066l0-.038v-.015l0-.036v-.125l0-.028v-.077l0-.024,0-.029v-.02l0-.032v-.016l0-.034,0-.015,0-.036v-.012l0-.04v-.01l0-.04v-.008l0-.042v-.006l0-.044v0l0-.045h0l.006-.046h0l0-.045v0l0-.043v-.006l.006-.039v-.007l0-.038v-.01l0-.034v-.012l0-.032,0-.014,0-.03v-.016l0-.026,0-.018,0-.026,0-.018,0-.024,0-.021,0-.02,0-.024,0-.018,0-.026,0-.015,0-.028,0-.014,0-.029,0-.01,0-.031,0-.008.006-.032v-.008l.007-.032v-.006l.007-.034v0l.006-.036h0l.007-.038h-.715a11.571,11.571,0,0,0,.221,2.275Zm1.6-3.989h.574l0-.012,0-.012,0-.007v-.006l0-.012,0-.012v0l0-.01,0-.012,0-.01h0l0-.012,0-.012,0-.007v-.006l0-.012,0-.012v0l0-.01,0-.01,0-.012h0l0-.012,0-.012,0-.007v0l0-.012,0-.012v0l0-.008,0-.012,0-.012,0-.012,0-.01,0-.008v0l0-.01,0-.012,0,0,0-.007,0-.01,0-.012h0l0-.01-.006-.01,0-.01v0l0-.01,0-.012,0,0v-.007l-.006-.01,0-.01v0l0-.01-.01-.018v0l-.008-.022,0-.006,0,0,0-.012-.006-.01v0l0-.01,0-.01,0-.01h0l0-.01-.006-.01,0,0-.007-.015,0-.01,0,0,0-.007-.006-.01-.009-.02,0-.01,0-.006v0l-.006-.01,0-.01,0,0-.01-.02,0-.007-.008-.016,0-.01-.072-.126a1.385,1.385,0,0,0-.566-.6h0l-.01,0,0,0h-.007l0,0h-.007l-.01,0-.008,0h0l-.01,0h0l-.01,0h-.14l-.007,0h-.014l-.008,0h0l-.008,0H681.8l-.007,0h0l-.008,0h0l-.007,0h0l-.008,0h0l-.006,0,0,0-.007,0,0,0-.007,0h0l-.007,0,0,0-.007,0,0,0-.006,0,0,0-.007,0h0l-.006,0,0,0-.007,0,0,0-.006,0,0,0-.006,0,0,0,0,0,0,0-.006,0,0,0,0,0-.006,0,0,0-.006,0,0,0,0,0,0,0-.006,0,0,0-.006,0,0,0-.007,0,0,0-.006.007,0,0-.006.007,0,0-.006.006,0,0-.008.007,0,0-.007.007,0,0-.007.008,0,0-.007.006,0,0-.008.007,0,0-.007.008,0,0-.007.007-.01.012,0,0-.008.008v0l-.008.01,0,0-.008.01,0,0-.008.01h0l-.008.01v0l-.008.01v0l-.01.012v0l-.01.01h0l-.01.012h0l-.01.012v0l-.009.012h0l-.01.012h0l-.01.014h0l-.008.012h0l-.01.014h0l-.01.014-.01.015-.008.014-.006.01,0,0-.008.014,0,.006,0,.007-.008.012,0,0-.006.01-.008.012h0l-.008.014-.006.009,0,0-.008.012,0,.006,0,.008-.008.015h0l-.007.012-.007.012h0l-.008.015,0,.008,0,.006-.008.015,0,0-.006.01-.007.014v0l-.007.012-.006.012v0l-.008.015,0,.01,0,.006-.007.015,0,0,0,.01-.007.015-.007.015-.007.012v0l-.007.015,0,.008,0,.008-.007.015,0,0,0,.012-.007.016-.007.015-.006.012v0l-.008.016,0,.008,0,.008-.007.018v0l-.006.014-.006.015h0l-.007.018,0,.01,0,.006-.007.018,0,.006,0,.01-.007.016v0l0,.015-.007.015v0l-.007.018,0,.01,0,.007-.006.017,0,.006,0,.012-.008.018h0l-.006.016,0,.015v0l-.006.018,0,.01,0,.008,0,.018,0,.006,0,.012-.006.018h0l-.006.017,0,.014v0l-.006.018,0,.01,0,.009-.006.018h1.6Zm-23.228-1.524c-.263,0-.551.312-.8.811a5.482,5.482,0,0,0-.507,1.835l0,.047-.006.046-.023.284-.014.37v.13a7.87,7.87,0,0,0,.048.876h0l0,.047h0l.006.046h0l0,.046h0l0,.046h0l.006.045h0l.006.045h0l.006.045h0l.007.045.007.045h0l.007.043h0l.007.045h0l.007.043h0l.008.044.01.044.01.042.008.043h0l.01.043.01.042h0l.009.04h0l.01.042.01.042.012.04.01.04.012.039.012.04h0l.01.039.012.04.012.038.012.038.012.038.012.038.014.037.014.037.012.037.014.036.014.036.014.036.015.034.015.036.014.034.015.034.015.032.015.034.016.032.015.032.016.032c.253.5.541.811.805.811h7.911l0-.01,0,0-.006-.014-.006-.014-.007-.012,0-.01,0,0-.006-.014-.006-.012-.007-.015,0-.007,0-.006-.006-.012-.007-.015,0-.012,0-.006,0-.007-.006-.014-.006-.014-.006-.014,0-.006,0-.008-.007-.014,0-.014,0-.012,0-.006,0-.01,0-.014-.006-.014-.006-.012v0l0-.01,0-.014-.007-.014,0-.014v0l0-.012-.006-.014,0-.014-.006-.014h0l0-.014,0-.014-.006-.014,0-.014,0-.015-.006-.014,0-.014,0-.014h0l0-.016,0-.014-.006-.014,0-.012h0l-.006-.015,0-.015,0-.014,0-.012,0,0,0-.014-.006-.015,0-.015,0-.01,0-.006,0-.014,0-.015,0-.014,0-.009v-.006l0-.015,0-.015-.006-.014v-.008l0-.007,0-.015,0-.015,0-.015v-.007l0-.008-.012-.042v-.01l-.01-.031-.007-.026,0-.015-.012-.042v0l-.015-.059-.006-.022-.01-.039v0l-.01-.042,0-.016-.006-.026-.02-.087v-.008l-.008-.034,0-.029-.012-.059v0l-.016-.083-.008-.042v0l-.008-.044,0-.016-.006-.028,0-.036,0-.01-.007-.044v-.01l-.006-.034,0-.029,0-.016-.006-.046v0l-.007-.042,0-.023,0-.022,0-.043v0l0-.046,0-.016,0-.029,0-.037,0-.01,0-.056,0-.036-.014-.165,0-.023,0-.044v0l0-.048v-.016l0-.031v-.047l0-.048v-.01l0-.039v-.049l0-.048v0l0-.046v-.443h0v-.149l0-.051v-.1l0-.051v-.1l0-.052v-.037l0-.03v-.008l0-.037v-.036l0-.04v-.036l0-.037v0l0-.034,0-.032v0l0-.038,0-.023v-.015l0-.037v-.015l0-.022,0-.039v-.007l0-.03,0-.037h0l0-.04.009-.074,0-.021.006-.056,0-.012.007-.064v0l0-.034.006-.032v0l.016-.112,0-.018.008-.059,0-.009a10.929,10.929,0,0,1,.262-1.245c.072-.265.154-.527.247-.782h-7.923Zm-8.41,15.7-.191-.059H650.6l-.048-.016-.026-.008-.135-.043-.026-.008-.107-.034-.026-.008-.026-.008h0l-.026-.008-.026-.01-.026-.008-.026-.008-.023-.007,0,0-.026-.008-.157-.052-.026-.008-.026-.01-.018,0-.008,0-.026-.01-.026-.008-.026-.008-.024-.008-.016-.006-.01,0-.026-.008-.026-.009-.026-.008-.151-.052-.01,0-.04-.015-.024-.008-.026-.008-.026-.01-.008,0-.018-.006-.024-.009-.026-.008-.026-.01-.024-.008-.007,0-.018-.007-.024-.008-.024-.01-.054-.018c-.487-.171-.948-.344-1.388-.519l-.034-.014-.066-.026-.01,0q-.87-.352-1.607-.715l-.03-.015-.061-.03,0,0-.065-.031-.022-.012-.042-.02-.048-.026a12.048,12.048,0,0,1-1.9-1.169l-.018-.012-.052-.04-.006,0-.056-.045,0,0-.052-.04v12.681c0,3.158,4.9,5.692,7.183,6.7v-16.084Zm139.8-1.936c-.544.276-1.147.546-1.8.811l-.065.026-.031.012-.018.007q-1.39.557-3.092,1.078v16.084c2.282-1.009,7.182-3.543,7.182-6.7v-12.681l-.051.04-.006,0-.057.045,0,0-.052.04-.018.012a11.212,11.212,0,0,1-1.624,1.028l-.009,0-.119.064-.056.028-.01,0-.064.034-.015.008-.05.024-.04.021Zm-104.317-8.515.111.211a1.178,1.178,0,0,0,.485.434l.634.184-.066-1-.06-.535-.127.046a2.958,2.958,0,0,0-.478.228,1.483,1.483,0,0,0-.264.2l-.235.23Zm5.539,1.05.066.118.012-.012h0l.01-.01.022-.017,0,0,.012-.012.014-.01h0l.01-.01.012-.012.01-.007,0,0,.014-.01.012-.012h0l.012-.008.014-.012.01-.007,0,0,.014-.01.015-.012v0l.012-.008.014-.01.01-.008h0l.016-.01.014-.01,0,0,.012-.008.015-.01.012-.007,0,0,.015-.01.015-.01,0,0,.012-.006.015-.01.012-.008,0,0,.015-.01.016-.01,0,0,.012-.007.016-.01.012-.008,0,0,.016-.009.016-.01,0,0,.012-.006.016-.01.014-.01h0l.016-.01.016-.01.007,0,.01-.006.018-.009.015-.008h0l.018-.01.018-.01.007,0,.01-.006.018-.01.016-.008h0l.018-.009.018-.008.008,0,.01,0,.018-.008.018-.01h0l.018-.01.018-.008.008,0,.009-.006.02-.008.018-.008h0l.018-.008.018-.008.01,0,.009-.006.018-.008.02-.008.029-.012.008,0,.023-.008.016-.008.014,0,.024-.01.006,0,.03-.012h0l.029-.01.01,0,.022-.008.018-.007.012,0,.028-.01,0,0,.032-.012h0l.029-.01.012,0,.02-.007.022-.008.01,0,.032-.012h0l.034-.01.007,0,.028-.01.015,0,.018-.006.026-.008.044-.015h0l.034-.009.009,0,.026-.008.018-.006.018-.006.029-.008.007,0,.036-.01h0l.034-.01.01,0,.026-.007.022-.007.015,0,.031-.01h0l.038-.009h0l.032-.01.014,0,.023-.006.026-.006.014,0,.034-.01h0l.038-.01.007,0,.031-.007.018-.006.021,0,.028-.006.012,0,.039-.01.039-.01h.01l.029-.007.02-.006.02,0,.031-.006.01,0,.039-.008h0l.038-.008.014,0,.028,0,.023,0,.018,0,.036-.007h.006l.042-.008h0l.037-.007.016,0,.024,0,.028,0,.015,0,.038-.007h0l.043-.008h.007l.034-.006.02,0,.023,0,.03-.006h.014l.042-.007h0l.044-.008h.012l.032-.006.022,0,.02,0,.034,0,.01,0,.043-.006h0l.043-.007h.014l.03-.006v-1.471h-3.3v.022a1.312,1.312,0,0,1-.2.7,1.472,1.472,0,0,1,0,1.879ZM652.516,1121.3c6.4,1.813,15.76,3.336,27.046,4.4,11.092,1.05,24.071,1.662,37.972,1.68h1.325c13.9-.018,26.879-.63,37.972-1.68,11.287-1.067,20.643-2.589,27.046-4.4v-2.831l-.165.045-.14.038-.312.082-.2.056-.109.028-.227.059-.093.023-.591.149-.056.014-.293.072-.038.008-.315.076-.018,0-.338.08h0l-.342.079-.02.006-.326.073-.04.01-.31.069-.06.014-.293.064-.082.018-.276.058-.1.024-.257.054-.126.026-.238.048-.149.031-.219.045-.372.076-.2.04-.181.036-.219.044-.161.03-.244.047-.139.028-.053.01-.627.118-.1.018-.318.058-.075.015-.345.062-.053.01-.37.066-.031.006-.4.069h-.008l-.408.071-.016,0-.4.067-.04.007-.375.062-.064.012-.356.057-.089.016-.333.053-.115.018-.312.05-.14.022-.289.045-.165.026-.267.04-.192.029-.243.037-.219.034-.22.032-.247.037-.2.028-.273.04-.173.024-.3.044-.148.02-.453.064-.358.05-.1.014-.388.052-.071.01-.417.057-.045,0-.445.06-.02,0-.467.06H765.9l-.463.059-.036,0-.439.054-.062.008-.414.052-.091.012-.389.046-.121.015-.364.043-.147.018-.339.039-.177.02-.312.037-.207.023-.285.032-.237.026-.258.029-.267.029-.23.026-.3.032-.2.02-.328.036-.175.018-.36.037-.146.015-.391.04-.119.012-.422.043-.089.008-.455.045-.06.006-.487.047-.03,0-.519.05h0l-.533.05h0l-.535.048h0l-.539.048h0l-.541.048h0l-.544.048h0l-.546.046h0l-.549.045h0l-.552.045h0l-.555.045h0l-.557.044h0l-.559.043h0l-.563.043h0l-.566.042h0l-.567.042h0l-.57.039h0l-.573.04h0l-.574.038h0l-.577.038h0l-.579.038h0l-.582.036h0l-.583.036h0l-.587.034h0l-.588.034h0l-.591.034h0l-.594.034h0l-.595.032h0l-.6.031h0l-.6.03h0l-.6.03h0l-.6.029h0l-.606.028h0l-.608.028h0l-.61.028h0l-.612.024h0l-.614.026-.617.024h0l-.618.023h0l-.619.024h0l-.622.022-.625.02h0l-.625.02h0l-.627.02h0l-.63.018-.632.018h0l-.633.016h0l-.634.016h0l-.636.015-.639.015-.641.012-.641.014h0l-.644.012-.646.012h0l-.647.01-.648.008h0l-.65.008-.652.008-.652.007-.655.006-.656,0-.658,0-.658,0-.66,0h0l-.66,0h-1.325l-.66,0h0l-.661,0-.658,0-.658,0-.655,0-.655-.006-.654-.007-.652-.008-.649-.008h0l-.648-.008-.647-.01h0l-.644-.012-.644-.012h0l-.642-.014-.64-.012h0l-.639-.015-.636-.015h0l-.634-.016h0l-.633-.016h0l-.632-.018-.63-.018h0l-.628-.02h0l-.626-.02h0l-.625-.02-.622-.022h0l-.62-.024h0l-.618-.023h0l-.617-.024-.614-.026h0l-.613-.024h0l-.611-.028h0l-.608-.028h0l-.6-.028h0l-.6-.029h0l-.6-.03h0l-.6-.03h0l-.6-.031h0l-.6-.032h0l-.592-.034h0l-.591-.034h0l-.588-.034h0l-.585-.034h0l-.584-.036h0l-.582-.036h0l-.579-.038h0l-.576-.038h0l-.575-.038h0l-.571-.04h0l-.569-.039h0l-.567-.042h0l-.565-.042h0l-.562-.043h0l-.56-.043h0l-.557-.044h0l-.554-.045h0l-.552-.045h0l-.549-.045h0l-.547-.046h0l-.543-.048h0l-.541-.048h0l-.538-.048h0l-.535-.048h0l-.533-.05h0l-.519-.05-.031,0-.486-.047-.061-.006-.455-.045-.089-.008-.421-.043-.121-.012-.39-.04-.147-.015-.36-.037-.175-.018-.328-.036-.2-.02-.3-.032-.231-.026-.267-.029-.258-.029-.236-.026-.284-.032-.207-.023-.312-.037-.177-.02-.338-.039-.148-.018-.364-.043-.121-.015-.389-.046-.091-.012-.413-.052-.062-.008-.439-.054-.037,0-.462-.059h-.008l-.469-.06-.018,0-.445-.06-.045,0-.418-.057-.071-.01-.386-.052-.1-.014-.358-.05-.453-.064-.147-.02-.3-.044-.173-.024-.273-.04-.2-.028-.245-.037-.22-.032-.22-.034-.243-.037-.192-.029-.267-.04-.165-.026-.289-.045-.139-.022-.312-.05-.115-.018-.332-.053-.089-.016-.356-.057-.065-.012-.375-.062-.039-.007-.4-.067-.015,0-.41-.071h-.008l-.4-.069-.032-.006-.37-.066-.053-.01-.344-.062-.076-.015-.318-.058-.1-.018-.627-.118-.052-.01-.14-.028-.244-.047-.161-.03-.219-.044-.181-.036-.2-.04-.372-.076-.22-.045-.149-.031-.237-.048-.126-.026-.258-.054-.1-.024-.276-.058-.081-.018-.293-.064-.061-.014-.309-.069-.04-.01-.326-.073-.022-.006-.34-.079h0l-.338-.08-.018,0-.316-.076-.037-.008-.293-.072-.056-.014-.592-.149-.093-.023-.225-.059-.109-.028-.206-.056-.31-.082-.141-.038-.165-.045v2.831Zm95.851,61.762-15.983-53.749h-7.977l22.331,63.086Zm-59.613,11.887L712,1129.266h-7.979l-16.846,56.653,1.576,9.031Zm31.046,5.706,1.616-71.557h-6.439l1.615,71.557Z" transform="translate(-543.624 -953.726)"/>
  </g>
</svg>
