<svg xmlns="http://www.w3.org/2000/svg" xmlns:xlink="http://www.w3.org/1999/xlink" viewBox="0 0 52.68 52.682">
  <defs>
    <style>
      .cls-1 {
        fill-rule: evenodd;
        fill: url(#linear-gradient);
      }
    </style>
    <linearGradient id="linear-gradient" x1="0.147" y1="0.185" x2="0.868" y2="0.85" gradientUnits="objectBoundingBox">
      <stop offset="0" stop-color="#fcec94"/>
      <stop offset="0.169" stop-color="#f0c46c"/>
      <stop offset="0.502" stop-color="#fffabd"/>
      <stop offset="0.82" stop-color="#f0c46c"/>
      <stop offset="1" stop-color="#fce79a"/>
    </linearGradient>
  </defs>
  <path id="Path_1243" data-name="Path 1243" class="cls-1" d="M2249.73,3793a26.257,26.257,0,1,1,10.253-2.071A26.189,26.189,0,0,1,2249.73,3793Zm-.508-26.559a.711.711,0,0,0,1.044,0l4.452-4.667a3.391,3.391,0,0,0-.23-4.857,3.108,3.108,0,0,0-4.288.316l-.458.479-.452-.474a3.106,3.106,0,0,0-4.289-.321,3.391,3.391,0,0,0-.229,4.857Zm11.857,3.174a1.356,1.356,0,0,0-1.743,0l-3.776,3.021a2.618,2.618,0,0,1-1.637.571h-4.836a.655.655,0,1,1,0-1.31h3.2a1.359,1.359,0,0,0,1.361-1.086,1.31,1.31,0,0,0-1.292-1.529h-6.542a4.817,4.817,0,0,0-3.028,1.076l-1.9,1.54h-2.265a.656.656,0,0,0-.655.655v3.925a.656.656,0,0,0,.655.654h14.586a2.616,2.616,0,0,0,1.634-.574l6.181-4.945a1.308,1.308,0,0,0,.054-2Zm-11.349-26.9a23.946,23.946,0,1,0,23.947,23.944A23.974,23.974,0,0,0,2249.73,3742.716Z" transform="translate(-2223.391 -3740.32)"/>
</svg>
