<svg xmlns="http://www.w3.org/2000/svg" xmlns:xlink="http://www.w3.org/1999/xlink" viewBox="0 0 52.682 52.681">
  <defs>
    <style>
      .cls-1 {
        fill-rule: evenodd;
        fill: url(#linear-gradient);
      }
    </style>
    <linearGradient id="linear-gradient" x1="0.148" y1="0.185" x2="0.868" y2="0.85" gradientUnits="objectBoundingBox">
      <stop offset="0" stop-color="#fcec94"/>
      <stop offset="0.169" stop-color="#f0c46c"/>
      <stop offset="0.502" stop-color="#fffabd"/>
      <stop offset="0.82" stop-color="#f0c46c"/>
      <stop offset="1" stop-color="#fce79a"/>
    </linearGradient>
  </defs>
  <path id="Path_1247" data-name="Path 1247" class="cls-1" d="M2249.723,1338.8a26.259,26.259,0,1,1,10.252-2.07A26.172,26.172,0,0,1,2249.723,1338.8Zm8.856-23.283a13.837,13.837,0,0,1-3.6,2.141l2.373,4.106,2.35,1.005a.7.7,0,0,0,.967-.561l.305-2.538-2.4-4.154Zm1.854-4.121a.7.7,0,0,0-.265-.975l-1.223-.679a.7.7,0,0,0-.929.249,9.775,9.775,0,0,1-8.2,4.463,9.665,9.665,0,0,1-3.026-.5l2.937-5.088c.03,0,.055.009.089.009s.06-.009.088-.009l2.228,3.858a8.311,8.311,0,0,0,3.6-2.132l-2.259-3.911a4.127,4.127,0,0,0,.529-1.992,4.187,4.187,0,1,0-7.849,1.992l-2.977,5.156a9.6,9.6,0,0,1-1.468-1.7.7.7,0,0,0-.933-.231l-1.21.7a.7.7,0,0,0-.246.977,12.433,12.433,0,0,0,2.439,2.7l-3.106,5.384.3,2.539a.7.7,0,0,0,.969.56l2.352-1.005,3.086-5.346a12.529,12.529,0,0,0,15.069-5.023Zm-10.618-8.1a1.4,1.4,0,1,1-1.4,1.4A1.391,1.391,0,0,1,2249.815,1303.293Zm-.093-14.779a23.946,23.946,0,1,0,23.944,23.944A23.974,23.974,0,0,0,2249.723,1288.514Z" transform="translate(-2223.38 -1286.12)"/>
</svg>
