<svg xmlns="http://www.w3.org/2000/svg" xmlns:xlink="http://www.w3.org/1999/xlink" viewBox="0 0 52 52">
  <defs>
    <style>
      .cls-1 {
        fill-rule: evenodd;
        fill: url(#linear-gradient);
      }
    </style>
    <linearGradient id="linear-gradient" x1="0.147" y1="0.185" x2="0.868" y2="0.85" gradientUnits="objectBoundingBox">
      <stop offset="0" stop-color="#fcec94"/>
      <stop offset="0.169" stop-color="#f0c46c"/>
      <stop offset="0.502" stop-color="#fffabd"/>
      <stop offset="0.82" stop-color="#f0c46c"/>
      <stop offset="1" stop-color="#fce79a"/>
    </linearGradient>
  </defs>
  <g id="sprite.activities-icon-5_active" transform="translate(0 0.02)">
    <path id="Path_1376" data-name="Path 1376" class="cls-1" d="M26,51.98A25.98,25.98,0,0,1,0,25.987,25.968,25.968,0,0,1,7.612,7.6,25.917,25.917,0,0,1,26-.02,26.023,26.023,0,0,1,49.954,15.868,26,26,0,0,1,36.122,49.934,25.72,25.72,0,0,1,26,51.98ZM24.718,20.709l2.128.573a.339.339,0,0,1-.1.668H25.345a.97.97,0,0,1-.437-.1.535.535,0,0,0-.6.082l-.75.709a.454.454,0,0,0,.068.736,3.186,3.186,0,0,0,1.364.464v.709a.659.659,0,0,0,.682.641h.682a.667.667,0,0,0,.682-.641v-.709a2.3,2.3,0,0,0,2.1-2.55,2.423,2.423,0,0,0-1.828-1.923L25.168,18.8a.339.339,0,0,1,.1-.668h1.405a.97.97,0,0,1,.437.1.564.564,0,0,0,.6-.082l.75-.709a.454.454,0,0,0-.068-.736,3.186,3.186,0,0,0-1.364-.464v-.709a.667.667,0,0,0-.682-.641h-.682a.659.659,0,0,0-.682.641v.709a2.3,2.3,0,0,0-2.1,2.537A2.423,2.423,0,0,0,24.7,20.7h0ZM37.2,28.142a1.323,1.323,0,0,0-1.719,0l-3.724,2.987a2.552,2.552,0,0,1-1.61.573H25.373a.641.641,0,1,1,0-1.282h3.151a1.325,1.325,0,0,0,1.337-1.077,1.3,1.3,0,0,0-1.269-1.514H22.14a4.761,4.761,0,0,0-2.987,1.064l-1.869,1.527H15.046a.64.64,0,0,0-.641.641v3.873a.64.64,0,0,0,.641.641H29.438A2.476,2.476,0,0,0,31.047,35l6.1-4.882A1.292,1.292,0,0,0,37.2,28.142Z"/>
  </g>
</svg>
