<svg xmlns="http://www.w3.org/2000/svg" xmlns:xlink="http://www.w3.org/1999/xlink" viewBox="0 0 52 52">
  <defs>
    <style>
      .cls-1 {
        fill-rule: evenodd;
        fill: url(#linear-gradient);
      }
    </style>
    <linearGradient id="linear-gradient" x1="0.147" y1="0.185" x2="0.868" y2="0.85" gradientUnits="objectBoundingBox">
      <stop offset="0" stop-color="#fcec94"/>
      <stop offset="0.169" stop-color="#f0c46c"/>
      <stop offset="0.502" stop-color="#fffabd"/>
      <stop offset="0.82" stop-color="#f0c46c"/>
      <stop offset="1" stop-color="#fce79a"/>
    </linearGradient>
  </defs>
  <g id="sprite.activities-icon-3_active" transform="translate(191 -126.99)">
    <path id="Path_1372" data-name="Path 1372" class="cls-1" d="M26,51.99A25.992,25.992,0,0,1,2.046,36.112,25.995,25.995,0,0,1,26-.01,25.992,25.992,0,0,1,49.954,15.868,25.995,25.995,0,0,1,26,51.99Zm-.259-36.626a50.275,50.275,0,0,1,.682,5.47A4.467,4.467,0,0,1,23.5,25.267l.546,10.108a1.026,1.026,0,0,1-1.023,1.078H20.312a1.026,1.026,0,0,1-1.023-1.078l.546-10.108a4.474,4.474,0,0,1-2.919-4.433,54,54,0,0,1,.682-5.47c.136-.859,1.923-.873,2.033.041v5.988c.055.15.641.136.682,0,.055-1.078.341-5.907.341-6.016.136-.887,1.9-.887,2.033,0,.014.109.286,4.952.341,6.016.041.136.627.15.682,0V15.4c.109-.914,1.9-.914,2.033-.041ZM30.8,27.491l-.641,7.857a1.015,1.015,0,0,0,1.009,1.1h2.374a1.022,1.022,0,0,0,1.023-1.023v-19.7a1.022,1.022,0,0,0-1.023-1.023c-3.506,0-9.4,7.584-2.756,12.782Z" transform="translate(-191 127)"/>
  </g>
</svg>
