<svg xmlns="http://www.w3.org/2000/svg" xmlns:xlink="http://www.w3.org/1999/xlink" viewBox="0 0 52 52">
  <defs>
    <style>
      .cls-1 {
        fill-rule: evenodd;
        fill: url(#linear-gradient);
      }
    </style>
    <linearGradient id="linear-gradient" x1="0.147" y1="0.185" x2="0.868" y2="0.85" gradientUnits="objectBoundingBox">
      <stop offset="0" stop-color="#fcec94"/>
      <stop offset="0.169" stop-color="#f0c46c"/>
      <stop offset="0.502" stop-color="#fffabd"/>
      <stop offset="0.82" stop-color="#f0c46c"/>
      <stop offset="1" stop-color="#fce79a"/>
    </linearGradient>
  </defs>
  <g id="sprite.activities-icon-6_active" transform="translate(0 0.01)">
    <path id="Path_1378" data-name="Path 1378" class="cls-1" d="M26,51.99A25.992,25.992,0,0,1,2.046,36.112,25.995,25.995,0,0,1,26-.01,25.992,25.992,0,0,1,49.954,15.868,25.995,25.995,0,0,1,26,51.99ZM37.2,28.909a1.323,1.323,0,0,0-1.719,0L31.757,31.9a2.539,2.539,0,0,1-1.61.559H25.373a.641.641,0,0,1,0-1.282h3.165A1.326,1.326,0,0,0,29.874,30.1a1.3,1.3,0,0,0-1.269-1.514H22.153a4.76,4.76,0,0,0-2.987,1.064L17.3,31.16H15.06a.64.64,0,0,0-.641.641v3.874a.64.64,0,0,0,.641.641H29.451a2.551,2.551,0,0,0,1.61-.573l6.1-4.884a1.292,1.292,0,0,0,.055-1.978h0ZM25.5,25.772a.694.694,0,0,0,1.023,0l4.392-4.611a3.341,3.341,0,0,0-.232-4.788,3.056,3.056,0,0,0-4.229.314l-.45.477-.45-.464a3.056,3.056,0,0,0-4.229-.314,3.353,3.353,0,0,0-.232,4.788l4.392,4.611Z"/>
  </g>
</svg>
