<svg id="sprite.activities-icon-7_active" xmlns="http://www.w3.org/2000/svg" xmlns:xlink="http://www.w3.org/1999/xlink" viewBox="0 0 52 52">
  <defs>
    <style>
      .cls-1 {
        fill-rule: evenodd;
        fill: url(#linear-gradient);
      }
    </style>
    <linearGradient id="linear-gradient" x1="0.147" y1="0.185" x2="0.868" y2="0.85" gradientUnits="objectBoundingBox">
      <stop offset="0" stop-color="#fcec94"/>
      <stop offset="0.169" stop-color="#f0c46c"/>
      <stop offset="0.502" stop-color="#fffabd"/>
      <stop offset="0.82" stop-color="#f0c46c"/>
      <stop offset="1" stop-color="#fce79a"/>
    </linearGradient>
  </defs>
  <path id="Path_1380" data-name="Path 1380" class="cls-1" d="M26,0A25.992,25.992,0,0,1,49.954,15.878,25.995,25.995,0,0,1,26,52,25.985,25.985,0,0,1,0,26,25.992,25.992,0,0,1,15.878,2.046,25.958,25.958,0,0,1,26,0h0Zm7.025,19.9a2.06,2.06,0,1,0,2.06-2.06A2.058,2.058,0,0,0,33.025,19.9Zm-6.4.955a.373.373,0,0,0-.259-.109h-.723a.373.373,0,0,0-.259.109.311.311,0,0,0-.041.4l.382.587-.177,1.541.355.955a.109.109,0,0,0,.2,0l.355-.955-.177-1.541.4-.587a.352.352,0,0,0-.041-.4h0Zm2.305.1h0l-.764-.232a.225.225,0,0,0-.286.15l-1.6,4.392a.294.294,0,0,1-.546,0l-1.6-4.392a.234.234,0,0,0-.218-.15c-.027,0-.832.246-.832.246A2.372,2.372,0,0,0,21.471,23.2v4.638a.19.19,0,0,0,.041.123L23.176,30.5v6.425a.23.23,0,0,0,.232.232h5.2a.239.239,0,0,0,.232-.232V30.5L30.5,27.964a.22.22,0,0,0,.041-.123V23.19a2.347,2.347,0,0,0-1.61-2.224h0ZM28.674,17a2.66,2.66,0,1,0-2.66,2.66A2.663,2.663,0,0,0,28.674,17Zm-9.644,5.661-.532-.164a.6.6,0,0,0-.546.1l-1.037.778-1.037-.778a.632.632,0,0,0-.559-.1l-.518.164A2.066,2.066,0,0,0,13.4,24.595v3.124a.631.631,0,0,0,.109.341l1.05,1.6v4.188a.611.611,0,0,0,.614.614h3.492a.611.611,0,0,0,.614-.614V29.656l1.05-1.6a.6.6,0,0,0,.109-.341V24.595a2.022,2.022,0,0,0-1.405-1.937Zm-2.114-.682a2.06,2.06,0,1,0-2.06-2.06A2.067,2.067,0,0,0,16.915,21.976Zm20.3.682-.532-.164a.6.6,0,0,0-.546.1l-1.037.778-1.037-.778a.632.632,0,0,0-.559-.1l-.518.164a2.066,2.066,0,0,0-1.405,1.937v3.124a.754.754,0,0,0,.1.341l1.05,1.6v4.188a.611.611,0,0,0,.614.614h3.492a.611.611,0,0,0,.614-.614V29.656l1.05-1.6a.6.6,0,0,0,.109-.341V24.595A2.022,2.022,0,0,0,37.2,22.658h0Z"/>
</svg>
