<svg xmlns="http://www.w3.org/2000/svg" xmlns:xlink="http://www.w3.org/1999/xlink" viewBox="0 0 53 53.001">
  <defs>
    <style>
      .cls-1 {
        fill: url(#linear-gradient);
      }
    </style>
    <linearGradient id="linear-gradient" x1="0.148" y1="0.185" x2="0.868" y2="0.85" gradientUnits="objectBoundingBox">
      <stop offset="0" stop-color="#fcec94"/>
      <stop offset="0.169" stop-color="#f0c46c"/>
      <stop offset="0.502" stop-color="#fffabd"/>
      <stop offset="0.82" stop-color="#f0c46c"/>
      <stop offset="1" stop-color="#fce79a"/>
    </linearGradient>
  </defs>
  <path id="Exclusion_1" data-name="Exclusion 1" class="cls-1" d="M756.209-1052.486a26.336,26.336,0,0,1-10.314-2.083,26.437,26.437,0,0,1-8.425-5.679,26.439,26.439,0,0,1-5.68-8.426,26.322,26.322,0,0,1-2.082-10.314,26.36,26.36,0,0,1,2.082-10.316,26.444,26.444,0,0,1,5.68-8.421,26.343,26.343,0,0,1,8.425-5.679,26.338,26.338,0,0,1,10.314-2.083,26.342,26.342,0,0,1,10.316,2.083,26.352,26.352,0,0,1,8.421,5.679,26.364,26.364,0,0,1,5.679,8.421,26.317,26.317,0,0,1,2.083,10.316,26.279,26.279,0,0,1-2.083,10.314,26.36,26.36,0,0,1-5.679,8.426,26.445,26.445,0,0,1-8.421,5.679A26.341,26.341,0,0,1,756.209-1052.486Zm5.255-22.364a3.034,3.034,0,0,0-2.962,2.389,2.647,2.647,0,0,0-.066.624,3.031,3.031,0,0,0,3.028,3.027,3.03,3.03,0,0,0,3.027-3.027,2.542,2.542,0,0,0-.066-.624A3.034,3.034,0,0,0,761.464-1074.85Zm-12.33-.015a2.776,2.776,0,0,0-1.294.3,3.077,3.077,0,0,0-1.665,2.1,2.674,2.674,0,0,0-.068.624,3.03,3.03,0,0,0,3.027,3.027,3.031,3.031,0,0,0,3.029-3.027,2.445,2.445,0,0,0-.07-.624,3.071,3.071,0,0,0-1.664-2.1A2.986,2.986,0,0,0,749.134-1074.865Zm-7.769.723a.716.716,0,0,0-.271.049.787.787,0,0,0-.522.741v1.043a.792.792,0,0,0,.793.79h3.161v.016a.792.792,0,0,0,.79-.79v-1.059a.791.791,0,0,0-.79-.79h-3.161Zm20.1-1.328a3.556,3.556,0,0,1,3.5,2.927h1.9v-3.683h-9.452v1.748a1.415,1.415,0,0,1-1.413,1.413h-.353a1.415,1.415,0,0,1-1.414-1.413v-1.748h-2.623v-7.368h-5.45l-5.063,6.424v2.556l.02,0a1.262,1.262,0,0,1,.251-.03h3.161a1.314,1.314,0,0,1,1.312,1.312v.1a3.44,3.44,0,0,1,1.026-1.414,3.627,3.627,0,0,1,2.27-.823,3.506,3.506,0,0,1,2.273.823,3.5,3.5,0,0,1,1.227,2.1h5.333A3.555,3.555,0,0,1,761.465-1075.471Zm-5.819-8.124a.876.876,0,0,0-.876.874v8.226a.866.866,0,0,0,.876.874H756v.016a.866.866,0,0,0,.876-.874v-8.242a.876.876,0,0,0-.876-.874h-.353Zm.015-.539H756a1.413,1.413,0,0,1,1.41,1.413v5.014l3.534.536,8.057-6.29.151.674a.574.574,0,0,0,.549.439.522.522,0,0,0,.14-.019.568.568,0,0,0,.36-.263.544.544,0,0,0,.062-.428l-1.431-6.121a.569.569,0,0,0-.547-.44.524.524,0,0,0-.142.02.565.565,0,0,0-.36.263.538.538,0,0,0-.06.426l.135.571-10.041-1.345-5.67,4.374v.135l2.1,6.93v-4.476A1.432,1.432,0,0,1,755.661-1084.135Zm-5.618,6.325h-5.785v-.572l2.891-3.633h2.894v4.2Z" transform="translate(-729.708 1105.487)"/>
</svg>
