<svg xmlns="http://www.w3.org/2000/svg" xmlns:xlink="http://www.w3.org/1999/xlink" viewBox="0 0 52 52">
  <defs>
    <style>
      .cls-1 {
        fill-rule: evenodd;
        fill: url(#linear-gradient);
      }
    </style>
    <linearGradient id="linear-gradient" x1="0.147" y1="0.185" x2="0.868" y2="0.85" gradientUnits="objectBoundingBox">
      <stop offset="0" stop-color="#fcec94"/>
      <stop offset="0.169" stop-color="#f0c46c"/>
      <stop offset="0.502" stop-color="#fffabd"/>
      <stop offset="0.82" stop-color="#f0c46c"/>
      <stop offset="1" stop-color="#fce79a"/>
    </linearGradient>
  </defs>
  <g id="sprite.activities-icon-2_active" transform="translate(0 0.01)">
    <path id="Path_1370" data-name="Path 1370" class="cls-1" d="M26,51.99A25.992,25.992,0,0,1,2.046,36.112,25.995,25.995,0,0,1,26-.01a25.985,25.985,0,0,1,26,26A25.992,25.992,0,0,1,36.122,49.944,25.958,25.958,0,0,1,26,51.99ZM36.572,24.94a.7.7,0,0,0-.259-.969l-1.2-.668a.685.685,0,0,0-.914.246,9.56,9.56,0,0,1-11.077,3.915l2.892-5.02c.027,0,.055.014.082.014s.055-.014.082-.014l2.2,3.806a8.246,8.246,0,0,0,3.56-2.1l-2.224-3.86a4.019,4.019,0,0,0,.518-1.964,4.133,4.133,0,1,0-7.748,1.964l-2.933,5.088A8.536,8.536,0,0,1,18.1,23.7a.711.711,0,0,0-.928-.232l-1.2.7a.7.7,0,0,0-.246.969,12.161,12.161,0,0,0,2.4,2.674L15.06,33.111l.3,2.51a.691.691,0,0,0,.955.559l2.319-1,3.042-5.279a12.345,12.345,0,0,0,14.869-4.952ZM34.744,29A13.958,13.958,0,0,1,31.2,31.119l2.346,4.051,2.319,1a.691.691,0,0,0,.955-.559l.3-2.51-2.36-4.106h0ZM26.1,16.946a1.378,1.378,0,1,1-1.378,1.378A1.374,1.374,0,0,1,26.1,16.946Z"/>
  </g>
</svg>
