<svg xmlns="http://www.w3.org/2000/svg" xmlns:xlink="http://www.w3.org/1999/xlink" viewBox="0 0 52.68 52.682">
  <defs>
    <style>
      .cls-1 {
        fill-rule: evenodd;
        fill: url(#linear-gradient);
      }
    </style>
    <linearGradient id="linear-gradient" x1="0.147" y1="0.185" x2="0.868" y2="0.85" gradientUnits="objectBoundingBox">
      <stop offset="0" stop-color="#fcec94"/>
      <stop offset="0.169" stop-color="#f0c46c"/>
      <stop offset="0.502" stop-color="#fffabd"/>
      <stop offset="0.82" stop-color="#f0c46c"/>
      <stop offset="1" stop-color="#fce79a"/>
    </linearGradient>
  </defs>
  <path id="Path_1241" data-name="Path 1241" class="cls-1" d="M2249.73,4353.87a26.255,26.255,0,1,1-10.253,2.07,26.189,26.189,0,0,1,10.253-2.07Zm.635,21.126a.36.36,0,0,0-.265-.108h-.738a.359.359,0,0,0-.264.108.342.342,0,0,0-.044.4l.393.594-.185,1.559.366.968a.111.111,0,0,0,.208,0l.364-.968-.185-1.559.4-.594a.346.346,0,0,0-.044-.4Zm2.332.093h0l-.771-.238a.24.24,0,0,0-.294.147l-1.619,4.445a.293.293,0,0,1-.551,0l-1.619-4.445a.238.238,0,0,0-.226-.156c-.022,0-.839.247-.839.247a2.389,2.389,0,0,0-1.641,2.27v4.7a.242.242,0,0,0,.04.13l1.689,2.57v6.508a.24.24,0,0,0,.239.24h5.266a.238.238,0,0,0,.237-.24v-6.508l1.691-2.57a.242.242,0,0,0,.041-.13v-4.715a2.383,2.383,0,0,0-1.637-2.257Zm-.266-4.006a2.7,2.7,0,1,0-2.7,2.7A2.7,2.7,0,0,0,2252.431,4371.083Zm-9.771,5.735s-.533-.164-.533-.164a.628.628,0,0,0-.558.1l-1.051.785-1.05-.785a.631.631,0,0,0-.56-.1s-.527.164-.531.164a2.073,2.073,0,0,0-1.418,1.969v3.164a.62.62,0,0,0,.1.343l1.061,1.612v4.241a.624.624,0,0,0,.624.625h3.541a.625.625,0,0,0,.625-.625v-4.241l1.061-1.612a.62.62,0,0,0,.1-.343v-3.164a2.076,2.076,0,0,0-1.418-1.969h0Zm-2.142-.693a2.093,2.093,0,1,0-2.092-2.093A2.1,2.1,0,0,0,2240.518,4376.125Zm20.57.693s-.534-.164-.534-.164a.625.625,0,0,0-.557.1l-1.051.785-1.05-.785a.632.632,0,0,0-.56-.1s-.526.164-.531.164a2.073,2.073,0,0,0-1.418,1.969v3.164a.64.64,0,0,0,.1.343l1.063,1.612v4.241a.625.625,0,0,0,.623.625h3.541a.625.625,0,0,0,.626-.625v-4.241l1.061-1.612a.62.62,0,0,0,.1-.343v-3.164a2.076,2.076,0,0,0-1.418-1.969h0Zm-4.234-2.787a2.092,2.092,0,1,0,2.092-2.093A2.094,2.094,0,0,0,2256.854,4374.032Zm-7.124,30.125a23.946,23.946,0,1,0-23.947-23.947A23.974,23.974,0,0,0,2249.73,4404.157Z" transform="translate(-2223.391 -4353.87)"/>
</svg>
