<svg xmlns="http://www.w3.org/2000/svg" xmlns:xlink="http://www.w3.org/1999/xlink" viewBox="0 0 52 52">
  <defs>
    <style>
      .cls-1 {
        fill-rule: evenodd;
        fill: url(#linear-gradient);
      }
    </style>
    <linearGradient id="linear-gradient" x1="0.148" y1="0.185" x2="0.868" y2="0.85" gradientUnits="objectBoundingBox">
      <stop offset="0" stop-color="#fcec94"/>
      <stop offset="0.169" stop-color="#f0c46c"/>
      <stop offset="0.502" stop-color="#fffabd"/>
      <stop offset="0.82" stop-color="#f0c46c"/>
      <stop offset="1" stop-color="#fce79a"/>
    </linearGradient>
  </defs>
  <g id="sprite.activities-icon-4_active" transform="translate(0.01 0.02)">
    <path id="Path_1374" data-name="Path 1374" class="cls-1" d="M25.99,51.98a25.98,25.98,0,0,1-26-25.993A25.968,25.968,0,0,1,7.6,7.6,25.917,25.917,0,0,1,25.99-.02,26.023,26.023,0,0,1,49.944,15.868,25.991,25.991,0,0,1,25.99,51.98ZM39.754,31.169a1.4,1.4,0,0,1-1.405,1.4H28.254a1.4,1.4,0,0,1-1.405-1.4V27.528a1.4,1.4,0,0,1,1.405-1.4H38.349a1.4,1.4,0,0,1,1.405,1.4Zm-7.639-8.21a1.4,1.4,0,0,1-1.405,1.4H20.615a1.4,1.4,0,0,1-1.405-1.4V19.318a1.4,1.4,0,0,1,1.405-1.4H30.71a1.4,1.4,0,0,1,1.405,1.4Zm-7.039,8.21a1.4,1.4,0,0,1-1.405,1.4H13.577a1.4,1.4,0,0,1-1.405-1.4V27.528a1.4,1.4,0,0,1,1.405-1.4H23.671a1.4,1.4,0,0,1,1.405,1.4v3.641Z"/>
  </g>
</svg>
