<svg xmlns="http://www.w3.org/2000/svg" xmlns:xlink="http://www.w3.org/1999/xlink" viewBox="0 0 52.682 52.679">
  <defs>
    <style>
      .cls-1 {
        fill-rule: evenodd;
        fill: url(#linear-gradient);
      }
    </style>
    <linearGradient id="linear-gradient" x1="0.148" y1="0.185" x2="0.868" y2="0.85" gradientUnits="objectBoundingBox">
      <stop offset="0" stop-color="#fcec94"/>
      <stop offset="0.169" stop-color="#f0c46c"/>
      <stop offset="0.502" stop-color="#fffabd"/>
      <stop offset="0.82" stop-color="#f0c46c"/>
      <stop offset="1" stop-color="#fce79a"/>
    </linearGradient>
  </defs>
  <path id="Path_1245" data-name="Path 1245" class="cls-1" d="M2249.723,3179.449a26.259,26.259,0,1,1,10.253-2.07A26.16,26.16,0,0,1,2249.723,3179.449Zm-1.3-31.69,2.162.585a.35.35,0,0,1,.266.332.359.359,0,0,1-.365.345h-1.418a1.173,1.173,0,0,1-.445-.09.563.563,0,0,0-.612.082l-.757.716a.473.473,0,0,0,.064.752,3.278,3.278,0,0,0,1.378.472v.724a.676.676,0,0,0,.692.655h.693a.677.677,0,0,0,.692-.655v-.718a2.34,2.34,0,0,0,2.135-2.581,2.455,2.455,0,0,0-1.858-1.952l-2.165-.585a.347.347,0,0,1-.262-.332.355.355,0,0,1,.363-.344h1.42a1.172,1.172,0,0,1,.445.09.561.561,0,0,0,.61-.083l.757-.716a.473.473,0,0,0-.064-.752,3.246,3.246,0,0,0-1.376-.472v-.725a.677.677,0,0,0-.691-.655h-.693a.676.676,0,0,0-.693.655v.722a2.334,2.334,0,0,0-2.134,2.577,2.454,2.454,0,0,0,1.858,1.952Zm12.652,7.527a1.357,1.357,0,0,0-1.746,0l-3.773,3.025a2.6,2.6,0,0,1-1.637.574h-4.835a.655.655,0,0,1,0-1.31h3.2a1.352,1.352,0,0,0,1.359-1.088,1.312,1.312,0,0,0-1.29-1.533h-6.539a4.789,4.789,0,0,0-3.026,1.077l-1.9,1.544h-2.271a.655.655,0,0,0-.651.655v3.929a.655.655,0,0,0,.651.655H2253.2a2.613,2.613,0,0,0,1.637-.574l6.18-4.952A1.312,1.312,0,0,0,2261.072,3155.286Zm-11.349-26.124a23.946,23.946,0,1,0,23.944,23.947,23.974,23.974,0,0,0-23.944-23.947Z" transform="translate(-2223.38 -3126.77)"/>
</svg>
