<svg xmlns="http://www.w3.org/2000/svg" xmlns:xlink="http://www.w3.org/1999/xlink" viewBox="0 0 52.681 52.682">
  <defs>
    <style>
      .cls-1 {
        fill-rule: evenodd;
        fill: url(#linear-gradient);
      }
    </style>
    <linearGradient id="linear-gradient" x1="0.147" y1="0.185" x2="0.868" y2="0.85" gradientUnits="objectBoundingBox">
      <stop offset="0" stop-color="#fcec94"/>
      <stop offset="0.169" stop-color="#f0c46c"/>
      <stop offset="0.502" stop-color="#fffabd"/>
      <stop offset="0.82" stop-color="#f0c46c"/>
      <stop offset="1" stop-color="#fce79a"/>
    </linearGradient>
  </defs>
  <path id="Path_1246" data-name="Path 1246" class="cls-1" d="M2249.721,1952.353a26.262,26.262,0,1,1,10.253-2.071A26.194,26.194,0,0,1,2249.721,1952.353Zm-.265-37.117a51.989,51.989,0,0,1,.7,5.541,4.536,4.536,0,0,1-2.965,4.5l.554,10.243a1.036,1.036,0,0,1-1.034,1.09h-2.753a1.035,1.035,0,0,1-1.032-1.09l.555-10.243a4.533,4.533,0,0,1-2.965-4.5,52.632,52.632,0,0,1,.693-5.541c.138-.875,1.949-.887,2.061.047v6.074c.057.147.649.138.687,0,.061-1.088.341-5.988.346-6.1.14-.9,1.921-.9,2.059,0,.01.116.285,5.011.346,6.1.038.138.636.147.688,0v-6.074C2247.5,1914.353,2249.319,1914.361,2249.457,1915.236Zm5.13,12.29-.645,7.964a1.03,1.03,0,0,0,1.027,1.117h2.409a1.03,1.03,0,0,0,1.031-1.032v-19.963a1.033,1.033,0,0,0-1.031-1.032C2253.827,1914.581,2247.854,1922.26,2254.587,1927.526Zm-4.865-25.46a23.946,23.946,0,1,0,23.944,23.944,23.972,23.972,0,0,0-23.944-23.944Z" transform="translate(-2223.38 -1899.671)"/>
</svg>
