<svg xmlns="http://www.w3.org/2000/svg" xmlns:xlink="http://www.w3.org/1999/xlink" viewBox="0 0 52 52">
  <defs>
    <style>
      .cls-1 {
        fill-rule: evenodd;
        fill: url(#linear-gradient);
      }
    </style>
    <linearGradient id="linear-gradient" x1="0.147" y1="0.185" x2="0.868" y2="0.85" gradientUnits="objectBoundingBox">
      <stop offset="0" stop-color="#fcec94"/>
      <stop offset="0.169" stop-color="#f0c46c"/>
      <stop offset="0.502" stop-color="#fffabd"/>
      <stop offset="0.82" stop-color="#f0c46c"/>
      <stop offset="1" stop-color="#fce79a"/>
    </linearGradient>
  </defs>
  <g id="sprite.activities-icon-1" transform="translate(0 0.01)">
    <path id="Path_1367" data-name="Path 1367" class="cls-1" d="M26,51.99A25.992,25.992,0,0,1,2.046,36.112,25.995,25.995,0,0,1,26-.01a25.985,25.985,0,0,1,26,26A25.992,25.992,0,0,1,36.122,49.944,25.958,25.958,0,0,1,26,51.99ZM21.621,28.882V21.611H16.247l-4.993,6.343v2.51a1.534,1.534,0,0,1,.273-.027h3.124a1.3,1.3,0,0,1,1.3,1.3v.1a3.43,3.43,0,0,1,1.009-1.391,3.6,3.6,0,0,1,2.237-.818,3.445,3.445,0,0,1,2.237.818,3.48,3.48,0,0,1,1.214,2.073H27.91a3.505,3.505,0,0,1,6.9,0h1.869V28.882H27.35V30.6a1.4,1.4,0,0,1-1.391,1.391H25.6A1.4,1.4,0,0,1,24.213,30.6V28.882H21.621Zm-6.984,4.665a.769.769,0,0,0,.778-.778v-1.05a.777.777,0,0,0-.778-.778h-3.11a.65.65,0,0,0-.273.055.771.771,0,0,0-.518.737v1.023a.777.777,0,0,0,.778.778h3.124v.014Zm19.7-.327a2.231,2.231,0,0,0-.068-.614,2.985,2.985,0,0,0-5.838,0,2.42,2.42,0,0,0-.068.614,2.987,2.987,0,1,0,5.975,0h0ZM19.179,36.207a2.987,2.987,0,0,0,2.987-2.987,2.231,2.231,0,0,0-.068-.614,3.019,3.019,0,0,0-2.919-2.374,2.693,2.693,0,0,0-1.282.3,2.976,2.976,0,0,0-1.637,2.073,2.42,2.42,0,0,0-.068.614,3,3,0,0,0,2.987,2.987ZM38.618,16.1a.562.562,0,0,0-1.091.273l.136.559-9.9-1.323L22.167,19.92v.136L24.24,26.89v-4.42a1.4,1.4,0,0,1,1.391-1.391h.327a1.4,1.4,0,0,1,1.391,1.391v4.952l3.492.532L38.8,21.748l.15.668a.556.556,0,0,0,.682.409.564.564,0,0,0,.423-.682L38.632,16.1h0ZM25.959,31.474a.856.856,0,0,0,.859-.859v-8.13a.856.856,0,0,0-.859-.859H25.6a.865.865,0,0,0-.859.859v8.13a.856.856,0,0,0,.859.859h.355v.014Zm-11.581-4.72,2.851-3.588H20.08v4.147H14.364v-.559ZM26.014,2.364A23.626,23.626,0,1,0,49.64,25.99,23.654,23.654,0,0,0,26.014,2.364Z"/>
  </g>
</svg>
