<svg xmlns="http://www.w3.org/2000/svg" xmlns:xlink="http://www.w3.org/1999/xlink" viewBox="0 0 80 80">
  <defs>
    <style>
      .cls-1 {
        fill-rule: evenodd;
        fill: url(#linear-gradient);
      }
    </style>
    <linearGradient id="linear-gradient" x1="0.147" y1="0.185" x2="0.868" y2="0.85" gradientUnits="objectBoundingBox">
      <stop offset="0" stop-color="#fcec94"/>
      <stop offset="0.169" stop-color="#f0c46c"/>
      <stop offset="0.502" stop-color="#fffabd"/>
      <stop offset="0.82" stop-color="#f0c46c"/>
      <stop offset="1" stop-color="#fce79a"/>
    </linearGradient>
  </defs>
  <path id="Path_1974" data-name="Path 1974" class="cls-1" d="M17305.258,21444.773a40.085,40.085,0,1,1,15.568,3.148A39.88,39.88,0,0,1,17305.258,21444.773Zm3.455-40.758-7.016.344a1.259,1.259,0,0,1-1.229-.906l-1.275-11.582a.764.764,0,0,1,.74-.992h7.775a1.039,1.039,0,0,1,1.061.945l.852,11.16A.956.956,0,0,1,17308.713,21404.016Zm-4.131-11.6a1.939,1.939,0,1,0,1.939,1.938A1.937,1.937,0,0,0,17304.582,21392.414Zm36.307,7.641a30.72,30.72,0,0,0-9.592-3.273c-3.125-.488-9,.691-9,2.09,0,.527,5.156-1.3,8.271-.473,2.391.637,2.053,2.875.752,3.168s-8.867,3.07-12.1,3.164a55.5,55.5,0,0,1-7.105-.824c-.623-.1-1.016-.09-1.055-.687-.182-2.773-.537-8.449-.732-11.41,0-.062.082-.906.777-.312a3.612,3.612,0,0,0,2.813,1.145c1.549-.352,14.939-2.8,16.787-2.375,2.641.613,10.123,5.047,11.557,6.426C17344.479,21398.824,17342.75,21401.078,17340.889,21400.055Zm-19.4,7.02a12.037,12.037,0,1,0,12.039,12.035A12.037,12.037,0,0,0,17321.488,21407.074Zm-3.994,19.227v-2.156h-1.9v-1.914h1.9v-1.07h-1.9v-1.914h1.9v-6.676h6.316a4.366,4.366,0,0,1,3.256.957,4.944,4.944,0,0,1,.9,3.418,4.484,4.484,0,0,1-.941,3.289,4.8,4.8,0,0,1-3.375.91l-.57.012h-1.713l-.164,0h-1.562v1.066h1.9v1.914h-1.9v2.156h-2.146Zm5.3-7.062a5.059,5.059,0,0,0,2.611-.387c.221-.156.479-.6.479-1.793,0-1.547-.213-2.031-.338-2.18s-.5-.383-1.719-.383l-.57-.008h-3.621v4.75Zm-38.326-11.324a36.361,36.361,0,1,0,36.357-36.355,36.4,36.4,0,0,0-36.357,36.355Z" transform="translate(-17280.83 -21367.922)"/>
</svg>
