<svg xmlns="http://www.w3.org/2000/svg" xmlns:xlink="http://www.w3.org/1999/xlink" viewBox="0 0 80 80">
  <defs>
    <style>
      .cls-1 {
        fill-rule: evenodd;
        fill: url(#linear-gradient);
      }
    </style>
    <linearGradient id="linear-gradient" x1="0.147" y1="0.185" x2="0.868" y2="0.85" gradientUnits="objectBoundingBox">
      <stop offset="0" stop-color="#fcec94"/>
      <stop offset="0.169" stop-color="#f0c46c"/>
      <stop offset="0.502" stop-color="#fffabd"/>
      <stop offset="0.82" stop-color="#f0c46c"/>
      <stop offset="1" stop-color="#fce79a"/>
    </linearGradient>
  </defs>
  <path id="Path_1973" data-name="Path 1973" class="cls-1" d="M14061.458,21444.773a40.087,40.087,0,1,1,15.567,3.148A39.87,39.87,0,0,1,14061.458,21444.773Zm30.162-46.664a4.756,4.756,0,0,0,.136-1.133v-1.211c0-2.422-1.809-4.637-5.091-6.234a29.043,29.043,0,0,0-22.658,0c-3.283,1.6-5.091,3.813-5.091,6.234v1.211c0,2.387,1.759,4.574,4.956,6.168a5.46,5.46,0,0,0-.146,1.125v.223c-3.1,1.59-4.81,3.742-4.81,6.1v1.211a5.945,5.945,0,0,0,2.364,4.488,4.9,4.9,0,0,0-.317,1.723v1.211c0,2.422,1.809,4.637,5.091,6.234a29.093,29.093,0,0,0,22.66,0c3.282-1.6,5.091-3.812,5.091-6.234v-1.211a5.951,5.951,0,0,0-2.365-4.492,4.882,4.882,0,0,0,.316-1.719v-.223c3.1-1.586,4.81-3.742,4.81-6.094v-1.215C14096.566,21401.887,14094.812,21399.7,14091.62,21398.109Zm-15.793-.02-.9-.93-1.385.223a.07.07,0,0,1-.066-.023l-.838-.863a.074.074,0,0,1,0-.105.087.087,0,0,1,.041-.023l1.278-.2-.338-.348-1.385.223a.093.093,0,0,1-.065-.023l-.839-.867a.073.073,0,0,1,0-.105.061.061,0,0,1,.042-.02l1.277-.207-2.817-2.9a.078.078,0,0,1,0-.109.093.093,0,0,1,.041-.02l4.737-.762a9.975,9.975,0,0,1,1.613-.133,4.71,4.71,0,0,1,1.283.18,4.088,4.088,0,0,1,1.105.523,6.923,6.923,0,0,1,1.093.926,3.712,3.712,0,0,1,.721.961.753.753,0,0,1,.024.727,1.348,1.348,0,0,1-.72.5,7.773,7.773,0,0,1-1.466.355c-.951.164-1.905.313-2.858.465l.337.348,1.384-.223a.07.07,0,0,1,.066.023l.837.863a.073.073,0,0,1,0,.105.092.092,0,0,1-.041.023l-1.277.2.841.867a.078.078,0,0,1,0,.109.084.084,0,0,1-.041.02l-1.591.254a.062.062,0,0,1-.046,0l0,0A.071.071,0,0,1,14075.827,21398.09Zm.943-3.937a10.512,10.512,0,0,0,1.327-.277,1.062,1.062,0,0,0,.417-.187c.035-.035.046-.1-.021-.238a2.242,2.242,0,0,0-.405-.52,7,7,0,0,0-.676-.621,1.892,1.892,0,0,0-.5-.3h0a1.493,1.493,0,0,0-.416-.051,6.087,6.087,0,0,0-1,.09c-1,.152-2,.316-3,.477l1.949,2.008Zm-11.848-2.742a27.034,27.034,0,0,1,20.826,0c2.357,1.148,3.379,2.191,3.5,3.121.406,3.1-9.266,4.9-12.739,4.938C14066.675,21399.574,14055.768,21395.871,14064.923,21391.41Zm-2.758,16.73a8.452,8.452,0,0,1,1.74-1.352c.53,1.906,2.228,3.625,4.911,4.93a26.542,26.542,0,0,0,11.33,2.3q.624,0,1.241-.023a29.126,29.126,0,0,1-6.052.621c-4.906,0-9.387-1.172-12.057-2.973C14061.551,21410.473,14060.6,21409.766,14062.165,21408.141Zm27.041,11.078c-2.693,1.711-7.057,2.82-11.822,2.82-5.741,0-10.9-1.609-13.253-3.949a29.1,29.1,0,0,0,22.534-.055,11.269,11.269,0,0,0,3.672-2.687c.247.234.427.5.645.715C14091.773,21416.828,14090.455,21418.422,14089.206,21419.219Zm-9.06-10.918c-5.771,0-10.952-1.625-13.292-3.984a29.2,29.2,0,0,0,8.481,1.2,26.478,26.478,0,0,0,11.329-2.3,10.5,10.5,0,0,0,4.075-3.2c4.6,2.324,4.234,4.172-.226,6.262A25.272,25.272,0,0,1,14080.146,21408.3Zm-39.478-.387a36.361,36.361,0,1,0,36.356-36.355,36.4,36.4,0,0,0-36.356,36.355Z" transform="translate(-14037.03 -21367.922)"/>
</svg>
