<svg xmlns="http://www.w3.org/2000/svg" xmlns:xlink="http://www.w3.org/1999/xlink" viewBox="0 0 80 80">
  <defs>
    <style>
      .cls-1 {
        fill-rule: evenodd;
        fill: url(#linear-gradient);
      }
    </style>
    <linearGradient id="linear-gradient" x1="0.148" y1="0.185" x2="0.868" y2="0.849" gradientUnits="objectBoundingBox">
      <stop offset="0" stop-color="#fcec94"/>
      <stop offset="0.169" stop-color="#f0c46c"/>
      <stop offset="0.502" stop-color="#fffabd"/>
      <stop offset="0.82" stop-color="#f0c46c"/>
      <stop offset="1" stop-color="#fce79a"/>
    </linearGradient>
  </defs>
  <path id="Path_1333" data-name="Path 1333" class="cls-1" d="M39.99,0A39.782,39.782,0,0,1,68.262,11.724,39.756,39.756,0,0,1,79.99,39.987,39.882,39.882,0,0,1,68.262,68.276a40.006,40.006,0,0,1-43.847,8.578A40.015,40.015,0,0,1-.01,39.987,40.128,40.128,0,0,1,24.415,3.146,39.994,39.994,0,0,1,39.99,0h0Zm-.968,50.985V20.867H34.637l-5.837,6.1V50.985h-1.56V28.37l-5.81,6.1V50.985H17.448v-1.64a2.905,2.905,0,1,0-1.56,0v1.64H13.763v1.56H66.244v-1.56H64.119V49.318a2.905,2.905,0,1,0-1.56,0v1.667H58.578V39.449l-5.81-6.1v17.64h-1.56V31.946l-5.837-6.1H40.985V50.985H39.022Zm15.844-2.877h1.56V45.876h-1.56Zm0-5h1.56V40.874h-1.56Zm-8.1,5h1.56V45.876h-1.56Zm0-5h1.56V40.874h-1.56Zm0-5h1.56V35.872h-1.56Zm-2.959,10h1.56V45.876H43.81Zm0-5h1.56V40.874H43.81Zm0-5h1.56V35.872H43.81Zm0-5h1.56V30.871H43.81Zm-18.7,9.708h-1.56V40.578h1.56Zm8.1,0h-1.56V40.578h1.56Zm2.959,0H34.61V40.578h1.56ZM25.114,48.134h-1.56V45.9h1.56Zm0-9.976h-1.56V35.926h1.56Zm8.1,9.976h-1.56V45.9h1.56Zm0-9.976h-1.56V35.926h1.56Zm0-5h-1.56V30.924h1.56ZM36.17,48.134H34.61V45.9h1.56Zm0-9.976H34.61V35.926h1.56Zm0-5H34.61V30.924h1.56Zm0-5H34.61V25.923h1.56ZM39.99,76.37A36.329,36.329,0,1,0,3.648,40.04,36.375,36.375,0,0,0,39.99,76.37Z" transform="translate(0.01)"/>
</svg>
