<svg xmlns="http://www.w3.org/2000/svg" xmlns:xlink="http://www.w3.org/1999/xlink" viewBox="0 0 44.781 44.781">
  <defs>
    <style>
      .cls-1 {
        fill: url(#linear-gradient);
      }
    </style>
    <linearGradient id="linear-gradient" x1="1.168" y1="-2.8" x2="-0.093" y2="1.625" gradientUnits="objectBoundingBox">
      <stop offset="0" stop-color="#f4e3a3"/>
      <stop offset="0.155" stop-color="#fff9bc"/>
      <stop offset="0.325" stop-color="#f0c56f"/>
      <stop offset="0.529" stop-color="#fef7b9"/>
      <stop offset="0.674" stop-color="#f1c975"/>
      <stop offset="0.872" stop-color="#fef8bb"/>
      <stop offset="1" stop-color="#f0c46d"/>
    </linearGradient>
  </defs>
  <g id="smile" transform="translate(0 0)">
    <g id="Group_669" data-name="Group 669">
      <g id="Group_668" data-name="Group 668">
        <path id="Path_1937" data-name="Path 1937" class="cls-1" d="M123.146,224.248a.973.973,0,0,0-1.375.076,10.83,10.83,0,0,1-16.072,0,.973.973,0,0,0-1.451,1.3,12.777,12.777,0,0,0,18.973,0A.974.974,0,0,0,123.146,224.248Z" transform="translate(-91.345 -196.742)"/>
        <path id="Path_1938" data-name="Path 1938" class="cls-1" d="M22.39,0a22.39,22.39,0,1,0,22.39,22.39A22.416,22.416,0,0,0,22.39,0Zm0,42.834A20.443,20.443,0,1,1,42.834,22.39,20.466,20.466,0,0,1,22.39,42.834Z"/>
        <path id="Path_1939" data-name="Path 1939" class="cls-1" d="M212.867,128A4.873,4.873,0,0,0,208,132.867a.973.973,0,1,0,1.947,0,2.92,2.92,0,0,1,5.841,0,.974.974,0,1,0,1.947,0A4.873,4.873,0,0,0,212.867,128Z" transform="translate(-182.689 -112.424)"/>
        <path id="Path_1940" data-name="Path 1940" class="cls-1" d="M87.788,132.867a.973.973,0,1,0,1.947,0,4.867,4.867,0,0,0-9.735,0,.973.973,0,1,0,1.947,0,2.92,2.92,0,0,1,5.841,0Z" transform="translate(-70.265 -112.424)"/>
      </g>
    </g>
  </g>
</svg>
