<svg xmlns="http://www.w3.org/2000/svg" xmlns:xlink="http://www.w3.org/1999/xlink" viewBox="0 0 80 80">
  <defs>
    <style>
      .cls-1 {
        fill-rule: evenodd;
        fill: url(#linear-gradient);
      }
    </style>
    <linearGradient id="linear-gradient" x1="0.141" y1="0.18" x2="0.862" y2="0.847" gradientUnits="objectBoundingBox">
      <stop offset="0" stop-color="#fcec94"/>
      <stop offset="0.169" stop-color="#f0c46c"/>
      <stop offset="0.502" stop-color="#fffabd"/>
      <stop offset="0.82" stop-color="#f0c46c"/>
      <stop offset="1" stop-color="#fce79a"/>
    </linearGradient>
  </defs>
  <path id="Path_3538" data-name="Path 3538" class="cls-1" d="M20535,21399.3a39.872,39.872,0,1,1-15.574,3.143,39.743,39.743,0,0,1,15.574-3.143Zm-12.629,44.811-7.027-.346a1.264,1.264,0,0,0-1.23.908l-1.279,11.6a.767.767,0,0,0,.742,1h7.789a1.039,1.039,0,0,0,1.063-.947l.855-11.178A.962.962,0,0,0,20522.375,21444.111Zm-4.137,11.621a1.942,1.942,0,1,1,1.943-1.941A1.942,1.942,0,0,1,20518.238,21455.732Zm36.4-7.652a30.714,30.714,0,0,1-9.609,3.277c-3.129.49-9.018-.693-9.018-2.092,0-.529,5.164,1.3,8.289.473,2.393-.641,2.055-2.881.75-3.176s-8.883-3.074-12.125-3.17a55.8,55.8,0,0,0-7.119.83c-.625.1-1.018.09-1.057.688-.182,2.777-.539,8.461-.734,11.43,0,.064.084.906.779.313a3.615,3.615,0,0,1,2.818-1.145c1.551.352,14.967,2.809,16.818,2.379,2.645-.615,10.141-5.057,11.576-6.437C20558.232,21449.311,20556.5,21447.051,20554.637,21448.08Zm-17.6-30.779a12.059,12.059,0,1,0,12.059,12.059A12.057,12.057,0,0,0,20537.033,21417.3Zm-4,19.258v-2.158h-1.9v-1.918h1.9v-1.07h-1.9v-1.92h1.9v-6.686h6.33a4.373,4.373,0,0,1,3.264.959,4.949,4.949,0,0,1,.9,3.422,4.484,4.484,0,0,1-.943,3.3,4.8,4.8,0,0,1-3.381.912l-.572.01h-1.715l-.164,0h-1.568v1.072h1.9v1.916h-1.9v2.162h-2.146Zm5.311-7.074a5.084,5.084,0,0,0,2.617-.385c.221-.158.48-.6.48-1.8,0-1.545-.215-2.033-.34-2.184s-.5-.381-1.721-.381l-.572-.01h-3.627v4.762h3.162Zm-3.336,46.189a36.365,36.365,0,1,0-36.371-36.367A36.409,36.409,0,0,0,20535,21475.674Z" transform="translate(-20495 -21399.301)"/>
</svg>
