<svg xmlns="http://www.w3.org/2000/svg" xmlns:xlink="http://www.w3.org/1999/xlink" viewBox="0 0 80 80">
  <defs>
    <style>
      .cls-1 {
        fill-rule: evenodd;
        fill: url(#linear-gradient);
      }
    </style>
    <linearGradient id="linear-gradient" x1="0.141" y1="0.18" x2="0.862" y2="0.847" gradientUnits="objectBoundingBox">
      <stop offset="0" stop-color="#fcec94"/>
      <stop offset="0.169" stop-color="#f0c46c"/>
      <stop offset="0.502" stop-color="#fffabd"/>
      <stop offset="0.82" stop-color="#f0c46c"/>
      <stop offset="1" stop-color="#fce79a"/>
    </linearGradient>
  </defs>
  <path id="Path_1976" data-name="Path 1976" class="cls-1" d="M39.994,0A40.011,40.011,0,0,1,55.561,76.857,40.011,40.011,0,1,1,39.994,0h0ZM52.159,49.18a42.232,42.232,0,0,0-7.695-4.931.24.24,0,0,1-.134-.216V38.825A2.436,2.436,0,0,0,45.42,36.8V31.4a4.867,4.867,0,0,0-4.87-4.87H39.388a4.867,4.867,0,0,0-4.87,4.87v5.4a2.419,2.419,0,0,0,1.089,2.024v5.207a.239.239,0,0,1-.133.216,42.8,42.8,0,0,0-7.695,4.931,2.616,2.616,0,0,0-.956,2.024v3.7h26.29V51.2a2.612,2.612,0,0,0-.955-2.024ZM64.19,45.533a35.186,35.186,0,0,0-6.452-4.14.194.194,0,0,1-.113-.185V36.842a2.056,2.056,0,0,0,.913-1.7v-4.53a4.082,4.082,0,0,0-4.078-4.078H53.5a4.082,4.082,0,0,0-4.078,4.078v4.53a2.044,2.044,0,0,0,.914,1.7v4.366a.205.205,0,0,1-.113.185,33.737,33.737,0,0,0-3.3,1.87,43.783,43.783,0,0,1,6.534,4.377,4.615,4.615,0,0,1,1.6,2.692h9.965v-3.1a2.3,2.3,0,0,0-.832-1.7Zm-34.437-4.14a.194.194,0,0,1-.113-.185V36.842a2.058,2.058,0,0,0,.914-1.7v-4.53a4.082,4.082,0,0,0-4.079-4.078h-.986a4.082,4.082,0,0,0-4.078,4.078v4.53a2.043,2.043,0,0,0,.913,1.7v4.366a.2.2,0,0,1-.113.185,35.156,35.156,0,0,0-6.452,4.14,2.211,2.211,0,0,0-.8,1.7v3.1h9.965a4.558,4.558,0,0,1,1.6-2.692,43.891,43.891,0,0,1,6.534-4.377,34.75,34.75,0,0,0-3.308-1.87ZM39.994,76.375A36.365,36.365,0,1,0,3.624,40.007a36.411,36.411,0,0,0,36.37,36.368Z" transform="translate(0.01)"/>
</svg>
