<svg xmlns="http://www.w3.org/2000/svg" xmlns:xlink="http://www.w3.org/1999/xlink" viewBox="0 0 80 80">
  <defs>
    <style>
      .cls-1 {
        fill-rule: evenodd;
        fill: url(#linear-gradient);
      }
    </style>
    <linearGradient id="linear-gradient" x1="0.147" y1="0.185" x2="0.868" y2="0.85" gradientUnits="objectBoundingBox">
      <stop offset="0" stop-color="#fcec94"/>
      <stop offset="0.169" stop-color="#f0c46c"/>
      <stop offset="0.502" stop-color="#fffabd"/>
      <stop offset="0.82" stop-color="#f0c46c"/>
      <stop offset="1" stop-color="#fce79a"/>
    </linearGradient>
  </defs>
  <g id="square" transform="translate(-0.01)">
    <path id="Path_1329" data-name="Path 1329" class="cls-1" d="M40.01,0A39.992,39.992,0,0,1,68.293,68.284a39.967,39.967,0,0,1-56.565,0,39.964,39.964,0,0,1,0-56.568A39.89,39.89,0,0,1,40.01,0h0ZM30.7,59.318h6.784V56.3H30.7ZM49.662,38.828h2.547l-.417,2.054H45.179l.321-1.648,3.435-2.418a3.149,3.149,0,0,0,.6-.514.739.739,0,0,0,.182-.46q0-.546-.738-.546a1.536,1.536,0,0,0-1.316.728L45.9,34.87a3.816,3.816,0,0,1,1.466-1.209,4.97,4.97,0,0,1,2.2-.449,3.7,3.7,0,0,1,2.247.621,1.923,1.923,0,0,1,.856,1.616,2.276,2.276,0,0,1-.139.835,2.565,2.565,0,0,1-.567.792A9.907,9.907,0,0,1,50.711,38.1l-1.027.717Zm-6.2,7.96H39.817V39.856l-2.172,5.7H34.906l-2.172-5.7v6.933H29.084V34.131h4.43l2.761,6.612,2.761-6.612h4.43V46.789Zm12.5-8.527h3.018V31.467H55.965Zm0,11.01h3.018V42.488H55.965ZM20.278,38.261H23.3V31.467H20.278Zm0,11.01H23.3V42.488H20.278ZM54.306,20.682H52.8V23.7h1.509a1.58,1.58,0,0,1,1.584,1.584v1.509h3.018V25.283A4.608,4.608,0,0,0,54.306,20.682Zm-29.417,0a4.608,4.608,0,0,0-4.6,4.6v1.509h3.018V25.283A1.587,1.587,0,0,1,24.89,23.7H26.4V20.682H24.89ZM41.711,23.7H48.5V20.682H41.711ZM30.7,23.7h6.784V20.682H30.7ZM55.89,53.2v1.509a1.58,1.58,0,0,1-1.584,1.584H52.8v3.017h1.509a4.608,4.608,0,0,0,4.6-4.6V53.2Zm-31,3.092a1.58,1.58,0,0,1-1.584-1.584V53.2H20.288v1.509a4.608,4.608,0,0,0,4.6,4.6H26.4V56.29Zm16.822,3.017H48.5V56.29H41.711Zm-1.7,17.055A36.368,36.368,0,1,0,3.638,39.995,36.414,36.414,0,0,0,40.01,76.362Z" transform="translate(0)"/>
  </g>
</svg>
