<svg id="rub" xmlns="http://www.w3.org/2000/svg" xmlns:xlink="http://www.w3.org/1999/xlink" viewBox="0 0 80 80">
  <defs>
    <style>
      .cls-1 {
        fill-rule: evenodd;
        fill: url(#linear-gradient);
      }
    </style>
    <linearGradient id="linear-gradient" x1="0.147" y1="0.185" x2="0.868" y2="0.85" gradientUnits="objectBoundingBox">
      <stop offset="0" stop-color="#fcec94"/>
      <stop offset="0.169" stop-color="#f0c46c"/>
      <stop offset="0.502" stop-color="#fffabd"/>
      <stop offset="0.82" stop-color="#f0c46c"/>
      <stop offset="1" stop-color="#fce79a"/>
    </linearGradient>
  </defs>
  <path id="Path_1328" data-name="Path 1328" class="cls-1" d="M40,0A40.012,40.012,0,0,1,55.57,76.858,40.012,40.012,0,1,1,40,0h0Zm-10.1,57.673v-5.55H25.019V47.2h4.886V44.447H25.019V39.517h4.886V22.339H46.162c4.083,0,6.818.809,8.386,2.465s2.3,4.522,2.3,8.793c0,4.12-.79,6.892-2.421,8.473-1.612,1.568-4.459,2.339-8.687,2.339l-1.468.025H39.865l-.42.006H35.418v2.753H40.3v4.923h-4.88v5.55H29.9ZM43.547,39.5c4.434,0,6.1-.539,6.724-.991.564-.408,1.229-1.543,1.229-4.622,0-3.97-.546-5.224-.872-5.613-.307-.37-1.28-.978-4.422-.978l-1.468-.025h-9.32V39.5h8.129ZM40,76.375A36.366,36.366,0,1,0,3.632,40.006,36.412,36.412,0,0,0,40,76.375Z" transform="translate(0)"/>
</svg>
