<svg xmlns="http://www.w3.org/2000/svg" xmlns:xlink="http://www.w3.org/1999/xlink" viewBox="0 0 80 80">
  <defs>
    <style>
      .cls-1 {
        fill-rule: evenodd;
        fill: url(#linear-gradient);
      }
    </style>
    <linearGradient id="linear-gradient" x1="0.148" y1="0.185" x2="0.868" y2="0.85" gradientUnits="objectBoundingBox">
      <stop offset="0" stop-color="#fcec94"/>
      <stop offset="0.169" stop-color="#f0c46c"/>
      <stop offset="0.502" stop-color="#fffabd"/>
      <stop offset="0.82" stop-color="#f0c46c"/>
      <stop offset="1" stop-color="#fce79a"/>
    </linearGradient>
  </defs>
  <g id="earth" transform="translate(0.01)">
    <path id="Path_1327" data-name="Path 1327" class="cls-1" d="M40,0A39.995,39.995,0,0,1,79.99,40.008,39.995,39.995,0,0,1,40,80,39.995,39.995,0,0,1-.01,40.008,39.919,39.919,0,0,1,11.712,11.722,39.919,39.919,0,0,1,40,0h0ZM31.061,59.3h6.79V56.282h-6.79Zm3.517-10.048v-2.74H32.157V44.072h2.421V42.7H32.157V40.266h2.421V31.772h8.038c2.025,0,3.364.4,4.141,1.218.761.807,1.142,2.238,1.142,4.354,0,2.04-.4,3.41-1.2,4.186-.792.776-2.207,1.157-4.293,1.157l-.731.015H37.288v1.37h2.421v2.436H37.288v2.74H34.563Zm6.744-8.982c2.192,0,3.014-.274,3.319-.487.274-.2.609-.761.609-2.284,0-1.964-.274-2.588-.426-2.771s-.639-.487-2.192-.487l-.731-.015H37.288v6.044h4.019Zm15-1.994h3.014v-6.79H56.317Zm0,11.007h3.014v-6.79H56.317ZM20.648,38.272h3.014v-6.79H20.648Zm0,11.007h3.014v-6.79H20.648ZM54.658,20.7H53.151v3.014h1.507A1.592,1.592,0,0,1,56.241,25.3v1.507h3.014V25.3A4.6,4.6,0,0,0,54.658,20.7Zm-29.412,0a4.6,4.6,0,0,0-4.6,4.6v1.507h3.014V25.3a1.592,1.592,0,0,1,1.583-1.583h1.507V20.7Zm16.822,3.014h6.79V20.7h-6.79Zm-11.007,0h6.79V20.7h-6.79Zm25.18,29.488v1.507A1.592,1.592,0,0,1,54.658,56.3H53.151v3.014h1.507a4.6,4.6,0,0,0,4.6-4.6V53.206Zm-31,3.09a1.592,1.592,0,0,1-1.583-1.583V53.206H20.648v1.507a4.6,4.6,0,0,0,4.6,4.6h1.507V56.3Zm16.822,3.014h6.79V56.3h-6.79ZM40,76.362A36.354,36.354,0,1,0,3.644,40.008,36.39,36.39,0,0,0,40,76.362Z" transform="translate(0 0)"/>
  </g>
</svg>
