<svg xmlns="http://www.w3.org/2000/svg" xmlns:xlink="http://www.w3.org/1999/xlink" viewBox="0 0 80 80">
  <defs>
    <style>
      .cls-1 {
        fill-rule: evenodd;
        fill: url(#linear-gradient);
      }
    </style>
    <linearGradient id="linear-gradient" x1="0.147" y1="0.185" x2="0.868" y2="0.85" gradientUnits="objectBoundingBox">
      <stop offset="0" stop-color="#fcec94"/>
      <stop offset="0.169" stop-color="#f0c46c"/>
      <stop offset="0.502" stop-color="#fffabd"/>
      <stop offset="0.82" stop-color="#f0c46c"/>
      <stop offset="1" stop-color="#fce79a"/>
    </linearGradient>
  </defs>
  <path id="Path_1332" data-name="Path 1332" class="cls-1" d="M40,0A39.988,39.988,0,1,1,3.146,55.555,39.526,39.526,0,0,1,.01,39.988,39.938,39.938,0,0,1,3.146,24.422a39.269,39.269,0,0,1,8.579-12.707A39.763,39.763,0,0,1,40,0h0ZM18.943,32.978V55.393h.023a3.529,3.529,0,0,0,2.445,3.252l.092-.023.092.023a3.529,3.529,0,0,0,2.445-3.252h.023V32.978h-5.05ZM26,21.216V55.3a3.537,3.537,0,0,1-1.753,3.044c-.161.115-.876.461.208.484H53.028A3.528,3.528,0,0,0,56.557,55.3V21.216H26Zm7.656,3.575a.6.6,0,0,0-.646.623v3.021h-.023l-2.306-3.367a.855.855,0,0,0-.53-.277.6.6,0,0,0-.646.623v4.52a.646.646,0,0,0,1.291,0V26.959h.023l2.306,3.321a.823.823,0,0,0,.53.254.6.6,0,0,0,.646-.623v-4.52a.6.6,0,0,0-.646-.623Zm4.566,4.635H36.632V28.2h1.407a.557.557,0,1,0,0-1.107H36.632V25.944h1.5a.545.545,0,0,0,.6-.553.558.558,0,0,0-.6-.553H36.009a.624.624,0,0,0-.669.692v4.382a.6.6,0,0,0,.669.6h2.214a.555.555,0,1,0,0-1.107ZM47.1,24.791a.661.661,0,0,0-.692.577l-.738,3.39h-.023l-1.107-3.505a.715.715,0,0,0-1.338,0L42.1,28.758h-.023l-.738-3.39a.646.646,0,0,0-.692-.577.57.57,0,0,0-.6.53l.046.277,1.084,4.359a.844.844,0,0,0,.853.623A.892.892,0,0,0,42.881,30l.992-3.067H43.9L44.887,30a.87.87,0,0,0,.853.577.821.821,0,0,0,.853-.623L47.678,25.6l.046-.277a.57.57,0,0,0-.6-.53Zm3.044,1.614c0-.346.323-.507.692-.507.507,0,.784.231,1.13.231a.576.576,0,0,0,.577-.6c0-.623-1.2-.807-1.683-.807a1.931,1.931,0,0,0-2.122,1.8c0,1.845,2.86,1.291,2.86,2.237,0,.392-.3.692-.876.692-.553,0-1.038-.3-1.43-.3a.557.557,0,0,0-.577.577c0,.738,1.43.9,2.076.9a1.988,1.988,0,0,0,2.191-1.845c0-2.052-2.86-1.545-2.86-2.352Zm-20.64,7.726v2.352h23.5V34.131Zm0,7.057h23.5V38.835h-23.5Zm0,4.7h23.5V43.54h-23.5Zm0,4.7H47.124V48.244H29.506V50.6ZM39.975,76.4A36.379,36.379,0,1,0,3.585,40.012,36.435,36.435,0,0,0,39.975,76.4Z" transform="translate(-0.01)"/>
</svg>
