<svg xmlns="http://www.w3.org/2000/svg" xmlns:xlink="http://www.w3.org/1999/xlink" viewBox="0 0 256 66.221">
  <defs>
    <style>
      .cls-1, .cls-2 {
        fill-rule: evenodd;
      }

      .cls-1 {
        fill: url(#linear-gradient);
      }

      .cls-2 {
        fill: url(#linear-gradient-2);
      }

      .cls-3 {
        filter: url(#Path_468);
      }

      .cls-4 {
        filter: url(#Path_467);
      }

      .cls-5 {
        filter: url(#Path_466);
      }
    </style>
    <linearGradient id="linear-gradient" x1="0.155" y1="0.195" x2="0.869" y2="0.85" gradientUnits="objectBoundingBox">
      <stop offset="0" stop-color="#fcec94"/>
      <stop offset="0.169" stop-color="#f0c46c"/>
      <stop offset="0.502" stop-color="#fffabd"/>
      <stop offset="0.82" stop-color="#f0c46c"/>
      <stop offset="1" stop-color="#fce79a"/>
    </linearGradient>
    <filter id="Path_466" x="71.92" y="35.027" width="184.08" height="31.014" filterUnits="userSpaceOnUse">
      <feOffset dx="2" dy="3" input="SourceAlpha"/>
      <feGaussianBlur stdDeviation="1" result="blur"/>
      <feFlood flood-opacity="0.502"/>
      <feComposite operator="in" in2="blur"/>
      <feComposite in="SourceGraphic"/>
    </filter>
    <linearGradient id="linear-gradient-2" x1="0.155" y1="0.195" x2="0.869" y2="0.85" xlink:href="#linear-gradient"/>
    <filter id="Path_467" x="72.328" y="22.055" width="183.351" height="16.111" filterUnits="userSpaceOnUse">
      <feOffset dx="2" dy="3" input="SourceAlpha"/>
      <feGaussianBlur stdDeviation="1" result="blur-2"/>
      <feFlood flood-opacity="0.502"/>
      <feComposite operator="in" in2="blur-2"/>
      <feComposite in="SourceGraphic"/>
    </filter>
    <filter id="Path_468" x="0" y="0" width="68.612" height="66.221" filterUnits="userSpaceOnUse">
      <feOffset dx="2" dy="3" input="SourceAlpha"/>
      <feGaussianBlur stdDeviation="1" result="blur-3"/>
      <feFlood flood-opacity="0.502"/>
      <feComposite operator="in" in2="blur-3"/>
      <feComposite in="SourceGraphic"/>
    </filter>
  </defs>
  <g id="Group_365" data-name="Group 365" transform="translate(-79 -32)">
    <g class="cls-5" transform="matrix(1, 0, 0, 1, 79, 32)">
      <path id="Path_466-2" data-name="Path 466" class="cls-1" d="M1058.42,455.324h25.2v21.8h-3.246v-18.87h-18.712v18.87h-3.246Zm30.231,0H1109.5v2.928h-17.6v6.364h16.993v2.928H1091.9v6.651h17.6v2.928h-20.845Zm25.4,21.8v-21.8H1131.8a5.947,5.947,0,0,1,4.533,1.723,7.374,7.374,0,0,1,1.64,5.245q0,3.517-1.671,5.23a6.178,6.178,0,0,1-4.631,1.708h-14.383v7.892Zm3.245-10.82h14.383a2.785,2.785,0,0,0,2.229-.96,4.626,4.626,0,0,0,.828-3.049,4.757,4.757,0,0,0-.812-3.065,2.789,2.789,0,0,0-2.275-.976h-14.352Zm49.74,4.456a6.092,6.092,0,0,1-1.767,4.789,7.543,7.543,0,0,1-5.171,1.575h-17.47v-21.8h16.706a7.424,7.424,0,0,1,5.124,1.6,5.849,5.849,0,0,1,1.781,4.6q0,3.286-2.45,4.212a4.509,4.509,0,0,1,2.229,1.59A5.606,5.606,0,0,1,1167.031,470.758Zm-4.042-9.245a3.2,3.2,0,0,0-.764-2.3,3.886,3.886,0,0,0-2.922-.959h-13.434v6.2H1159.3a4.366,4.366,0,0,0,2.875-.72A2.818,2.818,0,0,0,1162.989,461.513Zm-17.121,5.871v6.81h14.193a3.78,3.78,0,0,0,2.785-.939,3.666,3.666,0,0,0-.017-4.916,3.751,3.751,0,0,0-2.768-.955Zm58.522,9.738h-3.246v-21.8h3.246Zm-31.5-21.8h3.246v7.987h14.362a6.1,6.1,0,0,1,4.572,1.623,7.208,7.208,0,0,1,1.719,5.251q0,3.532-1.638,5.236a6.174,6.174,0,0,1-4.662,1.7h-17.6Zm3.246,10.914v7.956h14.358a2.743,2.743,0,0,0,2.237-.976,4.712,4.712,0,0,0,.812-3.049,4.515,4.515,0,0,0-.812-2.986,2.784,2.784,0,0,0-2.237-.945Zm60.367-10.914h-4.741l-18.681,19.093V455.324h-3.246v21.8h4.9l18.521-18.935v18.935h3.246Zm-18.395-3.214h9.738v2.928h-9.738Z" transform="translate(-985.5 -417.08)"/>
    </g>
    <g class="cls-4" transform="matrix(1, 0, 0, 1, 79, 32)">
      <path id="Path_467-2" data-name="Path 467" class="cls-2" d="M1061.31,370.224h1.282v-7.532h6.669v-1.169h-7.951Zm9.337,0v-8.7h7.087a2.379,2.379,0,0,1,1.811.688,2.948,2.948,0,0,1,.654,2.095,2.883,2.883,0,0,1-.666,2.087,2.466,2.466,0,0,1-1.849.681h-5.741v3.151Zm1.3-4.319h5.741a1.114,1.114,0,0,0,.89-.383,1.846,1.846,0,0,0,.331-1.217,1.9,1.9,0,0,0-.325-1.225,1.112,1.112,0,0,0-.908-.388h-5.728Zm14.647,3.151a2.315,2.315,0,0,0,.9-.153,1.173,1.173,0,0,0,.578-.549l-6.326-6.832h1.778l5.259,5.779,3.289-5.779h1.473l-4.09,7.162a3,3,0,0,1-1.142,1.165,3.666,3.666,0,0,1-1.766.374h-2.846v-1.168Zm8.434-7.533h10.06v8.7h-1.3v-7.532h-7.47v7.532h-1.3Zm12.207,0h10.06v8.7H1116v-7.532h-7.47v7.532h-1.3Zm18.24,0,4.573,8.7h-1.462l-1.028-1.931h-6.2l-1.017,1.931h-1.46l4.573-8.7Zm1.524,5.6-2.363-4.559h-.331l-2.363,4.559Zm10.911,3.1v-8.7h1.3v3.531h1.3l5.26-3.531h2.223l-6.1,4.1,6.491,4.6h-2.134l-5.743-4h-1.3v4Zm17.312.127a14.027,14.027,0,0,1-3.785-.349,1.944,1.944,0,0,1-1.371-1.328,11.883,11.883,0,0,1-.2-2.782,12.351,12.351,0,0,1,.191-2.782,1.964,1.964,0,0,1,1.384-1.346,13.8,13.8,0,0,1,3.785-.356,13.952,13.952,0,0,1,3.779.349,1.981,1.981,0,0,1,1.379,1.34,11.971,11.971,0,0,1,.2,2.795,12.26,12.26,0,0,1-.191,2.77,1.95,1.95,0,0,1-1.373,1.34A14.087,14.087,0,0,1,1155.219,370.351Zm0-1.169q3,0,3.531-.444t.534-2.851q0-2.417-.527-2.866t-3.538-.443q-3.01,0-3.538.443t-.527,2.866q0,2.39.534,2.844T1155.219,369.182Zm9.857-7.659,4.5,7.152,4.5-7.152h2.312v8.7h-1.3v-7.532h-.254l-4.858,7.532h-.813l-4.859-7.532h-.241v7.532h-1.295v-8.7Zm13.846,0h10.06v8.7h-1.295v-7.532h-7.47v7.532h-1.3Zm18.24,0,4.573,8.7h-1.462l-1.028-1.931h-6.2l-1.017,1.931h-1.46l4.573-8.7Zm1.524,5.6-2.363-4.559h-.331l-2.363,4.559Zm4.471-5.6h1.3v3.7h7.483v-3.7h1.3v8.7h-1.3v-3.836h-7.483v3.836h-1.3Zm22.674,0h-1.892l-7.457,7.635v-7.635h-1.3v8.7h1.956l7.392-7.557v7.557h1.3Zm12.83,0h-1.894l-7.456,7.622v-7.622h-1.295v8.7h1.956l7.392-7.557v7.557h1.3Zm-7.343-1.282h3.887v1.168h-3.887Z" transform="translate(-987.98 -338.19)"/>
    </g>
    <g class="cls-3" transform="matrix(1, 0, 0, 1, 79, 32)">
      <path id="Path_468-2" data-name="Path 468" class="cls-1" d="M611.8,264.3V253.111l-2.486-3.374V264.3Zm-4.73,0V247.1l-3.816-5.187V264.3Zm-6.193,0V235.7l-6.35-8.629V264.3Zm-51.689,0V253.111l2.477-3.374V264.3Zm4.711,0V247.1l3.8-5.187V264.3Zm6.173,0V235.7l6.327-8.629V264.3Zm1.082-41.307,8.977-7.781-.007-3.366.342-.04.734,2.775s6.011-4.068,11.2-6.83a74.95,74.95,0,0,1,7.444-3.658l.651,0,0,9.1h-.638v-8.225l-16.276,9.787-.644,1.034-.823,1.3v47.224l-1.991-.006-.1-46.682-6.442,4.98-2.429.388Zm25.85-.595h-3.467v-3.131h3.467Zm-.042,27.418H583.5v-3.128h3.467Zm.007-15.687H583.5V231h3.467Zm.011-7.8h-3.467V223.2h3.467ZM587,230.2h-3.467v-3.13H587Zm-3.462,4.758H587v3.128h-3.467Zm-.025,3.931h3.47v3.128h-3.47Zm.014,3.871h3.467v3.127h-3.467Zm3.46,14.742h-3.467v-3.127h3.467Zm-3.467-6.942h3.467v3.13h-3.467Zm-.788-.743H579.26v-3.128h3.467Zm0-15.687h-3.464V231h3.464Zm.014-7.8h-3.467V223.2h3.467v3.131Zm-3.443-7.062h3.467V222.4H579.3v-3.131Zm3.455,10.931h-3.466v-3.13h3.466Zm-3.462,4.758h3.467v3.128H579.3Zm-.024,3.93h3.467v3.128h-3.467Zm.014,3.871h3.464v3.127h-3.464Zm3.46,14.742h-3.467v-3.127h3.467Zm-3.467-6.942h3.467v3.13h-3.467ZM575.762,264.3H590.5v-49.4H575.762v49.4Zm0-49.4v0Z" transform="translate(-548.19 -204.09)"/>
    </g>
  </g>
</svg>
